<svg width="3332" height="1056" viewBox="0 0 3332 1056" fill="none" xmlns="http://www.w3.org/2000/svg">
<path d="M1287.38 177.122V111.455H1570.15V177.122H1468.7V446H1388.99V177.122H1287.38ZM1689.52 302.903V446H1609.64V111.455H1686.9V241.156H1689.68C1695.34 225.692 1704.6 213.604 1717.45 204.892C1730.41 196.18 1746.25 191.824 1764.98 191.824C1782.63 191.824 1797.98 195.744 1811.05 203.585C1824.12 211.317 1834.25 222.262 1841.43 236.419C1848.73 250.576 1852.32 267.129 1852.21 286.078V446H1772.33V301.76C1772.44 287.821 1768.96 276.93 1761.88 269.089C1754.8 261.249 1744.84 257.328 1731.99 257.328C1723.6 257.328 1716.2 259.179 1709.77 262.882C1703.45 266.476 1698.5 271.649 1694.91 278.401C1691.42 285.152 1689.62 293.32 1689.52 302.903ZM2019.36 450.737C1993.12 450.737 1970.47 445.564 1951.41 435.219C1932.46 424.764 1917.87 409.899 1907.63 390.624C1897.5 371.239 1892.44 348.206 1892.44 321.526C1892.44 295.607 1897.56 272.955 1907.79 253.571C1918.03 234.078 1932.46 218.94 1951.08 208.159C1969.71 197.269 1991.65 191.824 2016.91 191.824C2034.77 191.824 2051.11 194.601 2065.92 200.155C2080.73 205.709 2093.53 213.931 2104.31 224.821C2115.09 235.711 2123.47 249.161 2129.46 265.169C2135.45 281.069 2138.45 299.31 2138.45 319.892V339.821H1920.37V293.429H2064.12C2064.01 284.935 2062 277.366 2058.08 270.723C2054.16 264.08 2048.77 258.907 2041.91 255.205C2035.16 251.393 2027.37 249.487 2018.55 249.487C2009.62 249.487 2001.61 251.502 1994.53 255.531C1987.46 259.452 1981.85 264.842 1977.71 271.703C1973.57 278.455 1971.39 286.133 1971.18 294.736V341.945C1971.18 352.181 1973.19 361.166 1977.22 368.898C1981.25 376.521 1986.97 382.456 1994.37 386.703C2001.78 390.95 2010.6 393.074 2020.83 393.074C2027.91 393.074 2034.34 392.094 2040.11 390.134C2045.88 388.173 2050.84 385.287 2054.98 381.476C2059.11 377.664 2062.22 372.982 2064.29 367.428L2137.63 369.551C2134.58 385.995 2127.88 400.316 2117.54 412.513C2107.3 424.601 2093.85 434.021 2077.19 440.773C2060.53 447.416 2041.25 450.737 2019.36 450.737ZM2259.12 302.903V446H2179.25V195.091H2255.2V241.156H2257.98C2263.54 225.801 2273.01 213.768 2286.4 205.055C2299.8 196.234 2315.75 191.824 2334.27 191.824C2351.91 191.824 2367.21 195.799 2380.17 203.749C2393.24 211.589 2403.36 222.589 2410.55 236.746C2417.85 250.794 2421.44 267.238 2421.33 286.078V446H2341.45V301.76C2341.56 287.821 2338.02 276.93 2330.84 269.089C2323.76 261.249 2313.9 257.328 2301.27 257.328C2292.88 257.328 2285.48 259.179 2279.05 262.882C2272.74 266.476 2267.84 271.649 2264.35 278.401C2260.98 285.152 2259.23 293.32 2259.12 302.903ZM2562.43 449.594C2543.92 449.594 2527.09 444.802 2511.95 435.219C2496.82 425.635 2484.73 411.26 2475.69 392.094C2466.65 372.927 2462.13 349.132 2462.13 320.709C2462.13 291.196 2466.81 266.911 2476.18 247.854C2485.54 228.796 2497.8 214.693 2512.93 205.545C2528.18 196.398 2544.57 191.824 2562.1 191.824C2575.28 191.824 2586.55 194.111 2595.92 198.685C2605.28 203.15 2613.01 208.921 2619.11 216C2625.21 223.079 2629.84 230.429 2633 238.053H2634.63V111.455H2714.51V446H2635.45V405.325H2633C2629.62 413.057 2624.83 420.299 2618.62 427.051C2612.41 433.803 2604.63 439.248 2595.26 443.386C2586.01 447.525 2575.06 449.594 2562.43 449.594ZM2590.2 387.357C2599.89 387.357 2608.17 384.634 2615.03 379.189C2621.89 373.635 2627.17 365.848 2630.87 355.83C2634.58 345.811 2636.43 334.049 2636.43 320.545C2636.43 306.824 2634.58 295.008 2630.87 285.098C2627.28 275.188 2622 267.565 2615.03 262.229C2608.17 256.893 2599.89 254.224 2590.2 254.224C2580.29 254.224 2571.9 256.947 2565.04 262.392C2558.18 267.837 2552.95 275.515 2549.36 285.425C2545.88 295.335 2544.13 307.042 2544.13 320.545C2544.13 334.049 2545.93 345.811 2549.52 355.83C2553.12 365.848 2558.29 373.635 2565.04 379.189C2571.9 384.634 2580.29 387.357 2590.2 387.357ZM2765.03 446V195.091H2842.62V240.83H2845.23C2849.81 224.277 2857.27 211.971 2867.61 203.912C2877.96 195.744 2889.99 191.661 2903.71 191.661C2907.42 191.661 2911.23 191.933 2915.15 192.477C2919.07 192.913 2922.72 193.621 2926.09 194.601V264.026C2922.28 262.719 2917.27 261.684 2911.06 260.922C2904.97 260.16 2899.52 259.778 2894.73 259.778C2885.25 259.778 2876.71 261.902 2869.08 266.149C2861.57 270.287 2855.63 276.114 2851.28 283.628C2847.03 291.033 2844.91 299.745 2844.91 309.764V446H2765.03ZM3019.94 450.247C3003.93 450.247 2989.72 447.579 2977.3 442.243C2965 436.798 2955.25 428.63 2948.06 417.74C2940.98 406.741 2937.44 392.965 2937.44 376.412C2937.44 362.473 2939.9 350.711 2944.8 341.128C2949.7 331.545 2956.45 323.758 2965.05 317.768C2973.65 311.779 2983.56 307.259 2994.78 304.21C3006 301.052 3017.98 298.928 3030.72 297.839C3044.99 296.533 3056.47 295.171 3065.19 293.756C3073.9 292.231 3080.21 290.107 3084.14 287.385C3088.16 284.553 3090.18 280.579 3090.18 275.46V274.643C3090.18 266.258 3087.29 259.778 3081.52 255.205C3075.75 250.631 3067.96 248.344 3058.16 248.344C3047.6 248.344 3039.1 250.631 3032.68 255.205C3026.25 259.778 3022.17 266.095 3020.43 274.153L2946.76 271.54C2948.93 256.294 2954.54 242.681 2963.58 230.702C2972.73 218.614 2985.25 209.139 3001.15 202.278C3017.16 195.309 3036.38 191.824 3058.82 191.824C3074.82 191.824 3089.58 193.73 3103.08 197.541C3116.59 201.244 3128.35 206.689 3138.37 213.876C3148.39 220.955 3156.12 229.667 3161.56 240.013C3167.12 250.358 3169.9 262.174 3169.9 275.46V446H3094.75V411.043H3092.79C3088.33 419.537 3082.61 426.724 3075.64 432.605C3068.78 438.486 3060.67 442.896 3051.3 445.837C3042.04 448.777 3031.59 450.247 3019.94 450.247ZM3044.6 397.974C3053.21 397.974 3060.94 396.232 3067.8 392.747C3074.77 389.262 3080.32 384.471 3084.46 378.372C3088.6 372.165 3090.67 364.977 3090.67 356.81V332.96C3088.38 334.158 3085.61 335.247 3082.34 336.227C3079.18 337.207 3075.7 338.133 3071.88 339.004C3068.07 339.875 3064.15 340.638 3060.12 341.291C3056.09 341.945 3052.23 342.544 3048.52 343.088C3041.01 344.286 3034.59 346.137 3029.25 348.642C3024.02 351.147 3019.99 354.414 3017.16 358.443C3014.44 362.364 3013.08 367.046 3013.08 372.491C3013.08 380.768 3016.02 387.084 3021.9 391.44C3027.89 395.796 3035.46 397.974 3044.6 397.974ZM3298.62 111.455V446H3218.74V111.455H3298.62Z" fill="#005CF4"/>
<path d="M1296.45 935V571.364H1454.12C1481.81 571.364 1505.07 575.092 1523.9 582.55C1542.83 590.007 1557.1 600.542 1566.69 614.155C1576.39 627.768 1581.25 643.807 1581.25 662.273C1581.25 675.649 1578.29 687.841 1572.37 698.849C1566.57 709.858 1558.4 719.091 1547.87 726.548C1537.33 733.887 1525.02 738.977 1510.93 741.818V745.369C1526.56 745.961 1540.76 749.927 1553.55 757.266C1566.33 764.486 1576.51 774.489 1584.09 787.273C1591.66 799.938 1595.45 814.853 1595.45 832.017C1595.45 851.903 1590.24 869.6 1579.83 885.107C1569.53 900.613 1554.85 912.805 1535.79 921.683C1516.73 930.561 1494.01 935 1467.61 935H1296.45ZM1395.17 856.165H1441.33C1457.9 856.165 1470.33 853.087 1478.62 846.932C1486.9 840.658 1491.05 831.425 1491.05 819.233C1491.05 810.71 1489.09 803.49 1485.19 797.571C1481.28 791.652 1475.72 787.154 1468.5 784.077C1461.4 780.999 1452.81 779.46 1442.75 779.46H1395.17V856.165ZM1395.17 718.381H1435.65C1444.29 718.381 1451.93 717.019 1458.55 714.297C1465.18 711.574 1470.33 707.668 1474 702.578C1477.79 697.37 1479.68 691.037 1479.68 683.58C1479.68 672.334 1475.66 663.752 1467.61 657.834C1459.56 651.797 1449.38 648.778 1437.07 648.778H1395.17V718.381ZM1763.24 939.972C1733.65 939.972 1708.32 934.112 1687.25 922.393C1666.18 910.556 1650.02 894.103 1638.77 873.033C1627.53 851.844 1621.91 827.282 1621.91 799.347C1621.91 771.411 1627.53 746.908 1638.77 725.838C1650.02 704.65 1666.18 688.196 1687.25 676.477C1708.32 664.64 1733.65 658.722 1763.24 658.722C1792.83 658.722 1818.17 664.64 1839.24 676.477C1860.31 688.196 1876.46 704.65 1887.71 725.838C1898.95 746.908 1904.58 771.411 1904.58 799.347C1904.58 827.282 1898.95 851.844 1887.71 873.033C1876.46 894.103 1860.31 910.556 1839.24 922.393C1818.17 934.112 1792.83 939.972 1763.24 939.972ZM1763.95 867.528C1772.24 867.528 1779.4 864.747 1785.44 859.183C1791.47 853.62 1796.15 845.689 1799.46 835.391C1802.78 825.092 1804.44 812.841 1804.44 798.636C1804.44 784.313 1802.78 772.062 1799.46 761.882C1796.15 751.584 1791.47 743.653 1785.44 738.089C1779.4 732.526 1772.24 729.744 1763.95 729.744C1755.19 729.744 1747.68 732.526 1741.4 738.089C1735.13 743.653 1730.33 751.584 1727.02 761.882C1723.71 772.062 1722.05 784.313 1722.05 798.636C1722.05 812.841 1723.71 825.092 1727.02 835.391C1730.33 845.689 1735.13 853.62 1741.4 859.183C1747.68 864.747 1755.19 867.528 1763.95 867.528ZM2075.74 939.972C2046.15 939.972 2020.82 934.112 1999.75 922.393C1978.68 910.556 1962.52 894.103 1951.27 873.033C1940.03 851.844 1934.41 827.282 1934.41 799.347C1934.41 771.411 1940.03 746.908 1951.27 725.838C1962.52 704.65 1978.68 688.196 1999.75 676.477C2020.82 664.64 2046.15 658.722 2075.74 658.722C2105.33 658.722 2130.67 664.64 2151.74 676.477C2172.81 688.196 2188.96 704.65 2200.21 725.838C2211.45 746.908 2217.08 771.411 2217.08 799.347C2217.08 827.282 2211.45 851.844 2200.21 873.033C2188.96 894.103 2172.81 910.556 2151.74 922.393C2130.67 934.112 2105.33 939.972 2075.74 939.972ZM2076.45 867.528C2084.74 867.528 2091.9 864.747 2097.94 859.183C2103.97 853.62 2108.65 845.689 2111.96 835.391C2115.28 825.092 2116.94 812.841 2116.94 798.636C2116.94 784.313 2115.28 772.062 2111.96 761.882C2108.65 751.584 2103.97 743.653 2097.94 738.089C2091.9 732.526 2084.74 729.744 2076.45 729.744C2067.69 729.744 2060.18 732.526 2053.9 738.089C2047.63 743.653 2042.83 751.584 2039.52 761.882C2036.21 772.062 2034.55 784.313 2034.55 798.636C2034.55 812.841 2036.21 825.092 2039.52 835.391C2042.83 845.689 2047.63 853.62 2053.9 859.183C2060.18 864.747 2067.69 867.528 2076.45 867.528ZM2344.92 870.369L2345.63 753.892H2358.41L2424.46 662.273H2534.55L2423.75 805.028H2396.05L2344.92 870.369ZM2256.85 935V571.364H2354.86V935H2256.85ZM2425.17 935L2362.67 827.045L2426.59 757.443L2537.39 935H2425.17ZM2560.07 935V662.273H2658.08V935H2560.07ZM2609.08 633.864C2595.82 633.864 2584.46 629.484 2574.99 620.724C2565.52 611.965 2560.78 601.43 2560.78 589.119C2560.78 576.809 2565.52 566.274 2574.99 557.514C2584.46 548.755 2595.82 544.375 2609.08 544.375C2622.45 544.375 2633.82 548.755 2643.17 557.514C2652.64 566.274 2657.37 576.809 2657.37 589.119C2657.37 601.43 2652.64 611.965 2643.17 620.724C2633.82 629.484 2622.45 633.864 2609.08 633.864ZM2806.03 781.591V935H2708.02V662.273H2801.06V714.119H2803.9C2809.82 696.837 2820.24 683.284 2835.15 673.459C2850.19 663.634 2867.7 658.722 2887.71 658.722C2907 658.722 2923.75 663.161 2937.96 672.038C2952.28 680.798 2963.35 692.872 2971.16 708.26C2979.09 723.648 2983 741.226 2982.88 760.994V935H2884.87V781.591C2884.99 768.097 2881.55 757.502 2874.57 749.808C2867.7 742.114 2858.12 738.267 2845.81 738.267C2837.76 738.267 2830.71 740.043 2824.68 743.594C2818.76 747.027 2814.2 751.998 2811 758.509C2807.81 764.901 2806.15 772.595 2806.03 781.591ZM3162.66 1042.95C3135.31 1042.95 3111.88 1039.05 3092.34 1031.24C3072.93 1023.54 3057.84 1012.89 3047.07 999.276C3036.41 985.781 3030.44 970.275 3029.13 952.756H3123.59C3124.54 958.556 3126.91 963.232 3130.7 966.783C3134.48 970.334 3139.34 972.879 3145.26 974.418C3151.29 976.075 3158.04 976.903 3165.5 976.903C3178.16 976.903 3188.64 973.826 3196.92 967.67C3205.33 961.515 3209.53 950.388 3209.53 934.29V888.125H3206.69C3203.14 897.358 3197.69 905.23 3190.36 911.74C3183.02 918.132 3174.2 923.045 3163.9 926.477C3153.6 929.792 3142.3 931.449 3129.99 931.449C3110.57 931.449 3092.7 926.951 3076.36 917.955C3060.15 908.958 3047.13 894.695 3037.3 875.163C3027.59 855.632 3022.74 830.123 3022.74 798.636C3022.74 765.729 3027.83 738.977 3038.01 718.381C3048.31 697.784 3061.57 682.692 3077.78 673.104C3094.12 663.516 3111.28 658.722 3129.28 658.722C3142.77 658.722 3154.61 661.089 3164.79 665.824C3174.97 670.44 3183.49 676.655 3190.36 684.467C3197.22 692.161 3202.43 700.625 3205.98 709.858H3208.11V662.273H3306.12V934.29C3306.12 957.372 3300.14 976.963 3288.19 993.061C3276.35 1009.28 3259.66 1021.65 3238.12 1030.17C3216.57 1038.69 3191.42 1042.95 3162.66 1042.95ZM3166.21 861.847C3175.2 861.847 3182.9 859.361 3189.29 854.389C3195.8 849.299 3200.77 842.079 3204.2 832.727C3207.76 823.258 3209.53 811.894 3209.53 798.636C3209.53 785.142 3207.76 773.601 3204.2 764.013C3200.77 754.306 3195.8 746.908 3189.29 741.818C3182.9 736.61 3175.2 734.006 3166.21 734.006C3157.21 734.006 3149.52 736.61 3143.12 741.818C3136.85 746.908 3132 754.306 3128.57 764.013C3125.25 773.601 3123.59 785.142 3123.59 798.636C3123.59 812.131 3125.25 823.613 3128.57 833.082C3132 842.434 3136.85 849.595 3143.12 854.567C3149.52 859.42 3157.21 861.847 3166.21 861.847Z" fill="#005CF4"/>
<path d="M1060.45 153.002L1064.23 924.001" stroke="black" stroke-width="40" stroke-linecap="round"/>
<path d="M144 0V0C233.47 0 306 72.5299 306 162V951L269.124 925.614C247.805 910.938 228.554 893.464 211.887 873.662V873.662C168.042 821.566 144 755.663 144 687.572V0Z" fill="#005CF4"/>
<rect y="327" width="306" height="165" fill="#005CF4"/>
<path d="M306 327H467.718L498 328V492H306V327Z" fill="#005CF4"/>
<path d="M544.789 646.526C542.05 700.564 500.449 759 473.255 759C437.862 759 403.001 698.054 403 649.816C402.998 596.202 433.128 559 473.255 559C513.381 559 547.341 596.202 544.789 646.526Z" fill="#1AB700"/>
<ellipse cx="473.939" cy="634.393" rx="22.8807" ry="24.3621" fill="white"/>
<rect x="143.996" y="327" width="162" height="165" fill="#99BFFF"/>
<path fill-rule="evenodd" clip-rule="evenodd" d="M616.442 359.126C572.149 337.974 523.727 327 474.69 327L474.69 490.5C500 491 524.527 494.839 547.177 505.655C569.826 516.471 589.795 532.221 605.635 551.76C621.475 571.299 632.787 594.138 638.751 618.619C640.311 625.02 641.495 631.491 642.302 638H642.297C642.428 639.044 642.549 640.088 642.661 641.134C643.985 653.706 643.908 666.397 642.427 678.969C642.346 679.646 642.261 680.323 642.172 681H642.175C641.64 685.115 640.954 689.215 640.117 693.293C638.77 699.861 637.82 706.657 636.868 713.474C634.242 732.278 631.593 751.24 620.5 766C605.386 786.111 584.239 810.354 562 822C539.761 833.646 511.889 844.574 486.83 845.5C461.771 846.426 433.03 844.972 410 835L392 828.658L373.5 817L349 799.5V965.5C394.036 985.001 437.826 992.587 486.83 990.776C535.834 988.964 583.822 976.209 627.311 953.435C670.8 930.661 708.698 898.441 738.255 859.112C767.812 819.784 788.286 774.334 798.191 726.062C801.249 711.159 803.276 696.103 804.274 681H804.277L804.281 680.895C804.737 673.952 804.977 667 804.998 660.047L805 660L804.999 659.955C805.019 652.684 804.803 645.414 804.348 638.156L804.344 638H804.339C803.11 618.511 800.169 599.113 795.521 580.033C783.857 532.159 761.735 487.497 730.76 449.287C699.784 411.076 660.734 380.278 616.442 359.126ZM804.339 638H642.302C642.431 639.044 642.551 640.088 642.661 641.134C644.003 653.71 643.924 666.409 642.427 678.969C642.347 679.646 642.263 680.323 642.175 681H804.274C804.276 680.965 804.279 680.93 804.281 680.895L804.998 660.047C804.998 660.016 804.999 659.986 804.999 659.955L804.672 649L804.348 638.156C804.345 638.104 804.342 638.052 804.339 638Z" fill="#005CF4"/>
<path d="M802.434 697.563C797.981 741.1 784.993 783.33 764.218 821.821C743.443 860.312 715.291 894.302 681.384 921.835C647.477 949.369 608.484 969.9 566.651 982.248C524.818 994.596 480.971 998.516 437.636 993.782C394.301 989.048 352.334 975.754 314.152 954.666C275.969 933.578 242.326 905.112 215.159 870.907C187.992 836.702 167.839 797.435 155.859 755.367C143.879 713.298 140.311 669.259 145.358 625.787L304.676 644.301C302.078 666.677 303.915 689.344 310.081 710.996C316.247 732.649 326.62 752.86 340.603 770.466C354.586 788.071 371.902 802.722 391.555 813.577C411.208 824.431 432.808 831.273 455.113 833.71C477.418 836.146 499.986 834.128 521.517 827.773C543.049 821.418 563.119 810.85 580.571 796.679C598.023 782.507 612.513 765.012 623.206 745.201C633.899 725.39 640.584 703.654 642.876 681.245L802.434 697.563Z" fill="#005CF4"/>
</svg>
