<?xml version="1.0" encoding="UTF-8"?>
<svg version="1.1" xmlns="http://www.w3.org/2000/svg" width="512" height="512">
<path d="M0 0 C0.99660645 0.19335938 1.99321289 0.38671875 3.02001953 0.5859375 C49.47365335 9.76476193 92.27640218 30.69306284 127 63 C128.39160821 64.2131969 129.78727188 65.42176214 131.1875 66.625 C137.65718811 72.27623359 143.48510243 78.41972449 149 85 C149.42410156 85.50499023 149.84820312 86.00998047 150.28515625 86.53027344 C162.55286827 101.23273332 173.13262709 117.02708256 182 134 C182.59095459 135.11689209 182.59095459 135.11689209 183.19384766 136.25634766 C194.72239556 158.31274906 202.50044698 182.55056543 207 207 C207.16081055 207.80066895 207.32162109 208.60133789 207.48730469 209.42626953 C212.9794441 237.50412453 212.73396692 270.98977935 207 299 C206.80664062 299.99660645 206.61328125 300.99321289 206.4140625 302.02001953 C198.47427489 342.20294157 181.8327458 380.10665992 156 412 C155.29746094 412.89460938 154.59492188 413.78921875 153.87109375 414.7109375 C131.81362352 442.41479514 104.3006232 464.5476448 73 481 C72.25105469 481.39687012 71.50210937 481.79374023 70.73046875 482.20263672 C48.67880409 493.72673427 24.44303189 501.5016253 0 506 C-0.80066895 506.16081055 -1.60133789 506.32162109 -2.42626953 506.48730469 C-30.50412453 511.9794441 -63.98977935 511.73396692 -92 506 C-93.49490967 505.70996094 -93.49490967 505.70996094 -95.02001953 505.4140625 C-135.20294157 497.47427489 -173.10665992 480.8327458 -205 455 C-205.89460938 454.29746094 -206.78921875 453.59492188 -207.7109375 452.87109375 C-235.41479514 430.81362352 -257.5476448 403.3006232 -274 372 C-274.39687012 371.25105469 -274.79374023 370.50210937 -275.20263672 369.73046875 C-286.72673427 347.67880409 -294.5016253 323.44303189 -299 299 C-299.24121582 297.79899658 -299.24121582 297.79899658 -299.48730469 296.57373047 C-304.9794441 268.49587547 -304.73396692 235.01022065 -299 207 C-298.70996094 205.50509033 -298.70996094 205.50509033 -298.4140625 203.97998047 C-289.23478744 157.52406603 -268.30554139 114.72686402 -236 80 C-234.80778787 78.6290837 -233.62008001 77.25423376 -232.4375 75.875 C-226.41738238 69.00076958 -219.96227821 62.98465851 -212.828125 57.2734375 C-211.02615055 55.82488898 -209.24248128 54.35305078 -207.484375 52.8515625 C-194.55811998 41.86821084 -180.01113241 32.84245309 -165 25 C-164.25540527 24.60603027 -163.51081055 24.21206055 -162.74365234 23.80615234 C-140.68725094 12.27760444 -116.44943457 4.49955302 -92 0 C-91.19933105 -0.16081055 -90.39866211 -0.32162109 -89.57373047 -0.48730469 C-61.49587547 -5.9794441 -28.01022065 -5.73396692 0 0 Z " fill="#1B7DD9" transform="translate(302,3)"/>
<path d="M0 0 C64.02 0 128.04 0 194 0 C193.30210298 6.28107318 192.44938752 11.67498662 190.6875 17.625 C190.23743673 19.18855924 189.7882331 20.75236615 189.33984375 22.31640625 C189.00315674 23.48260498 189.00315674 23.48260498 188.65966797 24.67236328 C187.28856306 29.51030341 186.05394058 34.38535309 184.796875 39.25390625 C184 42 184 42 183 43 C179.97022196 43.08871273 176.96332978 43.1151935 173.93359375 43.09765625 C173.02497086 43.0962413 172.11634796 43.09482635 171.18019104 43.09336853 C168.26592779 43.08775193 165.35174019 43.07519665 162.4375 43.0625 C160.46679798 43.05748714 158.49609476 43.05292386 156.52539062 43.04882812 C151.68356441 43.03777711 146.84179505 43.02050138 142 43 C142.55429687 44.15467773 143.10859375 45.30935547 143.6796875 46.49902344 C144.41166574 48.03570852 145.14342499 49.57249792 145.875 51.109375 C146.42220703 52.24705322 146.42220703 52.24705322 146.98046875 53.40771484 C150.50772526 60.83900299 153 67.70594911 153 76 C166.53 76 180.06 76 194 76 C192.82278598 82.4746771 191.67198581 88.69367575 190.08984375 95.0390625 C189.91747696 95.73139984 189.74511017 96.42373718 189.56752014 97.13705444 C189.20877174 98.57406182 188.84829315 100.01063837 188.48608398 101.44677734 C187.93003926 103.65462383 187.38171968 105.86429782 186.83398438 108.07421875 C186.48222442 109.4792803 186.13002761 110.88423257 185.77734375 112.2890625 C185.46015381 113.55443848 185.14296387 114.81981445 184.81616211 116.12353516 C184 119 184 119 183 120 C180.70848583 120.08790975 178.41427476 120.10694038 176.12109375 120.09765625 C175.09110008 120.09553383 175.09110008 120.09553383 174.04029846 120.09336853 C171.83932199 120.08775479 169.63844591 120.07520007 167.4375 120.0625 C165.94856917 120.05748676 164.45963676 120.05292355 162.97070312 120.04882812 C159.31376925 120.03778093 155.65689442 120.02050713 152 120 C152.02505615 121.06081787 152.0501123 122.12163574 152.07592773 123.21459961 C151.97758019 128.11774652 150.69427472 131.98079285 149.0625 136.5625 C148.59324097 137.88205688 148.59324097 137.88205688 148.11450195 139.22827148 C139.42898511 162.55053202 121.99402811 177.6858512 99.92407227 187.95751953 C94.35297269 190.48187749 88.6937559 192.76817906 83 195 C83.37697021 195.45737549 83.75394043 195.91475098 84.14233398 196.38598633 C94.20147075 208.59201147 104.23349425 220.81882129 114.20336914 233.09790039 C117.29491428 236.90465036 120.39212113 240.70655962 123.5 244.5 C127.74954171 249.68694061 131.97655773 254.89199885 136.203125 260.09765625 C139.29479333 263.90445347 142.39204863 267.70647112 145.5 271.5 C149.29928432 276.13964647 153.08972481 280.78642154 156.875 285.4375 C157.43509766 286.12457031 157.99519531 286.81164062 158.57226562 287.51953125 C159.61093604 288.79672987 160.64663378 290.07635435 161.67871094 291.35888672 C162.73807303 292.67467237 163.80863642 293.98143632 164.8828125 295.28515625 C166 297 166 297 166 300 C155.98600102 300.23231403 145.97264892 300.40968773 135.95649815 300.51812172 C131.30474336 300.5701827 126.65483973 300.64071579 122.00415039 300.75439453 C117.51061442 300.86353693 113.01885139 300.92293952 108.52409172 300.94877243 C106.81472811 300.96716543 105.10545519 301.00308702 103.39685249 301.05730057 C90.02228691 301.46456061 90.02228691 301.46456061 84.97441101 297.80883789 C82.70532041 295.31222768 80.8290722 292.82852976 79 290 C78.19949219 289.04609375 77.39898437 288.0921875 76.57421875 287.109375 C75.95160156 286.33078125 75.32898438 285.5521875 74.6875 284.75 C71.19567292 280.43549115 67.62423581 276.20290489 64 272 C59.7001015 267.01074306 55.49514122 261.95778266 51.34375 256.84375 C48.60697862 253.52313406 45.80893615 250.25956291 43 247 C38.67827137 241.98408311 34.44520804 236.90824701 30.26953125 231.76953125 C25.91494206 226.45558334 21.44921565 221.23473234 17 216 C10.2539213 208.06288948 3.55347341 200.09775725 -3 192 C-3.69262939 191.31526611 -4.38525879 190.63053223 -5.09887695 189.92504883 C-7.76195786 185.82765929 -7.50688128 182.54339645 -7.390625 177.76171875 C-7.38496521 176.88095169 -7.37930542 176.00018463 -7.37347412 175.09272766 C-7.3511533 172.29042307 -7.30096577 169.48941554 -7.25 166.6875 C-7.22992941 164.78322164 -7.21167961 162.87892316 -7.1953125 160.97460938 C-7.15130267 156.31590947 -7.08230549 151.65817435 -7 147 C-5.99094353 146.99453156 -5.99094353 146.99453156 -4.96150208 146.98895264 C2.09656224 146.94685291 9.1539928 146.87731778 16.21166992 146.79248047 C18.83888381 146.76440953 21.46617997 146.74312667 24.09350586 146.72900391 C27.88958442 146.70738204 31.684688 146.66063158 35.48046875 146.609375 C37.21722115 146.60753204 37.21722115 146.60753204 38.98905945 146.60565186 C50.14125573 146.40933879 61.52858066 144.28529444 69.765625 136.28515625 C74.47920723 131.284402 75.96128004 127.83711991 79 121 C48.64 120.67 18.28 120.34 -13 120 C-9.33333333 105.33333333 -5.66666667 90.66666667 -2 76 C24.4 76 50.8 76 78 76 C72.74823777 67.56564725 72.74823777 67.56564725 65.875 62.5 C65.06804687 62.0565625 64.26109375 61.613125 63.4296875 61.15625 C56.82016329 58.01088156 50.95625174 56.89937502 43.62744141 56.79467773 C42.38660797 56.77473251 41.14577454 56.75478729 39.86734009 56.73423767 C38.52874879 56.71725879 37.19015623 56.70037979 35.8515625 56.68359375 C34.47007665 56.66299822 33.08859673 56.6420011 31.7071228 56.62062073 C28.08718702 56.56566822 24.46719692 56.51614176 20.84716797 56.46777344 C17.14676125 56.41736139 13.44643253 56.36177862 9.74609375 56.30664062 C2.49746205 56.19938759 -4.75123491 56.097871 -12 56 C-11.08060074 45.53587319 -11.08060074 45.53587319 -9.765625 40.546875 C-9.52070313 39.59554687 -9.27578125 38.64421875 -9.0234375 37.6640625 C-8.76820313 36.70242187 -8.51296875 35.74078125 -8.25 34.75 C-5.22873739 23.21722339 -2.64593729 11.64212409 0 0 Z " fill="#FDFEFE" transform="translate(165,106)"/>
</svg>
