<?xml version="1.0" encoding="UTF-8"?>
<svg version="1.1" xmlns="http://www.w3.org/2000/svg" width="128" height="128">
<path d="M0 0 C4.25247814 4.43382049 7.14107 10.05037566 10.25 15.3125 C10.80429687 16.24384766 11.35859375 17.17519531 11.9296875 18.13476562 C13.28982624 20.42120575 14.64647544 22.70964036 16 25 C16.94359375 24.87431641 16.94359375 24.87431641 17.90625 24.74609375 C23.5314382 24.0768319 28.41233867 24.06872311 34 25 C34.58007812 24.02160156 35.16015625 23.04320313 35.7578125 22.03515625 C47.79189575 1.80540283 47.79189575 1.80540283 52 -1 C55.78152089 -1.22872102 59.03701711 -0.78242359 62 1.625 C63.38888134 4.92359319 63.24698792 7.43591773 63 11 C61.68652344 14.0703125 61.68652344 14.0703125 59.859375 17.125 C59.20066406 18.24390625 58.54195313 19.3628125 57.86328125 20.515625 C57.15926548 21.6773327 56.45483538 22.8387894 55.75 24 C55.05978734 25.16062063 54.37097265 26.32207383 53.68359375 27.484375 C48.29697728 36.56317713 48.29697728 36.56317713 46.64941406 38.98657227 C43.28876966 44.06452709 43.34000026 49.05212604 43.25 54.9375 C43.1675 58.258125 43.085 61.57875 43 65 C31.12 65 19.24 65 7 65 C7.061875 60.359375 7.061875 60.359375 7.125 55.625 C6.83590197 43.67312787 2.44815494 35.76725785 -4 26 C-5.32204741 23.92815602 -6.62949186 21.8490049 -7.91992188 19.75732422 C-8.69674239 18.5036467 -9.49119152 17.26064031 -10.30664062 16.03173828 C-12.93210663 11.88507442 -13.48925855 8.86311211 -13 4 C-9.89369864 -1.62092626 -5.85907194 -1.4390703 0 0 Z " fill="#3182FF" transform="translate(39,63)"/>
<path d="M0 0 C5.30676971 4.09063498 7.78018599 7.65896904 9 14.3125 C9.09530915 20.38051605 7.97557292 24.56389901 4 29.3125 C-0.0239438 33.12465729 -3.75425929 35.26484638 -9.39453125 35.34765625 C-16.31860047 34.9220388 -20.41358094 33.04260901 -25.25 27.9375 C-28.7985838 22.6146243 -29.47007413 18.10407819 -28.66796875 11.84765625 C-27.21990182 6.35177651 -23.80973073 2.69134246 -19.375 -0.6875 C-13.12418968 -2.53959195 -5.92569979 -3.14842796 0 0 Z M-5.04296875 12.0625 C-6.10451172 13.17625 -6.10451172 13.17625 -7.1875 14.3125 C-7.90292969 15.055 -8.61835937 15.7975 -9.35546875 16.5625 C-9.89816406 17.14 -10.44085938 17.7175 -11 18.3125 C-12.46484375 17.01041667 -13.9296875 15.70833333 -15.39453125 14.40625 C-17.089448 13.03098759 -17.089448 13.03098759 -20 13.3125 C-18.61811547 16.52293882 -17.07578097 18.36186365 -14.375 20.5625 C-13.74335937 21.08328125 -13.11171875 21.6040625 -12.4609375 22.140625 C-11.97882812 22.52734375 -11.49671875 22.9140625 -11 23.3125 C-9.16052663 21.52677748 -7.32842259 19.73447551 -5.5 17.9375 C-4.97535156 17.42960937 -4.45070313 16.92171875 -3.91015625 16.3984375 C-2.56846819 15.07417396 -1.28004185 13.69644135 0 12.3125 C0 11.6525 0 10.9925 0 10.3125 C-3.06860631 9.98722392 -3.06860631 9.98722392 -5.04296875 12.0625 Z " fill="#3281FF" transform="translate(74,1.6875)"/>
<path d="M0 0 C5.74221273 4.88698955 5.74221273 4.88698955 6.23828125 8.953125 C6.41708799 14.486723 5.86787679 17.72497829 2 22 C-2.34440676 25.13201418 -5.75873476 25.3717532 -10.8828125 24.578125 C-14.71434103 23.53187736 -17.0994959 21.5178108 -19.10546875 18.13671875 C-20.64783835 14.45254333 -20.53049291 10.91748612 -20 7 C-18.17499123 2.89373027 -16.28068781 0.82491771 -12.25 -1 C-7.79627888 -2.39334292 -4.19886891 -2.00971503 0 0 Z " fill="#3281FF" transform="translate(71,57)"/>
<path d="M0 0 C0.99 0 1.98 0 3 0 C4.25664978 2.90600261 5 4.79604584 5 8 C7.97 8 10.94 8 14 8 C14.33 9.32 14.66 10.64 15 12 C14.154375 12.474375 13.30875 12.94875 12.4375 13.4375 C9.76737254 15.68562949 9.76737254 15.68562949 9.890625 18.26953125 C10.16290077 20.54446693 10.51676686 22.7608603 11 25 C9.125 25.59375 9.125 25.59375 7 26 C5.66666667 25 4.33333333 24 3 23 C-0.06711564 23.27882869 -1.36370706 24.24247137 -4 26 C-5.32 26 -6.64 26 -8 26 C-7.86980469 25.32453125 -7.73960938 24.6490625 -7.60546875 23.953125 C-7.185294 21.23573314 -6.87932564 18.74965143 -7 16 C-9.24122355 13.30211406 -9.24122355 13.30211406 -12 12 C-11.67 10.68 -11.34 9.36 -11 8 C-9.741875 7.979375 -8.48375 7.95875 -7.1875 7.9375 C-4.98300672 7.76957465 -4.98300672 7.76957465 -3 7 C-1.31016493 4.71019091 -0.81037139 2.78565167 0 0 Z " fill="#15A4FF" transform="translate(99,22)"/>
<path d="M0 0 C1.875 0.125 1.875 0.125 4 1 C5.25 4.0625 5.25 4.0625 6 7 C8.64 7.33 11.28 7.66 14 8 C14.33 9.32 14.66 10.64 15 12 C14.154375 12.45375 13.30875 12.9075 12.4375 13.375 C9.74326942 15.70821317 9.74326942 15.70821317 9.890625 18.4921875 C10.16303387 21.02272251 10.51837295 23.50126162 11 26 C7.62537285 25.45276317 5.91765 24.9451 3 23 C-0.03452373 23.37931547 -1.37561021 24.25040681 -4 26 C-6.1875 25.625 -6.1875 25.625 -8 25 C-7.86980469 24.39671875 -7.73960938 23.7934375 -7.60546875 23.171875 C-7.18023956 20.70793017 -6.87949328 18.50051454 -7 16 C-9.26092815 13.37107214 -9.26092815 13.37107214 -12 12 C-11.67 10.68 -11.34 9.36 -11 8 C-8.03 8 -5.06 8 -2 8 C-1.7834375 6.576875 -1.7834375 6.576875 -1.5625 5.125 C-1 2 -1 2 0 0 Z " fill="#4867FF" transform="translate(26,22)"/>
</svg>
