<?xml version="1.0" encoding="UTF-8"?>
<svg version="1.1" xmlns="http://www.w3.org/2000/svg" width="128" height="128">
<path d="M0 0 C1.24996262 -0.00428513 2.49992523 -0.00857025 3.7877655 -0.01298523 C7.09614229 -0.02017037 10.40433547 -0.01712509 13.71270752 -0.01141357 C15.72435808 -0.01171783 17.735713 -0.02174435 19.74731445 -0.03540039 C23.64418123 -0.06003837 27.54056467 -0.0640506 31.4375 -0.0625 C33.21771294 -0.07631462 33.21771294 -0.07631462 35.03388977 -0.09040833 C45.32834358 -0.03389083 54.86112261 1.19233259 62.90234375 8.10546875 C68.880137 14.61616605 71.26631897 21.26523552 71.29296875 30.05078125 C71.19819933 32.13570848 71.08415876 34.2203285 70.91796875 36.30078125 C71.84609375 36.67203125 71.84609375 36.67203125 72.79296875 37.05078125 C75.43373321 38.60417211 75.97348193 39.3906112 76.91796875 42.30078125 C77.13600572 44.99367941 77.24272877 47.54843248 77.23046875 50.23828125 C77.24658203 50.94146484 77.26269531 51.64464844 77.27929688 52.36914062 C77.28349409 56.84756579 76.76091594 59.79203846 73.91796875 63.30078125 C72.43296875 63.79578125 72.43296875 63.79578125 70.91796875 64.30078125 C70.964375 65.12320313 71.01078125 65.945625 71.05859375 66.79296875 C71.36399053 76.23845497 69.93587593 82.73080753 64.73046875 90.61328125 C55.22561287 99.6956991 44.37932719 100.61114779 31.80078125 100.6015625 C29.92227982 100.60799019 29.92227982 100.60799019 28.00582886 100.61454773 C25.36490714 100.6202738 22.72437848 100.62174728 20.08349609 100.61645508 C17.39322214 100.61181836 14.70339948 100.61876149 12.01318359 100.63696289 C8.10891125 100.66157065 4.20512178 100.66561429 0.30078125 100.6640625 C-1.48717361 100.67787712 -1.48717361 100.67787712 -3.31124878 100.69197083 C-13.97609654 100.63342373 -23.26088753 99.02122355 -31.08203125 91.30078125 C-38.25045639 82.69867108 -39.39295194 74.24337045 -39.3828125 63.37109375 C-39.38709763 62.34071991 -39.39138275 61.31034607 -39.39579773 60.24874878 C-39.40151594 58.07876314 -39.40205989 55.90875834 -39.39770508 53.73876953 C-39.39454745 50.44269669 -39.41802852 47.14752451 -39.44335938 43.8515625 C-39.44563305 41.73307404 -39.44633555 39.61458319 -39.4453125 37.49609375 C-39.45452225 36.52286163 -39.46373199 35.54962952 -39.47322083 34.54690552 C-39.40628045 24.50476719 -37.2986856 15.61156588 -30.08203125 8.30078125 C-20.79032331 0.5576913 -11.70072644 -0.00893981 0 0 Z M-26.08203125 17.30078125 C-29.71089011 24.10791072 -30.68012118 30.36719919 -30.61328125 37.98828125 C-30.61710815 38.97143311 -30.62093506 39.95458496 -30.62487793 40.9675293 C-30.62758129 43.03142327 -30.62033152 45.09535245 -30.60351562 47.15917969 C-30.58208374 50.29310511 -30.60337186 53.42473844 -30.62890625 56.55859375 C-30.62626269 58.57682791 -30.62113714 60.59506065 -30.61328125 62.61328125 C-30.62137817 63.5364917 -30.6294751 64.45970215 -30.63781738 65.41088867 C-30.53909877 72.36282349 -29.2531625 79.36081004 -24.77648926 84.92285156 C-17.38648676 91.65273129 -8.77530949 91.74866677 0.6328125 91.69921875 C1.84312637 91.70208893 3.05344025 91.70495911 4.3004303 91.70791626 C6.85125193 91.70995104 9.40208938 91.70446239 11.95288086 91.69189453 C15.83938809 91.67584764 19.7248532 91.69175717 23.61132812 91.7109375 C26.09765853 91.70895469 28.58398829 91.70511024 31.0703125 91.69921875 C32.22369614 91.70529144 33.37707977 91.71136414 34.56541443 91.71762085 C42.48889657 91.64917201 49.57478863 91.13521657 55.79296875 85.86328125 C56.84484375 84.59484375 56.84484375 84.59484375 57.91796875 83.30078125 C58.43230469 82.70265625 58.94664063 82.10453125 59.4765625 81.48828125 C61.19416612 78.88161992 61.6164493 76.81032652 62.10546875 73.73828125 C62.26402344 72.78824219 62.42257813 71.83820313 62.5859375 70.859375 C62.9823147 68.23494691 62.9823147 68.23494691 62.91796875 65.30078125 C61.72300781 65.26210937 61.72300781 65.26210937 60.50390625 65.22265625 C53.00732602 64.82137945 48.55286493 63.93567743 43.10546875 58.48828125 C40.72397614 54.10132117 40.67431405 50.3450157 41.79296875 45.55078125 C42.16421875 44.47828125 42.53546875 43.40578125 42.91796875 42.30078125 C43.24796875 41.31078125 43.57796875 40.32078125 43.91796875 39.30078125 C45.85546875 38.17578125 45.85546875 38.17578125 47.91796875 37.30078125 C48.90796875 36.80578125 48.90796875 36.80578125 49.91796875 36.30078125 C52.12233275 36.07127806 54.33189048 35.89002192 56.54296875 35.73828125 C58.32574219 35.61259766 58.32574219 35.61259766 60.14453125 35.484375 C61.05976562 35.42378906 61.975 35.36320312 62.91796875 35.30078125 C62.51164662 27.42653866 61.90951665 21.77744502 56.60546875 15.61328125 C51.06011495 10.84169775 45.72111971 9.1916236 38.55786133 9.13964844 C37.48607132 9.13004089 36.41428131 9.12043335 35.31001282 9.11053467 C34.15583359 9.10628479 33.00165436 9.10203491 31.8125 9.09765625 C30.61872238 9.09195618 29.42494476 9.0862561 28.19499207 9.0803833 C25.66735723 9.07093686 23.1397101 9.06440073 20.61206055 9.06054688 C16.76263659 9.05086218 12.91375133 9.01984298 9.06445312 8.98828125 C6.60547191 8.98174879 4.14648689 8.97649927 1.6875 8.97265625 C0.54344193 8.96030945 -0.60061615 8.94796265 -1.77934265 8.9352417 C-11.15469474 8.961113 -19.47484298 10.07897082 -26.08203125 17.30078125 Z M50.9609375 45.625 C49.32338751 48.25611965 49.54079865 50.28342047 49.91796875 53.30078125 C50.89657307 55.12655939 50.89657307 55.12655939 52.91796875 56.30078125 C55.56793201 56.51799135 57.96873433 56.58429679 60.60546875 56.48828125 C61.30736328 56.47474609 62.00925781 56.46121094 62.73242188 56.44726562 C64.46126704 56.41198307 66.1897164 56.35817708 67.91796875 56.30078125 C67.91796875 52.34078125 67.91796875 48.38078125 67.91796875 44.30078125 C65.4798029 44.21980895 63.04432491 44.16031153 60.60546875 44.11328125 C59.91517578 44.08814453 59.22488281 44.06300781 58.51367188 44.03710938 C54.50592202 43.96320196 54.50592202 43.96320196 50.9609375 45.625 Z " fill="#000000" transform="translate(45.08203125,13.69921875)"/>
<path d="M0 0 C0.83729141 -0.0033284 1.67458282 -0.0066568 2.5372467 -0.01008606 C4.31185353 -0.01515881 6.08646992 -0.01749428 7.86108398 -0.01733398 C10.58267881 -0.01951922 13.30386768 -0.03766758 16.02539062 -0.05664062 C17.74609236 -0.05957467 19.46679602 -0.06155939 21.1875 -0.0625 C22.00524399 -0.06968552 22.82298798 -0.07687103 23.66551208 -0.08427429 C29.43133421 -0.06085329 29.43133421 -0.06085329 31.66015625 2.16796875 C31.10460069 6.72352431 31.10460069 6.72352431 29.66015625 8.16796875 C26.86022028 8.2690013 24.08546981 8.30766963 21.28515625 8.30078125 C20.44549316 8.30173798 19.60583008 8.3026947 18.74072266 8.30368042 C16.9619133 8.30436223 15.18310148 8.30250792 13.40429688 8.29833984 C10.67181849 8.29299158 7.93950449 8.2982848 5.20703125 8.3046875 C3.48307255 8.30402672 1.75911396 8.30274556 0.03515625 8.30078125 C-0.78774902 8.30280548 -1.6106543 8.30482971 -2.45849609 8.30691528 C-8.22489321 8.28291929 -8.22489321 8.28291929 -9.33984375 7.16796875 C-9.46484375 4.16796875 -9.46484375 4.16796875 -9.33984375 1.16796875 C-7.26983055 -0.90204445 -2.8521845 0.0038718 0 0 Z " fill="#000000" transform="translate(42.33984375,43.83203125)"/>
</svg>
