<svg width="101" height="101" viewBox="0 0 101 101" fill="none" xmlns="http://www.w3.org/2000/svg">
<path d="M75.2037 75.2036C89.0483 61.359 89.0483 38.9125 75.2037 25.0679C61.3591 11.2232 38.9125 11.2232 25.0679 25.0678C11.2233 38.9125 11.2233 61.359 25.0679 75.2036C38.9125 89.0483 61.3591 89.0483 75.2037 75.2036Z" fill="#00ACE9"/>
<path d="M50.1553 90.2311H50.1374C49.6876 90.2311 49.2333 90.2236 48.787 90.2086L48.796 89.9352C49.2393 89.9502 49.6906 89.9577 50.1374 89.9577L50.1553 90.2311ZM51.5241 90.2076L51.5151 89.9342C51.9649 89.9193 52.4217 89.8958 52.8729 89.8653L52.8914 90.1382C52.4372 90.1686 51.9774 90.1926 51.5241 90.2076ZM47.4202 90.1406C46.9655 90.1102 46.5067 90.0717 46.0559 90.0257L46.0839 89.7539C46.5312 89.7993 46.987 89.8378 47.4382 89.8678L47.4202 90.1406ZM54.2547 90.0222L54.2267 89.7504C54.677 89.7044 55.1313 89.6499 55.577 89.5894L55.614 89.8598C55.1652 89.9218 54.708 89.9762 54.2547 90.0222ZM44.6966 89.8653C44.2454 89.8043 43.7901 89.7344 43.3438 89.6584L43.3898 89.389C43.8331 89.465 44.2854 89.534 44.7336 89.5949L44.6966 89.8653ZM56.9673 89.6519L56.9213 89.3825C57.3646 89.3066 57.8139 89.2221 58.2567 89.1302L58.3121 89.3975C57.8663 89.49 57.4136 89.5754 56.9673 89.6519ZM41.9985 89.405C41.5548 89.3136 41.1055 89.2131 40.6627 89.1057L40.7272 88.8398C41.167 88.9463 41.6132 89.0462 42.054 89.1372L41.9985 89.405ZM59.6479 89.0967L59.5835 88.8313C60.0242 88.7239 60.4665 88.6084 60.8983 88.4875L60.9718 88.7509C60.537 88.8723 60.0912 88.9887 59.6479 89.0967ZM39.3384 88.7604C38.8996 88.6379 38.4584 88.5065 38.0266 88.3701L38.1091 88.1097C38.5378 88.2451 38.9761 88.3756 39.4119 88.4975L39.3384 88.7604ZM62.2836 88.3586L62.2011 88.0982C62.6274 87.9633 63.0607 87.8173 63.4895 87.6649L63.5814 87.9223C63.1491 88.0757 62.7129 88.2221 62.2836 88.3586ZM36.7243 87.9328C36.292 87.7794 35.8592 87.6174 35.4384 87.4515L35.5389 87.1977C35.9567 87.3621 36.3864 87.523 36.8157 87.6759L36.7243 87.9328ZM64.8627 87.4405L64.7623 87.1867C65.1811 87.0213 65.6019 86.8463 66.0142 86.6674L66.1231 86.9178C65.7083 87.0982 65.2845 87.2741 64.8627 87.4405ZM34.1706 86.9263C33.7568 86.7464 33.337 86.555 32.9217 86.3581L33.0392 86.1117C33.4514 86.3076 33.8687 86.4975 34.2795 86.6759L34.1706 86.9263ZM67.3655 86.3521L67.248 86.1057C67.6508 85.9143 68.0591 85.7109 68.4619 85.5015L68.5878 85.7439C68.1825 85.9543 67.7708 86.1592 67.3655 86.3521ZM31.6939 85.7474C31.2896 85.5375 30.8838 85.3181 30.4875 85.0953L30.6219 84.8574C31.0152 85.0788 31.418 85.2966 31.8198 85.5055L31.6939 85.7474ZM69.7897 85.0933L69.6558 84.8554C70.0496 84.6335 70.4434 84.4026 70.8267 84.1692L70.9686 84.4026C70.5828 84.6375 70.186 84.8699 69.7897 85.0933ZM29.3051 84.4016C28.9193 84.1667 28.53 83.9204 28.1467 83.669L28.2966 83.4406C28.6769 83.6905 29.0637 83.9353 29.447 84.1687L29.3051 84.4016ZM72.1235 83.6715L71.9736 83.4431C72.3494 83.1967 72.7267 82.9394 73.0955 82.6785L73.2534 82.9014C72.8821 83.1637 72.5018 83.4231 72.1235 83.6715ZM27.0148 82.8964C26.6405 82.632 26.2687 82.3592 25.9098 82.0863L26.0753 81.8684C26.4316 82.1398 26.8009 82.4101 27.1727 82.673L27.0148 82.8964ZM74.3563 82.0933L74.1914 81.8754C74.5488 81.6046 74.9081 81.3222 75.2594 81.0358L75.4318 81.2477C75.078 81.5361 74.7162 81.8209 74.3563 82.0933ZM24.8329 81.2402C24.4821 80.9544 24.1298 80.6575 23.7859 80.3577L23.9654 80.1518C24.3072 80.4496 24.657 80.7445 25.0053 81.0284L24.8329 81.2402ZM76.4783 80.3667L76.2984 80.1608C76.6397 79.8634 76.979 79.5571 77.3078 79.2508L77.4942 79.4502C77.1634 79.7585 76.8216 80.0668 76.4783 80.3667ZM22.77 79.4397C22.4406 79.1318 22.1098 78.812 21.7855 78.4882L21.9789 78.2953C22.3007 78.6166 22.6295 78.9344 22.9564 79.2403L22.77 79.4397ZM78.4782 78.4987L78.2848 78.3053C78.6042 77.9864 78.922 77.6576 79.2298 77.3283L79.4292 77.5152C79.1199 77.847 78.7996 78.1778 78.4782 78.4987ZM20.8345 77.5042C20.5226 77.1708 20.2143 76.829 19.9174 76.4887L20.1233 76.3088C20.4182 76.6466 20.7245 76.9859 21.0344 77.3173L20.8345 77.5042ZM80.3483 76.4992L80.1424 76.3193C80.4417 75.9764 80.7366 75.6266 81.0194 75.2798L81.2313 75.4527C80.9464 75.802 80.6496 76.1544 80.3483 76.4992ZM19.0354 75.4427C18.749 75.0909 18.4642 74.7296 18.1898 74.3683L18.4072 74.2029C18.6801 74.5617 18.9629 74.921 19.2473 75.2703L19.0354 75.4427ZM82.0789 74.3768L81.861 74.2114C82.1343 73.8521 82.4052 73.4832 82.6661 73.1144L82.889 73.2723C82.6261 73.6437 82.3537 74.015 82.0789 74.3768ZM17.3807 73.2654C17.1189 72.8955 16.86 72.5157 16.6101 72.1364L16.8385 71.986C17.0864 72.3628 17.3443 72.7401 17.6041 73.1074L17.3807 73.2654ZM83.662 72.1399L83.4337 71.99C83.68 71.6152 83.9254 71.2284 84.1623 70.8401L84.3957 70.9825C84.1568 71.3733 83.9099 71.7631 83.662 72.1399ZM15.879 70.9815C15.6421 70.5927 15.4093 70.1959 15.1874 69.8026L15.4252 69.6687C15.6456 70.0595 15.8765 70.4533 16.1119 70.8391L15.879 70.9815ZM85.0888 69.7996L84.8509 69.6652C85.0723 69.2734 85.2902 68.8706 85.4996 68.4683L85.742 68.5943C85.5311 68.9991 85.3117 69.4048 85.0888 69.7996ZM14.5367 68.6013C14.3278 68.1995 14.1229 67.7887 13.9275 67.3794L14.1739 67.2614C14.3678 67.6682 14.5717 68.0765 14.7791 68.4758L14.5367 68.6013ZM86.3532 67.3659L86.1068 67.2485C86.3012 66.8407 86.4911 66.4239 86.6715 66.0086L86.9224 66.1175C86.74 66.5353 86.5486 66.9556 86.3532 67.3659ZM13.3613 66.137C13.1804 65.7222 13.0045 65.2985 12.8376 64.8767L13.0915 64.7762C13.2574 65.1945 13.4323 65.6158 13.6117 66.0276L13.3613 66.137ZM87.4476 64.8497L87.1937 64.7492C87.3596 64.3295 87.5206 63.8997 87.6725 63.4729L87.9299 63.5644C87.7769 63.9946 87.615 64.4269 87.4476 64.8497ZM12.3558 63.5953C12.2034 63.1666 12.056 62.7303 11.9186 62.298L12.1789 62.2155C12.3153 62.6448 12.4618 63.0786 12.6132 63.5039L12.3558 63.5953ZM88.3671 62.263L88.1068 62.1811C88.2432 61.7498 88.3736 61.311 88.495 60.8782L88.7579 60.9517C88.636 61.3875 88.5046 61.8288 88.3671 62.263ZM11.5263 60.9867C11.4038 60.5504 11.2874 60.1051 11.1794 59.6624L11.4448 59.5979C11.5517 60.0372 11.6677 60.4795 11.7891 60.9127L11.5263 60.9867ZM89.1042 59.6269L88.8384 59.5624C88.9453 59.1217 89.0453 58.6754 89.1362 58.2361L89.4036 58.2916C89.3126 58.7334 89.2117 59.1826 89.1042 59.6269ZM10.8781 58.3271C10.7856 57.8813 10.6997 57.4285 10.6232 56.9823L10.8926 56.9358C10.9685 57.3791 11.054 57.8283 11.146 58.2716L10.8781 58.3271ZM89.658 56.9463L89.3886 56.9003C89.4646 56.456 89.5345 56.0038 89.5955 55.5565L89.8664 55.5935C89.8044 56.0437 89.7344 56.499 89.658 56.9463ZM10.4138 55.6294C10.3524 55.1812 10.2979 54.7239 10.2509 54.2707L10.5228 54.2427C10.5688 54.6929 10.6232 55.1472 10.6842 55.5925L10.4138 55.6294ZM90.0268 54.2342L89.7549 54.2062C89.8004 53.7564 89.8394 53.3007 89.8693 52.8514L90.1422 52.8699C90.1117 53.3221 90.0727 53.7809 90.0268 54.2342ZM10.135 52.9069C10.104 52.4541 10.0805 51.9943 10.065 51.5401L10.3379 51.5306C10.3534 51.9818 10.3769 52.4386 10.4078 52.8884L10.135 52.9069ZM90.2112 51.5031L89.9378 51.4941C89.9528 51.0423 89.9608 50.5851 89.9608 50.1348V50.0628H90.2342L90.2347 50.1338C90.2342 50.5876 90.2262 51.0483 90.2112 51.5031ZM10.3139 50.1708H10.0405V50.1358C10.0405 49.6905 10.048 49.2422 10.062 48.802L10.3349 48.811C10.3204 49.2482 10.3134 49.6935 10.3134 50.1343L10.3139 50.1708ZM89.9358 48.7035C89.9198 48.2508 89.8958 47.794 89.8648 47.3457L90.1377 47.3267C90.1692 47.7785 90.1932 48.2383 90.2092 48.694L89.9358 48.7035ZM10.4028 47.4532L10.13 47.4352C10.16 46.9829 10.1985 46.5242 10.2439 46.0714L10.5158 46.0984C10.4708 46.5481 10.4323 47.0044 10.4028 47.4532ZM89.7484 45.9909C89.7009 45.5382 89.6465 45.0839 89.5855 44.6411L89.8559 44.6036C89.9173 45.0494 89.9723 45.5067 90.0198 45.9624L89.7484 45.9909ZM10.6747 44.7486L10.4038 44.7121C10.4643 44.2633 10.5343 43.8081 10.6107 43.3588L10.8801 43.4048C10.8041 43.8505 10.7352 44.3028 10.6747 44.7486ZM89.3761 43.2978C89.2991 42.852 89.2137 42.4028 89.1217 41.9625L89.3891 41.9065C89.4815 42.3498 89.568 42.8026 89.6455 43.2513L89.3761 43.2978ZM11.131 42.0685L10.8631 42.0135C10.9546 41.5672 11.0555 41.1179 11.1619 40.6777L11.4273 40.7421C11.3219 41.1794 11.2219 41.6257 11.131 42.0685ZM88.8214 40.6367C88.7154 40.2024 88.599 39.7601 88.4756 39.3219L88.7384 39.2479C88.8624 39.6892 88.9798 40.1344 89.0863 40.5717L88.8214 40.6367ZM11.7701 39.4263L11.5073 39.3529C11.6287 38.9161 11.7601 38.4748 11.8971 38.0405L12.1574 38.1225C12.021 38.5538 11.8911 38.992 11.7701 39.4263ZM88.0843 38.0195C87.9488 37.5933 87.8024 37.16 87.6495 36.7317L87.9069 36.6398C88.0613 37.071 88.2082 37.5078 88.3451 37.9366L88.0843 38.0195ZM12.5907 36.8297L12.3334 36.7382C12.4863 36.3079 12.6477 35.8751 12.8141 35.4524L13.0685 35.5523C12.9025 35.9721 12.7421 36.4019 12.5907 36.8297ZM87.1697 35.4599C87.0068 35.0476 86.8314 34.6268 86.649 34.2085L86.8994 34.0991C87.0833 34.5198 87.2597 34.9441 87.4241 35.3589L87.1697 35.4599ZM13.5892 34.2935L13.3388 34.1845C13.5202 33.7667 13.7111 33.3469 13.9065 32.9357L14.1534 33.0531C13.9585 33.4614 13.7691 33.8787 13.5892 34.2935ZM86.0848 32.9751C85.8929 32.5728 85.689 32.1646 85.4791 31.7618L85.7215 31.6358C85.9329 32.0411 86.1378 32.4524 86.3317 32.8577L86.0848 32.9751ZM14.7591 31.8327L14.5167 31.7068C14.7266 31.302 14.946 30.8962 15.1689 30.5004L15.4068 30.6343C15.1854 31.0276 14.9675 31.4309 14.7591 31.8327ZM84.8319 30.5699C84.6106 30.1781 84.3792 29.7843 84.1443 29.4L84.3777 29.2576C84.6141 29.6449 84.8469 30.0412 85.0703 30.4355L84.8319 30.5699ZM16.0944 29.46L15.861 29.318C16.0979 28.9292 16.3443 28.5394 16.5937 28.1596L16.822 28.3095C16.5742 28.6864 16.3293 29.0732 16.0944 29.46ZM83.4162 28.2536C83.1703 27.8793 82.9124 27.5025 82.6501 27.1327L82.873 26.9747C83.1368 27.347 83.3962 27.7268 83.6446 28.1037L83.4162 28.2536ZM17.5881 27.1841L17.3653 27.0262C17.6271 26.6549 17.8995 26.2831 18.1748 25.9208L18.3927 26.0862C18.1189 26.4465 17.848 26.8158 17.5881 27.1841ZM81.846 26.0377C81.5721 25.6784 81.2893 25.3191 81.0049 24.9708L81.2168 24.7979C81.5027 25.1487 81.788 25.51 82.0634 25.8723L81.846 26.0377ZM19.2323 25.0167L19.0204 24.8443C19.3072 24.4915 19.6041 24.1392 19.9029 23.7969L20.1088 23.9763C19.812 24.3166 19.5171 24.6669 19.2323 25.0167ZM80.1274 23.9328C79.831 23.5935 79.5242 23.2542 79.2158 22.9248L79.4152 22.7379C79.7256 23.0693 80.0344 23.4111 80.3328 23.7524L80.1274 23.9328ZM21.0194 22.9668L20.8195 22.7804C21.1288 22.4491 21.4487 22.1177 21.7705 21.7959L21.9639 21.9888C21.6445 22.3086 21.3267 22.6375 21.0194 22.9668ZM78.2698 21.9488C77.954 21.6335 77.6252 21.3157 77.2918 21.0048L77.4782 20.8049C77.8136 21.1178 78.1449 21.4376 78.4632 21.7554L78.2698 21.9488ZM22.9409 21.0438L22.7545 20.8444C23.0853 20.5351 23.4271 20.2262 23.7695 19.9269L23.9494 20.1328C23.609 20.4296 23.2697 20.736 22.9409 21.0438ZM76.2819 20.0943C75.943 19.7994 75.5932 19.5046 75.2414 19.2182L75.4138 19.0063C75.7681 19.2947 76.1204 19.591 76.4613 19.8879L76.2819 20.0943ZM24.9873 19.2557L24.8149 19.0438C25.1677 18.7565 25.529 18.4716 25.8893 18.1978L26.0548 18.4152C25.697 18.687 25.3376 18.9699 24.9873 19.2557ZM74.1709 18.3782C73.8136 18.1073 73.4443 17.8369 73.073 17.5751L73.2304 17.3517C73.6047 17.6156 73.9766 17.8879 74.3359 18.1608L74.1709 18.3782ZM27.1497 17.6116L26.9918 17.3887C27.3616 17.1268 27.7414 16.8675 28.1207 16.6176L28.2711 16.846C27.8943 17.0938 27.517 17.3517 27.1497 17.6116ZM71.9476 16.809C71.5708 16.5616 71.1835 16.3172 70.7972 16.0824L70.9391 15.849C71.3284 16.0859 71.7182 16.3317 72.0975 16.5811L71.9476 16.809ZM29.4175 16.1188L29.2751 15.8855C29.6614 15.6496 30.0577 15.4172 30.453 15.1933L30.5874 15.4312C30.1951 15.6536 29.8013 15.885 29.4175 16.1188ZM69.6213 15.3947C69.226 15.1723 68.8222 14.9544 68.4229 14.7475L68.5483 14.5052C68.9506 14.7136 69.3569 14.933 69.7552 15.1563L69.6213 15.3947ZM31.7808 14.7845L31.6544 14.5422C32.0552 14.3333 32.4665 14.1284 32.8763 13.9325L32.9942 14.1788C32.5874 14.3737 32.1791 14.5776 31.7808 14.7845ZM67.2025 14.1424C66.7938 13.948 66.3765 13.7586 65.9622 13.5786L66.0711 13.3283C66.4884 13.5092 66.9087 13.7001 67.32 13.8955L67.2025 14.1424ZM34.2275 13.6161L34.1181 13.3658C34.5339 13.1844 34.9577 13.0079 35.3785 12.8415L35.4789 13.0954C35.0616 13.2608 34.6403 13.4357 34.2275 13.6161ZM64.7023 13.0584C64.2796 12.8925 63.8503 12.7321 63.425 12.5817L63.5164 12.3243C63.9442 12.4757 64.377 12.6371 64.8023 12.804L64.7023 13.0584ZM36.7513 12.6161L36.6593 12.3588C37.0856 12.2069 37.5219 12.0594 37.9561 11.921L38.0391 12.1814C37.6083 12.3193 37.175 12.4652 36.7513 12.6161ZM62.1322 12.1489C61.7014 12.013 61.2626 11.883 60.8288 11.7621L60.9018 11.4987C61.3386 11.6202 61.7803 11.7511 62.2141 11.888L62.1322 12.1489ZM39.3419 11.7916L39.268 11.5282C39.7062 11.4053 40.1515 11.2883 40.5918 11.1809L40.6567 11.4462C40.2195 11.5527 39.7772 11.6691 39.3419 11.7916ZM59.5125 11.4208C59.0742 11.3148 58.6275 11.2154 58.1857 11.1244L58.2407 10.8566C58.6854 10.948 59.1352 11.048 59.5765 11.1549L59.5125 11.4208ZM41.983 11.1464L41.9271 10.879C42.3703 10.7866 42.8231 10.7006 43.2719 10.6232L43.3184 10.8925C42.8726 10.969 42.4233 11.0544 41.983 11.1464ZM56.8499 10.874C56.4056 10.7986 55.9533 10.7296 55.5061 10.6696L55.5426 10.3988C55.9933 10.4598 56.4486 10.5287 56.8959 10.6047L56.8499 10.874ZM44.6617 10.6841L44.6242 10.4138C45.074 10.3518 45.5312 10.2968 45.9835 10.2504L46.0115 10.5222C45.5622 10.5682 45.1084 10.6227 44.6617 10.6841ZM54.1558 10.5112C53.708 10.4663 53.2522 10.4288 52.801 10.3988L52.819 10.1259C53.2732 10.1559 53.7325 10.1939 54.1833 10.2394L54.1558 10.5112ZM47.3663 10.4058L47.3478 10.1329C47.8021 10.1019 48.2618 10.078 48.7146 10.0625L48.7241 10.3353C48.2738 10.3513 47.817 10.3748 47.3663 10.4058ZM51.4427 10.3318C51.0094 10.3178 50.5706 10.3108 50.1374 10.3108H50.0829V10.0375H50.1383C50.5736 10.0375 51.0159 10.0445 51.4517 10.059L51.4427 10.3318Z" fill="#00ACE9"/>
<path d="M31.3998 60.7606L30.957 62.5356L33.3078 63.1218C33.2688 63.4702 33.2469 63.8245 33.2469 64.1833C33.2469 64.654 33.2823 65.1163 33.3488 65.5681L31.0345 66.0598L31.4148 67.8494L33.7911 67.3442C34.0674 68.1218 34.4427 68.8519 34.9015 69.5205L33.0295 70.9833L34.1559 72.425L36.0794 70.9223C36.6601 71.4915 37.3142 71.9858 38.0264 72.3906L36.9809 74.5339L38.6251 75.336L39.698 73.1362C40.3592 73.3566 41.0523 73.5075 41.7699 73.5764V75.9927H43.5995V73.5764C44.3106 73.508 44.9978 73.3596 45.6539 73.1422L46.5505 75.3615L48.2466 74.6759L47.3271 72.4C48.0377 71.9973 48.6914 71.506 49.2726 70.9393L51.0522 72.542L52.2765 71.1822L50.454 69.541C50.9132 68.8759 51.29 68.1497 51.5684 67.3761L53.8632 68.0343L54.3675 66.2757L52.0172 65.6016C52.0866 65.1393 52.1231 64.6655 52.1231 64.1838C52.1231 63.8395 52.1036 63.4991 52.0676 63.1643L54.4129 62.751L54.0951 60.949L51.6968 61.3717C51.451 60.5831 51.1026 59.8405 50.6709 59.1559L52.5909 57.7611L51.5154 56.2809L49.5489 57.7096C48.9887 57.1159 48.353 56.5947 47.6564 56.1619L48.7663 54.075L47.1507 53.2159L46.0148 55.3523C45.2607 55.068 44.4616 54.8761 43.63 54.7936L43.712 52.4388L41.8834 52.3749L41.7989 54.7891C40.9659 54.8666 40.1643 55.0515 39.4087 55.3314L38.4522 53.1835L36.7805 53.9276L37.762 56.1314C37.0604 56.5612 36.4212 57.081 35.8565 57.6731L34.0514 56.1584L32.8755 57.5602L34.7271 59.1139C34.2898 59.7985 33.937 60.5422 33.6871 61.3323L31.3998 60.7606ZM42.685 58.4642C45.8438 58.4642 48.4045 61.0249 48.4045 64.1833C48.4045 67.3422 45.8438 69.9023 42.685 69.9023C39.5266 69.9023 36.9659 67.3422 36.9659 64.1833C36.9659 61.0249 39.5266 58.4642 42.685 58.4642Z" fill="url(#paint0_linear_126_25230)"/>
<path d="M21.0917 44.4079L20.7749 45.6798L22.459 46.0996C22.431 46.3494 22.4156 46.6028 22.4156 46.8597C22.4156 47.197 22.441 47.5278 22.4885 47.8516L20.8309 48.204L21.1032 49.4863L22.8053 49.1245C23.0032 49.6817 23.2721 50.2044 23.6009 50.6837L22.2596 51.7316L23.0667 52.7646L24.4445 51.6882C24.8603 52.096 25.3291 52.4498 25.8393 52.7401L25.0902 54.2753L26.2681 54.85L27.0367 53.2744C27.5104 53.4323 28.0067 53.5402 28.5209 53.5897V55.3208H29.8317V53.5897C30.341 53.5407 30.8332 53.4343 31.3035 53.2783L31.9456 54.868L33.1605 54.3768L32.5019 52.7466C33.0111 52.4583 33.4794 52.1059 33.8956 51.7002L35.1705 52.8486L36.0475 51.8746L34.7417 50.6987C35.0705 50.2224 35.3409 49.7022 35.5398 49.148L37.1834 49.6192L37.5447 48.3594L35.8611 47.8766C35.9111 47.5453 35.9371 47.2065 35.9371 46.8612C35.9371 46.6143 35.9231 46.3709 35.8971 46.1305L37.5772 45.8342L37.3498 44.5434L35.6317 44.8462C35.4558 44.2815 35.206 43.7493 34.8966 43.259L36.2719 42.2595L35.5013 41.1991L34.0925 42.2225C33.6912 41.7973 33.236 41.424 32.7367 41.1136L33.5318 39.6184L32.3744 39.0032L31.5608 40.5334C31.0206 40.3295 30.4484 40.1921 29.8527 40.1331L29.9117 38.446L28.6019 38.4L28.5414 40.1296C27.9447 40.1851 27.3705 40.3175 26.8288 40.5179L26.1436 38.9792L24.9462 39.5124L25.6494 41.0911C25.1471 41.399 24.6889 41.7713 24.2841 42.1956L22.9908 41.1106L22.1482 42.1146L23.4745 43.2275C23.1612 43.7178 22.9088 44.251 22.7294 44.8167L21.0917 44.4079ZM29.1756 42.7628C31.4384 42.7628 33.2725 44.5973 33.2725 46.8597C33.2725 49.1225 31.4384 50.9565 29.1756 50.9565C26.9127 50.9565 25.0787 49.1225 25.0787 46.8597C25.0787 44.5973 26.9132 42.7628 29.1756 42.7628Z" fill="url(#paint1_linear_126_25230)"/>
<path d="M46.8448 97.9116C42.0307 97.9116 38.1143 93.9951 38.1143 89.1811C38.1143 84.367 42.0307 80.4501 46.8448 80.4501C51.6588 80.4501 55.5753 84.3665 55.5753 89.1811C55.5753 93.9956 51.6588 97.9116 46.8448 97.9116ZM46.8448 81.2442C42.4685 81.2442 38.9079 84.8043 38.9079 89.1811C38.9079 93.5573 42.4685 97.118 46.8448 97.118C51.221 97.118 54.7817 93.5578 54.7817 89.1811C54.7812 84.8048 51.221 81.2442 46.8448 81.2442Z" fill="#FEAE00"/>
<path d="M60.7683 12.9387C58.1087 12.9387 55.9453 10.7754 55.9453 8.11574C55.9453 5.45611 58.1092 3.29272 60.7683 3.29272C63.4275 3.29272 65.5913 5.45661 65.5913 8.11574C65.5913 10.7749 63.4275 12.9387 60.7683 12.9387ZM60.7683 3.731C58.3506 3.731 56.3836 5.69798 56.3836 8.11574C56.3836 10.5335 58.3506 12.5005 60.7683 12.5005C63.1861 12.5005 65.1531 10.5335 65.1531 8.11574C65.1526 5.69798 63.1861 3.731 60.7683 3.731Z" fill="#FEAE00"/>
<path d="M46.8745 62.5559H77.1568C78.2608 62.5559 79.1558 61.6608 79.1558 60.5569V44.899C79.1558 43.7951 78.2608 42.9 77.1568 42.9H46.8745C45.7705 42.9 44.8755 43.7951 44.8755 44.899V60.5569C44.8755 61.6608 45.7705 62.5559 46.8745 62.5559Z" fill="#FEAE00"/>
<path d="M77.8274 62.7217H46.2007C45.3777 62.7217 44.708 62.052 44.708 61.229V44.2272C44.708 43.4042 45.3777 42.7345 46.2007 42.7345H77.8274C78.6505 42.7345 79.3202 43.4042 79.3202 44.2272V61.229C79.3202 62.052 78.6505 62.7217 77.8274 62.7217ZM46.2007 43.0663C45.5606 43.0663 45.0398 43.5871 45.0398 44.2272V61.229C45.0398 61.8691 45.5606 62.3899 46.2007 62.3899H77.8274C78.4676 62.3899 78.9883 61.8691 78.9883 61.229V44.2272C78.9883 43.5871 78.4676 43.0663 77.8274 43.0663H46.2007Z" fill="white"/>
<path d="M74.634 49.1776H49.3956C49.0647 49.1776 48.7969 49.446 48.7969 49.7763V49.9992C48.7969 50.33 49.0647 50.5979 49.3956 50.5979H74.634C74.9649 50.5979 75.2327 50.33 75.2327 49.9992V49.7763C75.2327 49.4455 74.9649 49.1776 74.634 49.1776Z" fill="white"/>
<path d="M74.634 52.0514H49.3956C49.0647 52.0514 48.7969 52.3193 48.7969 52.6501V52.873C48.7969 53.2038 49.0647 53.4717 49.3956 53.4717H74.634C74.9649 53.4717 75.2327 53.2038 75.2327 52.873V52.6501C75.2327 52.3198 74.9649 52.0514 74.634 52.0514Z" fill="white"/>
<path d="M74.634 54.9261H49.3956C49.0647 54.9261 48.7969 55.194 48.7969 55.5248V55.7477C48.7969 56.0786 49.0647 56.3464 49.3956 56.3464H74.634C74.9649 56.3464 75.2327 56.0786 75.2327 55.7477V55.5248C75.2327 55.194 74.9649 54.9261 74.634 54.9261Z" fill="white"/>
<path d="M66.9735 57.7999H49.3956C49.0647 57.7999 48.7969 58.0678 48.7969 58.3986V58.6215C48.7969 58.9523 49.0647 59.2202 49.3956 59.2202H66.973C67.3038 59.2202 67.5717 58.9523 67.5717 58.6215V58.3986C67.5722 58.0683 67.3043 57.7999 66.9735 57.7999Z" fill="white"/>
<path d="M74.634 46.3027H49.3956C49.0647 46.3027 48.7969 46.5711 48.7969 46.9014V47.1243C48.7969 47.4551 49.0647 47.723 49.3956 47.723H74.634C74.9649 47.723 75.2327 47.4551 75.2327 47.1243V46.9014C75.2327 46.5711 74.9649 46.3027 74.634 46.3027Z" fill="white"/>
<path d="M27.1684 47.8684H57.4508C58.5547 47.8684 59.4497 46.9733 59.4497 45.8694V30.2115C59.4497 29.1076 58.5547 28.2125 57.4508 28.2125H27.1684C26.0645 28.2125 25.1694 29.1076 25.1694 30.2115V45.8694C25.1694 46.9733 26.0645 47.8684 27.1684 47.8684Z" fill="#FEAE00"/>
<path d="M58.1223 48.0342H26.4957C25.6726 48.0342 25.0029 47.3645 25.0029 46.5415V29.5397C25.0029 28.7167 25.6726 28.047 26.4957 28.047H58.1223C58.9454 28.047 59.6151 28.7167 59.6151 29.5397V46.5415C59.6151 47.3645 58.9454 48.0342 58.1223 48.0342ZM26.4957 28.3788C25.8555 28.3788 25.3348 28.8996 25.3348 29.5397V46.5415C25.3348 47.1816 25.8555 47.7024 26.4957 47.7024H58.1223C58.7625 47.7024 59.2832 47.1816 59.2832 46.5415V29.5397C59.2832 28.8996 58.7625 28.3788 58.1223 28.3788H26.4957Z" fill="white"/>
<path d="M54.928 34.4897H29.6895C29.3587 34.4897 29.0908 34.7581 29.0908 35.0884V35.3113C29.0908 35.6422 29.3587 35.91 29.6895 35.91H54.928C55.2588 35.91 55.5267 35.6422 55.5267 35.3113V35.0884C55.5267 34.7576 55.2588 34.4897 54.928 34.4897Z" fill="white"/>
<path d="M54.928 37.3634H29.6895C29.3587 37.3634 29.0908 37.6313 29.0908 37.9621V38.185C29.0908 38.5158 29.3587 38.7837 29.6895 38.7837H54.928C55.2588 38.7837 55.5267 38.5158 55.5267 38.185V37.9621C55.5267 37.6318 55.2588 37.3634 54.928 37.3634Z" fill="white"/>
<path d="M54.928 40.2383H29.6895C29.3587 40.2383 29.0908 40.5061 29.0908 40.837V41.0599C29.0908 41.3907 29.3587 41.6585 29.6895 41.6585H54.928C55.2588 41.6585 55.5267 41.3907 55.5267 41.0599V40.837C55.5267 40.5061 55.2588 40.2383 54.928 40.2383Z" fill="white"/>
<path d="M47.2675 43.1123H29.6895C29.3587 43.1123 29.0908 43.3802 29.0908 43.711V43.9339C29.0908 44.2647 29.3587 44.5326 29.6895 44.5326H47.2669C47.5978 44.5326 47.8656 44.2647 47.8656 43.9339V43.711C47.8661 43.3807 47.5983 43.1123 47.2675 43.1123Z" fill="white"/>
<path d="M54.928 31.6152H29.6895C29.3587 31.6152 29.0908 31.8836 29.0908 32.2139V32.4368C29.0908 32.7676 29.3587 33.0355 29.6895 33.0355H54.928C55.2588 33.0355 55.5267 32.7676 55.5267 32.4368V32.2139C55.5267 31.8836 55.2588 31.6152 54.928 31.6152Z" fill="white"/>
<path d="M70.6226 50.1508C70.6226 50.1508 65.1809 53.0633 63.995 57.5684C62.8096 62.0736 61.3869 68.2384 58.9367 71.1629C56.4864 74.0874 62.098 76.2213 62.098 76.2213C62.098 76.2213 68.1049 70.9845 69.2114 67.8331C70.3183 64.6818 70.6226 50.1508 70.6226 50.1508Z" fill="url(#paint2_linear_126_25230)"/>
<path d="M72.3638 35.1809C72.3638 35.1809 72.3603 45.3681 72.9315 46.1297C73.5027 46.8913 80.2147 46.2247 81.4526 44.3207C82.6904 42.4167 82.0728 35.1809 82.0728 35.1809L76.9779 32.4673L72.3638 35.1809Z" fill="#F8A887"/>
<path d="M81.6966 42.6064C81.6966 42.6064 81.4413 47.1481 81.6607 47.7812C81.8801 48.4149 81.0415 51.0775 80.4848 51.3649C79.9286 51.6517 78.4078 51.7867 77.2944 52.0365C76.181 52.2859 75.9941 53.2704 75.248 52.1995C74.5019 51.1285 73.7183 48.8827 73.7183 48.8827C73.7183 48.8827 73.9306 40.9892 74.0256 39.0847C74.1205 37.1807 79.3139 37.9423 79.3139 37.9423L81.6966 42.6064Z" fill="#F8A887"/>
<path opacity="0.5" d="M81.6976 42.6067L80.983 41.2074C80.4228 42.071 79.051 43.6237 77.8991 43.829C76.3649 44.1029 76.1075 43.2458 75.2334 43.5047C74.3594 43.7636 74.263 44.7536 73.8796 44.5817C73.8662 44.5757 73.8547 44.5677 73.8417 44.5612C73.7747 46.827 73.7197 48.8824 73.7197 48.8824C73.7197 48.8824 73.9291 49.4806 74.233 50.2063C75.5968 50.4926 77.7397 50.0763 78.6662 49.4851C79.3108 49.0733 80.6132 47.6861 81.5732 46.3457C81.5747 44.795 81.6976 42.6067 81.6976 42.6067Z" fill="#F8A887"/>
<path d="M66.2695 85.3473C66.2695 85.3473 74.5098 91.1883 84.2288 85.5457C82.1723 77.2865 82.8185 53.2324 82.4307 53.0925C82.0429 52.9526 76.8711 52.3928 76.8711 52.3928L71.3134 51.8331C71.3134 51.8331 67.8207 63.2587 68.0796 64.1253C68.3385 64.9918 67.4334 67.3716 67.8212 71.8513C68.209 76.331 66.2695 85.3473 66.2695 85.3473Z" fill="white"/>
<path d="M75.681 53.1421C75.681 53.1421 71.79 62.0875 72.4362 82.0192C73.5646 84.2466 74.4661 84.5639 74.4661 84.5639L76.2402 81.5589C76.2402 81.5589 74.9074 65.6362 77.3791 53.1416C76.4191 53.1421 75.681 53.1421 75.681 53.1421Z" fill="#1C47E2"/>
<path d="M73.7183 52.7629L75.248 54.6135H77.088L78.7801 52.4461L76.5563 51.8329L74.4654 51.9153L73.7183 52.7629Z" fill="#1C47E2"/>
<path d="M72.3638 54.9481C72.3638 54.9481 76.8215 52.0796 76.5571 51.8327C76.2928 51.5858 73.7191 48.8817 73.7191 48.8817L72.3638 54.067V54.9481Z" fill="white"/>
<path d="M76.5566 51.8328L80.3347 54.9482L82.0723 47.7814L76.5566 51.8328Z" fill="white"/>
<path d="M73.7195 48.8826C73.7195 48.8826 70.1554 89.723 68.893 89.9459C67.6307 90.1688 63.6208 88.0893 63.2494 87.1983C62.8781 86.3073 65.997 74.7977 66.071 71.6788C66.1454 68.5599 64.9571 56.9764 65.6997 55.1943C66.4423 53.4117 70.2293 49.4763 73.7195 48.8826Z" fill="url(#paint3_linear_126_25230)"/>
<path d="M81.6618 47.7814C81.6618 47.7814 77.1066 66.1849 78.4729 72.4711C79.8397 78.7574 86.4903 87.5948 87.2189 88.5968C87.9476 89.5988 87.2189 94.063 87.2189 94.063C87.2189 94.063 88.14 84.3145 87.5428 79.3951C86.9456 74.4751 86.4898 71.4751 86.5813 69.4222C86.6722 67.3693 91.2279 56.0721 90.0435 54.0676C88.8591 52.0632 83.8482 48.0547 81.6618 47.7814Z" fill="url(#paint4_linear_126_25230)"/>
<path d="M78.2797 71.1074C78.2797 71.1074 84.2131 80.9443 86.5819 82.7664C88.9507 84.5885 94.8726 89.1436 94.8726 90.7838C94.8726 92.4234 87.5839 94.7922 87.402 94.4279C87.2196 94.0631 78.2097 74.8455 78.2797 71.1074Z" fill="#2B2B2B"/>
<path d="M87.4113 94.5654C87.4053 94.5654 87.4018 94.5654 87.3993 94.5654L87.3134 94.5639L86.6307 93.1121C85.7112 91.0502 77.6689 72.9455 78.0847 71.4688L78.2501 71.5153C78.1966 71.4223 78.1621 71.3578 78.1501 71.3259C78.0287 71.006 78.0457 70.023 78.0747 69.202C78.0777 69.113 78.0797 69.0535 78.0792 69.0345L78.3545 69.0295C78.355 69.05 78.3525 69.115 78.3495 69.2114C78.3345 69.6337 78.2905 70.9186 78.4075 71.2279C78.6029 71.7207 84.7932 81.0498 85.5523 81.5476C86.2559 82.0088 94.6681 88.6399 94.883 90.2846C95.0804 91.7963 93.6311 92.4325 91.6257 93.3135L91.063 93.5619C88.8746 94.5369 87.5573 94.5654 87.4113 94.5654ZM78.338 71.6637C78.3605 73.3068 83.3959 85.1812 86.8816 92.9977L87.4878 94.2875C87.8116 94.2715 89.0545 94.1556 90.951 93.3105L91.5152 93.0616C93.4817 92.1981 94.7805 91.6279 94.6101 90.3205C94.4212 88.8773 86.3409 82.3931 85.4019 81.778C84.6158 81.2627 79.409 73.4478 78.338 71.6637Z" fill="white"/>
<path d="M85.0082 84.5645C85.0082 84.5645 82.9272 86.2296 82.4035 86.7978C82.2966 86.9137 83.8818 93.0541 86.7548 93.0541C87.6168 91.8472 88.9731 86.9202 88.9731 86.9202L85.0082 84.5645Z" fill="#F8A887"/>
<path d="M90.043 54.0677C90.043 54.0677 94.9835 68.064 95.5327 70.0265C96.0824 71.989 89.4104 88.8653 89.1745 88.9438C88.9391 89.0222 84.5434 85.3331 84.4649 84.9403C84.3864 84.548 88.7822 72.1229 89.0176 71.5063C89.2529 70.8896 85.3285 57.6244 85.3285 57.6244L90.043 54.0677Z" fill="url(#paint5_linear_126_25230)"/>
<path d="M78.2173 68.853C78.2173 68.853 81.4251 62.5682 81.5016 61.5733C81.578 60.5783 80.8894 58.6653 80.8894 58.6653C80.8894 58.6653 86.444 50.5464 85.9853 50.1506C85.5265 49.7549 81.662 47.7814 81.662 47.7814C81.662 47.7814 78.2997 55.6993 78.2173 68.853Z" fill="url(#paint6_linear_126_25230)"/>
<path d="M71.9323 67.8324L69.584 59.7336C69.584 59.7336 70.5055 58.7951 70.6239 58.3168C70.7424 57.8386 69.7369 50.7552 70.0577 50.5224C70.3791 50.2895 73.7199 48.8817 73.7199 48.8817C73.7199 48.8817 72.2276 62.6676 71.9323 67.8324Z" fill="url(#paint7_linear_126_25230)"/>
<path d="M78.0762 69.4329L78.0797 68.8527C78.1616 55.8219 81.5014 47.8071 81.5354 47.7276L81.5934 47.5917L81.7248 47.6586C81.8832 47.7396 85.6098 49.6441 86.0755 50.0464C86.2255 50.1758 86.4528 50.3717 83.7258 54.6305C82.5324 56.4941 81.2785 58.3391 81.0426 58.685C81.1656 59.0388 81.7093 60.6654 81.6393 61.584C81.5609 62.5949 78.4715 68.6583 78.3395 68.9157L78.0762 69.4329ZM81.7338 47.972C81.304 49.0624 78.5244 56.5605 78.361 68.2665C79.5064 65.9967 81.3105 62.2701 81.365 61.563C81.4384 60.609 80.7673 58.7304 80.7608 58.7119L80.7368 58.646L80.7768 58.588C83.289 54.9154 85.9106 50.771 85.8767 50.2393C85.4709 49.916 83.0756 48.6596 81.7338 47.972Z" fill="white"/>
<path d="M72.0229 68.6422L69.4282 59.6954L69.4847 59.6379C69.7341 59.3845 70.3997 58.6469 70.4892 58.2846C70.5322 58.1107 70.3727 56.6284 70.2318 55.3211C69.8175 51.4791 69.7701 50.5616 69.9759 50.4117C70.3008 50.1763 73.3222 48.9004 73.666 48.7555L73.8814 48.6646L73.8559 48.8969C73.841 49.0349 72.3607 62.7378 72.0689 67.8407L72.0229 68.6422ZM69.7376 59.7723L71.844 67.0366C72.1963 61.8602 73.3712 50.8394 73.5576 49.0993C72.2243 49.6635 70.3523 50.4781 70.1379 50.6335C70.0304 50.8809 70.3163 53.5345 70.5057 55.2906C70.7011 57.1037 70.809 58.1397 70.757 58.3501C70.6466 58.7968 69.955 59.5454 69.7376 59.7723Z" fill="white"/>
<path d="M81.7609 39.9842C81.9028 39.8243 82.7074 38.523 83.488 38.7124C84.2686 38.9018 83.8903 41.8153 82.8493 41.8863C81.8084 41.9572 81.2642 40.9128 81.2642 40.9128L81.7609 39.9842Z" fill="#F8A887"/>
<path d="M80.3375 36.8317C80.433 37.1175 80.8893 39.9616 81.0237 40.2249C81.1586 40.4888 79.0547 42.7931 77.3786 42.7796C75.7019 42.7661 75.4211 41.8611 74.4656 41.956C73.5101 42.0515 73.4051 43.023 72.9863 42.7796C72.5675 42.5362 72.4916 42.1249 72.4916 42.1249C72.4916 42.1249 71.4226 47.4092 72.7999 48.2088C74.1772 49.0084 77.0617 49.0559 78.2161 48.5796C79.371 48.1034 82.4609 45.3368 82.6588 43.9575C82.8567 42.5782 82.1121 40.4018 82.407 40.071C82.7013 39.7402 83.5274 36.6673 83.4984 36.0001C83.4694 35.333 80.3375 36.8317 80.3375 36.8317Z" fill="#782A00"/>
<path d="M80.3386 36.8315C80.3386 36.8315 81.7674 35.018 80.8594 34.5347C79.9518 34.0515 78.5375 33.1259 76.2502 33.4668C73.9629 33.8081 72.3642 35.4972 72.3642 35.4972C72.3642 35.4972 69.5007 33.979 70.6231 30.6807C71.7456 27.3829 75.9219 27.2125 76.2502 28.6907C76.4651 27.3259 76.4651 27.3259 76.4651 27.3259C76.4651 27.3259 82.6309 27.9516 83.5 31.022C84.369 34.0924 83.6604 36.7865 83.0197 38.3647C82.8108 38.879 80.3386 36.8315 80.3386 36.8315Z" fill="#782A00"/>
<path d="M55.6228 75.3884C56.8052 75.3884 57.7637 74.4298 57.7637 73.2475C57.7637 72.0651 56.8052 71.1066 55.6228 71.1066C54.4404 71.1066 53.4819 72.0651 53.4819 73.2475C53.4819 74.4298 54.4404 75.3884 55.6228 75.3884Z" fill="#F8A887"/>
<path d="M71.3134 78.6099H61.408L45.3223 66.79H55.2277L71.3134 78.6099Z" fill="black"/>
<path d="M71.733 78.748H61.3628L44.9028 66.6527H55.273L71.733 78.748ZM61.4538 78.4726H70.8944L55.183 66.9271H45.7424L61.4538 78.4726Z" fill="white"/>
<path d="M55.3681 74.1723C55.3681 74.1723 56.4015 72.785 57.2286 72.7C58.0557 72.6151 63.7098 75.583 63.218 76.6535C62.7263 77.7239 61.364 79.1837 60.245 79.0373C59.1256 78.8913 55.1132 76.1672 55.3681 74.1723Z" fill="#F8A887"/>
<path d="M73.4145 43.3784C73.2731 43.3784 73.1792 43.5233 73.2361 43.6533C73.447 44.134 73.9593 45.0825 74.7389 45.14C75.521 45.1975 76.1826 44.185 76.467 43.6698C76.5394 43.5388 76.4465 43.3784 76.2971 43.3784H73.4145Z" fill="white"/>
<path d="M68.9163 90.0917L68.6584 90.0327C66.546 89.5505 64.3621 89.0517 63.1362 87.2757L63.3621 87.1197C64.5275 88.8079 66.6589 89.2941 68.7199 89.7649L68.8518 89.7954C69.5154 88.9123 70.9682 76.2509 71.7948 67.8197L72.0686 67.8467C71.7148 71.4563 69.9012 89.491 68.9642 90.0637L68.9163 90.0917Z" fill="white"/>
<path d="M86.7399 93.1905C85.7114 93.0726 82.8874 91.6403 82.1772 86.495L82.4511 86.4575C83.2647 92.3525 86.7364 92.9122 86.7714 92.9162L86.7399 93.1905Z" fill="white"/>
<path d="M64.9186 70.4993C64.4858 68.8946 62.7522 68.7022 61.6053 68.5748C61.0571 68.5143 60.7262 68.4773 60.6223 68.2914C60.5938 68.2404 60.5703 68.1575 60.6213 68.0495C60.7657 67.7412 61.5158 65.3419 62.3099 62.8017C63.14 60.1446 64.0815 57.1332 64.5168 55.9198C65.4018 53.4506 69.8035 50.4766 70.0059 50.3951L70.1089 50.6505L70.0574 50.5226L70.1104 50.6495C69.8915 50.7495 65.6117 53.6799 64.7751 56.0122C64.3424 57.2206 63.4018 60.2291 62.5723 62.8837C61.7407 65.5438 61.0226 67.8411 60.8702 68.1665C60.9191 68.2219 61.3164 68.2659 61.6358 68.3014C62.7827 68.4288 64.7022 68.6417 65.1844 70.4273L64.9186 70.4993Z" fill="white"/>
<path d="M73.8107 54.2088L73.5908 53.9269L76.5603 51.6036L78.8951 53.5292L78.6672 53.805L76.5543 52.0624L73.8107 54.2088Z" fill="black"/>
<path d="M19.4873 94.6455L19.0276 94.6355C19.093 91.5841 17.9411 88.7156 15.7837 86.5582C13.6139 84.3883 10.7243 83.2344 7.66042 83.3153L7.64844 82.8556C10.8433 82.7811 13.8487 83.9735 16.1086 86.2333C18.3554 88.4797 19.5553 91.4676 19.4873 94.6455Z" fill="#00ACE9"/>
<path d="M16.389 95.0176L15.9292 95.0076C15.9802 92.6328 15.0837 90.4 13.4045 88.7213C11.7159 87.0322 9.46857 86.1342 7.0823 86.1976L7.07031 85.7379C9.58402 85.6744 11.9513 86.6179 13.7299 88.3965C15.498 90.1646 16.4425 92.5164 16.389 95.0176Z" fill="#00ACE9"/>
<path d="M13.509 94.6015L13.0493 94.5915C13.0813 93.1033 12.5196 91.7045 11.4671 90.652C10.4091 89.5936 9.00137 89.0294 7.50564 89.0703L7.49365 88.6106C9.12181 88.5696 10.6445 89.1788 11.7924 90.3267C12.9338 91.4691 13.5435 92.9868 13.509 94.6015Z" fill="#00ACE9"/>
<path d="M8.18435 95.6234C7.76657 95.6234 7.34928 95.4645 7.03144 95.1467C6.39577 94.511 6.39577 93.4771 7.03144 92.8414C7.66711 92.2057 8.70108 92.2057 9.33676 92.8414C9.97243 93.4771 9.97243 94.511 9.33676 95.1467C9.01942 95.4645 8.60163 95.6234 8.18435 95.6234ZM8.18435 92.8244C7.8845 92.8244 7.58516 92.9388 7.35677 93.1667C6.90051 93.623 6.90051 94.3656 7.35677 94.8219C7.81304 95.2781 8.55566 95.2781 9.01193 94.8219C9.46819 94.3656 9.46819 93.623 9.01193 93.1667C8.78354 92.9383 8.4842 92.8244 8.18435 92.8244Z" fill="#00ACE9"/>
<defs>
<linearGradient id="paint0_linear_126_25230" x1="30.9573" y1="64.1834" x2="54.4129" y2="64.1834" gradientUnits="userSpaceOnUse">
<stop stop-color="#13207C"/>
<stop offset="1" stop-color="#004EBA"/>
</linearGradient>
<linearGradient id="paint1_linear_126_25230" x1="20.7745" y1="46.86" x2="37.577" y2="46.86" gradientUnits="userSpaceOnUse">
<stop stop-color="#13207C"/>
<stop offset="1" stop-color="#004EBA"/>
</linearGradient>
<linearGradient id="paint2_linear_126_25230" x1="64.4702" y1="90.2298" x2="64.4702" y2="59.8024" gradientUnits="userSpaceOnUse">
<stop offset="0.0054" stop-color="#00517D"/>
<stop offset="1" stop-color="#0076B5"/>
</linearGradient>
<linearGradient id="paint3_linear_126_25230" x1="68.469" y1="90.23" x2="68.469" y2="59.8026" gradientUnits="userSpaceOnUse">
<stop offset="0.0054" stop-color="#00517D"/>
<stop offset="1" stop-color="#0076B5"/>
</linearGradient>
<linearGradient id="paint4_linear_126_25230" x1="84.2287" y1="90.2297" x2="84.2287" y2="59.8024" gradientUnits="userSpaceOnUse">
<stop offset="0.0054" stop-color="#00517D"/>
<stop offset="1" stop-color="#0076B5"/>
</linearGradient>
<linearGradient id="paint5_linear_126_25230" x1="90.0146" y1="90.2299" x2="90.0146" y2="59.8025" gradientUnits="userSpaceOnUse">
<stop offset="0.0054" stop-color="#00517D"/>
<stop offset="1" stop-color="#0076B5"/>
</linearGradient>
<linearGradient id="paint6_linear_126_25230" x1="82.1148" y1="72.8867" x2="82.1148" y2="93.2078" gradientUnits="userSpaceOnUse">
<stop offset="0.0054" stop-color="#00517D"/>
<stop offset="1" stop-color="#0076B5"/>
</linearGradient>
<linearGradient id="paint7_linear_126_25230" x1="71.6517" y1="72.8868" x2="71.6517" y2="93.2079" gradientUnits="userSpaceOnUse">
<stop offset="0.0054" stop-color="#00517D"/>
<stop offset="1" stop-color="#0076B5"/>
</linearGradient>
</defs>
</svg>
