<svg width="340" height="340" viewBox="0 0 340 340" fill="none" xmlns="http://www.w3.org/2000/svg">
<g clip-path="url(#clip0_217_866)">
<path d="M302.401 237.419H179.494C177.296 237.419 175.508 235.63 175.508 233.432V54.4061C175.508 52.2083 177.296 50.4199 179.494 50.4199H302.401C304.599 50.4199 306.388 52.2076 306.388 54.4061V233.432C306.388 235.63 304.599 237.419 302.401 237.419ZM179.494 50.5899C177.39 50.5899 175.678 52.3022 175.678 54.4061V233.432C175.678 235.536 177.39 237.248 179.494 237.248H302.401C304.506 237.248 306.218 235.536 306.218 233.432V54.4061C306.218 52.3022 304.505 50.5899 302.401 50.5899H179.494Z" fill="#F0F0F0"/>
<path d="M160.67 237.419H37.7631C35.5653 237.419 33.7769 235.63 33.7769 233.432V54.4061C33.7769 52.2083 35.5647 50.4199 37.7631 50.4199H160.67C162.868 50.4199 164.657 52.2076 164.657 54.4061V233.432C164.657 235.63 162.869 237.419 160.67 237.419ZM37.7631 50.5899C35.6592 50.5899 33.9469 52.3022 33.9469 54.4061V233.432C33.9469 235.536 35.6592 237.248 37.7631 237.248H160.67C162.775 237.248 164.487 235.536 164.487 233.432V54.4061C164.487 52.3022 162.774 50.5899 160.67 50.5899H37.7631Z" fill="#F0F0F0"/>
<path d="M340.536 278.946H0.535828V279.116H340.536V278.946Z" fill="#E0E0E0"/>
<path d="M319.87 198.17H190.67C190.67 200.357 192.443 202.13 194.63 202.13H315.91C318.097 202.13 319.87 200.357 319.87 198.17Z" fill="#E0E0E0"/>
<path d="M294.494 235.628H217.214V239.293H294.494V235.628Z" fill="#E0E0E0"/>
<path d="M291.759 278.993L302.293 202.13H298.593L288.06 278.993H291.759Z" fill="#E6E6E6"/>
<path d="M300.419 278.993L289.715 202.13H293.415L304.118 278.993H300.419Z" fill="#E6E6E6"/>
<path d="M211.301 278.993L222.286 202.13H218.587L207.602 278.993H211.301Z" fill="#E6E6E6"/>
<path d="M219.962 278.993L209.428 202.13H213.127L223.661 278.993H219.962Z" fill="#E6E6E6"/>
<path d="M324.205 191.814H186.335V198.195H324.205V191.814Z" fill="#E6E6E6"/>
<path d="M236.023 191.838H295.852L296.502 190.369C296.91 189.445 295.845 188.524 294.367 188.524H239.161C238.171 188.524 237.3 188.95 237.026 189.57L236.023 191.838Z" fill="#E0E0E0"/>
<path d="M312.255 150.19L304.597 182.581C304.392 183.444 303.623 184.054 302.735 184.054H255.558C254.323 184.054 253.412 182.902 253.696 181.701L261.354 149.31C261.559 148.447 262.328 147.837 263.216 147.837H310.393C311.628 147.837 312.54 148.989 312.255 150.19Z" fill="#F0F0F0"/>
<path d="M289.333 167.211C289.107 169.25 287.273 170.902 285.234 170.902C283.196 170.902 281.725 169.25 281.95 167.211C282.174 165.173 284.009 163.52 286.048 163.52C288.087 163.52 289.557 165.173 289.333 167.211Z" fill="#E0E0E0"/>
<path d="M265.085 147.837L256.931 184.054H255.558C254.323 184.054 253.412 182.902 253.696 181.701L261.354 149.31C261.559 148.447 262.328 147.837 263.216 147.837H265.085Z" fill="#E0E0E0"/>
<path d="M278.751 184.053L277.143 191.747H281.87L283.478 184.053H278.751Z" fill="#E0E0E0"/>
<path d="M270.245 190.445L271.213 189.084C271.558 188.599 272.117 188.31 272.713 188.31H285.673C286.359 188.31 286.988 188.69 287.305 189.298L287.958 190.546C288.264 191.13 287.84 191.829 287.182 191.829H270.96C270.247 191.83 269.832 191.026 270.245 190.445Z" fill="#E0E0E0"/>
<path d="M250.982 87.5811L250.592 86.9616L273.362 72.6143L295.573 87.2825L295.169 87.8939L273.353 73.4867L250.982 87.5811Z" fill="#F0F0F0"/>
<path d="M296.059 86.9983H250.203V115.679H296.059V86.9983Z" fill="#E0E0E0"/>
<path d="M294.788 114.409V88.2693L251.473 88.2693V114.409H294.788Z" fill="white"/>
<path d="M257.629 96.4653H254.861V99.2336H257.629V96.4653Z" fill="#F0F0F0"/>
<path d="M261.896 96.4653H259.128V99.2336H261.896V96.4653Z" fill="#F0F0F0"/>
<path d="M266.162 96.4653H263.394V99.2336H266.162V96.4653Z" fill="#F0F0F0"/>
<path d="M270.429 96.4653H267.661V99.2336H270.429V96.4653Z" fill="#F0F0F0"/>
<path d="M274.696 96.4653H271.928V99.2336H274.696V96.4653Z" fill="#F0F0F0"/>
<path d="M278.963 96.4653H276.194V99.2336H278.963V96.4653Z" fill="#F0F0F0"/>
<path d="M283.23 96.4653H280.461V99.2336H283.23V96.4653Z" fill="#F0F0F0"/>
<path d="M287.497 96.4653H284.728V99.2336H287.497V96.4653Z" fill="#F0F0F0"/>
<path d="M291.764 96.4653H288.995V99.2336H291.764V96.4653Z" fill="#F0F0F0"/>
<path d="M257.629 100.274H254.861V103.042H257.629V100.274Z" fill="#F0F0F0"/>
<path d="M261.896 100.274H259.128V103.042H261.896V100.274Z" fill="#F0F0F0"/>
<path d="M266.162 100.274H263.394V103.042H266.162V100.274Z" fill="#F0F0F0"/>
<path d="M270.429 100.274H267.661V103.042H270.429V100.274Z" fill="#F0F0F0"/>
<path d="M274.696 100.274H271.928V103.042H274.696V100.274Z" fill="#F0F0F0"/>
<path d="M278.963 100.274H276.194V103.042H278.963V100.274Z" fill="#F0F0F0"/>
<path d="M283.23 100.274H280.461V103.042H283.23V100.274Z" fill="#F0F0F0"/>
<path d="M287.497 100.274H284.728V103.042H287.497V100.274Z" fill="#F0F0F0"/>
<path d="M291.764 100.274H288.995V103.042H291.764V100.274Z" fill="#F0F0F0"/>
<path d="M257.629 104.083H254.861V106.851H257.629V104.083Z" fill="#F0F0F0"/>
<path d="M261.896 104.083H259.128V106.851H261.896V104.083Z" fill="#F0F0F0"/>
<path d="M266.162 104.083H263.394V106.851H266.162V104.083Z" fill="#F0F0F0"/>
<path d="M270.429 104.083H267.661V106.851H270.429V104.083Z" fill="#F0F0F0"/>
<path d="M274.696 104.083H271.928V106.851H274.696V104.083Z" fill="#F0F0F0"/>
<path d="M278.963 104.083H276.194V106.851H278.963V104.083Z" fill="#F0F0F0"/>
<path d="M283.23 104.083H280.461V106.851H283.23V104.083Z" fill="#F0F0F0"/>
<path d="M287.497 104.083H284.728V106.851H287.497V104.083Z" fill="#F0F0F0"/>
<path d="M291.764 104.083H288.995V106.851H291.764V104.083Z" fill="#F0F0F0"/>
<path d="M257.629 108.179H254.861V110.947H257.629V108.179Z" fill="#F0F0F0"/>
<path d="M261.896 108.179H259.128V110.947H261.896V108.179Z" fill="#F0F0F0"/>
<path d="M266.162 108.179H263.394V110.947H266.162V108.179Z" fill="#F0F0F0"/>
<path d="M270.429 108.179H267.661V110.947H270.429V108.179Z" fill="#F0F0F0"/>
<path d="M285.623 90.8274H261.001V93.2183H285.623V90.8274Z" fill="#E0E0E0"/>
<path d="M274.822 72.8755C274.822 73.6432 274.2 74.2654 273.431 74.2654C272.664 74.2654 272.041 73.6432 272.041 72.8755C272.041 72.1077 272.664 71.4849 273.431 71.4849C274.2 71.4855 274.822 72.1077 274.822 72.8755Z" fill="#E0E0E0"/>
<path d="M233.337 58.76H185.52V174.938H233.337V58.76Z" fill="#F0F0F0"/>
<path d="M230.418 61.6792H188.435V172.023H230.418V61.6792Z" fill="#FAFAFA"/>
<path d="M230.418 66.4053V74.7353L188.435 116.725V108.388L230.418 66.4053Z" fill="white"/>
<path d="M230.418 95.2168V106.967L188.435 148.95V137.193L230.418 95.2168Z" fill="white"/>
<path d="M210.873 58.76H207.983V174.938H210.873V58.76Z" fill="#F0F0F0"/>
<path d="M149.286 58.76H101.469V174.938H149.286V58.76Z" fill="#F0F0F0"/>
<path d="M146.368 61.6792H104.385V172.023H146.368V61.6792Z" fill="#FAFAFA"/>
<path d="M146.368 66.4053V74.7353L104.385 116.725V108.388L146.368 66.4053Z" fill="white"/>
<path d="M146.368 95.2168V106.967L104.385 148.95V137.193L146.368 95.2168Z" fill="white"/>
<path d="M126.823 58.76H123.933V174.938H126.823V58.76Z" fill="#F0F0F0"/>
<path d="M116.373 263.428C116.373 263.428 110.594 264.708 111.453 260.676C112.312 256.643 112.248 255.157 109.9 253.324C107.551 251.492 105.187 250.587 106.986 247.684C108.784 244.782 105.371 242.526 103.608 240.965C101.844 239.403 103.835 238.225 104.302 235.272C104.77 232.32 101.593 232.763 101.344 229.044C101.094 225.325 104.872 220.979 101.624 215.86C101.624 215.86 105.987 218.122 107.42 222.097C108.854 226.071 107.696 229.141 110.274 230.652C112.851 232.163 114.464 234.775 113.589 237.457C112.713 240.139 113.958 241.561 116.071 243.517C118.183 245.472 117.621 246.249 117.358 248.641C117.095 251.033 117.623 250.467 120.042 253.734C122.461 257.002 122.522 262.356 116.373 263.428Z" fill="#F0F0F0"/>
<path d="M117.196 263.25C117.184 263.23 117.174 263.21 117.167 263.188L105.603 228.089C105.553 227.938 105.635 227.775 105.786 227.726C105.788 227.725 105.789 227.725 105.791 227.724C105.941 227.678 106.1 227.76 106.149 227.909L117.713 263.007C117.722 263.035 117.726 263.065 117.728 263.093L117.196 263.25Z" fill="#E0E0E0"/>
<path d="M126.801 263.355C126.801 263.355 132.55 264.629 131.696 260.618C130.842 256.607 130.904 255.128 133.241 253.305C135.577 251.482 137.928 250.582 136.139 247.695C134.35 244.809 137.744 242.565 139.499 241.012C141.253 239.458 139.273 238.286 138.808 235.349C138.343 232.412 141.503 232.854 141.751 229.154C141.999 225.454 138.241 221.13 141.472 216.039C141.472 216.039 137.132 218.289 135.706 222.243C134.281 226.196 135.432 229.25 132.868 230.753C130.304 232.256 128.699 234.855 129.57 237.522C130.441 240.19 129.203 241.605 127.102 243.55C125 245.495 125.559 246.269 125.82 248.647C126.082 251.026 125.557 250.464 123.151 253.713C120.746 256.964 120.684 262.289 126.801 263.355Z" fill="#F0F0F0"/>
<path d="M125.453 263.021C125.454 262.993 125.458 262.964 125.467 262.936L136.97 228.024C137.019 227.875 137.178 227.793 137.327 227.839C137.329 227.84 137.33 227.841 137.332 227.841C137.482 227.891 137.563 228.053 137.514 228.202L126.011 263.115C126.005 263.137 125.994 263.158 125.982 263.177L125.453 263.021Z" fill="#E0E0E0"/>
<path d="M120.418 262.625C120.418 262.625 113.803 262.077 116.062 258.044C118.321 254.01 118.747 252.397 116.84 249.654C114.932 246.911 112.701 245.156 115.592 242.646C118.482 240.135 115.576 236.585 114.205 234.326C112.835 232.068 115.359 231.468 116.84 228.46C118.321 225.452 114.771 224.873 115.739 220.807C116.708 216.74 122.197 213.34 120.418 206.778C120.418 206.778 124.34 210.651 124.556 215.384C124.77 220.117 122.512 223.021 124.77 225.495C127.029 227.969 127.89 231.304 126.061 233.885C124.233 236.467 125.093 238.403 126.706 241.2C128.32 243.997 127.459 244.642 126.383 247.116C125.308 249.59 126.06 249.16 127.567 253.462C129.073 257.764 127.361 263.52 120.418 262.625Z" fill="#F5F5F5"/>
<path d="M121.359 262.707C121.352 262.682 121.348 262.657 121.348 262.631L120.618 221.197C120.615 221.02 120.757 220.872 120.935 220.869C120.937 220.869 120.939 220.869 120.941 220.869C121.117 220.869 121.261 221.01 121.264 221.187L121.993 262.619C121.995 262.653 121.989 262.685 121.98 262.716L121.359 262.707Z" fill="#E0E0E0"/>
<path d="M138.43 259.425H106.077C105.146 259.425 104.503 260.353 104.832 261.225L105.31 262.495L105.613 263.3L106.481 265.605L106.785 266.41L107.677 268.777L107.979 269.581L111.538 279.031H132.97L136.529 269.581L136.832 268.777L137.724 266.41L138.028 265.605L138.896 263.3L139.199 262.495L139.677 261.225C140.002 260.353 139.36 259.425 138.43 259.425Z" fill="#E6E6E6"/>
<path d="M61.1422 87.3059C67.5841 87.3059 72.8062 82.0837 72.8062 75.6418C72.8062 69.2 67.5841 63.9778 61.1422 63.9778C54.7003 63.9778 49.4781 69.2 49.4781 75.6418C49.4781 82.0837 54.7003 87.3059 61.1422 87.3059Z" fill="#E0E0E0"/>
<path d="M71.7388 77.4225C72.7209 71.5703 68.7728 66.0299 62.9206 65.0478C57.0684 64.0657 51.528 68.0138 50.5459 73.866C49.5638 79.7182 53.5119 85.2585 59.3641 86.2406C65.2163 87.2227 70.7567 83.2747 71.7388 77.4225Z" fill="#FAFAFA"/>
<path d="M61.1707 65.8738H60.7689V68.1151H61.1707V65.8738Z" fill="#E0E0E0"/>
<path d="M61.1707 83.1118H60.7689V85.3524H61.1707V83.1118Z" fill="#E0E0E0"/>
<path d="M53.4718 75.4121H51.2305V75.8147H53.4718V75.4121Z" fill="#E0E0E0"/>
<path d="M70.7091 75.4121H68.4685V75.8147H70.7091V75.4121Z" fill="#E0E0E0"/>
<path d="M67.7137 68.582L66.1291 70.167L66.4138 70.4516L67.9984 68.8666L67.7137 68.582Z" fill="#E0E0E0"/>
<path d="M55.5245 80.7712L53.9404 82.3557L54.2251 82.6403L55.8092 81.0558L55.5245 80.7712Z" fill="#E0E0E0"/>
<path d="M54.2247 68.5842L53.94 68.8689L55.5248 70.4537L55.8095 70.1691L54.2247 68.5842Z" fill="#E0E0E0"/>
<path d="M66.4135 80.771L66.1289 81.0557L67.714 82.6402L67.9986 82.3556L66.4135 80.771Z" fill="#E0E0E0"/>
<path d="M60.8993 75.3477L60.773 75.6685L64.5726 77.1646L64.6989 76.8438L60.8993 75.3477Z" fill="#E0E0E0"/>
<path d="M61.1422 75.7855H54.8753V75.4407H60.7974V70.5767H61.1422V75.7855Z" fill="#E0E0E0"/>
<path d="M318.06 309.918C318.06 311.716 252.011 313.174 170.535 313.174C89.0589 313.174 23.0105 311.717 23.0105 309.918C23.0105 308.12 89.0596 306.662 170.535 306.662C252.011 306.662 318.06 308.12 318.06 309.918Z" fill="#F5F5F5"/>
<path d="M144.058 76.4094C148.312 72.1558 148.312 65.2593 144.058 61.0056C139.804 56.752 132.908 56.752 128.654 61.0056C124.4 65.2593 124.4 72.1558 128.654 76.4094C132.908 80.6631 139.804 80.6631 144.058 76.4094Z" fill="#407BFF"/>
<path d="M141.819 68.7045V68.7099C141.819 69.2124 141.409 69.6218 140.901 69.6218H137.27V73.253C137.27 73.7555 136.859 74.1649 136.358 74.1649C135.85 74.1649 135.44 73.7548 135.44 73.253V69.6218H131.808C131.306 69.6218 130.897 69.2118 130.897 68.7099V68.7045C130.897 68.202 131.307 67.7926 131.808 67.7926H135.44V64.1614C135.44 63.6589 135.85 63.2495 136.358 63.2495C136.86 63.2495 137.27 63.6596 137.27 64.1614V67.7926H140.901C141.409 67.7926 141.819 68.2026 141.819 68.7045Z" fill="white"/>
<path d="M136.358 82.3629C136.178 82.3629 136.033 82.2174 136.033 82.0379V81.3878C136.033 81.2083 136.178 81.0627 136.358 81.0627C136.537 81.0627 136.683 81.2083 136.683 81.3878V82.0379C136.683 82.2181 136.537 82.3629 136.358 82.3629ZM136.683 97.6255V96.3267C136.683 96.1472 136.537 96.0017 136.358 96.0017C136.178 96.0017 136.033 96.1472 136.033 96.3267V97.6255C136.033 97.805 136.178 97.9505 136.358 97.9505C136.537 97.9505 136.683 97.805 136.683 97.6255ZM136.683 93.7284V92.4296C136.683 92.2501 136.537 92.1046 136.358 92.1046C136.178 92.1046 136.033 92.2501 136.033 92.4296V93.7284C136.033 93.9079 136.178 94.0535 136.358 94.0535C136.537 94.0535 136.683 93.9079 136.683 93.7284ZM136.683 89.8313V88.5325C136.683 88.353 136.537 88.2075 136.358 88.2075C136.178 88.2075 136.033 88.353 136.033 88.5325V89.8313C136.033 90.0109 136.178 90.1564 136.358 90.1564C136.537 90.1564 136.683 90.0115 136.683 89.8313ZM136.683 85.9349V84.6361C136.683 84.4566 136.537 84.3111 136.358 84.3111C136.178 84.3111 136.033 84.4566 136.033 84.6361V85.9349C136.033 86.1145 136.178 86.26 136.358 86.26C136.537 86.26 136.683 86.1145 136.683 85.9349ZM137.333 100.873C137.333 100.694 137.187 100.548 137.008 100.548H136.683V100.223C136.683 100.044 136.537 99.8981 136.358 99.8981C136.178 99.8981 136.033 100.044 136.033 100.223V100.873C136.033 101.053 136.178 101.198 136.358 101.198H137.008C137.187 101.198 137.333 101.053 137.333 100.873ZM152.104 100.873C152.104 100.694 151.958 100.548 151.779 100.548H150.548C150.368 100.548 150.223 100.694 150.223 100.873C150.223 101.053 150.368 101.198 150.548 101.198H151.779C151.958 101.198 152.104 101.053 152.104 100.873ZM148.411 100.873C148.411 100.694 148.265 100.548 148.086 100.548H146.855C146.675 100.548 146.53 100.694 146.53 100.873C146.53 101.053 146.675 101.198 146.855 101.198H148.086C148.265 101.198 148.411 101.053 148.411 100.873ZM144.718 100.873C144.718 100.694 144.573 100.548 144.393 100.548H143.162C142.983 100.548 142.837 100.694 142.837 100.873C142.837 101.053 142.983 101.198 143.162 101.198H144.393C144.573 101.198 144.718 101.053 144.718 100.873ZM141.026 100.873C141.026 100.694 140.88 100.548 140.701 100.548H139.47C139.29 100.548 139.145 100.694 139.145 100.873C139.145 101.053 139.29 101.198 139.47 101.198H140.701C140.88 101.198 141.026 101.053 141.026 100.873ZM155.215 100.873C155.215 100.694 155.07 100.548 154.89 100.548H154.24C154.061 100.548 153.915 100.694 153.915 100.873C153.915 101.053 154.061 101.198 154.24 101.198H154.89C155.07 101.198 155.215 101.053 155.215 100.873Z" fill="#407BFF"/>
<path d="M277.719 293.757L278.402 304.686L273.744 305.057L270.614 294.31L277.719 293.757Z" fill="#CE7A63"/>
<path d="M274.828 303.968C274.828 303.968 274.114 303.085 273.208 303.387C272.303 303.688 271.117 305.171 271.117 305.171C271.117 305.171 266.205 306.747 264.879 306.83C263.552 306.913 262.68 307.764 262.572 310.229H279.277C279.277 310.229 279.277 304.434 278.71 303.43C278.219 302.559 277.233 303.678 277.233 303.678L274.828 303.968Z" fill="#263238"/>
<path d="M262.953 309.467C263.917 309.455 264.886 309.444 265.85 309.433C270.074 309.389 274.302 309.344 278.526 309.305C278.688 309.299 278.688 309.054 278.526 309.054C278.242 309.059 277.952 309.059 277.668 309.059C277.668 309.049 277.668 309.042 277.662 309.032C277.05 307.689 277.757 306.318 278.966 305.633C279.105 305.555 278.983 305.338 278.844 305.421C277.528 306.163 276.81 307.628 277.411 309.066L275.623 309.083C271.4 309.127 267.176 309.172 262.953 309.217C262.791 309.216 262.791 309.467 262.953 309.467Z" fill="white"/>
<path d="M271.687 306.182C271.128 305.395 270.183 305.172 269.39 305.765C269.261 305.861 269.137 305.645 269.264 305.55C270.174 304.87 271.268 305.166 271.902 306.056C271.995 306.187 271.779 306.311 271.687 306.182Z" fill="white"/>
<path d="M270.301 306.6C269.742 305.814 268.797 305.591 268.004 306.184C267.875 306.279 267.751 306.063 267.878 305.969C268.788 305.288 269.882 305.584 270.516 306.474C270.609 306.605 270.393 306.73 270.301 306.6Z" fill="white"/>
<path d="M268.87 307.018C268.31 306.232 267.366 306.009 266.572 306.602C266.444 306.698 266.32 306.482 266.446 306.387C267.357 305.706 268.451 306.002 269.085 306.892C269.178 307.023 268.962 307.148 268.87 307.018Z" fill="white"/>
<path d="M241.998 293.642L241.349 304.682L236.645 305.057L234.826 294.201L241.998 293.642Z" fill="#CE7A63"/>
<path d="M237.729 303.968C237.729 303.968 237.015 303.086 236.11 303.387C235.204 303.688 234.019 305.171 234.019 305.171C234.019 305.171 229.106 306.747 227.78 306.83C226.453 306.913 225.292 307.659 224.794 310.229H240.88C240.88 310.229 241.513 304.425 241.611 303.43C241.709 302.435 240.134 303.679 240.134 303.679L237.729 303.968Z" fill="#263238"/>
<path d="M225.272 309.467C226.237 309.455 227.206 309.444 228.17 309.433C232.393 309.388 236.622 309.344 240.846 309.305C241.008 309.299 241.008 309.054 240.846 309.054C240.562 309.059 240.272 309.059 239.988 309.059C239.988 309.048 239.988 309.042 239.982 309.031C239.37 307.688 240.077 306.318 241.286 305.633C241.425 305.554 241.303 305.338 241.163 305.421C239.848 306.162 239.129 307.628 239.731 309.065L237.943 309.082C233.719 309.127 229.496 309.171 225.272 309.216C225.111 309.216 225.111 309.467 225.272 309.467Z" fill="white"/>
<path d="M234.588 306.182C234.029 305.395 233.084 305.172 232.29 305.765C232.162 305.861 232.038 305.645 232.164 305.55C233.075 304.87 234.169 305.166 234.803 306.056C234.896 306.187 234.68 306.311 234.588 306.182Z" fill="white"/>
<path d="M233.203 306.6C232.643 305.814 231.698 305.591 230.905 306.184C230.776 306.279 230.653 306.063 230.779 305.969C231.69 305.288 232.784 305.584 233.417 306.474C233.511 306.605 233.295 306.73 233.203 306.6Z" fill="white"/>
<path d="M231.771 307.018C231.212 306.232 230.266 306.009 229.473 306.602C229.344 306.698 229.221 306.482 229.347 306.387C230.258 305.706 231.352 306.002 231.985 306.892C232.079 307.023 231.864 307.148 231.771 307.018Z" fill="white"/>
<path d="M231.038 178.607C231.038 178.607 228.292 215.499 228.473 231.702C228.66 248.556 234.157 297.599 234.157 297.599H243.158C243.158 297.599 244.818 249.417 245.623 232.865C246.502 214.821 251.894 175.649 251.894 175.649L231.038 178.607Z" fill="#263238"/>
<path opacity="0.2" d="M247.34 212.79C248.043 206.17 248.856 199.329 249.593 193.35L248.539 187.04C248.539 187.04 245.012 196.891 247.34 212.79Z" fill="black"/>
<path d="M243.836 294.876C243.818 295.849 243.747 297.783 243.747 297.783H233.373L233.06 294.876H243.836Z" fill="#407BFF"/>
<path d="M246.397 175.649C246.397 175.649 249.129 216.283 252.066 231.496C255.283 248.154 269.882 297.599 269.882 297.599H279.614C279.614 297.599 273.363 249.629 271.699 233.135C269.893 215.234 269.108 179.087 269.108 179.087L246.397 175.649Z" fill="#263238"/>
<path d="M280.049 294.804C280.144 295.801 280.295 297.782 280.295 297.782H268.898L268.212 294.804H280.049Z" fill="#407BFF"/>
<path d="M270.765 182.546C251.31 183.872 236.684 183.974 228.932 181.05C228.394 146.791 229.591 125.48 231.203 120.271C231.638 118.871 232.59 117.701 233.896 117.035C235.235 116.341 237.282 115.539 240.029 115.131C244.102 114.525 250.848 114.349 255.52 114.362C258.083 114.369 260.715 114.566 262.884 114.784C265.577 115.063 267.338 117.47 267.222 120.176C266.991 125.385 266.971 130.655 267.093 135.823C267.168 138.802 267.284 141.739 267.433 144.615C268.406 162.982 270.731 178.541 270.765 182.546Z" fill="#407BFF"/>
<path opacity="0.2" d="M267.433 144.615L259.077 126.251L267.093 135.823C267.168 138.802 267.284 141.739 267.433 144.615Z" fill="black"/>
<path d="M242.843 87.6948C241.815 86.5789 238.369 86.4844 236.726 88.6332C234.974 90.9268 232.749 95.1755 231.335 94.0501C231.335 94.0501 231.918 96.1547 234.321 96.3172C234.321 96.3172 232.884 97.886 231.037 97.3066C231.037 97.3066 231.861 100.207 235.311 100.711C238.478 101.172 242.882 92.1066 243.581 90.6202C243.578 88.9814 243.453 89.0439 242.843 87.6948Z" fill="#263238"/>
<path d="M244.812 88.0934C247.623 87.7819 250.478 88.5748 252.621 90.421C254.02 91.6266 255.106 93.224 254.624 95.1232C253.498 99.5554 250.507 106.709 250.507 106.709L237.079 96.3846C237.079 96.3846 237.011 92.0795 239.172 89.943C240.296 88.8312 242.733 88.3246 244.812 88.0934Z" fill="#263238"/>
<path d="M242.345 87.8512C242.345 87.8512 246.969 84.5519 253.121 89.1262C259.273 93.7006 253.095 101.989 253.095 101.989C253.095 101.989 251.125 105.654 252.863 106.553C252.863 106.553 251.763 106.986 250.946 106.891C250.946 106.891 251.542 108.002 252.307 107.906C252.307 107.906 251.243 108.334 249.35 107.486C247.457 106.64 242.345 87.8512 242.345 87.8512Z" fill="#263238"/>
<path d="M242.64 110.7L242.638 110.706C242.644 110.728 242.646 110.741 242.653 110.762L243.019 113.447C243.01 113.985 242.952 114.514 242.848 115.023C242.761 115.452 242.641 115.864 242.501 116.258C241.832 116.97 241.342 118.714 243.372 118.973C245.934 119.305 251.1 116.14 251.409 115.03C250.655 111.38 250.169 107.161 250.774 103.837L247.457 106.64L242.64 110.7Z" fill="#CE7A63"/>
<path opacity="0.2" d="M242.653 110.763L243.019 113.448C244.714 112.914 246.587 111.542 247.182 109.883C247.603 108.684 247.19 107.463 246.701 107.339L242.653 110.763Z" fill="black"/>
<path d="M236.835 104.517C236.917 105.101 237.017 105.679 237.132 106.251C238.151 111.3 244.079 112.477 248.241 109.364C248.248 109.358 248.248 109.351 248.254 109.351C248.624 109.075 248.98 108.766 249.318 108.418C252.066 105.598 251.768 103.135 252.081 97.6615C252.394 92.195 247.011 88.0912 241.747 90.2604C236.89 92.2623 236.006 98.6754 236.835 104.517Z" fill="#CE7A63"/>
<path d="M243.389 100.063C243.395 100.505 243.167 100.865 242.878 100.869C242.59 100.873 242.351 100.519 242.345 100.078C242.339 99.6362 242.568 99.2758 242.856 99.2718C243.144 99.2677 243.383 99.622 243.389 100.063Z" fill="#263238"/>
<path d="M238.584 100.111C238.59 100.552 238.362 100.913 238.073 100.917C237.785 100.921 237.546 100.566 237.54 100.125C237.534 99.6838 237.763 99.3235 238.051 99.3194C238.339 99.3153 238.578 99.6696 238.584 100.111Z" fill="#263238"/>
<path d="M241.649 106.075C241.556 106.064 241.501 106.054 241.498 106.053C241.407 106.033 241.349 105.944 241.368 105.853C241.388 105.763 241.476 105.705 241.568 105.723C241.657 105.742 243.84 106.173 244.453 103.71C244.474 103.62 244.569 103.563 244.657 103.587C244.748 103.61 244.802 103.701 244.78 103.792C244.187 106.182 242.213 106.139 241.649 106.075Z" fill="#263238"/>
<path d="M252.077 98.1756C252.077 98.1756 250.717 99.1902 250.433 100.576C250.348 100.99 250.063 101.037 250.063 101.037L248.079 101.198C248.079 101.198 249.289 95.9221 247.872 95.8119C246.454 95.7018 248.284 93.4911 247.481 93.0375C245.587 91.9665 240.151 91.2314 237.64 94.2445C237.64 94.2445 238.602 91.0812 241.404 89.6634C244.206 88.2456 249.449 88.5332 251.229 91.3498C253.008 94.167 252.077 98.1756 252.077 98.1756Z" fill="#263238"/>
<path d="M254.444 101.3C254.047 102.723 253.031 103.83 251.964 104.409C250.36 105.28 249.152 103.943 249.258 102.217C249.354 100.662 250.304 98.3361 252.078 98.1763C253.825 98.0179 254.898 99.6737 254.444 101.3Z" fill="#CE7A63"/>
<path d="M237.27 98.2826C237.347 98.2819 237.419 98.2417 237.459 98.171C237.636 97.8535 237.862 97.6556 238.131 97.5822C238.575 97.4618 239.011 97.7093 239.016 97.7127C239.117 97.7732 239.253 97.7406 239.313 97.6359C239.374 97.5325 239.34 97.3992 239.236 97.338C239.213 97.3244 238.641 96.9933 238.017 97.1626C237.63 97.2673 237.314 97.5359 237.079 97.9595C237.02 98.0643 237.058 98.1969 237.163 98.2553C237.197 98.2737 237.234 98.2826 237.27 98.2826Z" fill="#263238"/>
<path d="M245.613 98.1085C245.645 98.1064 245.677 98.0969 245.706 98.0799C245.81 98.0201 245.846 97.8882 245.787 97.7841C245.773 97.7597 245.441 97.1898 244.814 97.028C244.426 96.9273 244.019 97.0042 243.605 97.2558C243.501 97.3183 243.469 97.4516 243.531 97.5543C243.594 97.6577 243.728 97.6896 243.83 97.627C244.139 97.4394 244.433 97.3788 244.702 97.4475C245.149 97.5618 245.407 97.9956 245.409 98.0004C245.453 98.0745 245.533 98.1139 245.613 98.1085Z" fill="#263238"/>
<path d="M240.753 99.6873C240.753 99.6873 240.437 101.096 239.325 102.041C238.213 102.985 240.418 103.809 240.418 103.809L240.753 99.6873Z" fill="#BA4D3C"/>
<path d="M250.223 99.2352C247.447 98.9557 245.718 99.9451 245.284 100.231C245.154 99.019 244.364 98.0806 243.403 98.0806C242.388 98.0806 241.563 99.1251 241.506 100.435C240.512 99.8465 239.825 100.195 239.55 100.402C239.48 99.108 238.662 98.0806 237.655 98.0806C236.603 98.0806 235.747 99.1998 235.747 100.577C235.747 101.952 236.603 103.072 237.655 103.072C238.698 103.072 239.545 101.973 239.561 100.615C239.651 100.524 240.344 99.8962 241.499 100.629C241.52 101.98 242.364 103.072 243.403 103.072C244.455 103.072 245.311 101.952 245.311 100.576C245.311 100.524 245.302 100.476 245.3 100.425C245.498 100.28 247.232 99.0972 250.206 99.4039C250.252 99.4113 250.295 99.3746 250.299 99.3277C250.304 99.2815 250.269 99.24 250.223 99.2352ZM237.655 102.902C236.697 102.902 235.917 101.859 235.917 100.576C235.917 99.2937 236.697 98.2499 237.655 98.2499C238.614 98.2499 239.394 99.293 239.394 100.576C239.393 101.859 238.614 102.902 237.655 102.902ZM243.403 102.902C242.444 102.902 241.665 101.859 241.665 100.576C241.665 99.2937 242.444 98.2499 243.403 98.2499C244.361 98.2499 245.141 99.293 245.141 100.576C245.141 101.859 244.361 102.902 243.403 102.902Z" fill="white"/>
<path d="M230.856 121.638L225.022 135.606C224.042 137.918 223.043 140.216 222.03 142.467C221.526 143.589 221.003 144.697 220.479 145.765C219.956 146.832 219.418 147.88 218.908 148.736C218.752 149.015 218.568 149.287 218.46 149.437L218.453 149.444L217.698 149.804L216.868 150.178L215.168 150.919L208.171 153.884C203.472 155.876 198.767 157.93 194.109 160.099L195.754 165.226C200.834 164.261 205.852 163.125 210.857 161.854C213.353 161.194 215.848 160.548 218.358 159.793L220.262 159.215L221.227 158.909L222.254 158.556L222.642 158.413L222.818 158.338L223.519 158.032C223.648 157.971 223.736 157.937 223.886 157.862C224.036 157.774 224.178 157.692 224.314 157.597C224.457 157.508 224.6 157.406 224.682 157.345C225.096 157.026 225.368 156.774 225.613 156.529C225.919 156.216 226.171 155.931 226.388 155.666C226.803 155.169 227.102 154.741 227.408 154.312C227.925 153.564 228.374 152.844 228.796 152.143C229.108 151.633 229.394 151.137 229.68 150.64C230.346 149.444 230.972 148.26 231.577 147.084C232.794 144.724 233.902 142.358 234.99 139.992C237.146 135.245 239.152 130.512 240.981 125.623L230.856 121.638ZM218.772 149.287L218.732 149.314L218.704 149.328L218.772 149.28C218.793 149.267 218.813 149.253 218.834 149.246C218.813 149.26 218.793 149.274 218.772 149.287Z" fill="#407BFF"/>
<path opacity="0.2" d="M230.332 130.186C229.768 134.232 228.802 152.096 228.802 152.096C228.802 152.096 228.802 152.109 228.796 152.143C228.374 152.844 227.925 153.564 227.408 154.312C227.102 154.741 226.803 155.169 226.388 155.666C226.762 147.091 230.332 130.186 230.332 130.186Z" fill="black"/>
<path d="M196.176 163.612C195.907 161.885 195.393 160.669 195.393 160.669C195.393 160.669 193.984 159.162 192.28 159.125C190.575 159.087 189.224 158.603 187.954 158.662C186.684 158.722 188.034 159.781 188.865 160.199C189.697 160.617 190.635 161.1 190.22 161.674C189.805 162.248 184.252 164.754 183.767 165.615C183.282 166.475 184.307 166.352 184.307 166.352C184.307 166.352 183.066 166.923 183.087 167.594C183.107 168.265 183.994 168.141 183.994 168.141C183.994 168.141 183.174 168.554 183.532 169.098C183.72 169.384 185.131 169.158 186.463 168.888C186.188 169.019 185.993 169.183 185.962 169.386C185.837 170.216 187.673 169.943 189.141 169.756C190.61 169.569 192.103 168.904 193.125 167.789C194.145 166.673 196.444 165.338 196.176 163.612ZM188.798 168.399C188.858 168.39 188.904 168.386 188.922 168.39C188.922 168.39 188.876 168.393 188.798 168.399Z" fill="#CE7A63"/>
<path d="M184.23 168.186C185.652 167.543 187.094 166.947 188.546 166.409C188.698 166.788 188.88 167.146 189.085 167.5C189.192 167.672 189.411 167.449 189.313 167.277C188.688 166.216 188.306 165.003 188.178 163.696C188.157 163.485 187.879 163.555 187.9 163.767C187.932 164.093 187.979 164.405 188.044 164.717C188.019 164.703 187.991 164.703 187.962 164.713C186.797 165.046 185.671 165.524 184.586 166.144C184.423 166.242 184.532 166.54 184.704 166.442C185.766 165.835 186.867 165.363 188.004 165.04C188.047 165.025 188.076 164.996 188.095 164.958C188.18 165.356 188.295 165.745 188.433 166.119C186.981 166.657 185.544 167.247 184.117 167.895C183.945 167.972 184.058 168.264 184.23 168.186Z" fill="#BA4D3C"/>
<path d="M189.678 164.896C190.779 163.405 192.443 162.845 193.982 163.413C194.155 163.479 194.263 163.165 194.089 163.099C192.42 162.481 190.641 163.108 189.449 164.711C189.331 164.88 189.559 165.056 189.678 164.896Z" fill="#BA4D3C"/>
<path d="M266.298 116.849C269.617 121.167 272.796 125.576 275.933 130.026C277.505 132.248 279.053 134.49 280.588 136.748C282.142 139.012 283.625 141.251 285.174 143.664L285.47 144.128L285.831 144.72L286.009 145.016L286.053 145.09L286.212 145.386L286.379 145.738C286.434 145.86 286.484 145.983 286.504 146.042C286.616 146.348 286.717 146.686 286.755 146.87L286.829 147.2L286.875 147.461C286.986 148.14 287.004 148.617 287.023 149.076C287.034 149.522 287.035 149.943 287.025 150.337C286.987 151.918 286.865 153.335 286.732 154.754C286.448 157.576 286.06 160.311 285.638 163.039C284.791 168.49 283.723 173.854 282.466 179.221L276.762 178.541C276.763 173.117 276.824 167.674 276.901 162.301C276.933 159.616 276.95 156.933 276.909 154.327C276.89 153.035 276.852 151.734 276.75 150.6C276.725 150.315 276.693 150.057 276.659 149.826C276.627 149.608 276.577 149.408 276.565 149.42C276.563 149.423 276.563 149.43 276.563 149.43L276.576 149.513C276.578 149.531 276.621 149.709 276.678 149.854L276.753 150.042C276.787 150.122 276.824 150.202 276.865 150.279L276.966 150.462L276.942 150.429L276.843 150.298L276.371 149.658C274.839 147.598 273.139 145.434 271.521 143.289C269.876 141.142 268.232 138.989 266.606 136.821C263.346 132.491 260.105 128.135 256.988 123.699L266.298 116.849Z" fill="#407BFF"/>
<path d="M282.351 178.878C281.108 175.65 278.326 176.474 277.509 177.293C277.509 177.293 275.443 179.383 275.024 180.582C274.605 181.779 273.991 182.949 274.205 183.495C274.305 183.748 274.664 183.48 275.022 183.121C274.807 183.749 274.672 184.258 274.692 184.508C274.692 184.508 275.005 187.811 276.291 188.842C277.577 189.874 277.333 186.905 277.333 186.905C277.333 186.905 277.488 189.847 280.598 188.899C281.79 188.536 283.113 185.007 283.324 183.039C283.865 181.366 282.351 178.878 282.351 178.878Z" fill="#CE7A63"/>
<path d="M243.075 113.985C243.075 113.985 240.424 113.694 239.011 115.306C238.445 117.285 239.693 119.641 241.043 122.018L243.975 118.991C244.172 118.992 242.655 116.411 243.075 113.985Z" fill="#407BFF"/>
<path opacity="0.2" d="M243.075 113.985C243.075 113.985 240.424 113.694 239.011 115.306C238.445 117.285 239.693 119.641 241.043 122.018L243.975 118.991C244.172 118.992 242.655 116.411 243.075 113.985Z" fill="black"/>
<path d="M250.956 112.538C249.7 115.432 247.023 117.34 243.975 118.99L245.631 122.018L255.849 114.363C255.849 114.363 252.904 111.767 250.956 112.538Z" fill="#407BFF"/>
<path opacity="0.2" d="M250.956 112.538C249.7 115.432 247.023 117.34 243.975 118.99L245.631 122.018L255.849 114.363C255.849 114.363 252.904 111.767 250.956 112.538Z" fill="black"/>
<path opacity="0.2" d="M243.994 123.357C243.994 123.646 243.76 123.879 243.472 123.879C243.184 123.879 242.95 123.646 242.95 123.357C242.95 123.07 243.184 122.836 243.472 122.836C243.76 122.836 243.994 123.07 243.994 123.357Z" fill="black"/>
<path opacity="0.2" d="M243.994 126.772C243.994 127.059 243.76 127.293 243.472 127.293C243.184 127.293 242.95 127.06 242.95 126.772C242.95 126.484 243.184 126.25 243.472 126.25C243.76 126.25 243.994 126.484 243.994 126.772Z" fill="black"/>
<path opacity="0.2" d="M243.994 130.186C243.994 130.474 243.76 130.708 243.472 130.708C243.184 130.708 242.95 130.474 242.95 130.186C242.95 129.898 243.184 129.665 243.472 129.665C243.76 129.665 243.994 129.898 243.994 130.186Z" fill="black"/>
<path d="M178.898 297.867L180.292 304.923H184.023L184.52 297.867H178.898Z" fill="#FFC3BD"/>
<path d="M183.531 304.027C183.531 304.027 184.239 303.154 185.136 303.452C186.033 303.751 187.207 305.219 187.207 305.219C187.207 305.219 192.073 306.78 193.387 306.862C194.7 306.945 195.85 307.684 196.343 310.23H180.41C180.41 310.23 179.783 304.481 179.686 303.495C179.589 302.51 181.149 303.741 181.149 303.741L183.531 304.027Z" fill="#263238"/>
<path d="M195.87 309.47C194.912 309.46 193.958 309.451 193 309.441C188.816 309.399 184.63 309.352 180.445 309.31C180.286 309.31 180.286 309.061 180.445 309.066C180.727 309.071 181.014 309.071 181.295 309.076C181.295 309.066 181.3 309.052 181.305 309.043C181.906 307.714 181.211 306.356 180.009 305.675C179.868 305.599 179.995 305.384 180.131 305.463C181.432 306.201 182.146 307.652 181.55 309.076C182.141 309.085 182.729 309.09 183.321 309.094C187.5 309.136 191.686 309.183 195.871 309.225C196.03 309.226 196.03 309.475 195.87 309.47Z" fill="#407BFF"/>
<path d="M186.642 306.22C187.197 305.442 188.133 305.221 188.919 305.808C189.046 305.903 189.169 305.689 189.043 305.595C188.141 304.922 187.057 305.214 186.43 306.096C186.338 306.225 186.551 306.348 186.642 306.22Z" fill="white"/>
<path d="M188.015 306.634C188.569 305.856 189.506 305.635 190.291 306.222C190.418 306.317 190.541 306.103 190.416 306.009C189.513 305.335 188.429 305.627 187.802 306.509C187.711 306.639 187.924 306.763 188.015 306.634Z" fill="white"/>
<path d="M189.433 307.049C189.987 306.27 190.923 306.049 191.709 306.636C191.836 306.731 191.959 306.517 191.833 306.423C190.931 305.749 189.847 306.042 189.22 306.924C189.128 307.054 189.341 307.177 189.433 307.049Z" fill="white"/>
<path d="M145.525 297.917L146.299 304.923H150.029L151.146 297.917H145.525Z" fill="#FFC3BD"/>
<path d="M149.537 304.027C149.537 304.027 150.245 303.154 151.142 303.452C152.038 303.751 153.213 305.219 153.213 305.219C153.213 305.219 158.078 306.78 159.392 306.862C160.706 306.945 161.856 307.684 162.349 310.23H146.416C146.416 310.23 145.789 304.481 145.691 303.495C145.594 302.51 147.155 303.741 147.155 303.741L149.537 304.027Z" fill="#263238"/>
<path d="M161.876 309.47C160.918 309.46 159.965 309.451 159.006 309.441C154.822 309.399 150.636 309.352 146.452 309.31C146.292 309.31 146.292 309.061 146.452 309.066C146.733 309.071 147.02 309.071 147.302 309.076C147.302 309.066 147.306 309.052 147.311 309.043C147.912 307.714 147.217 306.356 146.015 305.675C145.874 305.599 146.001 305.384 146.137 305.463C147.438 306.201 148.152 307.652 147.556 309.076C148.147 309.085 148.735 309.09 149.327 309.094C153.507 309.136 157.692 309.183 161.877 309.225C162.036 309.226 162.036 309.475 161.876 309.47Z" fill="#407BFF"/>
<path d="M152.649 306.22C153.203 305.442 154.14 305.221 154.926 305.808C155.053 305.903 155.176 305.689 155.05 305.595C154.148 304.922 153.064 305.214 152.437 306.096C152.344 306.225 152.557 306.348 152.649 306.22Z" fill="white"/>
<path d="M154.021 306.634C154.576 305.856 155.512 305.635 156.298 306.222C156.425 306.317 156.548 306.103 156.422 306.009C155.52 305.335 154.436 305.627 153.809 306.509C153.717 306.639 153.93 306.763 154.021 306.634Z" fill="white"/>
<path d="M155.439 307.049C155.993 306.27 156.93 306.049 157.715 306.636C157.842 306.731 157.965 306.517 157.84 306.423C156.937 305.749 155.853 306.042 155.226 306.924C155.134 307.054 155.348 307.177 155.439 307.049Z" fill="white"/>
<path d="M177.657 298.115H185.888C186.6 287.515 188.616 252.391 187.023 235.011C188.168 210.894 184.483 178.882 184.483 178.882H158.407C158.407 178.882 160.317 200.304 168.894 234.663C168.836 261.885 175.48 289.099 177.657 298.115Z" fill="#407BFF"/>
<path opacity="0.2" d="M177.657 298.115H185.888C186.6 287.515 188.616 252.391 187.023 235.011C188.168 210.894 184.483 178.882 184.483 178.882H158.407C158.407 178.882 160.317 200.304 168.894 234.663C168.836 261.885 175.48 289.099 177.657 298.115Z" fill="white"/>
<path opacity="0.2" d="M167.489 228.889C172.203 209.635 168.063 184.667 168.063 184.667L163.996 213.186L167.489 228.889Z" fill="black"/>
<path d="M176.676 297.909L177.28 301.037L186.719 300.997L186.725 297.867L176.676 297.909Z" fill="#263238"/>
<path d="M144.351 298.419H152.582C155.515 287.515 161.407 252.455 162.349 235.074C167.012 210.958 169.243 178.882 169.243 178.882H143.167C143.167 178.882 140.742 200.55 144.308 234.909C143.615 264.864 144.164 289.098 144.351 298.419Z" fill="#407BFF"/>
<path opacity="0.2" d="M144.351 298.419H152.582C155.515 287.515 161.407 252.455 162.349 235.074C167.012 210.958 169.243 178.882 169.243 178.882H143.167C143.167 178.882 140.742 200.55 144.308 234.909C143.615 264.864 144.164 289.098 144.351 298.419Z" fill="white"/>
<path d="M143.632 297.9L143.615 301.002L153.129 301.003L153.627 297.902L143.632 297.9Z" fill="#263238"/>
<path d="M187.894 182.818C169.806 189.768 140.341 184.729 140.341 184.729C140.538 179.772 140.722 172.101 140.824 163.744C140.851 161.5 140.872 159.209 140.885 156.903C140.912 152.483 140.912 148.023 140.878 143.813C140.872 143.473 140.872 143.133 140.865 142.8C140.844 140.733 140.81 138.734 140.77 136.843C140.763 136.612 140.763 136.381 140.756 136.15C140.674 132.43 140.538 129.139 140.368 126.507C140.035 121.55 142.735 116.933 147.638 116.11C149.127 115.859 150.738 115.634 152.411 115.457C152.806 115.41 153.214 115.376 153.622 115.335C158.266 114.879 163.366 114.675 168.017 114.811C168.248 114.811 168.486 114.818 168.718 114.825C168.833 114.832 168.969 114.832 169.085 114.839C169.282 114.845 169.493 114.852 169.69 114.866C171.757 114.947 173.729 115.104 175.49 115.335C179.489 115.852 183.038 119.007 183.106 123.046C183.168 126.745 183.528 134.559 184.052 143.371C184.256 146.703 184.48 150.192 184.725 153.646C185.67 167.253 186.874 180.438 187.894 182.818Z" fill="#263238"/>
<path opacity="0.2" d="M150.936 130.186C150.936 130.186 150.545 149.393 151.822 151.725C153.1 154.057 177.803 161.108 177.803 161.108C165.438 159.427 153.477 157.544 147.147 152.83L150.936 130.186Z" fill="black"/>
<path opacity="0.2" d="M178.652 166.75C164.257 170.157 147.42 165.784 140.824 163.744C140.851 161.5 140.872 159.209 140.885 156.903C151.024 164.404 178.652 166.75 178.652 166.75Z" fill="black"/>
<path d="M166.417 126.564L163.992 153.453L168.841 163.221L172.63 152.546L168.709 126.564H166.417Z" fill="#407BFF"/>
<path d="M166.995 120.78L164.376 124.663L167.454 128.223L170.532 123.64L166.995 120.78Z" fill="#407BFF"/>
<path d="M172.316 88.5529C169.489 87.5486 166.348 87.6751 163.688 89.0609C161.95 89.966 160.441 91.3518 160.478 93.4299C160.565 98.2797 161.917 106.393 161.917 106.393L178.288 98.9916C178.288 98.9916 179.48 94.9293 177.563 92.3378C176.139 90.4141 174.406 89.2955 172.316 88.5529Z" fill="#263238"/>
<path d="M166.204 88.1476C166.204 88.1476 163.992 86.9148 161.769 89.2098C159.916 91.1226 160.725 97.35 160.725 97.35L166.204 88.1476Z" fill="#263238"/>
<path d="M164.561 88.6604C164.561 88.6604 165.199 84.9599 171.953 86.0649C178.708 87.1699 184.063 92.7486 181.598 95.6699C179.225 98.4824 171.953 93.7999 171.953 93.7999L164.561 88.6604Z" fill="#263238"/>
<path d="M169.071 112.422L169.072 112.429C169.06 112.45 169.054 112.463 169.043 112.484L168.012 115.167C167.891 115.725 167.823 116.285 167.807 116.836C167.792 117.3 167.816 117.755 167.865 118.195C168.382 119.093 168.466 121.013 166.307 120.788C163.581 120.508 158.961 116.232 158.912 115.012C160.576 111.425 162.158 106.941 162.34 103.361L165.084 107.061L169.071 112.422Z" fill="#FFC3BD"/>
<path d="M166.995 120.78C167.64 119.356 167.633 117.64 167.86 116.102C167.86 116.102 167.979 114.959 168.311 114.39C168.311 114.39 170.177 113.956 171.27 114.942C171.705 117.923 171.359 120.878 170.481 123.816L166.995 120.78Z" fill="#263238"/>
<path d="M156.657 115.076C156.657 115.076 158.168 112.171 160.238 111.817C160.49 115.324 161.914 118.103 166.995 120.78L163.992 125.233C159.813 121.819 157.462 118.434 156.657 115.076Z" fill="#263238"/>
<g opacity="0.2">
<path d="M169.042 112.484L168.012 115.168C166.392 114.205 164.79 112.334 164.579 110.476C164.436 109.136 165.158 107.976 165.694 107.966L169.042 112.484Z" fill="black"/>
</g>
<path d="M176.566 107.447C176.34 108.03 176.096 108.602 175.839 109.165C173.561 114.131 167.154 113.908 163.612 109.683C163.607 109.675 163.609 109.668 163.602 109.667C163.288 109.292 162.995 108.886 162.73 108.445C160.576 104.867 161.483 102.395 162.489 96.668C163.492 90.9479 170.046 88.0164 174.954 91.534C179.484 94.7803 178.839 101.616 176.566 107.447Z" fill="#FFC3BD"/>
<path d="M165.788 98.874C165.788 98.874 165.76 103.653 167.63 104.333C169.5 105.013 170.89 103.427 172.943 105.41C172.943 105.41 174.289 104.7 175.532 105.636C176.776 106.572 176.565 107.127 176.565 107.127C176.565 107.127 176.092 114.256 169.565 113.431C163.04 112.605 162.246 106.202 162.7 102.802L163.987 98.5796L165.788 98.874Z" fill="#263238"/>
<path d="M170.033 105.541C170.033 105.541 171.74 106.158 174.08 106.704C174.08 106.704 173.255 108.619 171.186 107.731C169.868 107.165 170.033 105.541 170.033 105.541Z" fill="white"/>
<path d="M175.454 91.0016C172.904 88.8576 167.421 87.8818 164.899 90.3583C162.378 92.8349 162.366 97.2005 162.366 97.2005C162.366 97.2005 162.298 97.99 162.785 98.5102C162.833 98.5557 162.889 98.6373 162.949 98.7305L165.787 99.1936C166.013 98.0247 166.484 95.8922 167.282 95.7807C168.775 95.5712 167.758 93.9256 168.079 93.0015C169.121 89.9993 177.289 92.0522 178.228 96.6456C178.228 96.6456 178.003 93.1457 175.454 91.0016Z" fill="#263238"/>
<path d="M159.164 99.8512C159.229 101.417 160.009 102.806 160.97 103.663C162.416 104.953 163.987 103.865 164.297 102.056C164.576 100.429 164.159 97.7955 162.366 97.1999C160.6 96.6123 159.091 98.0614 159.164 99.8512Z" fill="#FFC3BD"/>
<path d="M170.864 100.188C170.758 100.626 170.906 101.038 171.192 101.107C171.478 101.175 171.797 100.875 171.901 100.437C172.007 99.9982 171.86 99.5868 171.573 99.5181C171.287 99.4494 170.968 99.7493 170.864 100.188Z" fill="#263238"/>
<path d="M175.5 101.283C175.395 101.721 175.542 102.133 175.829 102.201C176.116 102.27 176.433 101.971 176.538 101.532C176.644 101.094 176.496 100.682 176.21 100.613C175.923 100.544 175.605 100.844 175.5 101.283Z" fill="#263238"/>
<path d="M177.496 99.9511C177.417 99.9321 177.351 99.8729 177.328 99.79C177.223 99.4194 177.037 99.1603 176.777 99.0189C176.348 98.787 175.837 98.9366 175.832 98.9386C175.713 98.9767 175.581 98.91 175.543 98.787C175.505 98.6652 175.573 98.5361 175.695 98.498C175.722 98.4891 176.393 98.2865 176.997 98.6129C177.371 98.8155 177.632 99.1691 177.772 99.6635C177.808 99.7859 177.736 99.9137 177.614 99.9484C177.573 99.96 177.533 99.96 177.496 99.9511Z" fill="#263238"/>
<path d="M169.915 98.145C169.879 98.1362 169.845 98.1192 169.814 98.094C169.708 98.0063 169.693 97.8492 169.781 97.7431C169.801 97.7186 170.289 97.1372 171.03 97.0747C171.49 97.0366 171.937 97.2018 172.358 97.5684C172.462 97.6595 172.474 97.8172 172.383 97.9213C172.292 98.026 172.134 98.0362 172.03 97.9458C171.716 97.6731 171.395 97.5473 171.076 97.5724C170.546 97.6146 170.171 98.0566 170.167 98.0614C170.103 98.1382 170.005 98.1668 169.915 98.145Z" fill="#263238"/>
<path d="M173.913 100.303C173.913 100.303 174.144 102.341 174.763 103.753C175.385 105.17 172.943 104.641 172.943 104.641L173.913 100.303Z" fill="#ED847E"/>
<path d="M192.237 165.491C191.327 163.915 187.998 162.472 187.998 162.472C187.562 162.32 186.468 162.328 185.27 162.397L185.401 162.385C185.401 162.385 187.58 161.136 187.031 160.832C186.483 160.529 185.157 161.017 183.828 161.294C182.499 161.572 181.006 162.794 181.006 162.794C180.033 163.383 179.472 165.214 180.159 167.632C180.159 167.632 182.936 170.275 184.912 170.639C186.861 171.117 190.846 171.359 191.733 170.141C193.593 167.585 190.159 165.788 190.159 165.788C190.159 165.788 193.148 167.068 192.237 165.491Z" fill="#FFC3BD"/>
<path d="M179.931 161.643L179.156 166.967C173.505 166.661 167.929 166.151 162.319 165.403C159.51 165.036 156.709 164.587 153.873 164.057C152.452 163.792 151.031 163.486 149.576 163.125C148.12 162.758 146.665 162.37 145.02 161.731C144.605 161.568 144.17 161.384 143.694 161.153C143.218 160.908 142.714 160.636 142.055 160.133C141.722 159.875 141.348 159.562 140.899 159.032C140.681 158.773 140.43 158.42 140.198 157.991C140.076 157.746 139.967 157.529 139.858 157.23C139.811 157.08 139.763 156.93 139.716 156.781L139.682 156.631C139.478 155.808 139.43 155.326 139.369 154.843C139.178 153.054 139.144 151.633 139.11 150.151C139.083 147.234 139.131 144.412 139.24 141.583C139.43 135.932 139.838 130.37 140.409 124.76L151.248 125.705C151.092 128.438 150.84 131.206 150.664 133.953L150.024 142.188C149.82 144.922 149.596 147.655 149.48 150.307C149.433 151.239 149.392 152.198 149.385 153.027C150.215 153.415 151.214 153.796 152.214 154.142C153.438 154.564 154.71 154.958 155.995 155.353C158.565 156.135 161.21 156.842 163.862 157.549C169.173 158.936 174.572 160.296 179.931 161.643Z" fill="#263238"/>
<path d="M227.687 126.167C224.036 129.615 220.241 132.852 216.318 135.973C214.366 137.55 212.353 139.053 210.279 140.57C209.225 141.304 208.164 142.038 206.961 142.78C206.655 142.963 206.342 143.147 205.995 143.337C205.642 143.534 205.274 143.732 204.73 143.956C204.438 144.065 204.139 144.194 203.5 144.337L203.221 144.384C203.126 144.398 202.976 144.418 202.854 144.425C202.582 144.446 202.235 144.466 201.684 144.398L201.487 144.364L201.208 144.31C201.031 144.269 200.848 144.214 200.678 144.153L200.582 144.126L200.392 144.058C200.161 143.97 199.855 143.861 199.678 143.779L199.093 143.521C197.645 142.848 196.516 142.208 195.36 141.549C194.218 140.882 193.116 140.23 192.042 139.536C189.893 138.162 187.785 136.782 185.731 135.34C185.622 135.266 185.514 135.191 185.405 135.116C184.766 134.667 184.133 134.218 183.508 133.77C180.169 131.39 176.925 128.935 173.743 126.324L180.393 117.715C184.358 120.544 188.281 123.529 192.164 126.466C194.116 127.915 196.04 129.404 197.978 130.812C198.95 131.512 199.902 132.226 200.848 132.892C201.528 133.368 202.235 133.851 202.86 134.246C203.724 133.844 204.642 133.368 205.56 132.892C207.688 131.811 209.824 130.614 211.986 129.452C216.297 127.106 220.656 124.726 225.09 122.488L227.687 126.167Z" fill="#263238"/>
<path opacity="0.2" d="M185.405 135.116C184.766 134.667 184.133 134.219 183.508 133.77L182.93 124.474L185.405 135.116Z" fill="black"/>
<path d="M227.246 126.251C227.246 126.251 228.617 126.158 229.201 125.205C230.332 123.357 232.113 123.019 232.827 122.626C233.541 122.235 232.723 121.018 230.911 121.407C230.911 121.407 231.688 118.884 232.313 118.274C232.938 117.663 236.233 116.357 236.17 115.883C236.108 115.409 233.559 116.175 232.071 116.849C230.583 117.523 227.565 121.26 224.846 122.598C224.847 122.598 223.776 125.427 227.246 126.251Z" fill="#FFC3BD"/>
<path d="M97.833 123.308C98.4266 127.785 98.8666 132.287 99.2589 136.786C99.4718 139.034 99.6248 141.288 99.8172 143.53L100.069 146.885L100.314 149.882C100.297 149.964 100.403 150.461 100.53 150.903C100.652 151.356 100.807 151.855 100.967 152.353C101.287 153.356 101.659 154.384 102.019 155.423C102.743 157.507 103.543 159.597 104.308 161.71C105.869 165.921 107.455 170.17 108.928 174.453L104.102 176.846C101.57 173.01 99.2324 169.1 96.9857 165.101C95.8501 163.106 94.7811 161.073 93.7108 159.002C93.1784 157.962 92.6738 156.903 92.1672 155.8C91.9149 155.244 91.666 154.686 91.4192 154.07C91.1717 153.445 90.9282 152.862 90.6705 151.839L90.5808 151.43L90.5345 151.181L90.4502 150.717L90.2938 149.826L90.0048 148.11L89.4622 144.723C89.1358 142.469 88.789 140.225 88.5047 137.973C87.9056 133.475 87.3759 128.977 87.0148 124.452L97.833 123.308Z" fill="#407BFF"/>
<path d="M93.7992 185.487L80.4556 169.733C80.1217 169.34 80.1706 168.749 80.5644 168.416L102.749 149.624C103.143 149.29 103.733 149.339 104.067 149.733L117.412 165.486C117.745 165.88 117.696 166.47 117.302 166.804L95.1171 185.596C94.7227 185.93 94.1331 185.881 93.7992 185.487Z" fill="#263238"/>
<path opacity="0.2" d="M93.7992 185.487L80.4556 169.733C80.1217 169.34 80.1706 168.749 80.5644 168.416L102.749 149.624C103.143 149.29 103.733 149.339 104.067 149.733L117.412 165.486C117.745 165.88 117.696 166.47 117.302 166.804L95.1171 185.596C94.7227 185.93 94.1331 185.881 93.7992 185.487Z" fill="white"/>
<path d="M101.861 167.61C101.861 169.227 100.55 170.538 98.9332 170.538C97.3162 170.538 96.0045 169.227 96.0045 167.61C96.0045 165.993 97.3155 164.682 98.9332 164.682C100.55 164.681 101.861 165.993 101.861 167.61Z" fill="#263238"/>
<path d="M84.1758 88.7727C84.1758 88.7727 79.0303 88.7115 77.7798 94.52C76.4762 100.575 76.0981 98.1886 73.3305 101.072C70.5629 103.955 73.5876 107.863 68.8174 110.036C68.8174 110.036 72.7919 113.902 80.5331 112.382C88.2742 110.863 87.1916 116.376 97.1801 114.919C97.1801 114.919 95.6175 112.028 97.7921 109.428C99.9668 106.827 98.3498 104.931 98.4395 102.169C98.5293 99.4079 99.2392 93.4042 95.4455 90.8215C91.6517 88.2382 88.3089 89.367 88.3089 89.367C88.3089 89.367 86.0975 88.4728 84.1758 88.7727Z" fill="#263238"/>
<path d="M97.6181 296.528L99.5683 304.553H103.794L103.986 296.528H97.6181Z" fill="#FF8B7B"/>
<path d="M116.064 310.23C115.835 307.615 114.687 306.834 113.269 306.745C111.793 306.652 106.527 304.889 106.527 304.889C106.527 304.889 105.427 303.228 104.458 302.891C103.488 302.554 102.55 303.542 102.55 303.542L99.8974 303.218C99.8974 303.218 99.1025 302.024 98.5551 303.071C97.7072 304.691 97.8098 309.178 97.8887 310.23H116.064V310.23Z" fill="#407BFF"/>
<path d="M115.72 309.546C114.62 309.541 113.525 309.536 112.425 309.531C107.619 309.508 102.815 309.48 98.0091 309.457C97.8255 309.457 97.8629 309.176 98.0458 309.18C98.3688 309.184 98.6986 309.182 99.0223 309.186C99.0236 309.175 99.0311 309.159 99.0379 309.148C99.9294 307.642 99.3351 306.112 98.0553 305.349C97.9043 305.264 98.0832 305.019 98.2273 305.109C99.6118 305.935 100.214 307.572 99.3133 309.184C99.9926 309.191 100.667 309.193 101.347 309.195C106.147 309.218 110.952 309.246 115.757 309.27C115.941 309.269 115.903 309.55 115.72 309.546Z" fill="black"/>
<path d="M105.73 306.019C106.48 305.139 107.575 304.89 108.374 305.553C108.503 305.661 108.676 305.419 108.548 305.313C107.631 304.55 106.358 304.882 105.509 305.878C105.384 306.025 105.607 306.164 105.73 306.019Z" fill="white"/>
<path d="M107.22 306.488C107.97 305.608 109.065 305.358 109.864 306.022C109.993 306.129 110.165 305.888 110.038 305.781C109.121 305.019 107.848 305.35 106.999 306.347C106.874 306.493 107.097 306.632 107.22 306.488Z" fill="white"/>
<path d="M108.761 306.955C109.511 306.076 110.605 305.826 111.404 306.49C111.533 306.597 111.706 306.355 111.578 306.249C110.662 305.487 109.388 305.818 108.539 306.815C108.415 306.962 108.638 307.1 108.761 306.955Z" fill="white"/>
<path d="M80.1366 191.409C80.9961 199.495 82.6866 209.956 85.7459 223.42C86.6347 227.332 87.6397 231.499 88.7767 235.936C85.6657 261.623 97.8391 298.733 97.8391 298.733L104.359 298.587C104.359 298.587 105.177 257.116 104.41 235.404C103.153 199.831 98.8203 165.945 98.8203 165.945L81.0614 165.875C81.0614 165.875 77.9946 171.221 80.1366 191.409Z" fill="#263238"/>
<path opacity="0.2" d="M80.1366 191.409C80.9961 199.495 82.6866 209.956 85.7459 223.42C89.4832 209.192 82.7227 178.827 82.7227 178.827L80.1366 191.409Z" fill="black"/>
<path d="M105.108 300.121L105.314 297.329H96.6158L97.1074 300.121H105.108Z" fill="#263238"/>
<path d="M70.5847 296.528L72.5349 304.553H76.7604L76.9522 296.528H70.5847Z" fill="#FF8B7B"/>
<path d="M78.2326 300.121L78.4387 297.329H69.7408L70.2324 300.121H78.2326Z" fill="#263238"/>
<path d="M89.031 310.23C88.8019 307.615 87.6534 306.834 86.2356 306.745C84.76 306.652 79.4934 304.889 79.4934 304.889C79.4934 304.889 78.3931 303.228 77.4241 302.891C76.4544 302.554 75.5167 303.542 75.5167 303.542L72.864 303.218C72.864 303.218 72.0691 302.024 71.5217 303.071C70.6744 304.691 70.7764 309.178 70.8553 310.23H89.031V310.23Z" fill="#407BFF"/>
<path d="M88.687 309.546C87.5867 309.541 86.4919 309.536 85.3917 309.531C80.5861 309.508 75.7812 309.48 70.9757 309.457C70.7921 309.457 70.8295 309.176 71.0124 309.18C71.3354 309.184 71.6652 309.182 71.9882 309.186C71.9896 309.175 71.997 309.159 72.0038 309.148C72.8953 307.642 72.301 306.112 71.0212 305.349C70.8703 305.264 71.0491 305.019 71.1933 305.109C72.5778 305.935 73.1802 307.572 72.2792 309.184C72.9586 309.191 73.6331 309.193 74.3124 309.195C79.1126 309.218 83.9174 309.246 88.723 309.27C88.9073 309.269 88.8699 309.55 88.687 309.546Z" fill="black"/>
<path d="M78.6971 306.019C79.4464 305.139 80.5419 304.89 81.3402 305.553C81.4694 305.661 81.6421 305.419 81.5143 305.313C80.5983 304.55 79.3247 304.882 78.4754 305.878C78.3509 306.025 78.5733 306.164 78.6971 306.019Z" fill="white"/>
<path d="M80.1869 306.488C80.9363 305.608 82.0318 305.358 82.8301 306.022C82.9593 306.129 83.132 305.888 83.0042 305.781C82.0882 305.019 80.8146 305.35 79.9653 306.347C79.8408 306.493 80.0632 306.632 80.1869 306.488Z" fill="white"/>
<path d="M81.7278 306.955C82.4772 306.076 83.572 305.826 84.3703 306.49C84.4995 306.597 84.6722 306.355 84.5444 306.249C83.6278 305.487 82.3548 305.818 81.5055 306.815C81.3817 306.962 81.6048 307.1 81.7278 306.955Z" fill="white"/>
<path d="M86.2519 167.312C86.2519 167.312 82.9307 216.417 81.8461 235.936C80.6065 258.232 77.8158 296.237 77.4384 298.725H70.6996C71.4721 299.476 62.05 265.364 65.8485 237.589C62.2887 211.024 57.9564 191.573 63.5412 166.561L86.2519 167.312Z" fill="#263238"/>
<path d="M61.5155 168.498C75.6779 173.175 99.4779 171.638 99.4779 168.396C99.4779 159.26 96.2431 148.989 97.1101 143.037C103.805 138.352 98.5741 134.12 99.1569 127.177C99.6084 121.881 95.8569 117.131 90.6188 116.228C89.4098 116.024 88.1565 115.82 86.9251 115.66C86.6701 115.623 86.4225 115.594 86.1743 115.565C82.8818 115.157 79.749 115.077 76.2742 115.099C75.0652 115.099 73.8119 115.121 72.5002 115.136C71.196 115.157 69.9217 115.216 68.7119 115.303C64.2097 115.616 60.9531 119.769 61.7474 124.227C62.9054 130.806 63.5616 137.02 63.8091 142.666C63.8676 143.941 63.9111 145.172 63.9254 146.382C63.9982 151.11 63.7799 155.379 63.3501 159.058C63.3427 159.138 63.3284 159.218 63.3209 159.291C63.1169 160.966 62.8694 162.511 62.5777 163.924C62.4906 164.369 62.3954 164.791 62.2934 165.206C62.0915 166.087 61.7487 167.624 61.5155 168.498Z" fill="#407BFF"/>
<path opacity="0.2" d="M99.4758 168.395C99.4758 171.639 75.6758 173.176 61.5182 168.497C61.7494 167.627 62.0894 166.083 62.2934 165.206C62.3954 164.791 62.4906 164.37 62.579 163.921C62.8714 162.506 63.1162 160.963 63.3202 159.29C63.327 159.215 63.3474 159.134 63.3542 159.059C63.7826 155.38 64.0002 151.11 63.9254 146.384C63.9118 145.173 63.871 143.942 63.8098 142.664C63.7282 140.794 63.6058 138.87 63.4222 136.884C63.3134 135.606 63.1842 134.3 63.0278 132.981C62.7014 130.152 62.2798 127.228 61.7494 124.229C60.9538 119.768 64.211 115.614 68.7126 115.301C69.923 115.212 71.1946 115.158 72.5002 115.138C73.8126 115.117 75.0638 115.097 76.2742 115.097C79.749 115.076 82.8838 115.158 86.175 115.566C86.4266 115.593 86.6714 115.62 86.923 115.661C88.1538 115.818 89.4118 116.022 90.6222 116.226C95.8582 117.13 99.6118 121.883 99.1562 127.174C98.5782 134.116 103.807 138.353 97.1094 143.038C96.2458 148.988 99.4758 159.263 99.4758 168.395Z" fill="white"/>
<path opacity="0.2" d="M70.4874 126.242L63.4222 136.884C63.3134 135.606 63.1842 134.3 63.0278 132.981V132.954L70.4874 126.242Z" fill="black"/>
<path d="M86.9264 127.246C86.9264 127.497 87.1297 127.701 87.3807 127.701C87.6316 127.701 87.8349 127.497 87.8349 127.246C87.8349 126.996 87.6316 126.792 87.3807 126.792C87.1297 126.792 86.9264 126.996 86.9264 127.246Z" fill="#407BFF"/>
<path d="M87.6561 131.783C87.907 131.783 88.1103 131.58 88.1103 131.329C88.1103 131.078 87.907 130.875 87.6561 130.875C87.4052 130.875 87.2018 131.078 87.2018 131.329C87.2018 131.58 87.4052 131.783 87.6561 131.783Z" fill="#407BFF"/>
<path d="M87.6561 135.938C87.907 135.938 88.1103 135.735 88.1103 135.484C88.1103 135.233 87.907 135.03 87.6561 135.03C87.4052 135.03 87.2018 135.233 87.2018 135.484C87.2018 135.735 87.4052 135.938 87.6561 135.938Z" fill="#407BFF"/>
<path d="M76.2749 115.098C79.6287 120.991 87.518 124.52 87.518 124.52C88.5829 121.879 88.249 117.646 86.9257 115.659C86.6707 115.623 86.4232 115.593 86.175 115.565C82.8825 115.157 79.7504 115.076 76.2749 115.098Z" fill="#FF8B7B"/>
<path d="M87.0155 117.413C87.0441 117.501 87.0815 117.591 87.1393 117.682C88.2803 119.481 87.04 121.124 85.0768 120.983C84.8858 120.969 84.6988 120.943 84.5152 120.906C83.81 120.765 83.1565 120.402 82.6683 119.874C82.6662 119.872 82.6642 119.869 82.6621 119.867C80.31 117.314 77.7798 115.38 77.7798 115.38C80.7296 113.799 81.8074 108.183 82.0814 104.675L86.6612 110.506L87.5187 111.779C87.1046 112.513 86.734 113.275 86.5259 114.031C86.1873 115.203 86.2213 116.367 87.0155 117.413Z" fill="#FF8B7B"/>
<path d="M78.2333 115.095C78.2333 115.095 75.4902 114.382 73.3305 115.095L77.7797 122.74C80.123 121.033 82.807 123.249 87.5187 124.52C87.5187 124.52 81.9053 121.698 78.2333 115.095Z" fill="#407BFF"/>
<path d="M78.2333 115.095C78.2333 115.095 75.4902 114.382 73.3305 115.095L77.7797 122.74C80.123 121.033 82.807 123.249 87.5187 124.52C87.5187 124.52 81.9053 121.698 78.2333 115.095Z" fill="#407BFF"/>
<path d="M86.3253 115.444C86.3253 115.444 89.0433 114.946 90.6195 116.227C90.6195 116.227 91.528 119.269 91.8918 122.244C91.8918 122.244 89.2765 120.938 87.518 124.52C87.518 124.52 88.4082 118.814 86.3253 115.444Z" fill="#407BFF"/>
<path d="M86.3253 115.444C86.3253 115.444 89.0433 114.946 90.6195 116.227C90.6195 116.227 91.528 119.269 91.8918 122.244C91.8918 122.244 89.2765 120.938 87.518 124.52C87.518 124.52 88.4082 118.814 86.3253 115.444Z" fill="#407BFF"/>
<g opacity="0.2">
<path d="M86.5259 114.031C86.734 113.275 87.1046 112.514 87.5187 111.78L86.6612 110.507L83.7773 110.573C83.7773 110.573 84.5342 112.9 86.5259 114.031Z" fill="black"/>
</g>
<path d="M81.243 98.424C80.784 104.188 80.4691 106.619 82.8879 109.95C86.5266 114.961 93.5727 114.237 95.7113 108.719C97.6364 103.752 98.0635 95.16 92.8961 92.1149C87.8057 89.1148 81.702 92.6596 81.243 98.424Z" fill="#FF8B7B"/>
<path d="M82.5098 102.197C79.6198 101.429 80.7554 98.4438 80.7554 98.4438L85.0122 99.1034C85.0122 99.1034 85.3998 102.959 82.5098 102.197Z" fill="#263238"/>
<path d="M94.1779 92.6501C94.1779 92.6501 94.1038 95.838 90.1938 96.008C86.2838 96.178 86.6266 101.957 82.248 101.044C77.8688 100.131 80.0367 94.6908 81.9067 93.2458C83.7767 91.8008 88.3877 87.4651 94.1779 92.6501Z" fill="#263238"/>
<path d="M93.3089 107.308C93.3089 107.308 90.5012 106.039 89.8837 104.815C89.8837 104.815 89.4717 107.002 90.9425 107.809C92.4133 108.615 93.3089 107.308 93.3089 107.308Z" fill="white"/>
<path d="M90.729 100.995C90.6637 101.46 90.8575 101.872 91.1615 101.915C91.4654 101.957 91.7653 101.615 91.8306 101.149C91.8959 100.684 91.7027 100.272 91.3981 100.229C91.0941 100.187 90.7943 100.529 90.729 100.995Z" fill="#263238"/>
<path d="M95.4577 101.764C95.3924 102.229 95.5862 102.641 95.8902 102.684C96.1942 102.726 96.494 102.384 96.5593 101.918C96.6246 101.453 96.4315 101.041 96.1268 100.998C95.8222 100.956 95.523 101.298 95.4577 101.764Z" fill="#263238"/>
<path d="M95.9888 101.005L97.1516 100.84C97.1516 100.84 96.4553 101.633 95.9888 101.005Z" fill="#263238"/>
<path d="M93.721 101.668C93.721 101.668 94.35 103.013 95.0701 104.207C95.304 104.594 95.1293 105.104 94.6975 105.245C93.9563 105.487 93.1818 105.534 93.1818 105.534L93.721 101.668Z" fill="#FF5652"/>
<path d="M78.6536 102.097C79.0112 103.263 79.8102 104.075 80.6215 104.43C81.8421 104.963 82.669 103.659 82.5112 102.195C82.3691 100.877 81.5626 99.0108 80.2502 99.1087C78.9568 99.2046 78.2449 100.764 78.6536 102.097Z" fill="#FF8B7B"/>
<path d="M89.4547 99.1325C89.5274 99.1325 89.6009 99.1026 89.6546 99.0461C90.4998 98.1513 91.5008 98.3199 91.5123 98.3213C91.6606 98.3471 91.8061 98.2492 91.8333 98.0989C91.8605 97.9486 91.7605 97.8058 91.6109 97.7779C91.5586 97.7684 90.3019 97.5556 89.2534 98.6674C89.1493 98.7782 89.1548 98.953 89.2649 99.0577C89.318 99.108 89.386 99.1325 89.4547 99.1325Z" fill="#263238"/>
<path d="M97.6276 99.969C97.6956 99.9744 97.7663 99.9561 97.8241 99.9092C97.9424 99.814 97.9608 99.6399 97.8663 99.5209C96.9088 98.3316 95.6399 98.4438 95.5855 98.4492C95.4339 98.4648 95.3231 98.5995 95.3387 98.7518C95.3537 98.9028 95.489 99.0136 95.6399 98.9993C95.6896 98.9946 96.6756 98.9218 97.4358 99.8677C97.4855 99.9282 97.5548 99.9636 97.6276 99.969Z" fill="#263238"/>
<path d="M91.2601 100.236L92.4229 100.071C92.4229 100.071 91.7266 100.864 91.2601 100.236Z" fill="#263238"/>
<path d="M55.9082 151.178C58.2814 154.986 60.9266 158.814 63.5174 162.588L59.5122 166.192C55.9218 162.983 52.6102 159.623 49.4414 155.938C47.8502 154.088 46.3338 152.164 44.8854 149.933C44.525 149.369 44.1714 148.784 43.8314 148.131C43.4914 147.479 43.1582 146.778 42.859 145.894C42.7094 145.459 42.5734 144.956 42.4714 144.344C42.3762 143.739 42.2878 143.004 42.451 141.971C42.621 141.025 42.859 140.461 43.0698 139.951C43.2806 139.448 43.4914 139.074 43.6954 138.693C44.5114 137.258 45.307 136.225 46.1026 135.184C46.905 134.157 47.7074 133.199 48.5166 132.267C50.1622 130.431 51.8078 128.67 53.5146 126.983C56.9078 123.597 60.369 120.415 64.0886 117.368L71.1538 125.644L60.981 134.797C59.315 136.34 57.6422 137.85 56.085 139.407C55.2962 140.169 54.5278 140.937 53.8206 141.699C53.1202 142.44 52.4606 143.229 52.0526 143.779C52.0458 143.793 52.0322 143.8 52.0254 143.813C52.073 143.943 52.1206 144.085 52.175 144.228C52.3314 144.629 52.5218 145.071 52.7258 145.527C53.5826 147.349 54.7386 149.267 55.9082 151.178Z" fill="#407BFF"/>
<path opacity="0.2" d="M55.9082 151.178C58.2814 154.986 60.9266 158.814 63.5174 162.588L59.5122 166.192C55.9218 162.983 52.6102 159.623 49.4414 155.938C47.8502 154.088 46.3338 152.164 44.8854 149.933C44.525 149.369 44.1714 148.784 43.8314 148.131C43.4914 147.479 43.1582 146.778 42.859 145.894C42.7094 145.459 42.5734 144.956 42.4714 144.344C42.3762 143.739 42.2878 143.004 42.451 141.971C42.621 141.025 42.859 140.461 43.0698 139.951C43.2806 139.448 43.4914 139.074 43.6954 138.693C44.5114 137.258 45.307 136.225 46.1026 135.184C46.905 134.157 47.7074 133.199 48.5166 132.267C50.1622 130.431 51.8078 128.67 53.5146 126.983C56.9078 123.597 60.369 120.415 64.0886 117.368L71.1538 125.644L60.981 134.797C59.315 136.34 57.6422 137.85 56.085 139.407C55.2962 140.169 54.5278 140.937 53.8206 141.699C53.1202 142.44 52.4606 143.229 52.0526 143.779C52.0458 143.793 52.0322 143.8 52.0254 143.813C52.073 143.943 52.1206 144.085 52.175 144.228C52.3314 144.629 52.5218 145.071 52.7258 145.527C53.5826 147.349 54.7386 149.267 55.9082 151.178Z" fill="white"/>
<path d="M63.2502 160.901C63.2502 160.901 67.7681 162.576 68.4651 163.456C69.1621 164.336 64.7265 169.331 63.0047 170.03C61.2829 170.729 62.1697 168.656 62.1697 168.656C62.1697 168.656 59.9461 169.174 58.9084 167.487C57.8707 165.799 59.0954 161.183 63.2502 160.901Z" fill="#FF8B7B"/>
<path d="M111.339 173.833C111.339 173.833 111.748 173.742 112.538 172.656C113.218 171.721 113.243 170.771 113.285 170.207L110.432 172.623C110.432 172.623 107.896 171.652 106.331 172.801C103.175 175.12 104.067 177.73 104.432 178.485C104.795 179.24 107.405 178.776 109.213 177.276C111.022 175.777 111.339 173.833 111.339 173.833Z" fill="#FF8B7B"/>
</g>
<defs>
<clipPath id="clip0_217_866">
<rect width="340" height="340" fill="white"/>
</clipPath>
</defs>
</svg>
