<svg width="340" height="267" viewBox="0 0 340 267" fill="none" xmlns="http://www.w3.org/2000/svg">
<path d="M340 222.632H0V222.802H340V222.632Z" fill="#EBEBEB"/>
<path d="M117.79 226.97H102.027V227.14H117.79V226.97Z" fill="#EBEBEB"/>
<path d="M311.964 230.615H273.428V230.785H311.964V230.615Z" fill="#EBEBEB"/>
<path d="M67.5852 230.615H29.0496V230.785H67.5852V230.615Z" fill="#EBEBEB"/>
<path d="M161.16 192.304H29.8588C27.7168 192.301 25.9828 190.563 25.9828 188.421V3.8488C26.0011 1.7204 27.7304 0.0034 29.8588 0H161.16C163.304 0 165.043 1.73808 165.043 3.8828V188.421C165.043 190.565 163.304 192.304 161.16 192.304ZM29.8588 0.136001C27.8106 0.140081 26.1528 1.80064 26.1528 3.8488V188.421C26.1528 190.469 27.8106 192.13 29.8588 192.134H161.16C163.209 192.131 164.869 190.47 164.873 188.421V3.8488C164.869 1.79996 163.209 0.140081 161.16 0.136001H29.8588Z" fill="#EBEBEB"/>
<path d="M308.251 192.304H176.943C174.8 192.301 173.064 190.564 173.06 188.421V3.8488C173.082 1.71904 174.813 0.0034 176.943 0H308.251C310.376 0.00748 312.102 1.72312 312.12 3.8488V188.421C312.12 190.56 310.39 192.297 308.251 192.304ZM176.943 0.136001C174.894 0.140081 173.234 1.79996 173.23 3.8488V188.421C173.233 190.47 174.894 192.13 176.943 192.134H308.251C310.3 192.131 311.96 190.47 311.964 188.421V3.8488C311.96 1.79996 310.3 0.140081 308.251 0.136001H176.943Z" fill="#EBEBEB"/>
<path d="M306.433 243.652H291.745V243.822H306.433V243.652Z" fill="#EBEBEB"/>
<path d="M318.336 162.038C316.915 157.963 305.698 163.508 301.18 170.258C298.152 174.755 296.304 179.558 295.446 186.008C295.546 178.636 295.667 170.737 295.777 163.281C296.699 161.422 298.795 157.13 300.306 153.734C305.34 142.391 317.31 138.172 321.444 131.011C326.863 121.627 326.831 107.556 322.218 102.48C318.211 98.0667 304.935 127.904 303.44 131.237C298.3 142.707 296.804 151.216 295.841 159.457C295.946 152.448 296.052 146.018 296.141 141.026C296.419 124.834 296.772 119.625 296.931 118.025C297.489 117.24 298.142 116.33 298.51 115.839C301.723 111.706 308.853 106.782 312.412 100.768C317.615 91.9903 316.772 81.4843 313.123 77.5981C309.31 73.5065 302.565 83.1747 298.989 92.7532C295.414 102.332 296.936 111.5 295.935 119.457C295.724 121.036 295.509 126.945 295.304 135.166C294.219 126.319 292.054 120.395 288.047 114.87C283.113 108.077 278.858 99.8096 274.793 100.879C270.728 101.948 272.918 112.89 276.136 120.573C278.995 127.419 293.119 134.239 295.198 139.736C294.956 150.878 294.734 165.013 294.577 178.14C293.465 171.352 294.229 170.768 289.669 160.389C286.957 154.207 275.835 146.587 274.514 150.836C273.208 155.002 275.203 163.106 279.4 168.741C282.786 173.275 290.301 173.269 292.039 176.081C292.444 176.739 293.782 179.24 294.551 180.7C294.366 196.745 294.288 210.911 294.377 215.739L295.104 215.787C295.072 214.544 295.161 206.382 295.304 195.576C297.125 189.831 309.411 186.476 313.208 180.5C317.183 174.229 320.037 166.93 318.336 162.038Z" fill="#E6E6E6"/>
<path d="M306.783 222.997H283.212C281.931 222.99 280.832 222.084 280.579 220.828L278.905 212.576H311.132L309.457 220.828C309.203 222.1 308.08 223.01 306.783 222.997Z" fill="#E6E6E6"/>
<path d="M311.785 215.772H278.21C277.403 215.777 276.721 215.173 276.63 214.371L275.941 208.273C275.842 207.406 276.464 206.623 277.331 206.524C277.394 206.517 277.457 206.514 277.52 206.514H312.476C313.348 206.508 314.06 207.211 314.065 208.083C314.066 208.146 314.063 208.21 314.055 208.272L313.36 214.36C313.274 215.165 312.595 215.774 311.785 215.772Z" fill="#F0F0F0"/>
<path d="M83.4428 23.1255H35.9774V75.238H83.4428V23.1255Z" fill="#E6E6E6"/>
<path d="M87.5044 23.1255H36.6098V75.238H87.5044V23.1255Z" fill="#F5F5F5"/>
<path d="M84.2587 26.3711H39.8553V71.9923H84.2587V26.3711Z" fill="white"/>
<path d="M55.409 65.4066C50.12 60.1224 50.1159 51.5503 55.4002 46.2612C55.4029 46.2585 55.4056 46.2558 55.409 46.2524L68.7044 32.957C73.9907 38.2474 73.9907 46.8209 68.7044 52.1113L55.409 65.4066Z" fill="#F5F5F5"/>
<path d="M68.9846 102.721H36.6778V139.183H68.9846V102.721Z" fill="#E6E6E6"/>
<path d="M73.6562 102.721H37.4666V139.183H73.6562V102.721Z" fill="#F5F5F5"/>
<path d="M69.9298 106.454H41.2066V135.456H69.9298V106.454Z" fill="white"/>
<path d="M61.4489 123.551L58.155 126.845C56.7208 128.279 54.3959 128.279 52.9618 126.845L49.6679 123.551C48.2338 122.117 48.2338 119.792 49.6679 118.358L52.9618 115.064C54.3959 113.63 56.7208 113.63 58.155 115.064L61.4489 118.358C62.883 119.792 62.883 122.117 61.4489 123.551Z" fill="#F5F5F5"/>
<path d="M139.982 148.269H125.261V222.534H139.982V148.269Z" fill="#E6E6E6"/>
<path d="M125.261 148.275H61.7406V222.54H125.261V148.275Z" fill="#F0F0F0"/>
<path d="M119.474 176.843H67.5274V193.961H119.474V176.843Z" fill="#E6E6E6"/>
<path d="M119.474 197.781H67.5274V214.899H119.474V197.781Z" fill="#E6E6E6"/>
<path d="M87.6683 179.138H99.3337C100.124 179.135 100.764 178.495 100.767 177.705C100.767 176.912 100.127 176.269 99.3337 176.266H87.6683C86.8761 176.268 86.2349 176.912 86.2349 177.705C86.2383 178.495 86.8782 179.135 87.6683 179.138Z" fill="#F0F0F0"/>
<path d="M119.474 155.91H67.5274V173.028H119.474V155.91Z" fill="#E6E6E6"/>
<path d="M87.6683 158.205H99.3337C100.126 158.203 100.767 157.559 100.767 156.767C100.764 155.977 100.125 155.337 99.3337 155.334H87.6683C86.8782 155.336 86.2383 155.977 86.2349 156.767C86.2349 157.559 86.8761 158.202 87.6683 158.205Z" fill="#F0F0F0"/>
<path d="M87.6683 200.076H99.3337C100.126 200.074 100.767 199.43 100.767 198.638C100.764 197.847 100.125 197.208 99.3337 197.204H87.6683C86.8782 197.207 86.2383 197.847 86.2349 198.638C86.2349 199.43 86.8761 200.073 87.6683 200.076Z" fill="#F0F0F0"/>
<path d="M125.261 144.363H59.7794V148.27H125.261V144.363Z" fill="#E6E6E6"/>
<path d="M142.04 144.369H125.261V148.275H142.04V144.369Z" fill="#E0E0E0"/>
<path d="M174.083 266.32C239.869 266.32 293.199 262.111 293.199 256.919C293.199 251.727 239.869 247.518 174.083 247.518C108.298 247.518 54.9679 251.727 54.9679 256.919C54.9679 262.111 108.298 266.32 174.083 266.32Z" fill="#F5F5F5"/>
<path d="M270.396 50.205C269.414 46.9601 268.116 43.8198 266.519 40.8292L268.935 32.9228L253.333 17.3216L245.419 19.7458C242.439 18.1308 239.299 16.8286 236.051 15.8603L232.174 8.5625H210.086L206.2 15.8603C202.953 16.8313 199.815 18.1335 196.833 19.7458L188.926 17.3216L173.308 32.9398L175.724 40.8462C174.12 43.8334 172.821 46.9743 171.847 50.222L164.54 54.0994V76.1878L171.838 80.0733C172.81 83.319 174.11 86.4572 175.715 89.441L173.299 97.3392L188.918 112.957L196.824 110.541C199.808 112.148 202.95 113.445 206.2 114.41L210.085 121.717H232.174L236.05 114.419C239.296 113.443 242.435 112.141 245.418 110.533L253.333 112.949L268.951 97.331L266.535 89.4247C268.127 86.4368 269.42 83.2993 270.395 80.057L277.693 76.1715V54.0831L270.396 50.205ZM221.126 105.169C199.009 105.169 181.079 87.2392 181.079 65.1222C181.079 43.0052 199.009 25.0756 221.126 25.0756C243.243 25.0756 261.172 43.0052 261.172 65.1222C261.172 87.2392 243.243 105.169 221.126 105.169Z" fill="#407BFF"/>
<path d="M221.126 30.6931C202.106 30.6979 186.692 46.1196 186.697 65.1392C186.701 84.1588 202.123 99.573 221.143 99.5683C240.159 99.5635 255.572 84.1466 255.572 65.131C255.548 46.1176 240.139 30.7115 221.126 30.6931ZM221.126 94.9817C204.639 94.9864 191.271 81.6251 191.266 65.1392C191.262 48.6526 204.623 35.2845 221.109 35.2797C237.595 35.275 250.963 48.6356 250.968 65.1222C250.968 65.1249 250.968 65.1276 250.968 65.1304C250.949 81.6061 237.601 94.9586 221.126 94.9817Z" fill="#407BFF"/>
<path opacity="0.4" d="M270.396 50.205C269.414 46.9601 268.116 43.8198 266.519 40.8292L268.935 32.9228L253.333 17.3216L245.419 19.7458C242.439 18.1308 239.299 16.8286 236.051 15.8603L232.174 8.5625H210.086L206.2 15.8603C202.953 16.8313 199.815 18.1335 196.833 19.7458L188.926 17.3216L173.308 32.9398L175.724 40.8462C174.12 43.8334 172.821 46.9743 171.847 50.222L164.54 54.0994V76.1878L171.838 80.0733C172.81 83.319 174.11 86.4572 175.715 89.441L173.299 97.3392L188.918 112.957L196.824 110.541C199.808 112.148 202.95 113.445 206.2 114.41L210.085 121.717H232.174L236.05 114.419C239.296 113.443 242.435 112.141 245.418 110.533L253.333 112.949L268.951 97.331L266.535 89.4247C268.127 86.4368 269.42 83.2993 270.395 80.057L277.693 76.1715V54.0831L270.396 50.205ZM221.126 105.169C199.009 105.169 181.079 87.2392 181.079 65.1222C181.079 43.0052 199.009 25.0756 221.126 25.0756C243.243 25.0756 261.172 43.0052 261.172 65.1222C261.172 87.2392 243.243 105.169 221.126 105.169Z" fill="white"/>
<path opacity="0.4" d="M221.126 30.6931C202.106 30.6979 186.692 46.1196 186.697 65.1392C186.701 84.1588 202.123 99.573 221.143 99.5683C240.159 99.5635 255.572 84.1466 255.572 65.131C255.548 46.1176 240.139 30.7115 221.126 30.6931ZM221.126 94.9817C204.639 94.9864 191.271 81.6251 191.266 65.1392C191.262 48.6526 204.623 35.2845 221.109 35.2797C237.595 35.275 250.963 48.6356 250.968 65.1222C250.968 65.1249 250.968 65.1276 250.968 65.1304C250.949 81.6061 237.601 94.9586 221.126 94.9817Z" fill="white"/>
<path d="M131.456 93.9209C130.935 92.1998 130.244 90.5352 129.393 88.9508L130.674 84.7559L122.393 76.4687L118.198 77.7498C116.614 76.8992 114.949 76.2083 113.228 75.6874L111.166 71.8447H99.446L97.3903 75.6874C95.6692 76.2069 94.0039 76.8978 92.4202 77.7498L88.2253 76.4687L79.9381 84.7559L81.2192 88.9508C80.3733 90.5366 79.6852 92.2012 79.1636 93.9209L75.289 95.9834V107.704L79.1636 109.759C79.6838 111.48 80.3726 113.145 81.2192 114.73L79.9381 118.925L88.2253 127.212L92.4202 125.931C94.0053 126.778 95.6699 127.466 97.3903 127.986L99.446 131.829H111.166L113.228 127.986C114.948 127.465 116.613 126.776 118.198 125.931L122.393 127.212L130.68 118.925L129.399 114.73C130.251 113.146 130.942 111.481 131.462 109.759L135.336 107.704V95.9834L131.456 93.9209ZM105.306 118.489C96.1099 118.489 88.6543 111.033 88.6543 101.837C88.6543 92.6405 96.1099 85.185 105.306 85.185C114.503 85.185 121.958 92.6398 121.958 101.837C121.958 111.034 114.503 118.489 105.306 118.489Z" fill="#263238"/>
<path d="M131.456 93.9209C130.935 92.1998 130.244 90.5352 129.393 88.9508L130.674 84.7559L122.393 76.4687L118.198 77.7498C116.614 76.8992 114.949 76.2083 113.228 75.6874L111.166 71.8447H99.446L97.3903 75.6874C95.6692 76.2069 94.0039 76.8978 92.4202 77.7498L88.2253 76.4687L79.9381 84.7559L81.2192 88.9508C80.3733 90.5366 79.6852 92.2012 79.1636 93.9209L75.289 95.9834V107.704L79.1636 109.759C79.6838 111.48 80.3726 113.145 81.2192 114.73L79.9381 118.925L88.2253 127.212L92.4202 125.931C94.0053 126.778 95.6699 127.466 97.3903 127.986L99.446 131.829H111.166L113.228 127.986C114.948 127.465 116.613 126.776 118.198 125.931L122.393 127.212L130.68 118.925L129.399 114.73C130.251 113.146 130.942 111.481 131.462 109.759L135.336 107.704V95.9834L131.456 93.9209ZM105.306 118.489C96.1099 118.489 88.6543 111.033 88.6543 101.837C88.6543 92.6405 96.1099 85.185 105.306 85.185C114.503 85.185 121.958 92.6398 121.958 101.837C121.958 111.034 114.503 118.489 105.306 118.489Z" fill="#407BFF"/>
<path d="M105.306 96.3228C102.257 96.3228 99.7852 98.7946 99.7852 101.844C99.7852 104.893 102.257 107.365 105.306 107.365C108.355 107.365 110.827 104.893 110.827 101.844C110.826 98.7946 108.355 96.3228 105.306 96.3228Z" fill="#263238"/>
<path opacity="0.4" d="M131.456 93.9209C130.935 92.1998 130.244 90.5352 129.393 88.9508L130.674 84.7559L122.393 76.4687L118.198 77.7498C116.614 76.8992 114.949 76.2083 113.228 75.6874L111.166 71.8447H99.446L97.3903 75.6874C95.6692 76.2069 94.0039 76.8978 92.4202 77.7498L88.2253 76.4687L79.9381 84.7559L81.2192 88.9508C80.3733 90.5366 79.6852 92.2012 79.1636 93.9209L75.289 95.9834V107.704L79.1636 109.759C79.6838 111.48 80.3726 113.145 81.2192 114.73L79.9381 118.925L88.2253 127.212L92.4202 125.931C94.0053 126.778 95.6699 127.466 97.3903 127.986L99.446 131.829H111.166L113.228 127.986C114.948 127.465 116.613 126.776 118.198 125.931L122.393 127.212L130.68 118.925L129.399 114.73C130.251 113.146 130.942 111.481 131.462 109.759L135.336 107.704V95.9834L131.456 93.9209ZM105.306 118.489C96.1099 118.489 88.6543 111.033 88.6543 101.837C88.6543 92.6405 96.1099 85.185 105.306 85.185C114.503 85.185 121.958 92.6398 121.958 101.837C121.958 111.034 114.503 118.489 105.306 118.489Z" fill="white"/>
<path opacity="0.2" d="M105.306 96.3228C102.257 96.3228 99.7852 98.7946 99.7852 101.844C99.7852 104.893 102.257 107.365 105.306 107.365C108.355 107.365 110.827 104.893 110.827 101.844C110.826 98.7946 108.355 96.3228 105.306 96.3228Z" fill="white"/>
<path d="M142.144 83.2925L137.661 81.4415L137.495 79.7571C137.076 79.4022 136.687 79.0146 136.329 78.5978L134.651 78.4311L132.8 73.9479L133.876 72.6668C133.831 72.1167 133.831 71.5645 133.876 71.0144L132.8 69.7333L134.651 65.25L136.329 65.0902C136.688 64.6734 137.078 64.2837 137.495 63.9247L137.661 62.2465L142.144 60.3955L143.426 61.4713C143.976 61.4264 144.528 61.4264 145.078 61.4713L146.359 60.3955L150.842 62.2465L151.002 63.9247C151.419 64.2837 151.809 64.6734 152.168 65.0902L153.846 65.25L155.697 69.7333L154.621 71.0144C154.666 71.5645 154.666 72.1167 154.621 72.6668L155.697 73.9479L153.846 78.4311L152.168 78.5978C151.812 79.0173 151.422 79.4076 151.002 79.7633L150.842 81.4415L146.359 83.2925L145.078 82.2167C144.531 82.2616 143.98 82.2616 143.432 82.2167L142.144 83.2925ZM145.398 81.2239L146.563 82.1847L149.964 80.7758L150.104 79.2771L150.264 79.1492C150.741 78.7643 151.181 78.3353 151.577 77.8681L151.699 77.7076L153.204 77.5669L154.613 74.1662L153.652 73.0007V72.8021C153.716 72.1847 153.716 71.5625 153.652 70.945V70.7465L154.613 69.5809L153.204 66.1803L151.705 66.0395L151.577 65.8797C151.181 65.4125 150.741 64.9835 150.264 64.5986L150.104 64.4707L149.964 62.972L146.563 61.5631L145.398 62.5239H145.199C144.582 62.46 143.959 62.46 143.342 62.5239H143.143L141.978 61.5631L138.577 62.972L138.436 64.4707L138.283 64.5986C137.803 64.9814 137.361 65.4105 136.963 65.8797L136.836 66.0395L135.337 66.1803L133.915 69.5558L134.876 70.7213V70.9199C134.812 71.5373 134.812 72.1595 134.876 72.7769V72.9755L133.915 74.141L135.324 77.5417L136.823 77.6825L136.951 77.8361C137.342 78.3176 137.782 78.7575 138.264 79.1492L138.424 79.2771L138.565 80.7819L141.966 82.1909L143.131 81.23H143.33C143.947 81.2939 144.569 81.2939 145.187 81.23L145.398 81.2239Z" fill="#263238"/>
<path d="M146.263 76.6515C143.606 77.7524 140.56 76.491 139.459 73.8342C138.358 71.1775 139.62 68.1317 142.276 67.0308C144.933 65.9299 147.979 67.1913 149.08 69.8481L149.08 69.8501C150.182 72.5028 148.925 75.5458 146.273 76.6474C146.269 76.6487 146.265 76.6501 146.263 76.6515Z" fill="#263238"/>
<path d="M108.829 72.6675C108.652 72.6675 108.508 72.524 108.508 72.3472V70.7458C108.508 70.569 108.652 70.4255 108.829 70.4255C109.005 70.4255 109.149 70.569 109.149 70.7458V72.3472C109.149 72.524 109.005 72.6675 108.829 72.6675Z" fill="#407BFF"/>
<path d="M108.829 67.8572C108.652 67.8572 108.508 67.7138 108.508 67.537V64.328C108.508 64.1512 108.652 64.0077 108.829 64.0077C109.005 64.0077 109.149 64.1512 109.149 64.328V67.537C109.149 67.7144 109.005 67.8572 108.829 67.8572ZM108.829 61.4401C108.652 61.4401 108.508 61.2966 108.508 61.1198V57.9116C108.508 57.7348 108.652 57.5913 108.829 57.5913C109.005 57.5913 109.149 57.7348 109.149 57.9116V61.1198C109.149 61.2966 109.005 61.4401 108.829 61.4401ZM108.829 55.0222C108.652 55.0222 108.508 54.8788 108.508 54.702V51.493C108.508 51.3162 108.652 51.1728 108.829 51.1728C109.005 51.1728 109.149 51.3162 109.149 51.493V54.702C109.149 54.8794 109.005 55.0222 108.829 55.0222ZM108.829 48.5826C108.652 48.5826 108.508 48.4616 108.508 48.2848V48.2406C108.508 47.1397 108.69 46.0592 109.048 45.0296C109.106 44.8624 109.289 44.7746 109.455 44.8324C109.622 44.8902 109.711 45.0732 109.652 45.2398C109.318 46.202 109.148 47.2111 109.148 48.2399C109.149 48.4174 109.005 48.5826 108.829 48.5826ZM110.894 42.6598C110.824 42.6598 110.754 42.6367 110.695 42.5898C110.557 42.4796 110.534 42.2784 110.644 42.1396C111.339 41.2706 112.167 40.5321 113.108 39.9439C113.257 39.8501 113.456 39.8956 113.549 40.0452C113.643 40.1955 113.597 40.3927 113.447 40.4866C112.568 41.036 111.793 41.7269 111.144 42.5395C111.081 42.6184 110.988 42.6598 110.894 42.6598ZM116.231 39.3244C116.084 39.3244 115.952 39.2231 115.918 39.0735C115.88 38.9008 115.989 38.7301 116.162 38.6914C116.856 38.5377 117.572 38.4595 118.289 38.4595H119.423C119.6 38.4595 119.743 38.603 119.743 38.7798C119.743 38.9566 119.6 39.1 119.423 39.1H118.289C117.619 39.1 116.95 39.1728 116.301 39.317C116.277 39.3224 116.254 39.3244 116.231 39.3244ZM170.762 39.1H167.554C167.377 39.1 167.234 38.9566 167.234 38.7798C167.234 38.603 167.377 38.4595 167.554 38.4595H170.762C170.939 38.4595 171.082 38.603 171.082 38.7798C171.082 38.9566 170.94 39.1 170.762 39.1ZM164.345 39.1H161.136C160.959 39.1 160.816 38.9566 160.816 38.7798C160.816 38.603 160.959 38.4595 161.136 38.4595H164.345C164.522 38.4595 164.665 38.603 164.665 38.7798C164.665 38.9566 164.522 39.1 164.345 39.1ZM157.927 39.1H154.718C154.542 39.1 154.398 38.9566 154.398 38.7798C154.398 38.603 154.542 38.4595 154.718 38.4595H157.927C158.104 38.4595 158.248 38.603 158.248 38.7798C158.248 38.9566 158.105 39.1 157.927 39.1ZM151.51 39.1H148.302C148.125 39.1 147.982 38.9566 147.982 38.7798C147.982 38.603 148.125 38.4595 148.302 38.4595H151.51C151.687 38.4595 151.83 38.603 151.83 38.7798C151.83 38.9566 151.687 39.1 151.51 39.1ZM145.093 39.1H141.884C141.707 39.1 141.564 38.9566 141.564 38.7798C141.564 38.603 141.707 38.4595 141.884 38.4595H145.093C145.27 38.4595 145.413 38.603 145.413 38.7798C145.413 38.9566 145.27 39.1 145.093 39.1ZM138.675 39.1H135.466C135.289 39.1 135.146 38.9566 135.146 38.7798C135.146 38.603 135.289 38.4595 135.466 38.4595H138.675C138.852 38.4595 138.995 38.603 138.995 38.7798C138.995 38.9566 138.852 39.1 138.675 39.1ZM132.257 39.1H129.049C128.872 39.1 128.729 38.9566 128.729 38.7798C128.729 38.603 128.872 38.4595 129.049 38.4595H132.257C132.434 38.4595 132.578 38.603 132.578 38.7798C132.578 38.9566 132.435 39.1 132.257 39.1ZM125.84 39.1H122.631C122.454 39.1 122.311 38.9566 122.311 38.7798C122.311 38.603 122.454 38.4595 122.631 38.4595H125.84C126.017 38.4595 126.16 38.603 126.16 38.7798C126.16 38.9566 126.017 39.1 125.84 39.1Z" fill="#407BFF"/>
<path d="M175.582 39.1H173.981C173.804 39.1 173.66 38.9566 173.66 38.7798C173.66 38.603 173.804 38.4595 173.981 38.4595H175.582C175.759 38.4595 175.902 38.603 175.902 38.7798C175.902 38.9566 175.759 39.1 175.582 39.1Z" fill="#407BFF"/>
<path d="M108.631 256.199H111.985L111.985 151.432H108.631L108.631 256.199Z" fill="#263238"/>
<path d="M191.391 198.428H246.755C248.148 198.428 249.276 197.299 249.276 195.906V193.274C249.276 191.881 248.148 190.753 246.755 190.753H191.391V198.428Z" fill="#407BFF"/>
<path d="M244.621 256.782L240.609 193.37" stroke="#407BFF" stroke-width="2.8255" stroke-miterlimit="10" stroke-linecap="round" stroke-linejoin="round"/>
<path d="M229.258 259.927L225.247 196.513" stroke="#407BFF" stroke-width="2.8255" stroke-miterlimit="10" stroke-linecap="round" stroke-linejoin="round"/>
<path d="M189 256.782L193.012 193.37" stroke="#407BFF" stroke-width="2.8255" stroke-miterlimit="10" stroke-linecap="round" stroke-linejoin="round"/>
<path d="M204.362 259.927L208.374 196.513" stroke="#407BFF" stroke-width="2.8255" stroke-miterlimit="10" stroke-linecap="round" stroke-linejoin="round"/>
<path d="M196.304 193.37H251.668C253.061 193.37 254.189 192.241 254.189 190.848V188.216C254.189 186.823 253.061 185.694 251.668 185.694H196.304V193.37Z" fill="#407BFF"/>
<path opacity="0.2" d="M196.304 193.37H251.668C253.061 193.37 254.189 192.241 254.189 190.848V188.216C254.189 186.823 253.061 185.694 251.668 185.694H196.304V193.37Z" fill="black"/>
<path d="M195.906 258.701H199.261V153.934H195.906V258.701Z" fill="#263238"/>
<path d="M207.332 161.907C207.332 161.907 169.014 163.347 162.647 178.734C162.647 178.734 163.531 224.541 168.66 239.575L179.626 238.337L177.872 193.788L217.51 161.907H207.332Z" fill="#263238"/>
<path opacity="0.2" d="M207.332 161.907C207.332 161.907 169.014 163.347 162.647 178.734C162.647 178.734 163.531 224.541 168.66 239.575L179.626 238.337L177.872 193.788L217.51 161.907H207.332Z" fill="black"/>
<path d="M177.809 249.797H170.966L170.873 245.237L170.804 241.662L177.491 242.068L177.624 245.237L177.809 249.797Z" fill="#B55B52"/>
<path opacity="0.2" d="M177.624 245.237H170.873L170.804 241.662L177.491 242.068L177.624 245.237Z" fill="black"/>
<path d="M180.871 243.114L166.214 243.557L163.538 238.116L180.468 237.96L180.871 243.114Z" fill="#407BFF"/>
<path d="M169.212 250.83C169.212 250.83 169.562 246.814 168.167 247.371C166.759 247.934 168.328 249.985 169.212 250.83Z" stroke="#407BFF" stroke-width="0.9418" stroke-miterlimit="10"/>
<path d="M169.212 250.83C169.212 250.83 166.197 248.725 165.432 249.797C164.669 250.87 169.212 250.83 169.212 250.83Z" stroke="#407BFF" stroke-width="0.9418" stroke-miterlimit="10"/>
<path d="M171.598 248.873L177.01 248.93C177.798 248.938 178.456 249.559 178.519 250.352L178.9 255.164C178.97 256.056 178.27 256.804 177.385 256.778C174.439 256.693 168.379 256.533 166.233 256.596C163.355 256.68 159.271 256.724 158.687 255.633C158.102 254.542 159.032 253.824 159.032 253.824C159.032 253.824 166.869 253.097 170.478 249.37C170.776 249.062 171.169 248.868 171.598 248.873Z" fill="#263238"/>
<path d="M241.715 161.907C241.715 161.907 242.438 170.838 242.166 177.74C241.853 185.695 224.726 192.706 199.789 188.639C199.789 188.639 197.843 202.08 190.945 214.46C184.047 226.841 173.259 245.234 173.259 245.234L162.648 238.336C162.648 238.336 176.62 199.604 179.273 188.815C181.926 178.026 182.987 172.897 190.592 169.537C198.197 166.176 214.823 161.907 214.823 161.907H241.715Z" fill="#263238"/>
<path d="M169.212 243.207L167.955 245.142L165.185 249.407L159.872 246.307L162.658 241.984L163.736 240.31L169.212 243.207Z" fill="#B55B52"/>
<path opacity="0.2" d="M169.212 243.207L167.955 245.142L162.658 241.984L163.736 240.31L169.212 243.207Z" fill="black"/>
<path d="M176.031 241.662L162.127 233.333L159.872 238.89L173.076 246.512L176.031 241.662Z" fill="#407BFF"/>
<path d="M156.24 246.512C156.24 246.512 157.253 243.029 156.114 242.965C154.973 242.902 156.24 246.512 156.24 246.512Z" stroke="#407BFF" stroke-width="0.9418" stroke-miterlimit="10"/>
<path d="M155.969 246.385C155.969 246.385 154.403 242.604 153.137 243.45C151.871 244.296 155.969 246.385 155.969 246.385Z" stroke="#407BFF" stroke-width="0.9418" stroke-miterlimit="10"/>
<path d="M160.561 245.93L165.199 248.667C165.874 249.066 166.128 249.918 165.78 250.62L163.673 254.882C163.283 255.672 162.299 255.957 161.549 255.495C159.052 253.96 153.907 250.814 152.024 249.801C149.499 248.442 145.954 246.451 146.003 245.237C146.052 244.023 147.217 243.877 147.217 243.877C147.217 243.877 154.343 247.155 159.343 245.794C159.756 245.681 160.193 245.713 160.561 245.93Z" fill="#263238"/>
<path d="M198.666 122.893C198.666 122.893 197.241 138.489 197.815 142.503C197.815 142.503 182.906 144.682 175.337 143.65L170.291 142.388L163.983 143.927L165.704 148.925H170.749C170.749 148.925 174.419 149.958 176.025 148.925C176.025 148.925 188.639 151.448 196.094 150.646C203.548 149.843 205.856 147.008 206.186 141.356C206.502 135.925 210.087 123.8 207.22 121.047L198.666 122.893Z" fill="#B55B52"/>
<path d="M249.857 124.642C249.857 124.642 244.14 110.12 238.576 106.838C233.012 103.557 207.26 109.834 207.26 109.834C207.26 109.834 196.207 113.392 195.574 130.657L205.727 134.961L207.332 161.907H241.714L241.529 127.001L249.857 124.642Z" fill="#407BFF"/>
<path d="M207.729 81.3666C207.729 81.3666 204.324 80.9423 203.402 78.3889C202.48 75.8355 206.024 77.1261 205.727 72.5164C205.43 67.9074 210.725 66.801 214.576 68.8288C218.428 70.8565 224.512 68.6445 226.817 71.41C229.121 74.1756 228.107 76.7569 228.107 76.7569C228.107 76.7569 234.714 84.2267 226.341 89.3416C217.967 94.4573 207.729 81.3666 207.729 81.3666Z" fill="#263238"/>
<path d="M227.721 106.221C224.048 111.818 220.745 112.398 216.312 112.392C211.347 112.375 213.009 108.858 213.009 108.858C215.089 107.821 216.607 106.702 216.845 104.141C216.891 103.626 216.903 103.121 216.88 102.647C216.799 100.741 216.289 99.2629 216.289 99.2629C209.249 99.9001 206.769 96.464 205.888 89.9863C205.013 83.5086 207.968 78.3923 207.968 78.3923C212.048 83.1897 219.725 79.4293 219.725 79.4293C217.569 85.6697 222.848 87.9062 222.848 87.9062C224.923 86.6258 226.522 87.7444 226.365 90.2237C226.203 92.7036 224.048 93.3469 224.048 93.3469C223.648 104.379 227.721 106.221 227.721 106.221Z" fill="#B55B52"/>
<path d="M209.91 92.5199C209.795 92.5199 209.699 92.4301 209.693 92.3138C209.686 92.1941 209.779 92.0914 209.898 92.0853C212.356 91.9527 213.317 90.7729 213.326 90.7614C213.4 90.6675 213.536 90.6512 213.631 90.7247C213.725 90.7988 213.742 90.9341 213.669 91.0286C213.627 91.0837 212.592 92.375 209.922 92.5192C209.918 92.5198 209.914 92.5199 209.91 92.5199Z" fill="#263238"/>
<path d="M209.91 89.8408L209.511 85.7139L207.729 89.4661C207.729 89.4661 208.667 90.31 209.91 89.8408Z" fill="#A02724"/>
<path d="M212.654 85.7138C212.654 86.232 212.895 86.6516 213.193 86.6516C213.491 86.6516 213.732 86.2313 213.732 85.7138C213.732 85.1957 213.491 84.7761 213.193 84.7761C212.895 84.7754 212.654 85.1957 212.654 85.7138Z" fill="#263238"/>
<path d="M206.651 85.7138C206.651 86.232 206.892 86.6516 207.19 86.6516C207.488 86.6516 207.729 86.2313 207.729 85.7138C207.729 85.1957 207.488 84.7761 207.19 84.7761C206.892 84.7754 206.651 85.1957 206.651 85.7138Z" fill="#263238"/>
<path d="M216.218 83.6113C216.128 83.6113 216.038 83.5684 215.982 83.4889C215.945 83.4379 215.059 82.2404 212.987 82.6212C212.831 82.6511 212.679 82.5464 212.65 82.3886C212.62 82.2316 212.725 82.0806 212.883 82.0514C215.332 81.6005 216.411 83.0911 216.455 83.155C216.547 83.2862 216.515 83.4664 216.384 83.5582C216.333 83.595 216.276 83.6113 216.218 83.6113Z" fill="#263238"/>
<path d="M206.275 83.2591C206.23 83.2591 206.186 83.2489 206.143 83.2271C206.001 83.1544 205.944 82.9796 206.017 82.8375C206.666 81.5659 208.219 81.7583 208.283 81.7685C208.442 81.7903 208.553 81.9351 208.532 82.0936C208.51 82.252 208.364 82.3649 208.206 82.3431C208.158 82.3377 206.993 82.1976 206.533 83.1013C206.482 83.2013 206.38 83.2591 206.275 83.2591Z" fill="#263238"/>
<path d="M205.817 88.9329C204.042 88.9329 202.598 87.4886 202.598 85.7138C202.598 83.939 204.042 82.4946 205.817 82.4946C207.592 82.4946 209.037 83.939 209.037 85.7138C209.037 87.4886 207.592 88.9329 205.817 88.9329ZM205.817 82.9292C204.282 82.9292 203.032 84.1783 203.032 85.7138C203.032 87.2492 204.281 88.4984 205.817 88.4984C207.352 88.4984 208.602 87.2492 208.602 85.7138C208.602 84.1783 207.353 82.9292 205.817 82.9292Z" fill="white"/>
<path d="M213.498 88.9329C211.723 88.9329 210.279 87.4886 210.279 85.7138C210.279 83.939 211.723 82.4946 213.498 82.4946C215.272 82.4946 216.717 83.939 216.717 85.7138C216.717 87.4886 215.272 88.9329 213.498 88.9329ZM213.498 82.9292C211.962 82.9292 210.713 84.1783 210.713 85.7138C210.713 87.2492 211.962 88.4984 213.498 88.4984C215.033 88.4984 216.283 87.2492 216.283 85.7138C216.283 84.1783 215.033 82.9292 213.498 82.9292Z" fill="white"/>
<path d="M209.037 85.7139H210.279" stroke="white" stroke-width="0.9418" stroke-miterlimit="10"/>
<path d="M216.508 86.3027L222.535 87.7511" stroke="white" stroke-width="0.9418" stroke-miterlimit="10" stroke-linecap="round" stroke-linejoin="round"/>
<path opacity="0.2" d="M218.619 98.625C218.619 98.625 217.993 101.006 216.88 102.647C216.8 100.74 216.29 99.2628 216.29 99.2628L218.619 98.625Z" fill="black"/>
<path opacity="0.2" d="M205.727 134.961L205.727 130.656L203.988 134.223L205.727 134.961Z" fill="black"/>
<path opacity="0.2" d="M234.105 129.215L232.778 121.466L232.404 129.897L234.105 129.215Z" fill="black"/>
<path d="M243.592 145.466C243.505 151.127 240.955 153.955 233.498 154.754C226.046 155.56 213.432 153.033 213.432 153.033C211.827 154.07 208.154 153.033 208.154 153.033H203.107L201.392 148.039L207.696 146.497L212.743 147.761C220.31 148.792 235.219 146.613 235.219 146.613C234.79 143.607 234.308 133.799 234.106 129.216L242.998 126.585C243.872 132.565 243.667 140.581 243.592 145.466Z" fill="#B55B52"/>
<path d="M112.041 115.883L118.064 146.557C118.333 147.93 119.536 148.919 120.934 148.919H171.888C173.709 148.919 175.087 147.273 174.767 145.48L169.3 114.806C169.051 113.41 167.837 112.394 166.42 112.394H114.911C113.07 112.394 111.686 114.075 112.041 115.883Z" fill="#407BFF"/>
<path opacity="0.2" d="M167.194 112.394L173.56 148.919C174.51 148.919 175.228 148.061 175.062 147.126L169.095 113.652C168.966 112.925 168.333 112.394 167.593 112.394L167.194 112.394Z" fill="black"/>
<path d="M118.663 151.848H197.023C197.023 151.041 196.692 150.305 196.164 149.778C195.637 149.25 194.901 148.919 194.094 148.919H121.602C119.978 148.919 118.663 150.233 118.663 151.848Z" fill="#407BFF"/>
<path opacity="0.2" d="M171.137 151.848H197.023C197.023 151.041 196.692 150.305 196.164 149.778C195.636 149.25 194.901 148.919 194.094 148.919H174.077C172.452 148.919 171.137 150.233 171.137 151.848Z" fill="black"/>
<path opacity="0.4" d="M137.177 131.797C137.725 135.615 140.364 138.395 143.071 138.006C145.778 137.617 147.529 134.207 146.981 130.389C146.432 126.571 143.794 123.791 141.087 124.18C138.379 124.569 136.629 127.979 137.177 131.797Z" fill="white"/>
<path opacity="0.2" d="M118.663 151.848H197.023C197.023 151.041 196.692 150.305 196.164 149.778C195.637 149.25 194.901 148.919 194.094 148.919H121.602C119.978 148.919 118.663 150.233 118.663 151.848Z" fill="black"/>
<path d="M86.566 155.647H221.885C221.885 152.972 219.716 150.803 217.041 150.803H91.4097C88.7345 150.803 86.566 152.972 86.566 155.647Z" fill="#263238"/>
</svg>
