<svg width="360" height="346" viewBox="0 0 360 346" fill="none" xmlns="http://www.w3.org/2000/svg">
<path d="M325.728 275.758H301.748V275.931H325.728V275.758Z" fill="#EBEBEB"/>
<path d="M239.803 277.636H233.51V277.809H239.803V277.636Z" fill="#EBEBEB"/>
<path d="M301.023 269.332H287.128V269.505H301.023V269.332Z" fill="#EBEBEB"/>
<path d="M69.252 270.495H37.9803V270.668H69.252V270.495Z" fill="#EBEBEB"/>
<path d="M80.2836 270.495H75.6985V270.668H80.2836V270.495Z" fill="#EBEBEB"/>
<path d="M163.006 273.417H95.185V273.59H163.006V273.417Z" fill="#EBEBEB"/>
<path d="M172.602 233.758H32.7986C30.5202 233.758 28.666 231.985 28.666 229.808V41.9768C28.666 39.7991 30.5202 38.0269 32.7986 38.0269H172.602C174.88 38.0269 176.734 39.7991 176.734 41.9768V229.808C176.734 231.985 174.88 233.758 172.602 233.758ZM32.7986 38.2005C30.6194 38.2005 28.847 39.8946 28.847 41.9775V229.808C28.847 231.891 30.6194 233.585 32.7986 233.585H172.602C174.781 233.585 176.553 231.891 176.553 229.808V41.9768C176.553 39.8946 174.781 38.1999 172.602 38.1999L32.7986 38.2005Z" fill="#EBEBEB"/>
<path d="M329.201 233.758H189.398C187.12 233.758 185.266 231.985 185.266 229.808V41.9768C185.266 39.7991 187.12 38.0269 189.398 38.0269H329.201C331.481 38.0269 333.334 39.7991 333.334 41.9768V229.808C333.334 231.985 331.48 233.758 329.201 233.758ZM189.398 38.2005C187.219 38.2005 185.447 39.8946 185.447 41.9775V229.808C185.447 231.891 187.219 233.585 189.398 233.585H329.201C331.381 233.585 333.153 231.891 333.153 229.808V41.9768C333.153 39.8946 331.381 38.1999 329.201 38.1999L189.398 38.2005Z" fill="#EBEBEB"/>
<path d="M362 264.619H0V264.792H362V264.619Z" fill="#EBEBEB"/>
<path d="M58.5904 69.425H57.2872V166.558H58.5904V69.425Z" fill="#E0E0E0"/>
<path d="M139.715 69.425H138.411V166.558H139.715V69.425Z" fill="#E0E0E0"/>
<path d="M144.819 75.532H52.183L50.2282 71.1724H146.774L144.819 75.532Z" fill="#EBEBEB"/>
<path d="M144.819 81.5171H52.183L50.2282 77.1575H146.774L144.819 81.5171Z" fill="#EBEBEB"/>
<path d="M144.819 87.5029H52.183L50.2282 83.1433H146.774L144.819 87.5029Z" fill="#EBEBEB"/>
<path d="M144.819 93.488H52.183L50.2282 89.1284H146.774L144.819 93.488Z" fill="#EBEBEB"/>
<path d="M144.819 99.4731H52.183L50.2282 95.1135H146.774L144.819 99.4731Z" fill="#EBEBEB"/>
<path d="M144.819 105.459H52.183L50.2282 101.099H146.774L144.819 105.459Z" fill="#EBEBEB"/>
<path d="M144.819 111.444H52.183L50.2282 107.084H146.774L144.819 111.444Z" fill="#EBEBEB"/>
<path d="M144.819 117.43H52.183L50.2282 113.07H146.774L144.819 117.43Z" fill="#EBEBEB"/>
<path d="M144.819 123.415H52.183L50.2282 119.055H146.774L144.819 123.415Z" fill="#EBEBEB"/>
<path d="M144.819 129.4H52.183L50.2282 125.04H146.774L144.819 129.4Z" fill="#EBEBEB"/>
<path d="M144.819 135.386H52.183L50.2282 131.026H146.774L144.819 135.386Z" fill="#EBEBEB"/>
<path d="M144.819 141.371H52.183L50.2282 137.011H146.774L144.819 141.371Z" fill="#EBEBEB"/>
<path d="M144.819 147.357H52.183L50.2282 142.997H146.774L144.819 147.357Z" fill="#EBEBEB"/>
<path d="M144.819 153.342H52.183L50.2282 148.982H146.774L144.819 153.342Z" fill="#EBEBEB"/>
<path d="M144.819 159.327H52.183L50.2282 154.967H146.774L144.819 159.327Z" fill="#EBEBEB"/>
<path d="M144.819 165.313H52.183L50.2282 160.953H146.774L144.819 165.313Z" fill="#EBEBEB"/>
<path d="M146.774 165.313H50.2282V167.804H146.774V165.313Z" fill="#E0E0E0"/>
<path d="M150.14 65.7124H46.8616V71.5259H150.14V65.7124Z" fill="#E0E0E0"/>
<path d="M47.9221 124.228C47.3415 124.228 46.8716 123.778 46.8716 123.224V89.32C46.8716 88.765 47.3422 88.3159 47.9221 88.3159C48.5028 88.3159 48.9726 88.7657 48.9726 89.32V123.224C48.9726 123.778 48.502 124.228 47.9221 124.228Z" fill="#E0E0E0"/>
<path d="M48.3024 70.3591H47.5422V90.4949H48.3024V70.3591Z" fill="#E0E0E0"/>
<path d="M315.169 86.1956H237.056V263.406H315.169V86.1956Z" fill="#EBEBEB"/>
<path d="M311.848 89.405H240.378V263.405H311.848V89.405Z" fill="#F0F0F0"/>
<path d="M306.821 190.051H245.786V253.775H306.821V190.051Z" fill="#FAFAFA"/>
<path d="M306.821 97.2642H245.786V160.988H306.821V97.2642Z" fill="#FAFAFA"/>
<path d="M253.465 167.395H246.702V184.241H253.465V167.395Z" fill="#EBEBEB"/>
<path d="M253.466 184.24H254.794V167.394H253.466V184.24Z" fill="#E0E0E0"/>
<path d="M251.232 174.012C251.232 175.518 249.954 176.739 248.379 176.739C246.804 176.739 245.526 175.518 245.526 174.012C245.526 172.507 246.804 171.286 248.379 171.286C249.954 171.287 251.232 172.507 251.232 174.012Z" fill="#E0E0E0"/>
<path d="M250.688 178.726H249.218V182.135H250.688V178.726Z" fill="#E0E0E0"/>
<path d="M257.625 174.012C257.625 174.938 249.207 175.688 248.239 175.688C247.271 175.688 246.487 174.938 246.487 174.012C246.487 173.087 247.271 172.337 248.239 172.337C249.207 172.337 257.625 173.087 257.625 174.012Z" fill="#F0F0F0"/>
<path d="M181 295.495C258.527 295.495 321.376 291.987 321.376 287.659C321.376 283.332 258.527 279.824 181 279.824C103.473 279.824 40.6244 283.332 40.6244 287.659C40.6244 291.987 103.473 295.495 181 295.495Z" fill="#F5F5F5"/>
<path d="M62.2908 279.977C62.264 279.742 59.7314 256.16 65.3888 236.1L66.0881 236.28C60.4663 256.212 62.9843 279.669 63.0111 279.904L62.2908 279.977Z" fill="#263238"/>
<path d="M68.4006 241.185C68.4006 241.185 60.6053 255.027 62.1604 271.332C62.1604 271.332 65.409 251.293 68.4006 241.185Z" fill="#407BFF"/>
<path d="M52.9048 234.33C52.9048 234.33 64.2854 249.631 62.2966 269.164C62.2966 269.164 57.8744 244.618 52.9048 234.33Z" fill="#407BFF"/>
<path d="M62.2271 273.887C62.2271 273.887 64.6879 253.686 51.6132 247.85C51.6132 247.85 58.5846 252.781 62.2271 273.887Z" fill="#407BFF"/>
<path d="M63.6027 236.409L63.3652 236.45C62.9981 236.515 62.7686 236.866 62.87 237.209L63.1654 238.216C63.295 238.657 63.8706 238.806 64.2152 238.487L64.6054 238.127C64.9356 237.822 65.4843 237.944 65.6407 238.355L66.1692 239.743C66.3054 240.1 66.7477 240.251 67.0895 240.056L68.3007 239.365C68.6504 239.166 68.7156 238.707 68.4332 238.426L68.2406 238.234C67.8598 237.854 68.132 237.223 68.6823 237.21L69.7342 237.185C70.1107 237.176 70.396 236.857 70.3467 236.5L70.228 235.647C70.1708 235.238 69.7125 235.002 69.3237 235.182L69.2499 235.216C68.7199 235.461 68.1574 234.942 68.3941 234.428L68.7416 233.672C68.911 233.302 68.6627 232.881 68.245 232.828L67.1213 232.686C66.7499 232.639 66.4169 232.909 66.4046 233.266C66.3843 233.879 65.535 234.078 65.2201 233.545L65.0717 233.294C64.8697 232.953 64.3868 232.882 64.087 233.149L63.2537 233.895C62.9851 234.135 62.9865 234.542 63.2559 234.78L63.9205 235.369C64.3006 235.708 64.1153 236.318 63.6027 236.409Z" fill="#407BFF"/>
<path opacity="0.7" d="M63.6027 236.409L63.3652 236.45C62.9981 236.515 62.7686 236.866 62.87 237.209L63.1654 238.216C63.295 238.657 63.8706 238.806 64.2152 238.487L64.6054 238.127C64.9356 237.822 65.4843 237.944 65.6407 238.355L66.1692 239.743C66.3054 240.1 66.7477 240.251 67.0895 240.056L68.3007 239.365C68.6504 239.166 68.7156 238.707 68.4332 238.426L68.2406 238.234C67.8598 237.854 68.132 237.223 68.6823 237.21L69.7342 237.185C70.1107 237.176 70.396 236.857 70.3467 236.5L70.228 235.647C70.1708 235.238 69.7125 235.002 69.3237 235.182L69.2499 235.216C68.7199 235.461 68.1574 234.942 68.3941 234.428L68.7416 233.672C68.911 233.302 68.6627 232.881 68.245 232.828L67.1213 232.686C66.7499 232.639 66.4169 232.909 66.4046 233.266C66.3843 233.879 65.535 234.078 65.2201 233.545L65.0717 233.294C64.8697 232.953 64.3868 232.882 64.087 233.149L63.2537 233.895C62.9851 234.135 62.9865 234.542 63.2559 234.78L63.9205 235.369C64.3006 235.708 64.1153 236.318 63.6027 236.409Z" fill="white"/>
<path d="M64.6481 268.688L65.5589 261.941H57.563L58.4738 268.688C54.7742 269.912 52.1135 273.262 52.1135 277.215C52.1135 279.046 52.684 281.217 53.665 283.231C54.5657 285.082 56.5444 286.235 58.6795 286.235H64.4418C66.5776 286.235 68.5555 285.082 69.4562 283.231C70.4365 281.218 71.0077 279.046 71.0077 277.215C71.0077 273.262 68.347 269.911 64.6481 268.688Z" fill="#407BFF"/>
<path opacity="0.7" d="M64.6481 268.688L65.5589 261.941H57.563L58.4738 268.688C54.7742 269.912 52.1135 273.262 52.1135 277.215C52.1135 279.046 52.684 281.217 53.665 283.231C54.5657 285.082 56.5444 286.235 58.6795 286.235H64.4418C66.5776 286.235 68.5555 285.082 69.4562 283.231C70.4365 281.218 71.0077 279.046 71.0077 277.215C71.0077 273.262 68.347 269.911 64.6481 268.688Z" fill="white"/>
<path d="M222.942 203.112V285.809H225.302L227.402 207.333H230.182V203.112H222.942Z" fill="#263238"/>
<path d="M225.037 285.807H227.286L230.182 203.115H227.209L225.037 285.807Z" fill="#263238"/>
<g opacity="0.3">
<path d="M225.471 285.807H227.286L229.978 207.432H227.439L225.471 285.807Z" fill="white"/>
</g>
<path opacity="0.5" d="M222.942 203.112V285.809H225.302L227.402 207.333H230.182V203.112H222.942Z" fill="white"/>
<path d="M81.2039 285.807H83.4533L86.3493 203.229H83.3759L81.2039 285.807Z" fill="#263238"/>
<path opacity="0.3" d="M81.2039 285.807H83.4533L86.3493 203.229H83.3759L81.2039 285.807Z" fill="white"/>
<path d="M117.481 203.229V285.807H115.1L112.299 207.236H83.5677L81.4667 285.807H79.1093V203.229H117.481Z" fill="#263238"/>
<path opacity="0.5" d="M117.481 203.229V285.807H115.1L112.299 207.236H83.5677L81.4667 285.807H79.1093V203.229H117.481Z" fill="white"/>
<path d="M117.481 285.807H119.731L120.455 203.229H117.481V285.807Z" fill="#263238"/>
<path opacity="0.3" d="M117.481 285.807H119.731L120.455 203.229H117.481V285.807Z" fill="white"/>
<path d="M230.184 203.227V207.239H256.132L258.934 285.809H261.316V203.227H230.184Z" fill="#263238"/>
<path opacity="0.5" d="M230.184 203.227V207.239H256.132L258.934 285.809H261.316V203.227H230.184Z" fill="white"/>
<path d="M261.316 285.807H263.565L264.289 203.229H261.316V285.807Z" fill="#263238"/>
<g opacity="0.3">
<path d="M261.316 285.807H263.565L264.289 203.229H261.316V285.807Z" fill="white"/>
</g>
<path d="M119.337 203.201L268.226 203.201V197.895L119.337 197.895V203.201Z" fill="#263238"/>
<path opacity="0.8" d="M119.337 203.201L268.226 203.201V197.895L119.337 197.895V203.201Z" fill="white"/>
<path d="M75.1732 203.201H122.794V197.895H75.1732V203.201Z" fill="#263238"/>
<path opacity="0.6" d="M75.1732 203.201H122.794V197.895H75.1732V203.201Z" fill="white"/>
<path d="M108.293 196.43V197.163C108.293 197.543 108.615 197.851 109.013 197.851H136.543C136.909 197.851 137.206 197.567 137.206 197.217V196.511C137.206 196.161 136.909 195.877 136.543 195.877H129.697C128.919 195.877 128.329 195.207 128.462 194.475L130.863 181.213H115.226L108.531 195.374C108.374 195.706 108.293 196.066 108.293 196.43Z" fill="#263238"/>
<path opacity="0.2" d="M137.205 196.51V197.219C137.205 197.57 136.911 197.852 136.544 197.852H109.014C108.617 197.852 108.292 197.541 108.292 197.165V196.43C108.292 196.236 108.315 196.042 108.36 195.852C108.402 195.687 108.456 195.527 108.528 195.373L115.225 181.216H130.864L128.462 194.474C128.447 194.555 128.439 194.631 128.443 194.708C128.455 195.264 128.876 195.743 129.437 195.852C129.521 195.87 129.605 195.878 129.697 195.878H136.544C136.911 195.878 137.205 196.163 137.205 196.51Z" fill="white"/>
<path d="M107.646 195.374L114.341 181.214H115.226L108.531 195.374C108.374 195.706 108.293 196.066 108.293 196.43V197.163C108.293 197.543 108.615 197.851 109.013 197.851H108.128C107.731 197.851 107.408 197.543 107.408 197.163V196.43C107.408 196.066 107.489 195.706 107.646 195.374Z" fill="#263238"/>
<path opacity="0.3" d="M115.226 181.214H130.862L130.25 184.598H113.626L115.226 181.214Z" fill="black"/>
<path d="M157.106 182.701H90.3914C89.0441 182.701 87.953 181.658 87.9523 180.37L87.9515 134.292C87.9508 133.004 89.0441 131.96 90.3914 131.96H157.106C158.453 131.96 159.547 133.004 159.545 134.292L159.546 180.37C159.546 181.658 158.453 182.701 157.106 182.701Z" fill="#263238"/>
<g opacity="0.2">
<path d="M157.106 182.701H90.3914C89.0441 182.701 87.953 181.658 87.9523 180.37L87.9515 134.292C87.9508 133.004 89.0441 131.96 90.3914 131.96H157.106C158.453 131.96 159.547 133.004 159.545 134.292L159.546 180.37C159.546 181.658 158.453 182.701 157.106 182.701Z" fill="white"/>
</g>
<path d="M90.4356 173.979H157.063C157.794 173.979 158.386 173.413 158.386 172.715V134.631C158.386 133.933 157.794 133.367 157.063 133.367H90.4356C89.7051 133.367 89.1128 133.933 89.1128 134.631V172.715C89.1128 173.413 89.7051 173.979 90.4356 173.979Z" fill="#407BFF"/>
<path opacity="0.6" d="M90.4356 173.979H157.063C157.794 173.979 158.386 173.413 158.386 172.715V134.631C158.386 133.933 157.794 133.367 157.063 133.367H90.4356C89.7051 133.367 89.1128 133.933 89.1128 134.631V172.715C89.1128 173.413 89.7051 173.979 90.4356 173.979Z" fill="white"/>
<path d="M88.9159 131.96H90.3907C89.044 131.96 87.9515 133.004 87.9515 134.292V180.37C87.9515 181.658 89.0433 182.701 90.3907 182.701H88.9159C87.5685 182.701 86.4767 181.658 86.4767 180.37V134.292C86.4767 133.004 87.5693 131.96 88.9159 131.96Z" fill="#407BFF"/>
<path opacity="0.3" d="M88.9159 131.96H90.3907C89.044 131.96 87.9515 133.004 87.9515 134.292V180.37C87.9515 181.658 89.0433 182.701 90.3907 182.701H88.9159C87.5685 182.701 86.4767 181.658 86.4767 180.37V134.292C86.4767 133.004 87.5693 131.96 88.9159 131.96Z" fill="white"/>
<g opacity="0.2">
<path d="M117.902 133.367H115.34L102.591 173.979H105.154L117.902 133.367Z" fill="white"/>
<path d="M100 173.979L112.749 133.367H103.121L90.3719 173.979H100Z" fill="white"/>
</g>
<path opacity="0.2" d="M113.05 196.515V197.188C113.05 197.554 113.36 197.851 113.743 197.851H136.544C136.91 197.851 137.206 197.567 137.206 197.218V196.511C137.206 196.161 136.909 195.878 136.544 195.878H129.696C129.608 195.878 129.522 195.869 129.44 195.852H113.744C113.36 195.852 113.05 196.149 113.05 196.515Z" fill="white"/>
<path opacity="0.2" d="M108.362 195.852H129.439C128.874 195.744 128.456 195.265 128.443 194.707H108.899L108.362 195.852Z" fill="black"/>
<path d="M160.572 196.248H162.565C162.775 196.248 162.946 196.099 162.946 195.915V194.077C162.946 193.893 162.775 193.745 162.565 193.745H161.133C160.961 193.745 160.81 193.846 160.766 193.991L160.203 195.83C160.139 196.041 160.322 196.248 160.572 196.248Z" fill="#263238"/>
<path d="M157.817 196.248H159.81C160.02 196.248 160.191 196.099 160.191 195.915V194.077C160.191 193.893 160.021 193.745 159.81 193.745H158.379C158.206 193.745 158.055 193.846 158.011 193.991L157.449 195.83C157.385 196.041 157.567 196.248 157.817 196.248Z" fill="#263238"/>
<path d="M155.062 196.248H157.055C157.265 196.248 157.436 196.099 157.436 195.915V194.077C157.436 193.893 157.266 193.745 157.055 193.745H155.624C155.451 193.745 155.3 193.846 155.256 193.991L154.694 195.83C154.63 196.041 154.812 196.248 155.062 196.248Z" fill="#263238"/>
<path d="M152.307 196.248H154.3C154.51 196.248 154.681 196.099 154.681 195.915V194.077C154.681 193.893 154.511 193.745 154.3 193.745H152.869C152.697 193.745 152.545 193.846 152.501 193.991L151.939 195.83C151.875 196.041 152.057 196.248 152.307 196.248Z" fill="#263238"/>
<path d="M149.552 196.248H151.545C151.755 196.248 151.926 196.099 151.926 195.915V194.077C151.926 193.893 151.756 193.745 151.545 193.745H150.114C149.942 193.745 149.791 193.846 149.746 193.991L149.185 195.83C149.12 196.041 149.302 196.248 149.552 196.248Z" fill="#263238"/>
<path d="M146.797 196.248H148.791C149.001 196.248 149.171 196.099 149.171 195.915V194.077C149.171 193.893 149.001 193.745 148.791 193.745H147.359C147.187 193.745 147.036 193.846 146.992 193.991L146.429 195.83C146.365 196.041 146.547 196.248 146.797 196.248Z" fill="#263238"/>
<path d="M144.043 196.248H146.036C146.247 196.248 146.417 196.099 146.417 195.915V194.077C146.417 193.893 146.247 193.745 146.036 193.745H144.604C144.432 193.745 144.281 193.846 144.237 193.991L143.674 195.83C143.61 196.041 143.792 196.248 144.043 196.248Z" fill="#263238"/>
<path d="M141.287 196.248H143.28C143.49 196.248 143.661 196.099 143.661 195.915V194.077C143.661 193.893 143.491 193.745 143.28 193.745H141.849C141.677 193.745 141.525 193.846 141.481 193.991L140.919 195.83C140.856 196.041 141.037 196.248 141.287 196.248Z" fill="#263238"/>
<path d="M138.532 196.248H140.525C140.735 196.248 140.906 196.099 140.906 195.915V194.077C140.906 193.893 140.736 193.745 140.525 193.745H139.094C138.922 193.745 138.771 193.846 138.726 193.991L138.164 195.83C138.101 196.041 138.283 196.248 138.532 196.248Z" fill="#263238"/>
<path d="M135.777 196.248H137.771C137.981 196.248 138.151 196.099 138.151 195.915V194.077C138.151 193.893 137.981 193.745 137.771 193.745H136.339C136.167 193.745 136.016 193.846 135.972 193.991L135.409 195.83C135.345 196.041 135.528 196.248 135.777 196.248Z" fill="#263238"/>
<path d="M133.023 196.248H135.016C135.226 196.248 135.397 196.099 135.397 195.915V194.077C135.397 193.893 135.227 193.745 135.016 193.745H133.584C133.412 193.745 133.261 193.846 133.217 193.991L132.654 195.83C132.59 196.041 132.773 196.248 133.023 196.248Z" fill="#263238"/>
<path d="M130.268 196.248H132.261C132.471 196.248 132.642 196.099 132.642 195.915V194.077C132.642 193.893 132.472 193.745 132.261 193.745H130.83C130.657 193.745 130.506 193.846 130.462 193.991L129.9 195.83C129.836 196.041 130.018 196.248 130.268 196.248Z" fill="#263238"/>
<path d="M127.513 196.248H129.506C129.716 196.248 129.887 196.099 129.887 195.915V194.077C129.887 193.893 129.717 193.745 129.506 193.745H128.076C127.903 193.745 127.752 193.846 127.708 193.991L127.146 195.83C127.081 196.041 127.263 196.248 127.513 196.248Z" fill="#263238"/>
<path d="M124.758 196.248H126.752C126.962 196.248 127.133 196.099 127.133 195.915V194.077C127.133 193.893 126.963 193.745 126.752 193.745H125.321C125.148 193.745 124.997 193.846 124.953 193.991L124.391 195.83C124.326 196.041 124.508 196.248 124.758 196.248Z" fill="#263238"/>
<path d="M122.003 196.248H123.997C124.207 196.248 124.377 196.099 124.377 195.915V194.077C124.377 193.893 124.207 193.745 123.997 193.745H122.565C122.393 193.745 122.242 193.846 122.197 193.991L121.636 195.83C121.571 196.041 121.754 196.248 122.003 196.248Z" fill="#263238"/>
<path d="M119.997 196.448C119.997 197.248 120.747 197.895 121.657 197.895H162.904C163.822 197.895 164.564 197.248 164.564 196.448C164.564 196.047 164.378 195.682 164.08 195.422C163.79 195.17 163.387 195.008 162.944 195.001H121.656C121.495 195.001 121.342 195.022 121.197 195.057C120.504 195.232 119.997 195.787 119.997 196.448Z" fill="#263238"/>
<path opacity="0.2" d="M119.997 196.448C119.997 197.248 120.747 197.895 121.657 197.895H162.904C163.822 197.895 164.564 197.248 164.564 196.448C164.564 196.047 164.378 195.682 164.08 195.422C163.79 195.17 163.387 195.008 162.944 195.001H121.656C121.495 195.001 121.342 195.022 121.197 195.057C120.504 195.232 119.997 195.787 119.997 196.448Z" fill="white"/>
<path d="M119.997 196.448C119.997 197.248 120.747 197.895 121.657 197.895H135.623C136.292 197.705 136.775 197.157 136.775 196.511C136.775 196.419 136.767 196.335 136.751 196.25C136.687 195.956 136.526 195.688 136.284 195.485C136.179 195.394 136.059 195.316 135.93 195.246C135.866 195.218 135.801 195.19 135.737 195.162C135.536 195.091 135.326 195.057 135.101 195.057H121.199C120.504 195.232 119.997 195.787 119.997 196.448Z" fill="#263238"/>
<path d="M249.584 169.869C249.584 169.869 254.916 233.221 254.958 233.585L258.332 271.358H265.663C265.663 271.358 265.892 269.33 266.348 266.462C270.341 241.352 267.507 233.086 267.507 233.086C267.507 233.086 271.024 184.606 272.253 180.949C272.379 180.573 268.248 153.965 249.584 169.869Z" fill="#263238"/>
<g opacity="0.2">
<path d="M249.584 169.869C249.584 169.869 254.916 233.221 254.958 233.585L258.332 271.358H265.663C265.663 271.358 265.892 269.33 266.348 266.462C270.341 241.352 267.507 233.086 267.507 233.086C267.507 233.086 271.024 184.606 272.253 180.949C272.379 180.573 268.248 153.965 249.584 169.869Z" fill="black"/>
</g>
<path d="M249.624 168.995C251.177 174.464 254.819 179.178 259.831 182.206L264.896 185.267C264.896 185.267 291.27 160.972 268.123 155.647C263.645 154.616 249.624 168.995 249.624 168.995Z" fill="#263238"/>
<path d="M315.736 265.156L311.133 268.122L306.825 262.836L302.162 257.112L302.159 257.106L307.58 253.554L308.313 254.597L311.945 259.761L315.736 265.156Z" fill="#FF8B7B"/>
<path opacity="0.2" d="M311.945 259.761L306.825 262.836L302.162 257.112L307.708 253.786L308.313 254.597L311.945 259.761Z" fill="black"/>
<path d="M285.308 193.463C285.413 201.83 287.322 216.94 288.532 225.227C288.532 225.227 295.077 232.65 298.611 237.796L309.845 255.466L302.92 259.753L280.906 237.061C274.594 232.477 275.605 229.71 274.003 225.519C270.088 215.278 267.566 204.236 265.846 194.236C265.048 189.598 261.549 174.54 262.77 169.987C264.408 163.876 266.312 153.342 273.814 157.871C280.119 161.677 284.987 167.875 285.308 193.463Z" fill="#263238"/>
<path d="M312.452 257.209L303.891 262.363L300.414 258.946L310.036 253.064L312.452 257.209Z" fill="#407BFF"/>
<path d="M310.223 268.308L313.708 262.479C313.823 262.262 314.093 262.166 314.327 262.26L319.54 264.221C320.047 264.43 320.282 264.992 320.064 265.478C320.049 265.51 320.033 265.543 320.014 265.573C318.763 267.582 318.063 268.491 316.532 271.049C315.6 272.624 313.764 276.235 312.474 278.412C311.184 280.589 308.857 279.479 309.193 278.459C310.697 273.908 310.457 271.357 310.065 269.337C309.992 268.986 310.048 268.623 310.223 268.308Z" fill="#263238"/>
<path d="M309.242 271.427C309.997 271.191 310.513 269.876 310.733 269.121C310.748 269.067 310.729 269.01 310.686 268.974C310.642 268.936 310.576 268.929 310.524 268.956C310.294 269.068 308.299 270.065 308.225 270.818C308.209 270.992 308.29 271.161 308.439 271.263C308.504 271.31 308.573 271.35 308.646 271.384C308.832 271.473 309.046 271.489 309.242 271.427ZM310.347 269.369C309.991 270.373 309.559 271.033 309.152 271.16C308.965 271.21 308.763 271.162 308.621 271.034C308.55 270.998 308.51 270.924 308.521 270.848C308.561 270.448 309.559 269.792 310.347 269.369Z" fill="#407BFF"/>
<path d="M310.668 269.202C310.714 269.176 310.742 269.129 310.741 269.078C310.733 269.03 310.701 268.987 310.656 268.964C310.59 268.927 309.028 268.089 308.17 268.366C307.956 268.433 307.784 268.585 307.699 268.784C307.583 268.988 307.628 269.241 307.81 269.396C307.856 269.433 307.908 269.464 307.963 269.486C308.622 269.794 310.125 269.512 310.668 269.202ZM310.27 269.077C309.561 269.342 308.329 269.454 308.003 269.183C307.952 269.135 307.896 269.061 307.971 268.898C308.024 268.769 308.133 268.671 308.27 268.628C308.769 268.468 309.678 268.807 310.224 269.057L310.27 269.077Z" fill="#407BFF"/>
<path d="M235.054 194.694L230.189 194.397C230.189 194.397 226.776 170.964 226.451 170.03C226.002 168.328 223.274 155.264 222.195 151.929L222.716 151.852C222.137 150.136 222.629 148.282 224.519 147.721C226.416 147.161 229 148.095 229.572 149.818C230.789 153.299 233.104 166.411 233.452 168.002C233.459 168.037 233.466 168.078 233.466 168.113C234.538 174.929 235.054 194.694 235.054 194.694Z" fill="#FF8B7B"/>
<path d="M235.054 194.694C235.08 196.823 233.027 197.926 231.568 198.071H223.846L223.397 197.967C223.202 197.919 223.144 197.677 223.296 197.552L224.685 196.484C226.22 195.302 228.295 194.918 230.189 194.397L235.054 194.694Z" fill="#FF8B7B"/>
<path d="M225.592 140.557C217.691 144.192 223.21 159.327 223.21 159.327L232.92 158.446C232.92 158.446 233.884 147.473 232.779 144.048C231.615 140.481 229.367 138.196 225.592 140.557Z" fill="#407BFF"/>
<path opacity="0.2" d="M228.515 158.846C228.515 158.846 226.341 147.764 228.471 145.696C229.095 145.248 229.801 144.914 230.553 144.709C233.15 145.786 232.612 149.361 232.612 149.361L232.92 158.446C231.701 158.642 228.515 158.846 228.515 158.846Z" fill="black"/>
<path d="M227.078 150.209C229.612 154.411 235.042 160.041 249.508 168.697L267.358 155.548C261.359 148.689 257.617 144.122 250.288 129.319C249.571 127.872 248.234 126.746 246.601 126.391C245.201 126.086 243.793 126.317 242.633 126.964C241.311 127.706 239.871 128.559 238.466 129.497C235.267 131.52 232.224 133.759 229.357 136.195C227.355 137.963 225.357 139.984 223.936 141.468C223.936 141.468 223.955 141.703 224.05 142.244C224.541 145.053 225.59 147.741 227.078 150.209Z" fill="#407BFF"/>
<path opacity="0.2" d="M251.386 130.85C251.623 131.441 251.867 132.031 252.111 132.554C253.075 134.84 254.881 138.288 256.188 140.413C250.411 141.4 244.472 138.342 243.598 136.346C243.043 135.135 248.488 131.661 251.386 130.85Z" fill="black"/>
<path d="M266.754 154.205L269.041 155.252C269.22 155.334 269.182 155.585 268.933 155.761L249.584 169.869C249.401 170.005 249.182 170.024 249.087 169.93L247.523 168.346C247.414 168.237 247.489 168.024 247.688 167.875L266.313 154.297C266.431 154.193 266.6 154.158 266.754 154.205Z" fill="#407BFF"/>
<path opacity="0.6" d="M266.754 154.205L269.041 155.252C269.22 155.334 269.182 155.585 268.933 155.761L249.584 169.869C249.401 170.005 249.182 170.024 249.087 169.93L247.523 168.346C247.414 168.237 247.489 168.024 247.688 167.875L266.313 154.297C266.431 154.193 266.6 154.158 266.754 154.205Z" fill="white"/>
<path d="M247.687 167.875L266.312 154.297L247.687 167.875Z" fill="#407BFF"/>
<path d="M265.768 158.372L266.289 157.98C266.399 157.898 266.44 157.783 266.382 157.727L264.327 155.683C264.266 155.621 264.13 155.641 264.02 155.723L263.496 156.11C263.393 156.189 263.351 156.303 263.412 156.366L265.466 158.404C265.526 158.466 265.67 158.463 265.768 158.372Z" fill="#263238"/>
<path d="M251.29 168.943L251.812 168.55C251.924 168.474 251.964 168.36 251.904 168.298L249.851 166.259C249.79 166.197 249.652 166.211 249.543 166.293L249.021 166.686C248.912 166.767 248.871 166.882 248.929 166.938L250.984 168.982C251.042 169.038 251.181 169.024 251.29 168.943Z" fill="#263238"/>
<path d="M229.669 120.353C231.351 123.579 234.907 129.132 238.465 129.497C238.465 129.497 240.532 134.377 236.656 143.396C228.27 141.685 229.357 136.197 229.357 136.197C232.025 133.047 230.073 130.792 227.748 129.036L229.669 120.353Z" fill="#FF8B7B"/>
<path d="M237.237 144.449L237.541 143.744C241.519 134.487 239.475 129.113 239.384 128.899L237.36 129.224L237.578 129.836C237.597 129.881 239.319 134.289 236.075 142.324C229.598 140.684 229.974 135.489 230.007 135.307L228.586 136.834C228.574 136.898 227.264 142.414 236.457 144.291L237.237 144.449Z" fill="#407BFF"/>
<path opacity="0.6" d="M237.237 144.449L237.541 143.744C241.519 134.487 239.475 129.113 239.384 128.899L237.36 129.224L237.578 129.836C237.597 129.881 239.319 134.289 236.075 142.324C229.598 140.684 229.974 135.489 230.007 135.307L228.586 136.834C228.574 136.898 227.264 142.414 236.457 144.291L237.237 144.449Z" fill="white"/>
<path opacity="0.2" d="M229.459 121.302C230.761 122.999 231.666 124.945 232.115 127.005C232.415 128.428 231.54 131.342 229.919 131.142C229.314 130.328 228.581 129.609 227.745 129.012L229.459 121.302Z" fill="black"/>
<path d="M219.581 136.674C212.86 131.342 210.964 123.941 210.869 117.337C210.851 116.092 211.136 112.069 212.436 111.997C222.526 111.444 211.131 121.114 219.581 136.674Z" fill="#263238"/>
<path d="M227.874 114.262C231.159 119.058 232.657 121.021 232.066 125.105C231.18 131.247 224.302 134.055 219.593 130.288C215.344 126.897 210.687 119.618 213.963 114.444C216.29 110.741 221.317 109.543 225.191 111.767C226.275 112.389 227.193 113.244 227.874 114.262Z" fill="#FF8B7B"/>
<path d="M221.854 128.424C221.854 128.424 222.668 126.867 226.047 123.363C227.095 124.88 227.516 126.54 225.783 128.339C225.035 129.326 223.37 129.432 222.064 128.574C221.992 128.526 221.922 128.477 221.854 128.424Z" fill="#263238"/>
<path d="M225.432 126.625C224.715 127.276 224.301 128.151 224.25 129.126C224.867 129.021 225.395 128.744 225.761 128.333C226.479 127.685 226.892 126.811 226.939 125.837C226.32 125.934 225.792 126.21 225.432 126.625Z" fill="#FF5652"/>
<path d="M221.97 128.234C222.397 128.439 222.876 128.439 223.211 128.233C224.208 127.187 225.085 126.053 225.834 124.842C226.11 124.476 226.128 123.977 225.881 123.509C224.417 124.968 223.109 126.549 221.97 128.234Z" fill="white"/>
<path d="M218.814 123.681C219.035 124.842 219.088 126.027 218.973 127.202C219.61 127.241 220.231 127.01 220.674 126.57L218.814 123.681Z" fill="#FF5652"/>
<path d="M220.656 118.876C220.608 118.888 220.558 118.885 220.512 118.868C219.817 118.653 219.056 118.772 218.468 119.187C218.348 119.284 218.17 119.27 218.068 119.157C217.964 119.049 217.97 118.881 218.083 118.781C218.088 118.777 218.093 118.773 218.098 118.769C218.832 118.236 219.79 118.077 220.67 118.341C220.822 118.386 220.91 118.537 220.869 118.685C220.835 118.778 220.756 118.85 220.656 118.876Z" fill="#263238"/>
<path d="M213.961 123.715L213.915 123.733C213.757 123.74 213.623 123.625 213.613 123.474C213.539 122.592 213.921 121.73 214.636 121.166C214.762 121.077 214.94 121.103 215.033 121.223C215.124 121.346 215.099 121.514 214.976 121.608C214.419 122.06 214.126 122.741 214.19 123.435C214.191 123.568 214.096 123.685 213.961 123.715Z" fill="#263238"/>
<path d="M221.273 120.784C221.564 121.155 221.618 121.6 221.338 121.791C221.059 121.982 220.638 121.82 220.344 121.443C220.051 121.065 219.999 120.627 220.278 120.436C220.558 120.245 220.982 120.412 221.273 120.784Z" fill="#263238"/>
<path d="M216.724 123.889C217.015 124.261 217.07 124.705 216.791 124.896C216.512 125.087 216.093 124.918 215.803 124.545C215.512 124.174 215.457 123.73 215.737 123.539C216.015 123.348 216.431 123.512 216.724 123.889Z" fill="#263238"/>
<path d="M215.865 123.483L214.719 123.926C214.719 123.926 215.749 124.247 215.865 123.483Z" fill="#263238"/>
<path d="M220.417 120.401L219.271 120.845C219.271 120.845 220.3 121.148 220.417 120.401Z" fill="#263238"/>
<path d="M229.656 117.423C232.392 118.456 232.066 125.105 232.066 125.105C231.952 125.361 235.044 121.429 233.309 112.22C232.154 106.084 221.061 104.087 212.86 111.444C211.259 112.88 212.215 121.22 212.844 119.71C213.602 117.887 218.489 114.413 221.537 113.666C221.234 113.462 228.043 116.813 229.656 117.423Z" fill="#263238"/>
<path d="M229.098 112.081C229.996 111.594 230.631 110.686 230.757 109.705C230.884 108.726 230.498 107.697 229.751 107.016C229.02 106.35 228.02 106.039 227.047 105.778C226.076 105.518 225.068 105.275 224.254 104.704C223.44 104.133 223.209 103.414 223.127 102.204C222.272 102.99 222.3 103.822 222.266 104.101C221.537 103.587 221.417 102.828 221.14 101.157C220.576 102.197 220.43 103.19 220.771 104.041C220.234 103.841 219.888 103.474 219.647 101.846C218.752 103.949 219.321 105.744 219.775 106.05C218.575 105.987 217.487 106.978 217.284 108.11C217.081 109.241 217.639 110.414 218.517 111.198C219.395 111.982 220.554 112.422 221.724 112.682C224.086 113.208 226.609 113.055 228.883 112.249C228.888 112.101 229.098 112.081 229.098 112.081Z" fill="#263238"/>
<path d="M233.027 116.265C233.614 117.221 233.782 118.361 233.496 119.435C233.106 120.861 231.579 120.813 230.587 119.809C229.688 118.882 228.819 117.052 229.744 115.929C230.433 115.123 231.675 115.003 232.518 115.662C232.729 115.827 232.903 116.032 233.027 116.265Z" fill="#FF8B7B"/>
<path d="M224.711 142.906L218.416 143.702L218.505 149.001C218.505 149.001 222.789 148.106 224.535 145.952L224.711 142.906Z" fill="#FF8B7B"/>
<path d="M214.746 146.059L214.455 149.978L218.505 149.001L218.416 143.702L214.746 146.059Z" fill="#FF8B7B"/>
<g opacity="0.2">
<path d="M218.112 148.466C218.088 148.48 218.042 148.518 218.001 148.572L218.112 148.466Z" fill="black"/>
</g>
<path d="M250.913 132.783C251.886 136.699 251.677 144.052 251.546 146.98C251.484 148.354 250.961 149.695 249.962 150.686C248.761 151.879 246.729 152.784 243.449 151.441C240.11 150.074 224.438 146.752 224.475 145.972L224.636 142.945C224.636 142.945 234.173 143.236 244.398 144.319C244.857 139.741 243.934 133.945 244.36 132.394C245.049 129.874 249.686 127.819 250.913 132.783Z" fill="#FF8B7B"/>
<path d="M244.579 126.368C242.434 127.887 242.145 139.4 242.145 139.4L253.232 139.614C253.232 139.614 253.197 131.939 252.292 129.688C250.832 126.057 247.017 124.653 244.579 126.368Z" fill="#407BFF"/>
<path d="M265.13 280.839L259.479 280.327L258.716 269.271L265.62 268.933L265.13 280.839Z" fill="#FF8B7B"/>
<path opacity="0.2" d="M258.739 269.063L259.129 275.318L265.374 274.903L265.796 268.87L258.739 269.063Z" fill="black"/>
<path d="M258.342 278.742L265.72 278.266C265.992 278.258 266.239 278.416 266.335 278.659L268.332 284.137C268.505 284.588 268.262 285.089 267.79 285.254C267.701 285.285 267.608 285.303 267.514 285.307C264.928 285.431 263.684 285.371 260.416 285.581C258.419 285.71 253.274 286.238 250.514 286.416C247.754 286.595 247.068 284.025 248.17 283.716C253.095 282.335 255.878 280.69 257.326 279.198C257.59 278.924 257.955 278.76 258.342 278.742Z" fill="#263238"/>
<path d="M257.536 279.77C257.596 279.751 257.636 279.697 257.636 279.637C257.638 279.578 257.598 279.525 257.538 279.507C257.013 279.334 254.388 278.502 253.771 279C253.649 279.098 253.595 279.252 253.63 279.4C253.669 279.666 253.834 279.901 254.078 280.035C254.536 280.243 255.049 280.309 255.548 280.223C256.225 280.139 256.892 279.987 257.536 279.77ZM254.24 279.124C255.185 279.158 256.119 279.332 257.008 279.64C255.716 280.01 254.697 280.07 254.232 279.805C254.061 279.71 253.946 279.545 253.92 279.358C253.904 279.308 253.921 279.254 253.962 279.219C254.045 279.167 254.141 279.136 254.241 279.13L254.24 279.124Z" fill="#407BFF"/>
<path d="M257.597 279.746C257.633 279.709 257.645 279.656 257.627 279.608C257.589 279.502 256.68 277.026 255.246 277.337C254.87 277.418 254.771 277.612 254.787 277.757C254.766 278.433 256.581 279.548 257.447 279.785L257.504 279.78C257.538 279.778 257.571 279.767 257.597 279.746ZM255.408 277.584C256.308 277.493 256.968 278.811 257.229 279.372C256.332 279.035 255.066 278.139 255.08 277.752C255.079 277.678 255.154 277.609 255.313 277.593L255.408 277.584Z" fill="#407BFF"/>
<path d="M267.553 273.024L256.983 273.521L255.81 269.053L268.091 268.297L267.553 273.024Z" fill="#407BFF"/>
<path d="M133.274 280.422L127.949 279.257L130.575 267.936L137.677 270.284L133.274 280.422Z" fill="#FFC3BD"/>
<path opacity="0.2" d="M139.318 266.349L131.548 263.424L129.857 271.028L136.441 273.009L139.318 266.349Z" fill="black"/>
<path d="M155.368 280.422L149.958 279.693L152.183 266.318L159.468 268.081L155.368 280.422Z" fill="#FFC3BD"/>
<path opacity="0.2" d="M160.753 264.028L152.752 261.743L151.507 270.273L158.375 271.438L160.753 264.028Z" fill="black"/>
<path d="M187.593 204.331C187.593 204.331 156.787 207.754 155.409 219.926C154.032 235.794 154.832 231.304 151.075 267.972L160.205 268.453C160.205 268.453 169.493 238.46 168.241 226.544C178.471 226.544 201.892 227.402 205.295 218.579C206.985 214.099 207.807 209.363 207.721 204.601L187.593 204.331Z" fill="#407BFF"/>
<g opacity="0.2">
<path d="M187.593 204.331C187.593 204.331 156.787 207.754 155.409 219.926C154.032 235.794 154.832 231.304 151.075 267.972L160.205 268.453C160.205 268.453 169.493 238.46 168.241 226.544C178.471 226.544 201.892 227.402 205.295 218.579C206.985 214.099 207.807 209.363 207.721 204.601L187.593 204.331Z" fill="black"/>
</g>
<path d="M160.411 269.938L149.958 268.228L150.321 263.424L162.273 265.768L160.411 269.938Z" fill="#263238"/>
<path d="M150.097 277.124L156.194 278.276C156.408 278.306 156.562 278.524 156.541 278.767L156.034 284.276C155.942 284.869 155.447 285.271 154.919 285.183C152.805 284.741 151.806 284.415 149.127 283.908C147.477 283.598 143.705 282.838 141.409 282.593C139.114 282.348 139.39 279.781 140.381 279.65C144.841 279.086 147.375 278.4 149.106 277.329C149.407 277.138 149.756 277.066 150.097 277.124Z" fill="#263238"/>
<path d="M147.362 278.122C147.842 278.185 148.327 278.199 148.81 278.164C148.859 278.163 148.904 278.133 148.919 278.088C148.943 278.047 148.943 277.997 148.919 277.956C148.767 277.811 147.398 276.572 146.696 276.711C146.531 276.738 146.395 276.85 146.341 277.001C146.226 277.223 146.242 277.486 146.385 277.693C146.645 277.946 146.993 278.098 147.362 278.122ZM148.528 277.936C147.521 277.936 146.812 277.825 146.602 277.541C146.518 277.405 146.518 277.235 146.602 277.098C146.625 277.023 146.689 276.965 146.769 276.946C147.138 276.87 147.963 277.451 148.528 277.936Z" fill="#407BFF"/>
<path d="M148.817 278.164C148.817 278.164 148.854 278.164 148.875 278.164C148.917 278.149 148.949 278.115 148.962 278.074C148.962 278.012 149.36 276.538 148.897 275.949C148.783 275.79 148.593 275.693 148.39 275.693C148.167 275.663 147.951 275.783 147.869 275.984C147.645 276.531 148.267 277.742 148.752 278.136C148.77 278.153 148.793 278.163 148.817 278.164ZM148.441 275.943C148.544 275.958 148.635 276.013 148.694 276.095C148.906 276.641 148.93 277.238 148.759 277.797C148.321 277.323 148.088 276.706 148.108 276.074C148.108 276.005 148.188 275.929 148.376 275.936L148.441 275.943Z" fill="#407BFF"/>
<path d="M176.791 204.331C176.552 204.331 136.103 208.31 136.052 221.423C134.497 231.107 129.485 267.972 129.485 267.972L138.041 270.64C138.041 270.64 151.401 244.806 151.191 227.901C162.319 224.849 191.105 229.977 194.508 221.16C197.295 213.95 195.789 204.331 195.789 204.331H176.791Z" fill="#407BFF"/>
<path d="M138.54 271.588L128.416 268.414L129.278 264.221L140.576 267.904L138.54 271.588Z" fill="#263238"/>
<path d="M128.298 276.49L134.408 277.703C134.62 277.74 134.77 277.978 134.749 278.242L134.271 284.298C134.189 284.956 133.694 285.406 133.164 285.305C131.05 284.838 130.05 284.478 127.371 283.948C125.72 283.625 121.224 282.582 118.958 282.016C116.692 281.45 117.199 278.691 118.234 278.673C122.716 278.61 125.619 277.909 127.342 276.714C127.632 276.511 127.968 276.433 128.298 276.49Z" fill="#263238"/>
<path d="M125.789 277.799C126.214 277.578 126.613 277.314 126.981 277.013C127.021 276.981 127.039 276.929 127.024 276.88C127.008 276.836 126.966 276.804 126.918 276.8C126.706 276.768 124.836 276.536 124.352 277.052C124.243 277.172 124.207 277.336 124.254 277.488C124.296 277.732 124.472 277.936 124.716 278.023C125.089 278.08 125.473 277.999 125.789 277.799ZM126.606 276.99C125.819 277.58 125.16 277.867 124.814 277.765C124.659 277.701 124.553 277.562 124.537 277.401C124.51 277.329 124.527 277.247 124.582 277.19C124.842 276.942 125.855 276.922 126.606 276.99Z" fill="#407BFF"/>
<path d="M126.981 277.013L127.034 276.976C127.061 276.944 127.066 276.9 127.047 276.864C127.008 276.813 126.413 275.396 125.676 275.181C125.485 275.121 125.276 275.152 125.113 275.265C124.915 275.369 124.816 275.589 124.875 275.798C125.03 276.366 126.28 276.986 126.921 277.028C126.942 277.027 126.962 277.021 126.981 277.013ZM125.298 275.435C125.389 275.386 125.498 275.376 125.598 275.406C126.109 275.728 126.499 276.197 126.715 276.744C126.064 276.613 125.492 276.249 125.115 275.725C125.072 275.669 125.09 275.563 125.247 275.463L125.298 275.435Z" fill="#407BFF"/>
<path d="M197.74 167.499C199.356 175.675 199.555 181.024 199.302 186.401C199.195 188.67 197.677 190.679 195.429 191.416C187.688 193.956 167.641 194.914 161.155 194.132L163.785 191.481C163.785 191.481 191.329 186.348 190.634 184.293C190.634 184.293 189.334 171.154 188.48 169.224L197.74 167.499Z" fill="#FFC3BD"/>
<path d="M164.341 191.542L159.68 188.625L154.85 191.754C154.85 191.754 158.529 194.778 161.995 194.006L164.341 191.542Z" fill="#FFC3BD"/>
<path d="M155.427 189.645L152.891 191.521C152.69 191.669 152.784 191.975 153.035 191.998L156.03 192.267L159.68 188.625L155.427 189.645Z" fill="#FFC3BD"/>
<path d="M176.625 163.961C178.923 164.47 180.333 166.683 179.757 168.869C179.509 169.81 171.655 187.357 171.272 187.944C168.678 194.006 164.087 193.61 157.814 193.815C152.829 193.762 149.111 194.162 144.24 193.149L145.438 190.662C148.875 190.519 156.168 188.11 160.446 186.955C162.097 186.509 163.539 185.592 164.26 184.104C166.28 179.932 170.936 169.374 171.605 166.874C172.168 164.759 174.401 163.468 176.625 163.961Z" fill="#FFC3BD"/>
<path d="M145.693 190.664L141.697 188.992L138.341 192.715C138.341 192.715 143.704 194.349 144.637 192.786L145.693 190.664Z" fill="#FFC3BD"/>
<path d="M136.817 192.118L135.829 193.008C135.552 193.257 135.842 193.687 136.193 193.55L138.341 192.714L141.697 188.991L138.16 191.122C137.68 191.412 137.231 191.745 136.817 192.118Z" fill="#FFC3BD"/>
<path d="M180.875 142.409L185.055 144.893L191.253 148.13C191.232 148.387 191.384 151.669 191.633 152.604C192.137 154.492 192.835 156.006 196.31 156.353C196.31 156.353 200.835 159.41 192.824 160.574C184.813 161.739 182.423 158.289 182.423 158.289C185.061 154.973 182.534 146.593 180.875 142.409Z" fill="#FFC3BD"/>
<path d="M195.347 134.323C195.496 134.78 195.862 135.096 196.184 135.015C196.507 134.934 196.644 134.498 196.502 134.04C196.36 133.581 195.98 133.268 195.664 133.347C195.348 133.426 195.205 133.865 195.347 134.323Z" fill="#263238"/>
<path d="M193.15 133.283C193.247 133.264 193.328 133.198 193.362 133.11C193.627 132.424 194.209 131.894 194.938 131.675C195.096 131.638 195.194 131.489 195.163 131.337C195.127 131.185 194.969 131.089 194.81 131.123C193.886 131.38 193.144 132.04 192.81 132.903C192.754 133.049 192.828 133.211 192.979 133.27C193.034 133.289 193.093 133.293 193.15 133.283Z" fill="#263238"/>
<path d="M195.691 134.792C196.486 135.923 197.435 136.948 198.513 137.84C198.017 138.344 197.311 138.61 196.588 138.565L195.691 134.792Z" fill="#ED847E"/>
<path d="M178.632 137.068C180.757 142.632 181.719 146.021 185.63 148.132C187.403 149.126 189.406 149.406 191.269 149.054C192.391 148.843 193.469 148.406 194.412 147.762L194.419 147.76C195.311 147.146 196.078 146.359 196.667 145.401C197.494 144.053 197.874 142.497 197.761 140.943C197.462 135.538 194.026 127.349 187.495 126.533C183.05 125.857 178.877 128.753 178.168 133.002C177.94 134.368 178.104 135.776 178.632 137.068Z" fill="#FFC3BD"/>
<path opacity="0.2" d="M191.269 149.053C192.391 148.842 193.469 148.405 194.412 147.761C194.255 147.815 192.253 148.513 191.192 148.003L191.269 149.053Z" fill="black"/>
<path d="M175.83 141.688C179.017 146.318 183.141 149.694 183.141 149.694C185.188 149.109 186.969 148.776 189.051 148.314C189.865 146.071 190.038 139.048 190.808 137.856C191.578 136.664 193.165 135.094 193.844 133.853C194.773 132.151 194.519 129.978 193.41 128.377C192.301 126.776 190.424 125.766 188.462 125.354C183.955 124.407 180.408 126.518 178.744 127.904C177.384 129.036 176.611 130.434 176.543 131.385C173.73 133.178 172.935 137.483 175.83 141.688Z" fill="#263238"/>
<path d="M176.27 128.508C176.145 129.454 176.227 130.426 176.512 131.342C175.807 131.171 175.299 130.513 175.237 129.821C175.176 129.129 175.606 128.789 176.27 128.508Z" fill="#263238"/>
<path d="M188.975 138.304C189.64 139.637 190.732 140.732 192.092 141.431C193.794 142.238 194.519 140.708 193.939 138.883C193.402 137.235 191.906 134.817 190.22 134.788C188.534 134.76 188.108 136.596 188.975 138.304Z" fill="#FFC3BD"/>
<path d="M205.455 158.078C204.912 156.694 202.206 155.055 199.684 155.31H197.997C196.202 155.31 195.76 155.448 193.588 155.69C189.45 156.128 185.34 156.788 181.28 157.669C179.412 158.14 177.61 158.735 176.176 159.247C174.729 158.842 176.038 170.92 176.314 185.762C176.445 192.814 176.651 199.777 176.835 204.58H207.721C207.721 204.58 207.305 195.664 207.392 185.242C207.442 178.986 207.692 163.773 205.455 158.078Z" fill="#263238"/>
<path opacity="0.2" d="M175.646 178.699C175.878 181.349 176.117 184.131 176.37 186.913C179.557 176.924 181.605 166.888 181.605 166.888L175.646 178.699Z" fill="black"/>
<path d="M173.28 160.403C169.305 163.421 165.38 178.191 165.38 178.191L174.847 182.995C178.089 178.961 183.201 170.033 183.236 166.517C183.338 161.113 178.344 157.129 173.28 160.403Z" fill="#263238"/>
<path d="M165.69 284.643C165.69 286.305 164.279 287.653 162.54 287.653C160.801 287.653 159.391 286.305 159.391 284.643C159.391 282.98 160.801 281.632 162.54 281.632C164.279 281.632 165.69 282.98 165.69 284.643Z" fill="#263238"/>
<path d="M212.67 284.643C212.67 286.305 214.08 287.653 215.819 287.653C217.558 287.653 218.969 286.305 218.969 284.643C218.969 282.98 217.558 281.632 215.819 281.632C214.08 281.632 212.67 282.98 212.67 284.643Z" fill="#263238"/>
<path d="M186.114 283.68C186.114 285.342 187.525 286.69 189.264 286.69C191.003 286.69 192.413 285.342 192.413 283.68C192.413 282.018 191.003 280.67 189.264 280.67C187.524 280.67 186.114 282.018 186.114 283.68Z" fill="#263238"/>
<path d="M220.002 279.907C219.875 280.606 219.271 281.104 218.585 281.083L188.415 280.654L160.167 281.319C159.482 281.34 158.877 280.841 158.744 280.142C158.598 279.347 159.097 278.578 159.855 278.426L175.283 275.305C176.885 274.994 178.508 274.835 180.13 274.835H196.709C198.338 274.835 199.961 274.994 201.557 275.305L218.899 278.191C219.656 278.343 220.155 279.111 220.002 279.907Z" fill="#263238"/>
<path d="M194.736 248.195H183.565V274.844H194.736V248.195Z" fill="#263238"/>
<path d="M193.136 235.794H185.172V248.188H193.136V235.794Z" fill="#407BFF"/>
<path opacity="0.2" d="M193.136 235.794H185.172V248.188H193.136V235.794Z" fill="black"/>
<path opacity="0.5" d="M193.136 235.794H185.172V248.188H193.136V235.794Z" fill="black"/>
<path opacity="0.5" d="M185.172 239.434L193.136 241.351V235.794H185.172V239.434Z" fill="black"/>
<path d="M162.251 207.754H158.203V224.258H162.251V207.754Z" fill="#407BFF"/>
<path opacity="0.5" d="M162.251 207.754H158.203V224.258H162.251V207.754Z" fill="black"/>
<path d="M182.541 235.794V168.722C182.541 166.005 183.767 163.421 185.906 161.632L191.256 157.154C193.054 155.651 195.361 154.821 197.75 154.821H207.592L217.036 164.426V235.793H182.541V235.794Z" fill="#407BFF"/>
<path d="M153.765 221.913H197.857V235.794H146.583C143.704 235.796 141.369 233.567 141.366 230.816C141.365 229.921 141.617 229.042 142.094 228.272C144.534 224.329 148.972 221.911 153.765 221.913Z" fill="#407BFF"/>
<path opacity="0.7" d="M217.038 164.43V235.797H146.581C143.707 235.797 141.368 233.569 141.368 230.815C141.368 229.922 141.614 229.044 142.092 228.275C144.532 224.338 148.956 221.916 153.741 221.916H175.949C179.59 221.916 182.542 219.095 182.542 215.614V168.721C182.542 166.008 183.766 163.42 185.909 161.634L191.259 157.157C193.054 155.649 195.364 154.825 197.753 154.825H207.59L217.038 164.43Z" fill="white"/>
<path d="M188.974 235.794V168.722C188.974 166.005 190.201 163.421 192.339 161.632L197.69 157.154C199.487 155.651 201.795 154.821 204.184 154.821H209.761C212.482 154.821 215.082 155.896 216.945 157.791L220.795 161.706C222.513 163.453 223.47 165.762 223.47 168.159V228.609C223.47 232.576 220.105 235.793 215.954 235.793H188.974V235.794Z" fill="#407BFF"/>
<path opacity="0.5" d="M188.974 235.794V168.722C188.974 166.005 190.201 163.421 192.339 161.632L197.69 157.154C199.487 155.651 201.795 154.821 204.184 154.821H209.761C212.482 154.821 215.082 155.896 216.945 157.791L220.795 161.706C222.513 163.453 223.47 165.762 223.47 168.159V228.609C223.47 232.576 220.105 235.793 215.954 235.793H188.974V235.794Z" fill="white"/>
<path d="M173.972 212.654C165.065 209.682 155.367 209.682 146.46 212.654C144.611 213.32 142.532 212.563 141.617 210.889C140.791 209.221 141.899 207.062 144.143 206.308C154.545 202.834 165.873 202.834 176.274 206.308C178.519 207.055 179.627 209.221 178.801 210.889C177.884 212.553 175.817 213.308 173.972 212.654Z" fill="#407BFF"/>
<path opacity="0.7" d="M173.972 212.654C165.065 209.682 155.367 209.682 146.46 212.654C144.611 213.32 142.532 212.563 141.617 210.889C140.791 209.221 141.899 207.062 144.143 206.308C154.545 202.834 165.873 202.834 176.274 206.308C178.519 207.055 179.627 209.221 178.801 210.889C177.884 212.553 175.817 213.308 173.972 212.654Z" fill="white"/>
<path d="M275.187 80.2679C283.478 80.2679 290.199 73.8441 290.199 65.92C290.199 57.9958 283.478 51.572 275.187 51.572C266.897 51.572 260.176 57.9958 260.176 65.92C260.176 73.8441 266.897 80.2679 275.187 80.2679Z" fill="#E0E0E0"/>
<path d="M289.002 67.6159C290.33 59.794 284.773 52.424 276.589 51.1545C268.406 49.8851 260.695 55.1969 259.367 63.0188C258.038 70.8407 263.596 78.2107 271.78 79.4802C279.963 80.7496 287.674 75.4378 289.002 67.6159Z" fill="#EBEBEB"/>
<path opacity="0.8" d="M286.226 65.4153C286.226 71.7748 280.832 76.9302 274.179 76.9302C267.525 76.9302 262.132 71.7748 262.132 65.4153C262.132 59.0558 267.526 53.9011 274.179 53.9011C280.832 53.9004 286.226 59.0558 286.226 65.4153Z" fill="white"/>
<path d="M273.528 66.5019C273.051 66.0459 273.051 65.3068 273.528 64.8508C274.005 64.3948 274.778 64.3948 275.255 64.8508C275.733 65.3068 275.733 66.0459 275.255 66.5019C274.778 66.958 274.005 66.958 273.528 66.5019Z" fill="#E0E0E0"/>
<path d="M274.173 65.2778L281.288 65.0715L281.31 65.7732L274.864 65.9601L274.171 76.6743L273.438 76.6314L274.173 65.2778Z" fill="#E0E0E0"/>
<path d="M225.192 84.3603L245.107 84.1694C246.614 84.1355 247.757 83.0573 247.802 81.6256L247.835 62.1084C247.838 61.9866 247.83 61.8641 247.811 61.7416C247.625 60.5085 246.434 59.5473 245.149 59.5957L200.769 59.8483C199.262 59.8857 198.121 60.9652 198.077 62.397L198.048 81.9107C198.045 82.0325 198.053 82.1549 198.072 82.2774C198.258 83.5106 199.45 84.4718 200.735 84.4233L218.746 84.3991L222.318 95.0829L225.192 84.3603Z" fill="white" stroke="#407BFF" stroke-miterlimit="10"/>
<path d="M227.552 64.1167H207.527" stroke="#407BFF" stroke-miterlimit="10"/>
<path d="M244.311 64.1167H232.226" stroke="#407BFF" stroke-miterlimit="10"/>
<path d="M213.182 69.2229H202.213" stroke="#407BFF" stroke-miterlimit="10"/>
<path d="M243.552 69.2229H217.094" stroke="#407BFF" stroke-miterlimit="10"/>
<path d="M230.032 74.3293H202.157" stroke="#407BFF" stroke-miterlimit="10"/>
<path d="M243.495 74.3293H234.386" stroke="#407BFF" stroke-miterlimit="10"/>
<path d="M209.507 79.4355H202.27" stroke="#407BFF" stroke-miterlimit="10"/>
<path d="M251.856 87.4862L282.154 87.2336C283.439 87.1859 284.631 88.1464 284.817 89.3795C284.835 89.502 284.843 89.6245 284.84 89.7463L284.807 109.263C284.762 110.695 283.619 111.774 282.112 111.807L262.912 111.998C258.761 117.619 251.925 118.532 251.925 118.532C251.925 118.532 255.768 114.806 256.467 112.037L251.821 112.061C250.536 112.11 249.344 111.148 249.158 109.915C249.139 109.793 249.132 109.67 249.134 109.549L249.163 90.0349C249.209 88.6031 250.349 87.5236 251.856 87.4862Z" fill="white" stroke="#407BFF" stroke-miterlimit="10"/>
<path d="M264.269 96.8606H253.3" stroke="#407BFF" stroke-miterlimit="10"/>
<path d="M276.739 91.7537H256.714" stroke="#407BFF" stroke-miterlimit="10"/>
<path d="M280.313 96.8586H266.28" stroke="#407BFF" stroke-miterlimit="10"/>
<path d="M279.219 101.967H251.343" stroke="#407BFF" stroke-miterlimit="10"/>
<path d="M258.695 107.073H251.457" stroke="#407BFF" stroke-miterlimit="10"/>
<path d="M188.143 109.014L186.396 114.414L184.093 108.918C178.787 107.902 174.794 103.42 174.794 98.0468C174.794 91.9247 179.986 86.9575 186.396 86.9575C192.806 86.9575 197.998 91.9247 197.998 98.0468C197.998 103.604 193.721 108.211 188.143 109.014Z" fill="white" stroke="#407BFF" stroke-miterlimit="10"/>
<path d="M187.588 96.3596C187.651 95.6725 187.024 95.2607 186.107 95.2607C185.137 95.2607 184.286 95.7237 183.748 96.4973L181.195 95.123C182.288 93.5944 184.125 92.5813 186.767 92.5813C189.535 92.5813 191.408 93.7148 191.216 95.8109C190.971 98.4903 187.987 98.8854 187.843 100.466H184.643C184.848 98.2142 187.47 97.6474 187.588 96.3596ZM183.96 103.196C184.053 102.182 184.949 101.426 186.153 101.426C187.357 101.426 188.134 102.182 188.04 103.196C187.949 104.192 187.03 104.999 185.826 104.999C184.622 104.999 183.869 104.192 183.96 103.196Z" fill="#407BFF"/>
<path d="M169.86 125.168C170.514 125.168 171.044 124.661 171.044 124.036C171.044 123.411 170.514 122.905 169.86 122.905C169.206 122.905 168.676 123.411 168.676 124.036C168.676 124.661 169.206 125.168 169.86 125.168Z" fill="white" stroke="#407BFF" stroke-miterlimit="10"/>
<path d="M167.605 119.75C167.807 120.047 167.93 120.4 167.93 120.781C167.93 121.819 167.047 122.663 165.961 122.663C165.107 122.663 164.383 122.144 164.108 121.418C163.043 121.722 161.921 121.888 160.756 121.888C154.355 121.888 149.172 116.934 149.172 110.823C149.172 104.713 154.355 99.7581 160.756 99.7581C167.148 99.7581 172.332 104.713 172.332 110.823C172.332 114.484 170.472 117.729 167.605 119.75Z" fill="white" stroke="#407BFF" stroke-miterlimit="10"/>
<path d="M161.965 108.947C162.028 108.26 161.4 107.848 160.483 107.848C159.513 107.848 158.662 108.311 158.124 109.085L155.572 107.71C156.664 106.182 158.5 105.169 161.143 105.169C163.911 105.169 165.784 106.302 165.593 108.398C165.347 111.078 162.363 111.473 162.219 113.053H159.019C159.225 110.802 161.847 110.235 161.965 108.947ZM158.337 115.783C158.431 114.77 159.326 114.014 160.53 114.014C161.734 114.014 162.51 114.77 162.417 115.783C162.326 116.78 161.407 117.587 160.203 117.587C158.999 117.587 158.246 116.78 158.337 115.783Z" fill="#407BFF"/>
</svg>
