<svg width="340" height="340" viewBox="0 0 340 340" fill="none" xmlns="http://www.w3.org/2000/svg">
<path d="M255.194 204.566C255.092 204.478 255.037 204.351 255.031 204.216C254.916 201.752 253.434 177.567 238.624 160.999C226.094 146.982 238.945 156.984 244.523 161.492C244.97 161.853 245.585 161.324 245.292 160.829C241.361 154.183 231.498 136.617 234.917 133.198C238.15 129.965 244.827 146.01 247.808 153.79C248.023 154.354 248.866 154.152 248.803 153.553C247.944 145.316 246.693 128.093 251.333 128.698C255.928 129.297 254.644 152.054 253.737 163.191C253.686 163.808 254.565 163.975 254.744 163.382C256.817 156.53 260.763 146.402 265.394 149.085C272.249 153.056 255.304 167.002 256.363 182.137C257.401 196.971 257.676 206.704 255.194 204.566Z" fill="#F5F5F5"/>
<path d="M264.087 206.804C264.138 206.798 264.204 206.576 264.177 206.408C260.942 185.913 282.648 171.01 297.89 163.633C301.281 161.992 304.803 160.292 307.7 157.775C302.049 158.151 296.411 160.519 290.997 162.333C290.284 162.572 289.908 161.832 290.523 161.405C297.436 156.603 316.688 138.941 311.142 133.799C308.635 131.475 294.815 149.907 291.56 153.213C291.036 153.746 290.195 153.272 290.565 152.654C294.855 145.473 296.272 122.826 291.93 123.102C290.087 123.219 289.391 133.832 288.425 138.147C286.615 146.233 283.221 153.829 279.674 161.267C279.362 161.923 278.268 161.811 278.431 161.155C279.664 156.205 280.122 141.684 274.031 142.731C269.612 143.491 270.32 152.038 270.278 156.62C270.204 164.752 269.525 173.084 266.025 180.329C263.642 185.264 260.671 207.212 264.087 206.804Z" fill="#F5F5F5"/>
<path d="M259.171 209.076C259.24 209.017 259.277 208.931 259.281 208.842C259.357 207.187 260.352 190.953 270.294 179.831C278.705 170.422 270.078 177.137 266.334 180.163C266.034 180.405 265.621 180.05 265.817 179.718C268.456 175.256 275.077 163.465 272.782 161.17C270.611 159 266.13 169.77 264.129 174.992C263.984 175.371 263.419 175.236 263.461 174.833C264.037 169.304 264.877 157.742 261.763 158.149C258.678 158.551 259.54 173.827 260.149 181.302C260.183 181.716 259.593 181.829 259.472 181.431C258.081 176.831 255.432 170.033 252.324 171.834C247.722 174.5 259.096 183.86 258.386 194.02C257.69 203.977 257.505 210.511 259.171 209.076Z" fill="#E6E6E6"/>
<path d="M270.376 254.718C275.496 235.629 278.867 208.744 278.867 202.122H240.681C240.681 208.744 244.053 235.629 249.172 254.718C250.113 258.226 253.302 260.657 256.935 260.657H262.614C266.246 260.657 269.435 258.226 270.376 254.718Z" fill="#E6E6E6"/>
<path d="M277.767 214.76C278.051 212.439 278.283 210.321 278.46 208.464H241.09C241.267 210.321 241.499 212.439 241.783 214.76H277.767Z" fill="#F5F5F5"/>
<path d="M86.4926 129.773H54.0199V162.246H86.4926V129.773Z" fill="#F5F5F5"/>
<path d="M80.2278 159.112H60.2854C58.5562 159.112 57.1547 157.71 57.1547 155.981V136.038C57.1547 134.309 58.5562 132.907 60.2854 132.907H80.2285C81.9577 132.907 83.3592 134.309 83.3592 136.038V155.981C83.3585 157.71 81.957 159.112 80.2278 159.112Z" fill="#EBEBEB"/>
<path d="M64.8495 132.907C65.0379 133.798 65.8322 134.473 66.7774 134.473H73.7351C74.6803 134.473 75.4745 133.798 75.6629 132.907H64.8495Z" fill="#E0E0E0"/>
<path d="M86.4926 162.246H54.0199V194.719H86.4926V162.246Z" fill="#F0F0F0"/>
<path d="M80.2278 191.584H60.2854C58.5562 191.584 57.1547 190.182 57.1547 188.453V168.511C57.1547 166.782 58.5562 165.38 60.2854 165.38H80.2285C81.9577 165.38 83.3592 166.782 83.3592 168.511V188.454C83.3585 190.182 81.957 191.584 80.2278 191.584Z" fill="#FAFAFA"/>
<path d="M64.8495 165.38C65.0379 166.271 65.8322 166.945 66.7774 166.945H73.7351C74.6803 166.945 75.4745 166.271 75.6629 165.38H64.8495Z" fill="#E0E0E0"/>
<path d="M86.4926 194.719H54.0199V227.191H86.4926V194.719Z" fill="#F5F5F5"/>
<path d="M80.2278 224.057H60.2854C58.5562 224.057 57.1547 222.655 57.1547 220.926V200.983C57.1547 199.254 58.5562 197.852 60.2854 197.852H80.2285C81.9577 197.852 83.3592 199.254 83.3592 200.983V220.926C83.3585 222.655 81.957 224.057 80.2278 224.057Z" fill="#EBEBEB"/>
<path d="M64.8495 197.853C65.0379 198.744 65.8322 199.418 66.7774 199.418H73.7351C74.6803 199.418 75.4745 198.744 75.6629 197.853H64.8495Z" fill="#E0E0E0"/>
<path d="M86.4926 227.191H54.0199V259.663H86.4926V227.191Z" fill="#F0F0F0"/>
<path d="M80.2278 256.529H60.2854C58.5562 256.529 57.1547 255.128 57.1547 253.398V233.455C57.1547 231.726 58.5562 230.325 60.2854 230.325H80.2285C81.9577 230.325 83.3592 231.726 83.3592 233.455V253.398C83.3585 255.128 81.957 256.529 80.2278 256.529Z" fill="#FAFAFA"/>
<path d="M64.8495 230.325C65.0379 231.216 65.8322 231.891 66.7774 231.891H73.7351C74.6803 231.891 75.4745 231.216 75.6629 230.325H64.8495Z" fill="#E0E0E0"/>
<path d="M90.4706 129.773H86.4926V259.664H90.4706V129.773Z" fill="#E6E6E6"/>
<path d="M76.2722 71.4163H50.7205V96.9679H76.2722V71.4163Z" fill="#F0F0F0"/>
<path d="M76.2722 96.9688H77.4806V71.4171H76.2722V96.9688Z" fill="#E6E6E6"/>
<path d="M73.9602 73.729H53.0332V94.656H73.9602V73.729Z" fill="#E6E6E6"/>
<path d="M71.9025 75.7866H55.0902V92.5989H71.9025V75.7866Z" fill="#FAFAFA"/>
<path d="M98.3599 87.0496H82.0379V114.128H98.3599V87.0496Z" fill="#F0F0F0"/>
<path d="M98.3604 114.127H99.1322V87.0492H98.3604V114.127Z" fill="#E6E6E6"/>
<path d="M96.883 89.4998H83.5149V111.677H96.883V89.4998Z" fill="#FAFAFA"/>
<path d="M95.5685 91.6804H84.8293V109.497H95.5685V91.6804Z" fill="#F5F5F5"/>
<path d="M95.5699 82.3514C101.899 82.3514 107.03 78.9395 107.03 74.7306C107.03 70.5218 101.899 67.1099 95.5699 67.1099C89.2407 67.1099 84.1099 70.5218 84.1099 74.7306C84.1099 78.9395 89.2407 82.3514 95.5699 82.3514Z" fill="#E0E0E0"/>
<path d="M94.7886 82.3514C101.118 82.3514 106.249 78.9395 106.249 74.7306C106.249 70.5218 101.118 67.1099 94.7886 67.1099C88.4594 67.1099 83.3286 70.5218 83.3286 74.7306C83.3286 78.9395 88.4594 82.3514 94.7886 82.3514Z" fill="#EBEBEB"/>
<path d="M94.7886 80.6874C99.7361 80.6874 103.747 78.0202 103.747 74.7299C103.747 71.4397 99.7361 68.7725 94.7886 68.7725C89.841 68.7725 85.8303 71.4397 85.8303 74.7299C85.8303 78.0202 89.841 80.6874 94.7886 80.6874Z" fill="#FAFAFA"/>
<path d="M305.933 270.976H283.41V271.146H305.933V270.976Z" fill="#EBEBEB"/>
<path d="M225.23 272.822H219.318V272.992H225.23V272.822Z" fill="#EBEBEB"/>
<path d="M282.729 264.662H269.678V264.832H282.729V264.662Z" fill="#EBEBEB"/>
<path d="M65.0434 265.804H35.6721V265.974H65.0434V265.804Z" fill="#EBEBEB"/>
<path d="M75.4045 265.804H71.0981V265.974H75.4045V265.804Z" fill="#EBEBEB"/>
<path d="M153.1 268.676H89.4003V268.846H153.1V268.676Z" fill="#EBEBEB"/>
<path d="M161.17 229.704H29.8622C27.7223 229.704 25.9808 227.963 25.9808 225.823V41.2489C25.9808 39.1089 27.7223 37.3674 29.8622 37.3674H161.17C163.309 37.3674 165.05 39.1089 165.05 41.2489V225.823C165.05 227.963 163.309 229.704 161.17 229.704ZM29.8622 37.5381C27.8154 37.5381 26.1508 39.2028 26.1508 41.2496V225.823C26.1508 227.87 27.8154 229.535 29.8622 229.535H161.17C163.216 229.535 164.88 227.87 164.88 225.823V41.2489C164.88 39.2028 163.216 37.5374 161.17 37.5374L29.8622 37.5381Z" fill="#EBEBEB"/>
<path d="M308.251 229.704H176.944C174.804 229.704 173.063 227.963 173.063 225.823V41.2489C173.063 39.1089 174.805 37.3674 176.944 37.3674H308.251C310.391 37.3674 312.132 39.1089 312.132 41.2489V225.823C312.133 227.963 310.391 229.704 308.251 229.704ZM176.944 37.5381C174.898 37.5381 173.233 39.2028 173.233 41.2496V225.823C173.233 227.87 174.898 229.535 176.944 229.535H308.251C310.298 229.535 311.962 227.87 311.962 225.823V41.2489C311.962 39.2028 310.298 37.5374 308.251 37.5374L176.944 37.5381Z" fill="#EBEBEB"/>
<path d="M340 260.031H0V260.201H340V260.031Z" fill="#EBEBEB"/>
<path d="M166.721 288.126C239.537 288.126 298.566 284.678 298.566 280.426C298.566 276.174 239.537 272.726 166.721 272.726C93.9053 272.726 34.8765 276.174 34.8765 280.426C34.8765 284.678 93.9053 288.126 166.721 288.126Z" fill="#F5F5F5"/>
<path d="M120.616 72.0909C137.105 81.6109 153.594 91.1309 170.083 100.651C170.653 100.98 171.167 100.099 170.598 99.7703C154.108 90.2503 137.619 80.7303 121.13 71.2103C120.561 70.8812 120.047 71.7625 120.616 72.0909Z" fill="#263238"/>
<path d="M232.346 67.9163C222.881 84.3105 213.415 100.705 203.95 117.098C202.584 119.466 201.216 121.834 199.849 124.201C199.52 124.77 200.401 125.285 200.73 124.716C210.195 108.322 219.66 91.9278 229.125 75.5344C230.492 73.1666 231.86 70.7989 233.226 68.4311C233.555 67.8613 232.674 67.3472 232.346 67.9163Z" fill="#263238"/>
<path d="M199.85 68.4312C203.763 75.2087 207.676 81.987 211.589 88.7645C211.917 89.333 212.799 88.8196 212.47 88.2498C208.557 81.4722 204.644 74.694 200.731 67.9164C200.402 67.3479 199.521 67.8607 199.85 68.4312Z" fill="#263238"/>
<path d="M145.097 101.132C145.097 121.01 145.097 140.887 145.097 160.765C145.097 163.627 145.097 166.488 145.097 169.349C145.097 170.006 146.117 170.007 146.117 169.349C146.117 149.472 146.117 129.594 146.117 109.716C146.117 106.855 146.117 103.993 146.117 101.132C146.117 100.476 145.097 100.475 145.097 101.132Z" fill="#263238"/>
<path d="M145.097 57.3703C145.097 66.9991 145.097 76.6279 145.097 86.2567C145.097 86.9129 146.117 86.9143 146.117 86.2567C146.117 76.6279 146.117 66.9991 146.117 57.3703C146.117 56.7141 145.097 56.7128 145.097 57.3703Z" fill="#263238"/>
<path d="M118.589 123.438C125.451 127.401 132.314 131.362 139.176 135.325C139.745 135.653 140.26 134.773 139.691 134.444C132.828 130.482 125.966 126.52 119.103 122.558C118.534 122.229 118.019 123.11 118.589 123.438Z" fill="#263238"/>
<path d="M119.103 154.34C125.966 150.377 132.828 146.416 139.692 142.453C140.26 142.125 139.747 141.243 139.177 141.573C132.314 145.535 125.452 149.497 118.589 153.459C118.02 153.787 118.534 154.669 119.103 154.34Z" fill="#263238"/>
<path d="M156.997 139.109C176.988 139.109 196.98 139.109 216.972 139.109C219.81 139.109 222.648 139.109 225.487 139.109C226.144 139.109 226.145 138.089 225.487 138.089C205.496 138.089 185.504 138.089 165.513 138.089C162.674 138.089 159.836 138.089 156.997 138.089C156.341 138.089 156.339 139.109 156.997 139.109Z" fill="#263238"/>
<path d="M239.672 147.955C239.672 153.916 239.672 159.877 239.672 165.838C239.672 166.495 240.692 166.496 240.692 165.838C240.692 159.877 240.692 153.916 240.692 147.955C240.692 147.299 239.672 147.298 239.672 147.955Z" fill="#263238"/>
<path d="M250.858 139.109C255.291 139.109 259.723 139.109 264.156 139.109C264.812 139.109 264.814 138.089 264.156 138.089C259.724 138.089 255.291 138.089 250.858 138.089C250.202 138.089 250.201 139.109 250.858 139.109Z" fill="#263238"/>
<path d="M258.682 105.535C253.758 114.064 248.834 122.592 243.911 131.12C243.581 131.69 244.463 132.204 244.791 131.635C249.715 123.106 254.639 114.579 259.563 106.05C259.892 105.481 259.011 104.967 258.682 105.535Z" fill="#263238"/>
<path d="M160.459 141.34C159.425 140.307 158.391 139.272 157.357 138.239C157.357 138.479 157.357 138.719 157.357 138.96C158.391 137.927 159.425 136.892 160.459 135.859C160.924 135.394 160.203 134.673 159.737 135.137C158.704 136.171 157.67 137.205 156.636 138.239C156.441 138.433 156.441 138.765 156.636 138.96C157.67 139.994 158.704 141.028 159.737 142.062C160.203 142.526 160.924 141.805 160.459 141.34Z" fill="#263238"/>
<path d="M222.025 135.859C223.059 136.892 224.093 137.927 225.127 138.96C225.127 138.719 225.127 138.479 225.127 138.239C224.093 139.272 223.059 140.307 222.025 141.34C221.561 141.805 222.282 142.526 222.747 142.062C223.781 141.028 224.815 139.994 225.848 138.96C226.043 138.766 226.044 138.434 225.848 138.239C224.815 137.205 223.781 136.171 222.747 135.137C222.282 134.672 221.56 135.394 222.025 135.859Z" fill="#263238"/>
<path d="M205.854 109.362C207.267 108.984 208.679 108.606 210.091 108.228C209.881 108.109 209.673 107.99 209.463 107.871C209.841 109.284 210.22 110.696 210.598 112.108C210.768 112.741 211.752 112.473 211.581 111.837C211.203 110.425 210.824 109.012 210.446 107.601C210.374 107.333 210.084 107.174 209.819 107.244C208.406 107.623 206.994 108.001 205.582 108.379C204.95 108.549 205.219 109.532 205.854 109.362Z" fill="#263238"/>
<path d="M191.903 161.379C204.485 161.379 214.683 151.18 214.683 138.599C214.683 126.018 204.485 115.819 191.903 115.819C179.322 115.819 169.123 126.018 169.123 138.599C169.123 151.18 179.322 161.379 191.903 161.379Z" fill="#407BFF"/>
<path opacity="0.7" d="M191.903 161.379C204.485 161.379 214.683 151.18 214.683 138.599C214.683 126.018 204.485 115.819 191.903 115.819C179.322 115.819 169.123 126.018 169.123 138.599C169.123 151.18 179.322 161.379 191.903 161.379Z" fill="white"/>
<path d="M210.579 143.024C213.014 132.711 206.628 122.377 196.315 119.942C186.003 117.507 175.668 123.893 173.233 134.206C170.798 144.518 177.184 154.852 187.497 157.288C197.81 159.723 208.144 153.337 210.579 143.024Z" fill="#407BFF"/>
<path opacity="0.8" d="M210.579 143.024C213.014 132.711 206.628 122.377 196.315 119.942C186.003 117.507 175.668 123.893 173.233 134.206C170.798 144.518 177.184 154.852 187.497 157.288C197.81 159.723 208.144 153.337 210.579 143.024Z" fill="white"/>
<path opacity="0.9" d="M191.904 153.041C199.88 153.041 206.346 146.575 206.346 138.599C206.346 130.623 199.88 124.157 191.904 124.157C183.928 124.157 177.462 130.623 177.462 138.599C177.462 146.575 183.928 153.041 191.904 153.041Z" fill="white"/>
<path d="M211.835 73.39C214.476 67.016 211.449 59.7087 205.075 57.0684C198.701 54.4282 191.394 57.455 188.753 63.8289C186.113 70.2028 189.14 77.5102 195.514 80.1504C201.888 82.7906 209.195 79.7639 211.835 73.39Z" fill="#407BFF"/>
<path opacity="0.7" d="M211.835 73.39C214.476 67.016 211.449 59.7087 205.075 57.0684C198.701 54.4282 191.394 57.455 188.753 63.8289C186.113 70.2028 189.14 77.5102 195.514 80.1504C201.888 82.7906 209.195 79.7639 211.835 73.39Z" fill="white"/>
<path d="M219.135 108.914C226.1 107.269 230.414 100.288 228.769 93.3226C227.124 86.3567 220.144 82.0432 213.178 83.688C206.212 85.3329 201.899 92.3132 203.544 99.2791C205.188 106.245 212.169 110.558 219.135 108.914Z" fill="#407BFF"/>
<path opacity="0.7" d="M219.135 108.914C226.1 107.269 230.414 100.288 228.769 93.3226C227.124 86.3567 220.144 82.0432 213.178 83.688C206.212 85.3329 201.899 92.3132 203.544 99.2791C205.188 106.245 212.169 110.558 219.135 108.914Z" fill="white"/>
<path d="M145.607 149.989C151.898 149.989 156.997 144.89 156.997 138.599C156.997 132.308 151.898 127.209 145.607 127.209C139.317 127.209 134.217 132.308 134.217 138.599C134.217 144.89 139.317 149.989 145.607 149.989Z" fill="#407BFF"/>
<path opacity="0.7" d="M145.607 149.989C151.898 149.989 156.997 144.89 156.997 138.599C156.997 132.308 151.898 127.209 145.607 127.209C139.317 127.209 134.217 132.308 134.217 138.599C134.217 144.89 139.317 149.989 145.607 149.989Z" fill="white"/>
<path d="M145.607 101.132C153.822 101.132 160.482 94.4726 160.482 86.2573C160.482 78.0421 153.822 71.3823 145.607 71.3823C137.392 71.3823 130.732 78.0421 130.732 86.2573C130.732 94.4726 137.392 101.132 145.607 101.132Z" fill="#407BFF"/>
<path opacity="0.7" d="M145.607 101.132C153.822 101.132 160.482 94.4726 160.482 86.2573C160.482 78.0421 153.822 71.3823 145.607 71.3823C137.392 71.3823 130.732 78.0421 130.732 86.2573C130.732 94.4726 137.392 101.132 145.607 101.132Z" fill="white"/>
<path d="M240.182 181.367C246.078 181.367 250.858 176.587 250.858 170.691C250.858 164.795 246.078 160.015 240.182 160.015C234.286 160.015 229.506 164.795 229.506 170.691C229.506 176.587 234.286 181.367 240.182 181.367Z" fill="#407BFF"/>
<path opacity="0.7" d="M240.182 181.367C246.078 181.367 250.858 176.587 250.858 170.691C250.858 164.795 246.078 160.015 240.182 160.015C234.286 160.015 229.506 164.795 229.506 170.691C229.506 176.587 234.286 181.367 240.182 181.367Z" fill="white"/>
<path d="M270.169 147.956C275.337 147.956 279.526 143.767 279.526 138.599C279.526 133.431 275.337 129.242 270.169 129.242C265.002 129.242 260.813 133.431 260.813 138.599C260.813 143.767 265.002 147.956 270.169 147.956Z" fill="#407BFF"/>
<path opacity="0.7" d="M270.169 147.956C275.337 147.956 279.526 143.767 279.526 138.599C279.526 133.431 275.337 129.242 270.169 129.242C265.002 129.242 260.813 133.431 260.813 138.599C260.813 143.767 265.002 147.956 270.169 147.956Z" fill="white"/>
<path d="M262.003 119.75C269.721 117.928 274.5 110.194 272.678 102.476C270.855 94.7579 263.121 89.9786 255.403 91.801C247.685 93.6234 242.906 101.358 244.728 109.076C246.551 116.794 254.285 121.573 262.003 119.75Z" fill="#407BFF"/>
<path opacity="0.7" d="M262.003 119.75C269.721 117.928 274.5 110.194 272.678 102.476C270.855 94.7579 263.121 89.9786 255.403 91.801C247.685 93.6234 242.906 101.358 244.728 109.076C246.551 116.794 254.285 121.573 262.003 119.75Z" fill="white"/>
<path d="M152.169 63.9349C155.794 60.3098 155.794 54.4324 152.169 50.8073C148.544 47.1822 142.667 47.1822 139.042 50.8073C135.417 54.4324 135.417 60.3098 139.042 63.9349C142.667 67.5599 148.544 67.5599 152.169 63.9349Z" fill="#407BFF"/>
<path opacity="0.7" d="M152.169 63.9349C155.794 60.3098 155.794 54.4324 152.169 50.8073C148.544 47.1822 142.667 47.1822 139.042 50.8073C135.417 54.4324 135.417 60.3098 139.042 63.9349C142.667 67.5599 148.544 67.5599 152.169 63.9349Z" fill="white"/>
<path d="M145.607 180.721C151.898 180.721 156.997 175.621 156.997 169.331C156.997 163.04 151.898 157.941 145.607 157.941C139.317 157.941 134.217 163.04 134.217 169.331C134.217 175.621 139.317 180.721 145.607 180.721Z" fill="#407BFF"/>
<path opacity="0.7" d="M145.607 180.721C151.898 180.721 156.997 175.621 156.997 169.331C156.997 163.04 151.898 157.941 145.607 157.941C139.317 157.941 134.217 163.04 134.217 169.331C134.217 175.621 139.317 180.721 145.607 180.721Z" fill="white"/>
<path d="M118.846 165.785C125.41 165.785 130.732 160.464 130.732 153.899C130.732 147.334 125.41 142.013 118.846 142.013C112.281 142.013 106.959 147.334 106.959 153.899C106.959 160.464 112.281 165.785 118.846 165.785Z" fill="#407BFF"/>
<path opacity="0.7" d="M118.846 165.785C125.41 165.785 130.732 160.464 130.732 153.899C130.732 147.334 125.41 142.013 118.846 142.013C112.281 142.013 106.959 147.334 106.959 153.899C106.959 160.464 112.281 165.785 118.846 165.785Z" fill="white"/>
<path d="M120.986 136.165C128.259 134.985 133.198 128.133 132.017 120.86C130.837 113.587 123.985 108.649 116.712 109.829C109.44 111.009 104.501 117.862 105.681 125.134C106.861 132.407 113.714 137.346 120.986 136.165Z" fill="#407BFF"/>
<path opacity="0.7" d="M120.986 136.165C128.259 134.985 133.198 128.133 132.017 120.86C130.837 113.587 123.985 108.649 116.712 109.829C109.44 111.009 104.501 117.862 105.681 125.134C106.861 132.407 113.714 137.346 120.986 136.165Z" fill="white"/>
<path d="M122.361 80.796C127.412 79.9761 130.843 75.2163 130.023 70.1647C129.203 65.113 124.443 61.6825 119.392 62.5023C114.34 63.3222 110.909 68.082 111.729 73.1336C112.549 78.1853 117.309 81.6158 122.361 80.796Z" fill="#407BFF"/>
<path opacity="0.7" d="M122.361 80.796C127.412 79.9761 130.843 75.2163 130.023 70.1647C129.203 65.113 124.443 61.6825 119.392 62.5023C114.34 63.3222 110.909 68.082 111.729 73.1336C112.549 78.1853 117.309 81.6158 122.361 80.796Z" fill="white"/>
<path d="M171.829 109.355C176.881 108.535 180.311 103.776 179.491 98.724C178.672 93.6724 173.912 90.2418 168.86 91.0617C163.808 91.8815 160.378 96.6413 161.198 101.693C162.018 106.745 166.777 110.175 171.829 109.355Z" fill="#407BFF"/>
<path opacity="0.7" d="M171.829 109.355C176.881 108.535 180.311 103.776 179.491 98.724C178.672 93.6724 173.912 90.2418 168.86 91.0617C163.808 91.8815 160.378 96.6413 161.198 101.693C162.018 106.745 166.777 110.175 171.829 109.355Z" fill="white"/>
<path d="M232.786 81.526C240.161 81.526 246.139 75.5479 246.139 68.1735C246.139 60.7991 240.161 54.821 232.786 54.821C225.412 54.821 219.434 60.7991 219.434 68.1735C219.434 75.5479 225.412 81.526 232.786 81.526Z" fill="#407BFF"/>
<path opacity="0.7" d="M232.786 81.526C240.161 81.526 246.139 75.5479 246.139 68.1735C246.139 60.7991 240.161 54.821 232.786 54.821C225.412 54.821 219.434 60.7991 219.434 68.1735C219.434 75.5479 225.412 81.526 232.786 81.526Z" fill="white"/>
<path d="M240.182 153.294C248.298 153.294 254.877 146.715 254.877 138.599C254.877 130.483 248.298 123.904 240.182 123.904C232.066 123.904 225.487 130.483 225.487 138.599C225.487 146.715 232.066 153.294 240.182 153.294Z" fill="#407BFF"/>
<path opacity="0.7" d="M240.182 153.294C248.298 153.294 254.877 146.715 254.877 138.599C254.877 130.483 248.298 123.904 240.182 123.904C232.066 123.904 225.487 130.483 225.487 138.599C225.487 146.715 232.066 153.294 240.182 153.294Z" fill="white"/>
<path d="M145.607 99.1986C152.754 99.1986 158.548 93.4046 158.548 86.2575C158.548 79.1103 152.754 73.3164 145.607 73.3164C138.46 73.3164 132.666 79.1103 132.666 86.2575C132.666 93.4046 138.46 99.1986 145.607 99.1986Z" fill="#407BFF"/>
<path d="M118.846 133.292C124.531 133.292 129.139 128.683 129.139 122.998C129.139 117.313 124.531 112.704 118.846 112.704C113.16 112.704 108.552 117.313 108.552 122.998C108.552 128.683 113.16 133.292 118.846 133.292Z" fill="#407BFF"/>
<path d="M122.599 162.948C127.596 160.878 129.969 155.149 127.899 150.152C125.829 145.155 120.1 142.782 115.103 144.852C110.106 146.922 107.733 152.651 109.803 157.648C111.873 162.645 117.601 165.018 122.599 162.948Z" fill="#407BFF"/>
<path d="M151.643 144.633C154.977 141.298 154.977 135.892 151.643 132.557C148.308 129.223 142.902 129.223 139.567 132.557C136.233 135.892 136.233 141.298 139.567 144.633C142.902 147.967 148.308 147.967 151.643 144.633Z" fill="#407BFF"/>
<path d="M152.059 175.804C155.623 172.239 155.623 166.46 152.059 162.896C148.494 159.332 142.716 159.332 139.151 162.896C135.587 166.46 135.587 172.239 139.151 175.804C142.716 179.368 148.494 179.368 152.059 175.804Z" fill="#407BFF"/>
<path d="M126.615 72.5815C127.129 69.4123 124.977 66.4262 121.808 65.9119C118.639 65.3976 115.652 67.5497 115.138 70.7189C114.624 73.8881 116.776 76.8742 119.945 77.3886C123.114 77.9029 126.1 75.7507 126.615 72.5815Z" fill="#407BFF"/>
<path d="M153.218 59.1764C154.21 54.9755 151.608 50.7658 147.407 49.7739C143.206 48.7819 138.997 51.3833 138.005 55.5842C137.013 59.7851 139.614 63.9948 143.815 64.9868C148.016 65.9787 152.226 63.3773 153.218 59.1764Z" fill="#407BFF"/>
<path d="M170.341 106.746C173.95 106.746 176.876 103.82 176.876 100.21C176.876 96.6008 173.95 93.6748 170.341 93.6748C166.731 93.6748 163.805 96.6008 163.805 100.21C163.805 103.82 166.731 106.746 170.341 106.746Z" fill="#407BFF"/>
<path d="M200.29 78.3402C205.663 78.3402 210.018 73.9848 210.018 68.6121C210.018 63.2394 205.663 58.884 200.29 58.884C194.917 58.884 190.562 63.2394 190.562 68.6121C190.562 73.9848 194.917 78.3402 200.29 78.3402Z" fill="#407BFF"/>
<path d="M232.786 79.8204C239.219 79.8204 244.433 74.6059 244.433 68.1734C244.433 61.7409 239.219 56.5264 232.786 56.5264C226.354 56.5264 221.139 61.7409 221.139 68.1734C221.139 74.6059 226.354 79.8204 232.786 79.8204Z" fill="#407BFF"/>
<path d="M240.182 149.989C246.473 149.989 251.572 144.89 251.572 138.599C251.572 132.308 246.473 127.209 240.182 127.209C233.892 127.209 228.792 132.308 228.792 138.599C228.792 144.89 233.892 149.989 240.182 149.989Z" fill="#407BFF"/>
<path d="M216.162 106.745C221.922 106.745 226.592 102.076 226.592 96.3159C226.592 90.556 221.922 85.8867 216.162 85.8867C210.403 85.8867 205.733 90.556 205.733 96.3159C205.733 102.076 210.403 106.745 216.162 106.745Z" fill="#407BFF"/>
<path d="M267.531 114.616C272.403 109.744 272.403 101.844 267.531 96.972C262.658 92.0996 254.759 92.0996 249.886 96.972C245.014 101.844 245.014 109.744 249.886 114.616C254.759 119.489 262.658 119.489 267.531 114.616Z" fill="#407BFF"/>
<path d="M240.182 177.462C243.922 177.462 246.954 174.431 246.954 170.691C246.954 166.951 243.922 163.919 240.182 163.919C236.442 163.919 233.411 166.951 233.411 170.691C233.411 174.431 236.442 177.462 240.182 177.462Z" fill="#407BFF"/>
<path opacity="0.5" d="M145.607 99.1986C152.754 99.1986 158.548 93.4046 158.548 86.2575C158.548 79.1103 152.754 73.3164 145.607 73.3164C138.46 73.3164 132.666 79.1103 132.666 86.2575C132.666 93.4046 138.46 99.1986 145.607 99.1986Z" fill="white"/>
<path opacity="0.4" d="M118.846 133.292C124.531 133.292 129.139 128.683 129.139 122.998C129.139 117.313 124.531 112.704 118.846 112.704C113.16 112.704 108.552 117.313 108.552 122.998C108.552 128.683 113.16 133.292 118.846 133.292Z" fill="white"/>
<path opacity="0.9" d="M122.599 162.948C127.596 160.878 129.969 155.149 127.899 150.152C125.829 145.155 120.1 142.782 115.103 144.852C110.106 146.922 107.733 152.651 109.803 157.648C111.873 162.645 117.601 165.018 122.599 162.948Z" fill="white"/>
<path opacity="0.4" d="M152.059 175.804C155.623 172.239 155.623 166.46 152.059 162.896C148.494 159.332 142.716 159.332 139.151 162.896C135.587 166.46 135.587 172.239 139.151 175.804C142.716 179.368 148.494 179.368 152.059 175.804Z" fill="white"/>
<path opacity="0.2" d="M153.218 59.1764C154.21 54.9755 151.608 50.7658 147.407 49.7739C143.206 48.7819 138.997 51.3833 138.005 55.5842C137.013 59.7851 139.614 63.9948 143.815 64.9868C148.016 65.9787 152.226 63.3773 153.218 59.1764Z" fill="white"/>
<path opacity="0.2" d="M170.341 106.746C173.95 106.746 176.876 103.82 176.876 100.21C176.876 96.6008 173.95 93.6748 170.341 93.6748C166.731 93.6748 163.805 96.6008 163.805 100.21C163.805 103.82 166.731 106.746 170.341 106.746Z" fill="white"/>
<path opacity="0.9" d="M200.29 78.3402C205.663 78.3402 210.018 73.9848 210.018 68.6121C210.018 63.2394 205.663 58.884 200.29 58.884C194.917 58.884 190.562 63.2394 190.562 68.6121C190.562 73.9848 194.917 78.3402 200.29 78.3402Z" fill="white"/>
<path opacity="0.2" d="M232.786 79.8204C239.219 79.8204 244.433 74.6059 244.433 68.1734C244.433 61.7409 239.219 56.5264 232.786 56.5264C226.354 56.5264 221.139 61.7409 221.139 68.1734C221.139 74.6059 226.354 79.8204 232.786 79.8204Z" fill="white"/>
<path opacity="0.4" d="M240.182 149.989C246.473 149.989 251.572 144.89 251.572 138.599C251.572 132.308 246.473 127.209 240.182 127.209C233.892 127.209 228.792 132.308 228.792 138.599C228.792 144.89 233.892 149.989 240.182 149.989Z" fill="white"/>
<path opacity="0.2" d="M267.531 114.616C272.403 109.744 272.403 101.844 267.531 96.972C262.658 92.0996 254.759 92.0996 249.886 96.972C245.014 101.844 245.014 109.744 249.886 114.616C254.759 119.489 262.658 119.489 267.531 114.616Z" fill="white"/>
<path opacity="0.2" d="M240.182 177.462C243.922 177.462 246.954 174.431 246.954 170.691C246.954 166.951 243.922 163.919 240.182 163.919C236.442 163.919 233.411 166.951 233.411 170.691C233.411 174.431 236.442 177.462 240.182 177.462Z" fill="white"/>
<path opacity="0.8" d="M270.169 145.309C273.875 145.309 276.88 142.305 276.88 138.599C276.88 134.893 273.875 131.889 270.169 131.889C266.463 131.889 263.459 134.893 263.459 138.599C263.459 142.305 266.463 145.309 270.169 145.309Z" fill="#407BFF"/>
<path d="M145.607 78.0986L147.257 79.7313L149.501 79.1418L150.113 81.381L152.352 81.9923L151.762 84.2377L153.396 85.8867L151.762 87.5364L152.352 89.781L150.113 90.3923L149.501 92.6316L147.257 92.042L145.607 93.6754L143.958 92.042L141.713 92.6316L141.101 90.3923L138.862 89.781L139.452 87.5364L137.819 85.8867L139.452 84.2377L138.862 81.9923L141.101 81.381L141.713 79.1418L143.958 79.7313L145.607 78.0986Z" fill="#407BFF"/>
<path d="M145.777 134.229L147.417 136.356L149.947 137.258L148.431 139.476L148.355 142.161L145.777 141.404L143.2 142.161L143.123 139.476L141.607 137.258L144.137 136.356L145.777 134.229Z" fill="white"/>
<path d="M120.873 68.9309L121.887 70.246L123.451 70.8036L122.514 72.1738L122.467 73.8337L120.873 73.3659L119.281 73.8337L119.233 72.1738L118.296 70.8036L119.86 70.246L120.873 68.9309Z" fill="white"/>
<path d="M213.503 90.5999L216.808 94.9369L209.166 93.9053L213.503 90.5999Z" fill="white"/>
<path d="M217.237 98.4348L212.239 97.76L211.564 102.758L216.563 103.433L217.237 98.4348Z" fill="white"/>
<path d="M224.509 96.3003C224.316 97.7269 223.003 98.7279 221.576 98.5354C220.149 98.343 219.148 97.0299 219.341 95.6026C219.533 94.176 220.846 93.175 222.274 93.3674C223.701 93.5599 224.701 94.873 224.509 96.3003Z" fill="white"/>
<path d="M228.825 67.6865L232.258 70.2372L226.274 71.1205L228.825 67.6865Z" fill="white"/>
<path d="M233.35 72.7889L229.436 73.3669L230.014 77.2809L233.928 76.7028L233.35 72.7889Z" fill="white"/>
<path d="M226.314 64.7158L223.46 65.1372L223.882 67.9909L226.735 67.5695L226.314 64.7158Z" fill="white"/>
<path d="M241.752 64.9147L238.899 65.3362L239.32 68.1899L242.174 67.7684L241.752 64.9147Z" fill="white"/>
<path d="M238.358 69.5898C238.524 70.7071 237.751 71.7468 236.634 71.912C235.517 72.0773 234.477 71.3048 234.312 70.1876C234.146 69.0703 234.919 68.0306 236.036 67.8654C237.154 67.7008 238.194 68.4726 238.358 69.5898Z" fill="white"/>
<path d="M237.865 61.6733L235.315 65.1073L234.431 59.1233L237.865 61.6733Z" fill="white"/>
<path d="M232.529 64.2909L231.951 60.377L228.037 60.955L228.615 64.8689L232.529 64.2909Z" fill="white"/>
<path d="M237.676 135.456L239.066 138.747L242.626 139.053L239.926 141.392L240.735 144.873L237.676 143.028L234.616 144.873L235.425 141.392L232.725 139.053L236.284 138.747L237.676 135.456Z" fill="#407BFF"/>
<path d="M243.614 130.143L244.491 132.217L246.735 132.41L245.033 133.885L245.543 136.079L243.614 134.916L241.685 136.079L242.195 133.885L240.493 132.41L242.737 132.217L243.614 130.143Z" fill="#407BFF"/>
<path d="M245.581 140.058L246.134 141.366L247.549 141.488L246.476 142.418L246.798 143.801L245.581 143.067L244.365 143.801L244.687 142.418L243.614 141.488L245.028 141.366L245.581 140.058Z" fill="#407BFF"/>
<path d="M254.844 106.496C254.844 107.326 254.171 107.999 253.341 107.999C252.511 107.999 251.838 107.326 251.838 106.496C251.838 105.666 252.511 104.993 253.341 104.993C254.17 104.993 254.844 105.667 254.844 106.496Z" fill="white"/>
<path d="M259.567 106.496C259.567 107.326 258.894 107.999 258.064 107.999C257.234 107.999 256.561 107.326 256.561 106.496C256.561 105.666 257.234 104.993 258.064 104.993C258.894 104.993 259.567 105.667 259.567 106.496Z" fill="white"/>
<path d="M264.291 106.496C264.291 107.326 263.618 107.999 262.788 107.999C261.958 107.999 261.285 107.326 261.285 106.496C261.285 105.666 261.958 104.993 262.788 104.993C263.618 104.993 264.291 105.667 264.291 106.496Z" fill="white"/>
<path d="M115.625 153.941C115.625 154.772 114.953 155.444 114.122 155.444C113.292 155.444 112.62 154.772 112.62 153.941C112.62 153.112 113.292 152.438 114.122 152.438C114.952 152.438 115.625 153.112 115.625 153.941Z" fill="#407BFF"/>
<path d="M118.846 155.444C119.676 155.444 120.348 154.771 120.348 153.941C120.348 153.111 119.676 152.438 118.846 152.438C118.016 152.438 117.343 153.111 117.343 153.941C117.343 154.771 118.016 155.444 118.846 155.444Z" fill="#407BFF"/>
<path d="M125.072 153.941C125.072 154.772 124.4 155.444 123.57 155.444C122.739 155.444 122.067 154.772 122.067 153.941C122.067 153.112 122.74 152.438 123.57 152.438C124.399 152.438 125.072 153.112 125.072 153.941Z" fill="#407BFF"/>
<path d="M195.054 70.115C195.884 70.115 196.557 69.4421 196.557 68.6122C196.557 67.7822 195.884 67.1094 195.054 67.1094C194.224 67.1094 193.551 67.7822 193.551 68.6122C193.551 69.4421 194.224 70.115 195.054 70.115Z" fill="#407BFF"/>
<path d="M199.777 70.115C200.607 70.115 201.28 69.4421 201.28 68.6122C201.28 67.7822 200.607 67.1094 199.777 67.1094C198.947 67.1094 198.274 67.7822 198.274 68.6122C198.274 69.4421 198.947 70.115 199.777 70.115Z" fill="#407BFF"/>
<path d="M206.004 68.6122C206.004 69.4418 205.331 70.115 204.501 70.115C203.672 70.115 202.998 69.4425 202.998 68.6122C202.998 67.7819 203.671 67.1094 204.501 67.1094C205.331 67.1094 206.004 67.7826 206.004 68.6122Z" fill="#407BFF"/>
<path d="M273.294 137.299L268.9 135.292L266.893 139.686L271.287 141.693L273.294 137.299Z" fill="white"/>
<path d="M173.451 101.635L171.763 97.1096L167.238 98.7972L168.925 103.323L173.451 101.635Z" fill="white"/>
<path d="M236.782 171.311L241.644 167.458L242.882 173.537L236.782 171.311Z" fill="white"/>
<path d="M140.793 165.919L144.493 162.987L145.436 167.613L140.793 165.919Z" fill="white"/>
<path d="M148.301 169.143L148.843 164.453L152.781 167.058L148.301 169.143Z" fill="white"/>
<path d="M146.061 175.202L146.603 170.512L150.541 173.117L146.061 175.202Z" fill="white"/>
<path d="M139.728 172.139L143.611 169.453L144.25 174.13L139.728 172.139Z" fill="white"/>
<path d="M142.047 57.6919L146.909 53.8376L148.148 59.9175L142.047 57.6919Z" fill="white"/>
<path d="M117.704 123.647C117.447 123.382 114.673 120.521 114.416 120.256C113.838 119.66 112.887 119.645 112.291 120.223C111.695 120.801 111.68 121.753 112.258 122.348C112.531 122.629 115.274 125.459 115.546 125.739C116.124 126.335 117.076 126.35 117.671 125.772C118.268 125.195 118.282 124.243 117.704 123.647Z" fill="#407BFF"/>
<path d="M122.369 117.743C122.072 117.754 118.865 117.873 118.567 117.884C117.898 117.909 117.377 118.47 117.402 119.138C117.426 119.806 117.989 120.327 118.657 120.303C118.972 120.291 122.144 120.174 122.459 120.162C123.127 120.137 123.649 119.575 123.624 118.907C123.599 118.239 123.038 117.718 122.369 117.743Z" fill="#407BFF"/>
<path d="M123.095 125.494C122.995 125.276 121.919 122.925 121.819 122.707C121.595 122.217 121.016 122.002 120.527 122.226C120.037 122.45 119.821 123.029 120.046 123.519C120.152 123.75 121.216 126.075 121.322 126.306C121.546 126.796 122.125 127.011 122.614 126.787C123.104 126.563 123.319 125.984 123.095 125.494Z" fill="#407BFF"/>
<path d="M188.845 151.269C188.845 151.269 186.249 155.96 181.559 153.782C176.868 151.604 180.422 145.264 180.197 142.409C179.973 139.573 174.774 132.59 183.15 131.418C183.15 131.418 189.904 123.988 199.064 129.24C205.546 132.957 204.426 136.741 206.183 139.263C207.119 140.605 212.42 142.731 211.162 147.208C210.548 149.393 209.367 150.183 204.425 150.348C200.525 150.479 197.471 156.839 188.845 151.269Z" fill="#263238"/>
<path d="M194.336 203.446C194.336 203.446 159.556 200.884 157.019 210.787C154.484 220.69 158.71 251.122 159.314 261.508H167.284C167.284 261.508 170.698 231.24 169.535 219.987C169.535 219.987 216.487 230.472 216.22 207.165L194.336 203.446Z" fill="#407BFF"/>
<path opacity="0.3" d="M194.336 203.446C194.336 203.446 159.556 200.884 157.019 210.787C154.484 220.69 158.71 251.122 159.314 261.508H167.284C167.284 261.508 170.698 231.24 169.535 219.987C169.535 219.987 216.487 230.472 216.22 207.165L194.336 203.446Z" fill="white"/>
<path d="M165.407 260.669L165.276 269.663L160.555 269.226L160.236 261.066L165.407 260.669Z" fill="#FFB573"/>
<path d="M157.807 269.271C157.134 269.17 156.457 268.942 156.278 268.619C156.188 268.433 156.225 268.209 156.371 268.063C156.484 267.927 156.645 267.842 156.82 267.823C157.761 267.711 159.488 269.074 159.563 269.134C159.606 269.168 159.623 269.225 159.606 269.276C159.587 269.327 159.54 269.363 159.486 269.366C158.925 269.383 158.363 269.352 157.807 269.271ZM157.104 268.088C157.022 268.074 156.938 268.072 156.854 268.082C156.745 268.084 156.642 268.137 156.575 268.224C156.456 268.369 156.478 268.451 156.508 268.5C156.706 268.891 158.07 269.104 159.096 269.132C158.505 268.661 157.829 268.307 157.104 268.088Z" fill="#407BFF"/>
<path d="M159.467 269.361C159.448 269.364 159.429 269.359 159.414 269.349C158.811 268.964 157.686 267.595 157.893 267.003C157.929 266.858 158.066 266.697 158.424 266.714C158.686 266.726 158.932 266.843 159.105 267.041C159.709 267.711 159.634 269.193 159.631 269.262C159.627 269.309 159.599 269.35 159.556 269.37C159.526 269.378 159.494 269.375 159.467 269.361ZM158.473 266.97L158.4 266.952C158.167 266.937 158.137 267.028 158.122 267.059C158.034 267.421 158.749 268.467 159.36 268.965C159.388 268.341 159.225 267.725 158.891 267.197C158.784 267.074 158.635 266.993 158.473 266.97Z" fill="#407BFF"/>
<path d="M160.153 268.692L166.062 269.581C166.284 269.614 166.454 269.798 166.471 270.022L166.816 274.99C166.85 275.431 166.52 275.815 166.079 275.849C166.023 275.853 165.966 275.852 165.91 275.844C163.785 275.487 161.909 275.085 159.256 274.69C156.127 274.22 156.864 274.714 153.177 274.212C150.955 273.909 150.929 271.327 151.888 271.345C156.271 271.451 156.913 270.219 158.804 268.929C159.21 268.687 159.69 268.602 160.153 268.692Z" fill="#263238"/>
<path opacity="0.1" d="M160.153 268.692L166.062 269.581C166.284 269.614 166.454 269.798 166.471 270.022L166.816 274.99C166.85 275.431 166.52 275.815 166.079 275.849C166.023 275.853 165.966 275.852 165.91 275.844C163.785 275.487 161.909 275.085 159.256 274.69C156.127 274.22 156.864 274.714 153.177 274.212C150.955 273.909 150.929 271.327 151.888 271.345C156.271 271.451 156.913 270.219 158.804 268.929C159.21 268.687 159.69 268.602 160.153 268.692Z" fill="black"/>
<path opacity="0.2" d="M165.386 262.088L165.337 265.457L160.408 265.454L160.302 262.744L165.386 262.088Z" fill="black"/>
<path d="M169.146 259.478L168.865 263.395L158.243 263.872L157.489 259.848L169.146 259.478Z" fill="#407BFF"/>
<path d="M184.61 170.43C184.61 170.43 180.878 185.585 180.191 188.386C180.191 188.386 177.116 188.386 169.044 192.339C169.044 192.339 163.526 189.95 161.055 191.598C159.65 192.534 159.124 193.738 158.932 194.603C158.803 195.18 159.255 195.722 159.846 195.722H168.797C171.68 195.722 172.384 195.233 173.578 195.057C177.132 194.532 184.742 195.722 186.977 189.868C188.544 185.764 193.051 174.713 191.366 167.383L186.719 168.454L184.61 170.43Z" fill="#FFB573"/>
<path d="M189.408 158.652C189.408 158.652 184.27 159.547 182.641 173.426C182.641 173.426 181.06 173.958 181.822 176.123C181.822 176.123 187.654 176.288 191.394 179.772C191.394 179.772 193.608 178.105 192.502 176.837C192.502 176.837 194.589 162.043 189.408 158.652Z" fill="#407BFF"/>
<path d="M197.754 145.832C197.754 145.832 198.988 154.457 204.892 154.096C204.892 154.096 202.256 166.586 195.558 165.927C188.859 165.268 190.407 157.71 190.407 157.71C190.407 157.71 193.476 157.749 192.917 154.835C192.708 153.747 191.423 150.662 191.423 150.662L197.754 145.832Z" fill="#FFB573"/>
<path d="M191.962 199.886C191.962 199.886 192.643 208.13 195.531 210.787C195.531 210.787 221.149 212.828 221.628 206.198C221.867 202.884 218.334 198.943 218.334 198.943L191.962 199.886Z" fill="#407BFF"/>
<path opacity="0.2" d="M191.962 199.886C191.962 199.886 192.643 208.13 195.531 210.787C195.531 210.787 221.149 212.828 221.628 206.198C221.867 202.884 218.334 198.943 218.334 198.943L191.962 199.886Z" fill="white"/>
<path d="M216.643 161.754C215.1 155.855 210.55 153.639 203.626 153.974C203.434 157.412 201.521 163.731 195.942 164.088C191.166 164.394 192.23 159.019 192.823 156.376C187.265 158.846 185.893 161.864 185.893 161.864C184.25 171.312 185.047 177.884 186.326 181.554C187.135 183.873 189.068 188.4 189.814 190.741C191.61 196.379 192.059 200.631 192.059 200.631L219.262 199.985C218.604 192.297 218.511 168.893 216.643 161.754Z" fill="#263238"/>
<path d="M195.879 188.559C194.527 191.929 192.871 195.168 192.494 195.016C192.116 194.865 193.159 191.38 194.511 188.01C195.863 184.641 197.012 182.664 197.39 182.815C197.767 182.967 197.231 185.19 195.879 188.559Z" fill="#407BFF"/>
<path d="M195.01 186.806L196.351 187.344C196.419 187.164 196.483 186.987 196.547 186.812L195.236 186.287C195.161 186.457 195.086 186.629 195.01 186.806Z" fill="#407BFF"/>
<path opacity="0.7" d="M195.01 186.806L196.351 187.344C196.419 187.164 196.483 186.987 196.547 186.812L195.236 186.287C195.161 186.457 195.086 186.629 195.01 186.806Z" fill="white"/>
<path d="M221.205 203.542C221.205 203.542 192.041 202.273 179.723 208.976C167.404 215.678 169.035 222.019 168.129 234.699C167.224 247.379 163.782 269.298 163.782 269.298L171.39 270.747C171.39 270.747 181.715 246.112 184.251 225.098C184.251 225.098 228.271 231.981 221.205 203.542Z" fill="#407BFF"/>
<path opacity="0.5" d="M221.205 203.542C221.205 203.542 192.041 202.273 179.723 208.976C167.404 215.678 169.035 222.019 168.129 234.699C167.224 247.379 163.782 269.298 163.782 269.298L171.39 270.747C171.39 270.747 181.715 246.112 184.251 225.098C184.251 225.098 228.271 231.981 221.205 203.542Z" fill="white"/>
<path d="M170.091 269.75L167.039 278.21L162.717 276.26L165.073 268.44L170.091 269.75Z" fill="#FFB573"/>
<path d="M160.105 275.408C159.501 275.093 158.936 274.657 158.871 274.293C158.847 274.088 158.955 273.889 159.141 273.798C159.292 273.707 159.472 273.678 159.644 273.718C160.57 273.918 161.758 275.769 161.81 275.85C161.839 275.896 161.837 275.956 161.803 275.999C161.769 276.041 161.714 276.06 161.661 276.045C161.125 275.878 160.604 275.665 160.105 275.408ZM159.826 274.06C159.752 274.02 159.674 273.991 159.591 273.974C159.487 273.94 159.373 273.956 159.282 274.017C159.122 274.116 159.116 274.201 159.128 274.256C159.188 274.689 160.408 275.336 161.369 275.696C160.963 275.058 160.439 274.503 159.826 274.06Z" fill="#407BFF"/>
<path d="M161.644 276.034C161.626 276.03 161.609 276.02 161.599 276.005C161.153 275.444 160.536 273.783 160.924 273.291C161.004 273.166 161.187 273.057 161.52 273.191C161.764 273.287 161.958 273.478 162.058 273.721C162.41 274.552 161.856 275.928 161.831 275.992C161.813 276.035 161.772 276.065 161.726 276.069C161.694 276.069 161.665 276.056 161.644 276.034ZM161.483 273.449L161.42 273.409C161.205 273.319 161.148 273.395 161.123 273.42C160.922 273.733 161.257 274.956 161.673 275.625C161.903 275.045 161.949 274.408 161.805 273.801C161.744 273.648 161.629 273.523 161.483 273.449Z" fill="#407BFF"/>
<path d="M162.511 275.624L167.808 278.389C168.008 278.493 168.109 278.722 168.051 278.94L166.759 283.75C166.648 284.178 166.21 284.433 165.783 284.322C165.728 284.307 165.675 284.287 165.625 284.262C163.732 283.232 162.09 282.241 159.71 281.003C156.905 279.54 157.441 280.247 154.118 278.572C152.117 277.56 152.933 275.112 153.833 275.44C157.943 276.968 158.951 276.013 161.16 275.409C161.621 275.312 162.102 275.389 162.511 275.624Z" fill="#263238"/>
<path opacity="0.2" d="M169.61 271.084L168.466 274.254L163.807 272.645L164.589 270.049L169.61 271.084Z" fill="black"/>
<path d="M174.014 269.841L172.474 273.453L162.274 270.445L162.873 266.396L174.014 269.841Z" fill="#407BFF"/>
<path opacity="0.2" d="M191.975 152.037C192.351 153.004 192.801 154.229 192.917 154.836C192.95 155.005 192.967 155.161 192.977 155.311C197.533 153.587 197.928 148.161 197.928 148.161L191.975 152.037Z" fill="black"/>
<path d="M198.404 137.608C199.36 143.558 199.893 146.082 197.605 149.714C194.16 155.247 186.642 155.119 183.93 149.575C181.509 144.581 180.299 135.689 185.553 132.063C189.271 129.458 194.397 130.361 197.002 134.079C197.738 135.13 198.218 136.339 198.404 137.608Z" fill="#FFB573"/>
<path d="M184.004 142.81L182.859 142.803C182.859 142.803 183.635 143.479 184.004 142.81Z" fill="#263238"/>
<path d="M189.6 142.051C189.719 142.493 189.587 142.918 189.304 143.001C189.02 143.084 188.678 142.787 188.55 142.349C188.423 141.911 188.563 141.482 188.846 141.399C189.13 141.316 189.458 141.639 189.6 142.051Z" fill="#263238"/>
<path d="M184.621 143.468C184.744 143.917 184.608 144.335 184.325 144.418C184.041 144.501 183.699 144.204 183.571 143.766C183.444 143.328 183.584 142.899 183.871 142.823C184.158 142.747 184.493 143.029 184.621 143.468Z" fill="#263238"/>
<path d="M186.383 143.832C186.272 144.951 186.009 146.049 185.6 147.096C186.149 147.287 186.754 147.232 187.26 146.944L186.383 143.832Z" fill="#ED893E"/>
<path d="M189.507 148.63C189.302 148.726 189.089 148.803 188.871 148.862C188.801 148.884 188.727 148.847 188.704 148.777C188.703 148.775 188.703 148.774 188.703 148.772C188.687 148.699 188.731 148.626 188.803 148.607C189.921 148.314 190.835 147.509 191.264 146.436C191.287 146.365 191.362 146.325 191.433 146.348C191.504 146.37 191.544 146.445 191.521 146.516C191.163 147.464 190.436 148.227 189.507 148.63Z" fill="#263238"/>
<path d="M190.14 139.495C190.086 139.599 189.968 139.654 189.853 139.631C188.969 139.576 188.102 139.892 187.46 140.504C187.353 140.609 187.181 140.608 187.075 140.501C186.973 140.397 186.974 140.229 187.078 140.126C187.081 140.124 187.083 140.121 187.086 140.119C187.851 139.378 188.901 139.008 189.962 139.104C190.106 139.133 190.199 139.273 190.169 139.416C190.167 139.444 190.157 139.471 190.14 139.495Z" fill="#263238"/>
<path d="M182.187 141.206C182.089 141.208 181.997 141.159 181.944 141.076C181.867 140.948 181.905 140.783 182.031 140.703C182.76 140.211 183.687 140.116 184.502 140.448C184.632 140.503 184.693 140.653 184.638 140.784C184.636 140.791 184.633 140.797 184.63 140.803C184.568 140.935 184.411 140.994 184.278 140.933C184.277 140.932 184.275 140.931 184.275 140.931C183.631 140.694 182.912 140.779 182.341 141.159C182.296 141.191 182.242 141.207 182.187 141.206Z" fill="#263238"/>
<path d="M189.002 141.429L187.857 141.422C187.857 141.422 188.618 142.07 189.002 141.429Z" fill="#263238"/>
<path d="M183.649 131.977C183.649 131.977 180.858 127.391 178.522 131.278C178.522 131.278 181.251 129.813 183.649 131.977Z" fill="#263238"/>
<path d="M184.326 135.608C184.326 135.608 180.73 137.901 181.449 142.187C181.449 142.187 177.295 132.412 184.326 132.652C184.326 132.652 190.517 127.219 195.55 130.978C200.584 134.738 199.985 141.6 199.985 141.6L197.268 142.337C197.268 142.337 194.072 139.207 194.711 135.928C194.711 135.928 183.447 140.083 184.326 135.608Z" fill="#263238"/>
<path d="M200.976 141.936C200.792 143.088 200.159 144.121 199.215 144.805C197.962 145.707 196.793 144.709 196.715 143.249C196.636 141.936 197.187 139.884 198.658 139.563C199.73 139.35 200.772 140.046 200.986 141.118C201.039 141.389 201.036 141.667 200.976 141.936Z" fill="#FFB573"/>
<path d="M198.229 139.722C198.229 139.722 196.707 130.575 186.999 132.386C186.999 132.386 181.999 133.055 181.904 139.089C181.904 139.089 180.003 133.233 186.123 131.008C191.982 128.878 198.652 132.377 198.229 139.722Z" fill="#407BFF"/>
<path d="M160.432 193.733C160.432 193.733 164.121 194.91 169.514 194.91C174.908 194.91 186.119 194.91 190.803 194.91C195.486 194.91 197.615 193.733 197.615 193.733C197.615 193.733 179.307 195.01 177.604 193.024C177.604 193.024 169.799 194.585 160.432 193.733Z" fill="#263238"/>
<path opacity="0.9" d="M160.432 193.733C160.432 193.733 164.121 194.91 169.514 194.91C174.908 194.91 186.119 194.91 190.803 194.91C195.486 194.91 197.615 193.733 197.615 193.733C197.615 193.733 179.307 195.01 177.604 193.024C177.604 193.024 169.799 194.585 160.432 193.733Z" fill="white"/>
<path d="M211.036 170.43C211.036 170.43 215.211 180.314 214.524 183.114C214.524 183.114 210.789 188.386 202.718 192.339C202.718 192.339 197.199 189.95 194.728 191.598C193.276 192.566 192.762 193.822 192.586 194.691C192.478 195.225 192.885 195.722 193.429 195.722H202.471C205.353 195.722 207.252 195.057 207.252 195.057C207.252 195.057 219.092 190.2 220.65 184.597C221.497 181.552 221.579 175.372 217.791 167.383L213.145 168.454L211.036 170.43Z" fill="#FFB573"/>
<path d="M210.3 154.153C208.577 153.978 205.644 153.852 206.069 159.638C206.495 165.424 208.775 170.681 208.775 170.681C208.775 170.681 208.26 173.289 210.161 173.287C210.161 173.287 213.908 169.816 220.121 167.121C220.121 167.121 220.816 165.082 219.099 164.907C219.099 164.907 216.437 154.774 210.3 154.153Z" fill="#407BFF"/>
<path d="M201.277 229.287L201.717 285.186H204.202L204.641 229.287H201.277Z" fill="#407BFF"/>
<path opacity="0.2" d="M201.277 229.287L201.717 285.186H204.202L204.641 229.287H201.277Z" fill="white"/>
<path d="M214.535 224.875L217.497 285.186H219.983L217.968 224.875H214.535Z" fill="#407BFF"/>
<path opacity="0.2" d="M214.535 224.875L217.497 285.186H219.983L217.968 224.875H214.535Z" fill="white"/>
<path d="M187.907 229.287L186.04 285.186H188.525L191.271 229.287H187.907Z" fill="#407BFF"/>
<path opacity="0.2" d="M187.907 229.287L186.04 285.186H188.525L191.271 229.287H187.907Z" fill="white"/>
<path d="M219.424 233.75H186.493C185.27 233.75 184.279 232.759 184.279 231.535V226.022C184.279 223.627 186.22 221.686 188.615 221.686H217.303C219.698 221.686 221.639 223.627 221.639 226.022V231.535C221.639 232.759 220.648 233.75 219.424 233.75Z" fill="#407BFF"/>
<path d="M201.113 264.958H188.333C187.8 264.958 187.368 264.526 187.368 263.992V263.195C187.368 262.662 187.8 262.229 188.333 262.229H201.113C201.727 262.229 202.225 262.727 202.225 263.342V263.846C202.225 264.46 201.727 264.958 201.113 264.958Z" fill="#407BFF"/>
<path opacity="0.4" d="M201.113 264.958H188.333C187.8 264.958 187.368 264.526 187.368 263.992V263.195C187.368 262.662 187.8 262.229 188.333 262.229H201.113C201.727 262.229 202.225 262.727 202.225 263.342V263.846C202.225 264.46 201.727 264.958 201.113 264.958Z" fill="white"/>
<path d="M217.38 264.958H204.6C204.067 264.958 203.635 264.526 203.635 263.992V263.195C203.635 262.662 204.067 262.229 204.6 262.229H217.38C217.994 262.229 218.492 262.727 218.492 263.342V263.846C218.492 264.46 217.994 264.958 217.38 264.958Z" fill="#407BFF"/>
<path opacity="0.4" d="M217.38 264.958H204.6C204.067 264.958 203.635 264.526 203.635 263.992V263.195C203.635 262.662 204.067 262.229 204.6 262.229H217.38C217.994 262.229 218.492 262.727 218.492 263.342V263.846C218.492 264.46 217.994 264.958 217.38 264.958Z" fill="white"/>
<path d="M127.967 193.863V186.856C128.831 186.856 128.832 185.514 127.967 185.514C125.297 185.514 122.625 185.496 119.953 185.48V195.204C122.624 195.204 125.295 195.204 127.967 195.204C128.831 195.204 128.832 193.863 127.967 193.863Z" fill="#407BFF"/>
<path opacity="0.3" d="M127.967 193.863V186.856C128.831 186.856 128.832 185.514 127.967 185.514C125.297 185.514 122.625 185.496 119.953 185.48V195.204C122.624 195.204 125.295 195.204 127.967 195.204C128.831 195.204 128.832 193.863 127.967 193.863Z" fill="white"/>
<path d="M127.967 186.856H121.742V193.853H127.967V186.856Z" fill="#407BFF"/>
<path opacity="0.8" d="M127.967 186.856H121.742V193.853H127.967V186.856Z" fill="white"/>
<path d="M123.048 194.533H101.465C99.9811 194.533 98.7781 192.665 98.7781 190.359C98.7781 188.054 99.9811 186.186 101.465 186.186H123.048V194.533Z" fill="white"/>
<path d="M123.048 185.514C115.981 185.514 108.904 185.386 101.839 185.514C96.9993 185.602 96.7388 194.879 101.486 195.204C104.795 195.431 108.199 195.204 111.514 195.204C115.359 195.204 119.203 195.204 123.047 195.204C123.911 195.204 123.912 193.863 123.047 193.863C116.35 193.863 109.653 193.863 102.955 193.863C101.405 193.863 100.297 193.846 99.6975 192.017C99.1794 190.434 99.3426 187.205 101.464 186.856C101.693 186.819 101.962 186.856 102.191 186.856C105.843 186.856 109.494 186.856 113.146 186.856C116.447 186.856 119.747 186.856 123.047 186.856C123.911 186.856 123.912 185.514 123.048 185.514Z" fill="#407BFF"/>
<g opacity="0.3">
<path d="M123.048 185.514C115.981 185.514 108.904 185.386 101.839 185.514C96.9993 185.602 96.7388 194.879 101.486 195.204C104.795 195.431 108.199 195.204 111.514 195.204C115.359 195.204 119.203 195.204 123.047 195.204C123.911 195.204 123.912 193.863 123.047 193.863C116.35 193.863 109.653 193.863 102.955 193.863C101.405 193.863 100.297 193.846 99.6975 192.017C99.1794 190.434 99.3426 187.205 101.464 186.856C101.693 186.819 101.962 186.856 102.191 186.856C105.843 186.856 109.494 186.856 113.146 186.856C116.447 186.856 119.747 186.856 123.047 186.856C123.911 186.856 123.912 185.514 123.048 185.514Z" fill="black"/>
</g>
<path d="M127.967 193.863V186.856C128.831 186.856 128.832 185.514 127.967 185.514C125.297 185.514 122.625 185.496 119.953 185.48V195.204C122.624 195.204 125.295 195.204 127.967 195.204C128.831 195.204 128.832 193.863 127.967 193.863Z" fill="#407BFF"/>
<path opacity="0.3" d="M127.967 193.863V186.856C128.831 186.856 128.832 185.514 127.967 185.514C125.297 185.514 122.625 185.496 119.953 185.48V195.204C122.624 195.204 125.295 195.204 127.967 195.204C128.831 195.204 128.832 193.863 127.967 193.863Z" fill="white"/>
<path d="M127.967 186.856H121.742V193.853H127.967V186.856Z" fill="#407BFF"/>
<path opacity="0.8" d="M127.967 186.856H121.742V193.853H127.967V186.856Z" fill="white"/>
<path d="M123.048 194.533H101.465C99.9811 194.533 98.7781 192.665 98.7781 190.359C98.7781 188.054 99.9811 186.186 101.465 186.186H123.048V194.533Z" fill="#407BFF"/>
<path opacity="0.9" d="M123.048 194.533H101.465C99.9811 194.533 98.7781 192.665 98.7781 190.359C98.7781 188.054 99.9811 186.186 101.465 186.186H123.048V194.533Z" fill="white"/>
<path d="M123.048 185.514C115.981 185.514 108.904 185.386 101.839 185.514C96.9993 185.602 96.7388 194.879 101.486 195.204C104.795 195.431 108.199 195.204 111.514 195.204C115.359 195.204 119.203 195.204 123.047 195.204C123.911 195.204 123.912 193.863 123.047 193.863C116.35 193.863 109.653 193.863 102.955 193.863C101.405 193.863 100.297 193.846 99.6975 192.017C99.1794 190.434 99.3426 187.205 101.464 186.856C101.693 186.819 101.962 186.856 102.191 186.856C105.843 186.856 109.494 186.856 113.146 186.856C116.447 186.856 119.747 186.856 123.047 186.856C123.911 186.856 123.912 185.514 123.048 185.514Z" fill="#407BFF"/>
<g opacity="0.3">
<path d="M123.048 185.514C115.981 185.514 108.904 185.386 101.839 185.514C96.9993 185.602 96.7388 194.879 101.486 195.204C104.795 195.431 108.199 195.204 111.514 195.204C115.359 195.204 119.203 195.204 123.047 195.204C123.911 195.204 123.912 193.863 123.047 193.863C116.35 193.863 109.653 193.863 102.955 193.863C101.405 193.863 100.297 193.846 99.6975 192.017C99.1794 190.434 99.3426 187.205 101.464 186.856C101.693 186.819 101.962 186.856 102.191 186.856C105.843 186.856 109.494 186.856 113.146 186.856C116.447 186.856 119.747 186.856 123.047 186.856C123.911 186.856 123.912 185.514 123.048 185.514Z" fill="black"/>
</g>
<path d="M104.756 184.595V179.005C104.067 179.005 104.066 177.934 104.756 177.934C106.886 177.934 109.018 177.92 111.151 177.907V185.665C109.019 185.665 106.888 185.665 104.756 185.665C104.068 185.665 104.067 184.595 104.756 184.595Z" fill="#407BFF"/>
<path opacity="0.3" d="M104.756 184.595V179.005C104.067 179.005 104.066 177.934 104.756 177.934C106.886 177.934 109.018 177.92 111.151 177.907V185.665C109.019 185.665 106.888 185.665 104.756 185.665C104.068 185.665 104.067 184.595 104.756 184.595Z" fill="white"/>
<path d="M109.723 179.004H104.756V184.587H109.723V179.004Z" fill="#407BFF"/>
<path opacity="0.8" d="M109.723 179.004H104.756V184.587H109.723V179.004Z" fill="white"/>
<path d="M108.682 185.13H125.902C127.086 185.13 128.045 183.639 128.045 181.8C128.045 179.961 127.086 178.469 125.902 178.469H108.682V185.13Z" fill="#407BFF"/>
<path opacity="0.9" d="M108.682 185.13H125.902C127.086 185.13 128.045 183.639 128.045 181.8C128.045 179.961 127.086 178.469 125.902 178.469H108.682V185.13Z" fill="white"/>
<path d="M108.682 177.934C114.32 177.934 119.967 177.832 125.603 177.934C129.465 178.004 129.673 185.405 125.885 185.665C123.245 185.846 120.529 185.665 117.884 185.665C114.817 185.665 111.749 185.665 108.682 185.665C107.993 185.665 107.991 184.595 108.682 184.595C114.025 184.595 119.369 184.595 124.712 184.595C125.949 184.595 126.834 184.581 127.312 183.122C127.725 181.86 127.595 179.283 125.902 179.005C125.72 178.975 125.505 179.005 125.322 179.005C122.409 179.005 119.495 179.005 116.582 179.005C113.948 179.005 111.315 179.005 108.682 179.005C107.993 179.005 107.991 177.934 108.682 177.934Z" fill="#407BFF"/>
<path d="M245.506 202.787H191.926V195.021H250.315V197.977C250.315 200.633 248.163 202.787 245.506 202.787Z" fill="#407BFF"/>
<path opacity="0.5" d="M245.506 202.787H191.926V195.021H250.315V197.977C250.315 200.633 248.163 202.787 245.506 202.787Z" fill="white"/>
<path d="M143.111 285.186H140.557L139.909 202.787H143.758L143.111 285.186Z" fill="#407BFF"/>
<path opacity="0.7" d="M143.111 285.186H140.557L139.909 202.787H143.758L143.111 285.186Z" fill="white"/>
<path d="M244.149 285.186H241.595L240.948 202.787H244.797L244.149 285.186Z" fill="#407BFF"/>
<path opacity="0.7" d="M244.149 285.186H241.595L240.948 202.787H244.797L244.149 285.186Z" fill="white"/>
<path d="M140.7 276.774H96.1398V273.969H140.7C141.326 273.969 141.834 274.477 141.834 275.103V275.64C141.834 276.266 141.326 276.774 140.7 276.774Z" fill="#407BFF"/>
<path opacity="0.4" d="M140.7 276.774H96.1398V273.969H140.7C141.326 273.969 141.834 274.477 141.834 275.103V275.64C141.834 276.266 141.326 276.774 140.7 276.774Z" fill="white"/>
<path d="M197.873 276.353H119.686C119.176 276.353 118.763 275.939 118.763 275.43V275.313C118.763 274.803 119.177 274.39 119.686 274.39H197.873V276.353Z" fill="#407BFF"/>
<path opacity="0.1" d="M197.873 276.353H119.686C119.176 276.353 118.763 275.939 118.763 275.43V275.313C118.763 274.803 119.177 274.39 119.686 274.39H197.873V276.353Z" fill="white"/>
<path d="M241.76 276.774H197.178V273.969H241.76C242.374 273.969 242.872 274.467 242.872 275.082V275.661C242.872 276.275 242.374 276.774 241.76 276.774Z" fill="#407BFF"/>
<path opacity="0.4" d="M241.76 276.774H197.178V273.969H241.76C242.374 273.969 242.872 274.467 242.872 275.082V275.661C242.872 276.275 242.374 276.774 241.76 276.774Z" fill="white"/>
<path d="M198.115 202.787H94.1963C91.5477 202.787 89.4003 200.639 89.4003 197.991V195.021H198.115V202.787Z" fill="#407BFF"/>
<path d="M97.4168 285.186H94.862L94.2153 202.787H98.0634L97.4168 285.186Z" fill="#407BFF"/>
<path opacity="0.7" d="M97.4168 285.186H94.862L94.2153 202.787H98.0634L97.4168 285.186Z" fill="white"/>
<path d="M198.455 285.186H195.901L195.254 202.787H199.102L198.455 285.186Z" fill="#407BFF"/>
<path opacity="0.7" d="M198.455 285.186H195.901L195.254 202.787H199.102L198.455 285.186Z" fill="white"/>
</svg>
