<svg width="89" height="89" viewBox="0 0 89 89" fill="none" xmlns="http://www.w3.org/2000/svg">
<path d="M39.7099 8.92329C61.641 8.92329 79.4197 26.702 79.4197 48.6332C79.4197 70.5643 61.641 88.343 39.7099 88.343C17.7787 88.343 0 70.5643 0 48.6332C0 26.702 17.7787 8.92329 39.7099 8.92329Z" fill="#00ACE9"/>
<path d="M42.5928 87.801L42.6187 87.8005C42.623 87.8005 42.6278 87.8005 42.6322 87.8005C43.0977 87.8005 43.5747 87.7924 44.0426 87.7773L44.033 87.4913C43.5636 87.5069 43.0852 87.5145 42.612 87.5145L42.5928 87.801ZM41.1427 87.7763L41.1522 87.4903C40.6757 87.4742 40.1915 87.4501 39.714 87.4179L39.6944 87.7034C40.1752 87.7356 40.6628 87.7602 41.1427 87.7763ZM45.4908 87.7063C45.9721 87.6745 46.4587 87.6338 46.9362 87.586L46.907 87.3018C46.4324 87.3492 45.9496 87.3894 45.4717 87.4212L45.4908 87.7063ZM38.2495 87.5822L38.2787 87.298C37.8017 87.2497 37.3204 87.1929 36.8482 87.1295L36.8093 87.4126C37.2849 87.4766 37.7691 87.5339 38.2495 87.5822ZM48.3764 87.4179C48.8548 87.3535 49.3376 87.2805 49.8102 87.201L49.7613 86.9187C49.292 86.9983 48.8126 87.0703 48.3375 87.1342L48.3764 87.4179ZM35.3759 87.1943L35.4243 86.9121C34.9545 86.833 34.4785 86.744 34.0096 86.6479L33.9507 86.9277C34.4234 87.0248 34.9028 87.1143 35.3759 87.1943ZM51.2346 86.9358C51.7048 86.8401 52.1809 86.7345 52.6497 86.6227L52.5817 86.3448C52.1162 86.4561 51.6435 86.5607 51.1765 86.6564L51.2346 86.9358ZM32.5355 86.6133L32.604 86.3358C32.1371 86.2235 31.6687 86.1023 31.2109 85.9759L31.1327 86.2515C31.5934 86.3784 32.0657 86.5001 32.5355 86.6133ZM54.0539 86.2614C54.5199 86.1331 54.9873 85.9958 55.4442 85.8528L55.3569 85.58C54.9039 85.7216 54.4394 85.8579 53.9762 85.9858L54.0539 86.2614ZM29.7429 85.8409L29.8307 85.5681C29.3791 85.427 28.9198 85.2741 28.4658 85.1145L28.3685 85.3834C28.8263 85.5444 29.2885 85.6984 29.7429 85.8409ZM56.8229 85.3953C57.2827 85.2343 57.741 85.0648 58.1849 84.8914L58.0785 84.6258C57.6374 84.7977 57.1825 84.9658 56.7261 85.1263L56.8229 85.3953ZM27.0104 84.8801L27.1168 84.6144C26.6733 84.4411 26.227 84.2583 25.7908 84.0708L25.6752 84.3326C26.1148 84.522 26.564 84.7058 27.0104 84.8801ZM59.5287 84.3421C59.9693 84.1527 60.4146 83.9528 60.8514 83.7473L60.7272 83.4892C60.2929 83.6933 59.8513 83.8917 59.4136 84.0797L59.5287 84.3421ZM24.3593 83.7407L24.4834 83.4826C24.0568 83.2823 23.6239 83.0692 23.1972 82.8504L23.0639 83.1037C23.4935 83.3244 23.9297 83.5385 24.3593 83.7407ZM62.1524 83.108C62.583 82.8873 63.013 82.6577 63.4301 82.4256L63.2882 82.1765C62.8735 82.4071 62.4468 82.6354 62.0192 82.8546L62.1524 83.108ZM21.7906 82.4232L21.9325 82.1741C21.5155 81.9416 21.0979 81.7001 20.6918 81.4562L20.5413 81.7001C20.9507 81.9464 21.3707 82.1893 21.7906 82.4232ZM64.6837 81.6996C65.0926 81.4534 65.5054 81.1953 65.9105 80.933L65.7518 80.6938C65.3496 80.9547 64.9397 81.2114 64.5332 81.4558L64.6837 81.6996ZM19.3179 80.9353L19.4766 80.6962C19.0787 80.4381 18.6788 80.1691 18.2881 79.8959L18.1208 80.1293C18.5144 80.4045 18.9171 80.6758 19.3179 80.9353ZM67.1104 80.1251C67.5083 79.8471 67.9019 79.562 68.2807 79.2774L68.1052 79.0496C67.7289 79.3323 67.3381 79.6155 66.9426 79.8916L67.1104 80.1251ZM16.9525 79.2835L17.127 79.0558C16.7483 78.7721 16.3681 78.4766 15.9956 78.1773L15.813 78.3989C16.1879 78.7006 16.5709 78.9985 16.9525 79.2835ZM69.4212 78.3909C69.7956 78.0897 70.169 77.7786 70.5305 77.4675L70.3402 77.252C69.9811 77.5617 69.6105 77.87 69.239 78.1693L69.4212 78.3909ZM14.7041 77.4764L14.8949 77.261C14.5334 76.9494 14.1739 76.6288 13.8258 76.3082L13.6283 76.517C13.9783 76.84 14.3402 77.1625 14.7041 77.4764ZM71.6072 76.5066C71.9601 76.1808 72.311 75.8455 72.6494 75.5112L72.4447 75.309C72.1082 75.6414 71.7597 75.9743 71.4092 76.2978L71.6072 76.5066ZM12.5847 75.5216L12.7894 75.3194C12.4514 74.9855 12.1144 74.6417 11.7879 74.2965L11.5765 74.4921C11.9054 74.8397 12.2443 75.1858 12.5847 75.5216ZM73.6581 74.4812C73.9894 74.1308 74.3158 73.7737 74.6298 73.4185L74.4117 73.2301C74.1001 73.5829 73.7756 73.9385 73.4467 74.2856L73.6581 74.4812ZM10.6038 73.4294L10.8219 73.2414C10.505 72.8825 10.1925 72.5164 9.89284 72.1532L9.66847 72.3341C9.97002 72.6997 10.285 73.0681 10.6038 73.4294ZM75.5642 72.3237C75.8677 71.9557 76.1692 71.5773 76.4602 71.199L76.2296 71.0256C75.9405 71.4012 75.6409 71.7772 75.3398 72.1428L75.5642 72.3237ZM8.77055 71.2075L9.00114 71.0341C8.71159 70.6581 8.42442 70.2722 8.14829 69.8863L7.91194 70.0515C8.19048 70.4403 8.47956 70.8291 8.77055 71.2075ZM77.3169 70.0449C77.5935 69.6585 77.8677 69.2612 78.1333 68.8629L77.8912 68.7057C77.628 69.1011 77.3552 69.496 77.0806 69.8796L77.3169 70.0449ZM7.09313 68.8672L7.33522 68.7104C7.07394 68.3178 6.81412 67.9134 6.56339 67.5066L6.31602 67.6558C6.56915 68.0645 6.83042 68.4722 7.09313 68.8672ZM78.908 67.6544C79.1597 67.2462 79.4066 66.8313 79.6406 66.4207L79.3884 66.2806C79.1559 66.6883 78.9109 67.1008 78.6611 67.5057L78.908 67.6544ZM5.58157 66.4174L5.83373 66.2768C5.59931 65.8667 5.36824 65.4452 5.14628 65.0242L4.88979 65.1559C5.11272 65.5792 5.3457 66.004 5.58157 66.4174ZM80.3304 65.1634C80.5509 64.7443 80.7681 64.3139 80.9757 63.8839L80.7144 63.7612C80.5083 64.1874 80.2925 64.6151 80.0739 65.0318L80.3304 65.1634ZM4.24164 63.8706L4.50291 63.748C4.29725 63.3213 4.09591 62.8847 3.90462 62.4504L3.63903 62.5646C3.83175 63.0017 4.03453 63.4411 4.24164 63.8706ZM81.5754 62.5845C81.7677 62.1493 81.9541 61.7055 82.1301 61.2656L81.8612 61.1605C81.6862 61.5971 81.5011 62.038 81.3103 62.4699L81.5754 62.5845ZM3.08244 61.2372L3.35139 61.132C3.17545 60.6926 3.00526 60.2427 2.84418 59.7966L2.57189 59.8923C2.73345 60.3422 2.90554 60.7949 3.08244 61.2372ZM82.6411 59.9245C82.8022 59.4784 82.958 59.0214 83.1042 58.5668L82.8281 58.4801C82.6829 58.9319 82.528 59.3851 82.3684 59.8283L82.6411 59.9245ZM2.10831 58.5298L2.38444 58.4437C2.23965 57.9919 2.10159 57.533 1.97311 57.0798L1.69458 57.157C1.82306 57.6135 1.96256 58.0752 2.10831 58.5298ZM83.5199 57.1939C83.6493 56.7389 83.773 56.2724 83.8876 55.8083L83.6067 55.7406C83.4926 56.2014 83.3698 56.6645 83.2414 57.1168L83.5199 57.1939ZM1.32736 55.7709L1.60877 55.7032C1.49563 55.2419 1.38919 54.775 1.29283 54.3152L1.00952 54.3734C1.10635 54.8356 1.21326 55.3059 1.32736 55.7709ZM84.2064 54.4108C84.3047 53.9444 84.3958 53.4704 84.4768 53.0034L84.191 52.9547C84.1105 53.4187 84.0204 53.889 83.9226 54.3521L84.2064 54.4108ZM0.74057 52.9655L1.02628 52.9177C0.945747 52.4532 0.871918 51.9801 0.807198 51.5112L0.520515 51.5496C0.585236 52.0213 0.659554 52.4977 0.74057 52.9655ZM84.6983 51.5875C84.7639 51.1149 84.8219 50.6361 84.8708 50.1644L84.5832 50.1356C84.5348 50.6039 84.4768 51.0794 84.412 51.5482L84.6983 51.5875ZM0.349861 50.127L0.637505 50.0981C0.589081 49.6269 0.548325 49.1496 0.516205 48.6803L0.227127 48.6992C0.259727 49.1723 0.300957 49.653 0.349861 50.127ZM84.994 48.7381C85.0271 48.2603 85.052 47.7786 85.0683 47.307L84.7788 47.2975C84.7625 47.7659 84.738 48.2442 84.705 48.7187L84.994 48.7381ZM0.154251 47.2691L0.44381 47.2596C0.427513 46.787 0.419365 46.3078 0.419365 45.8366V45.7613H0.129807V45.8366C0.130287 46.3111 0.138435 46.7932 0.154251 47.2691ZM84.8042 45.8745H85.0938L85.0942 45.8394C85.0942 45.3692 85.0861 44.8999 85.0712 44.442L84.7817 44.4514C84.797 44.906 84.8047 45.372 84.8047 45.8361L84.8042 45.8745ZM0.446213 44.3392C0.46299 43.8656 0.488884 43.3873 0.521484 42.9181L0.232407 42.8982C0.199326 43.3708 0.173912 43.8519 0.156654 44.3288L0.446213 44.3392ZM84.7102 43.0308L84.9993 43.0118C84.9672 42.5359 84.9264 42.0557 84.8785 41.584L84.5909 41.6129C84.6383 42.0808 84.6786 42.5577 84.7102 43.0308ZM0.644684 41.5007C0.694542 41.0267 0.753036 40.5512 0.817276 40.0881L0.530586 40.0492C0.465385 40.5157 0.406914 40.9944 0.356575 41.4713L0.644684 41.5007ZM84.4221 40.1998L84.7088 40.1615C84.6436 39.6865 84.5702 39.2101 84.4902 38.7455L84.2045 38.7934C84.2841 39.2551 84.3574 39.7282 84.4221 40.1998ZM1.03875 38.6821C1.12025 38.2156 1.21086 37.7454 1.30818 37.2846L1.02485 37.2263C0.926575 37.6904 0.835495 38.164 0.753036 38.6338L1.03875 38.6821ZM83.9384 37.3949L84.2222 37.3376C84.1249 36.8707 84.0185 36.4005 83.9058 35.9397L83.6244 36.0069C83.7366 36.4644 83.842 36.9313 83.9384 37.3949ZM1.62698 35.8966C1.73965 35.441 1.86285 34.9784 1.99326 34.5209L1.71424 34.4432C1.58289 34.904 1.45871 35.37 1.34557 35.8289L1.62698 35.8966ZM83.262 34.6294L83.5405 34.5526C83.4125 34.098 83.2735 33.6358 83.1273 33.1793L82.8511 33.2655C82.9964 33.7192 83.1344 34.1776 83.262 34.6294ZM2.40745 33.158C2.55127 32.7119 2.70612 32.2587 2.86815 31.8098L2.59538 31.7137C2.4319 32.1654 2.2761 32.6219 2.13132 33.0709L2.40745 33.158ZM82.3923 31.9121L82.6656 31.8164C82.5055 31.3708 82.3343 30.9181 82.1565 30.4706L81.8866 30.5752C82.0635 31.0194 82.2337 31.4693 82.3923 31.9121ZM3.37632 30.4786C3.5489 30.0472 3.73491 29.6068 3.92811 29.1692L3.66299 29.0546C3.46836 29.495 3.28139 29.9388 3.10737 30.3735L3.37632 30.4786ZM81.3348 29.2578L81.6004 29.1437C81.4086 28.708 81.2063 28.268 80.9987 27.8366L80.7374 27.9593C80.9436 28.3879 81.1444 28.825 81.3348 29.2578ZM4.52641 27.8783C4.73016 27.4568 4.94588 27.0297 5.16833 26.6082L4.91184 26.4761C4.68797 26.9004 4.47032 27.3309 4.26561 27.7547L4.52641 27.8783ZM80.095 26.6826L80.3525 26.5509C80.1324 26.1313 79.9004 25.7066 79.6617 25.2884L79.4095 25.4286C79.6454 25.8439 79.8764 26.2658 80.095 26.6826ZM5.85435 25.3609C6.08878 24.9508 6.33423 24.5383 6.58304 24.1362L6.33567 23.9871C6.08542 24.3924 5.83853 24.8068 5.60218 25.2202L5.85435 25.3609ZM78.6803 24.1988L78.9272 24.0501C78.677 23.6442 78.4162 23.236 78.1515 22.8377L77.9094 22.9945C78.1722 23.3904 78.4315 23.7958 78.6803 24.1988ZM7.35391 22.9367C7.61471 22.5451 7.8875 22.1506 8.16555 21.7637L7.92921 21.5984C7.64971 21.9882 7.37501 22.3855 7.11182 22.78L7.35391 22.9367ZM77.0978 21.8177L77.3342 21.6529C77.0566 21.2646 76.768 20.8753 76.4765 20.496L76.2459 20.6689C76.5355 21.0453 76.8222 21.4318 77.0978 21.8177ZM9.01744 20.6177C9.30748 20.2417 9.60711 19.8657 9.90865 19.5011L9.6843 19.3202C9.38132 19.6872 9.07929 20.0655 8.78734 20.4444L9.01744 20.6177ZM75.3552 19.5494L75.5795 19.3689C75.2799 19.0048 74.9654 18.6359 74.6452 18.2727L74.4271 18.4602C74.7454 18.821 75.0575 19.1876 75.3552 19.5494ZM10.8373 18.4147C11.1517 18.0595 11.4768 17.7049 11.8032 17.3601L11.5918 17.1645C11.263 17.5116 10.936 17.8687 10.6191 18.2262L10.8373 18.4147ZM73.462 17.4037L73.6734 17.2086C73.3465 16.8624 73.0075 16.5157 72.6662 16.1781L72.4615 16.3803C72.8004 16.7156 73.137 17.0599 73.462 17.4037ZM12.8057 16.3382C13.1417 16.0067 13.4903 15.6742 13.8421 15.3503L13.6446 15.141C13.2904 15.4673 12.9394 15.8021 12.601 16.1359L12.8057 16.3382ZM71.426 15.3906L71.624 15.1817C71.2731 14.8578 70.9116 14.5348 70.5487 14.2214L70.3584 14.4368C70.7184 14.748 71.0775 15.069 71.426 15.3906ZM14.9122 14.3975C15.2708 14.0888 15.6418 13.7805 16.0148 13.4807L15.8321 13.2591C15.4568 13.5607 15.0833 13.8714 14.7223 14.1821L14.9122 14.3975ZM69.2577 13.5195L69.4408 13.2979C69.0678 12.9972 68.6848 12.6993 68.3022 12.4119L68.1268 12.6397C68.5074 12.9252 68.8876 13.2212 69.2577 13.5195ZM17.1486 12.6013C17.5273 12.3177 17.9185 12.0349 18.3121 11.7607L18.1453 11.5268C17.7488 11.8029 17.3547 12.088 16.9741 12.3735L17.1486 12.6013ZM66.9671 11.7991L67.1344 11.5656C66.7442 11.2924 66.3415 11.0211 65.9383 10.7587L65.7786 10.9974C66.1794 11.2583 66.5792 11.5278 66.9671 11.7991ZM19.5044 10.9595C19.9037 10.7009 20.3136 10.4447 20.7235 10.199L20.573 9.9546C20.1607 10.2023 19.7474 10.4599 19.3457 10.7208L19.5044 10.9595ZM64.5643 10.2368L64.7153 9.99295C64.3059 9.74623 63.8855 9.50235 63.467 9.26889L63.3246 9.51798C63.7402 9.74955 64.1573 9.99153 64.5643 10.2368ZM21.969 9.47915C22.388 9.24663 22.8156 9.01884 23.2384 8.80195L23.1056 8.54813C22.6794 8.76597 22.2489 8.99564 21.8271 9.22958L21.969 9.47915ZM62.0609 8.84032L62.1942 8.58696C61.7708 8.36913 61.3351 8.15459 60.8998 7.9486L60.7746 8.20669C61.2076 8.41127 61.64 8.62438 62.0609 8.84032ZM24.5318 8.16881C24.9647 7.96566 25.4072 7.76723 25.8464 7.57876L25.7308 7.3164C25.2888 7.50582 24.8435 7.70566 24.4077 7.91024L24.5318 8.16881ZM59.4678 7.61759L59.5838 7.35523C59.1442 7.16581 58.695 6.98112 58.2492 6.80686L58.1423 7.07252C58.5857 7.24585 59.0316 7.42911 59.4678 7.61759ZM27.1805 7.03415C27.6273 6.86083 28.0823 6.69273 28.5339 6.53503L28.4371 6.26558C27.9826 6.42422 27.5243 6.59328 27.0746 6.76802L27.1805 7.03415ZM56.7942 6.57149L56.8915 6.30204C56.4399 6.14292 55.9777 5.98855 55.517 5.84364L55.4293 6.1164C55.8867 6.26037 56.3454 6.41332 56.7942 6.57149ZM29.904 6.08231C30.3604 5.93977 30.8254 5.80386 31.2847 5.67789L31.2071 5.40228C30.7444 5.52967 30.2765 5.66652 29.8168 5.80953L29.904 6.08231ZM54.0496 5.7082L54.1282 5.43259C53.6637 5.30378 53.1915 5.18112 52.7255 5.06889L52.6569 5.34687C53.1191 5.45816 53.5879 5.57986 54.0496 5.7082ZM32.6788 5.32035C33.1434 5.20954 33.6165 5.10536 34.0844 5.01017L34.0264 4.72982C33.5552 4.82548 33.0786 4.93013 32.6112 5.04189L32.6788 5.32035ZM51.2518 5.03338L51.3108 4.75303C50.84 4.65642 50.3611 4.56645 49.8865 4.48547L49.8376 4.76724C50.3083 4.84774 50.7839 4.93725 51.2518 5.03338ZM35.5006 4.74783C35.9713 4.66874 36.4503 4.59675 36.9244 4.53377L36.8861 4.25011C36.4086 4.31356 35.9263 4.38602 35.4522 4.46558L35.5006 4.74783ZM48.4133 4.54893L48.4531 4.26574C47.9765 4.20086 47.4919 4.14355 47.0129 4.09478L46.9837 4.37939C47.4588 4.42769 47.9401 4.485 48.4133 4.54893ZM38.3549 4.36803C38.8295 4.32115 39.3123 4.28136 39.7907 4.25011L39.7716 3.96455C39.2902 3.99581 38.8037 4.03558 38.3262 4.08294L38.3549 4.36803ZM45.5484 4.25769L45.568 3.97214C45.0872 3.93946 44.5996 3.91436 44.1197 3.89826L44.1097 4.18381C44.5862 4.20086 45.0704 4.22549 45.5484 4.25769ZM41.229 4.18049C41.6877 4.16581 42.1528 4.15871 42.6125 4.15871L42.6696 4.15919V3.87316L42.6149 3.87268C42.1499 3.87268 41.6815 3.88026 41.2203 3.89494L41.229 4.18049Z" fill="#00ACE9"/>
<path d="M76.9766 25.2148H87.1731C87.684 25.2148 88.0986 25.6294 88.0986 26.1403V28.86C88.0986 29.3714 87.684 29.7855 87.1731 29.7855H85.8092L85.1296 31.9L83.8513 29.7855H76.9771C76.4657 29.7855 76.0516 29.3709 76.0516 28.86V26.1403C76.0506 25.6294 76.4652 25.2148 76.9766 25.2148Z" fill="#A6013D"/>
<path d="M82.2523 27.109H83.7961C83.9695 27.109 84.1099 26.9686 84.1099 26.7953C84.1099 26.6219 83.9695 26.4821 83.7966 26.4821H82.2528C82.0795 26.4821 81.9391 26.6225 81.9391 26.7953C81.9386 26.9686 82.079 27.109 82.2523 27.109Z" fill="white"/>
<path d="M79.932 27.1091H81.4758C81.6491 27.1091 81.7896 26.9687 81.7896 26.7959C81.7896 26.6226 81.6491 26.4827 81.4758 26.4827H79.932C79.7586 26.4827 79.6183 26.6231 79.6183 26.7964C79.6188 26.9687 79.7592 27.1091 79.932 27.1091Z" fill="white"/>
<path d="M78.2097 27.1091H79.157C79.3303 27.1091 79.4707 26.9687 79.4707 26.7954C79.4707 26.6221 79.3303 26.4822 79.1575 26.4822H78.2102C78.0369 26.4822 77.8965 26.6226 77.8965 26.7954C77.896 26.9687 78.0364 27.1091 78.2097 27.1091Z" fill="white"/>
<path d="M79.3004 28.5374H82.0378C82.2112 28.5374 82.3511 28.397 82.3511 28.2241C82.3511 28.0508 82.2107 27.9104 82.0373 27.9104H79.2999C79.1266 27.9104 78.9867 28.0508 78.9867 28.2241C78.9867 28.397 79.1271 28.5374 79.3004 28.5374Z" fill="white"/>
<path d="M78.174 28.5372H78.5242C78.6975 28.5372 78.8374 28.3968 78.8374 28.224C78.8374 28.0507 78.697 27.9103 78.5242 27.9103H78.174C78.0006 27.9103 77.8607 28.0507 77.8607 28.224C77.8607 28.3968 78.0011 28.5372 78.174 28.5372Z" fill="white"/>
<path d="M72.7027 14.4302L73.025 14.4231C72.9789 12.2853 73.7863 10.2762 75.2977 8.76428C76.8177 7.24428 78.842 6.43587 80.9885 6.49213L80.9966 6.16979C78.7584 6.11758 76.653 6.95285 75.0696 8.53622C73.4959 10.111 72.655 12.2037 72.7027 14.4302Z" fill="#FBAB41"/>
<path d="M74.8733 14.6912L75.1956 14.6841C75.1601 13.0202 75.7881 11.4561 76.9645 10.2802C78.1474 9.09674 79.7217 8.46776 81.3938 8.51185L81.4019 8.1895C79.6406 8.14489 77.9827 8.80582 76.7364 10.0521C75.4972 11.2914 74.8358 12.9391 74.8733 14.6912Z" fill="#FBAB41"/>
<path d="M76.8906 14.3998L77.213 14.3927C77.1907 13.3501 77.584 12.3699 78.3214 11.633C79.0629 10.8915 80.0487 10.4961 81.0969 10.525L81.105 10.2027C79.9641 10.1738 78.8977 10.6005 78.0933 11.4049C77.2936 12.2052 76.8663 13.2685 76.8906 14.3998Z" fill="#FBAB41"/>
<path d="M80.6216 15.1157C80.9141 15.1157 81.2065 15.0042 81.4291 14.7817C81.8746 14.3362 81.8746 13.6119 81.4291 13.1664C80.9835 12.7209 80.2593 12.7209 79.8138 13.1664C79.3687 13.6114 79.3687 14.3362 79.8138 14.7817C80.0368 15.0042 80.3292 15.1157 80.6216 15.1157ZM80.6216 13.1548C80.8315 13.1548 81.0413 13.2348 81.2015 13.3945C81.5213 13.7143 81.5213 14.2343 81.2015 14.5541C80.8817 14.8739 80.3617 14.8739 80.0418 14.5541C79.722 14.2343 79.722 13.7143 80.0418 13.3945C80.2015 13.2348 80.4113 13.1548 80.6216 13.1548Z" fill="#FBAB41"/>
<path d="M25.2573 8.67872C23.6811 8.67872 22.4033 7.40094 22.4033 5.82471C22.4033 4.24849 23.6811 2.9707 25.2573 2.9707C26.8335 2.9707 28.1113 4.24849 28.1113 5.82471C28.1113 7.40094 26.8335 8.67872 25.2573 8.67872Z" fill="white"/>
<path opacity="0.78" d="M25.2575 8.79374C26.8951 8.79374 28.2271 7.46176 28.2271 5.82417C28.2271 4.18657 26.8951 2.85461 25.2575 2.85461C23.6199 2.85461 22.2879 4.18657 22.2879 5.82417C22.2879 7.46176 23.6199 8.79374 25.2575 8.79374ZM25.2575 3.08622C26.7674 3.08622 27.9954 4.3143 27.9954 5.82417C27.9954 7.33404 26.7668 8.56211 25.2575 8.56211C23.7481 8.56211 22.5195 7.33353 22.5195 5.82417C22.519 4.3148 23.7476 3.08622 25.2575 3.08622Z" fill="#0069F2"/>
<g opacity="0.78">
<path d="M26.5896 6.76107C26.6824 6.53553 26.7285 6.31151 26.7285 6.08799C26.7285 5.8589 26.6773 5.63539 26.5749 5.41745H26.243C26.1674 5.41745 26.1112 5.40478 26.0752 5.37893C26.0392 5.35359 25.9789 5.28314 25.8938 5.16758L25.8142 5.06267C25.727 4.94356 25.6657 4.86297 25.6297 4.82141C25.4391 4.60144 25.1675 4.49602 25.1071 4.18026C25.094 4.11235 25.0899 4.03783 25.0458 3.98411C24.9749 3.89744 24.8284 3.91215 24.7458 3.98817C24.6631 4.0642 24.6312 4.17975 24.614 4.29024C24.5881 4.45597 24.5679 4.65619 24.6211 4.81837C24.6469 4.89744 24.8005 5.04696 24.7904 5.12602C24.7792 5.2132 24.174 5.25527 24.0397 5.33129C23.8715 5.42708 23.7868 5.55126 23.7868 5.70483C23.7868 5.83914 23.839 5.96129 23.9429 6.07127C23.9014 6.13767 23.8806 6.20001 23.8806 6.2588C23.8806 6.40477 23.9571 6.49853 24.1107 6.54009C24.1046 6.57405 24.1021 6.60143 24.1021 6.62272C24.1021 6.7991 24.2045 6.89539 24.4087 6.91262C24.4047 6.93746 24.4031 6.95519 24.4031 6.96634C24.4031 7.06467 24.4376 7.13867 24.5065 7.18784C24.5755 7.237 24.6804 7.26183 24.8203 7.26183H24.9455L25.0448 7.21064C25.1695 7.24459 25.2795 7.26183 25.3742 7.26183C25.4082 7.26183 25.4614 7.25879 25.5334 7.25322C25.7605 7.14881 25.9718 6.9851 26.1669 6.76209H26.5896V6.76107Z" fill="#0069F2"/>
</g>
<path d="M37.2957 5.25805H45.2891C46.4087 5.25805 47.3164 4.35031 47.3164 3.2307V2.71424C47.3164 1.59464 46.4087 0.68689 45.2891 0.68689H37.2957C36.1761 0.68689 35.2684 1.59464 35.2684 2.71424V3.2307C35.2684 4.35031 36.1761 5.25805 37.2957 5.25805Z" fill="#FBAB41"/>
<path d="M45.3916 4.12162L44.3465 7.37298L42.3338 4.04407L45.3916 4.12162Z" fill="#FBAB41"/>
<path d="M41.901 0.626448H44.6384C44.8118 0.626448 44.9517 0.486048 44.9517 0.313216C44.9517 0.139878 44.8113 0 44.6379 0H41.9005C41.7271 0 41.5868 0.140384 41.5868 0.313216C41.5873 0.486048 41.7277 0.626448 41.901 0.626448Z" fill="white"/>
<path d="M40.775 0.626448H41.1252C41.2986 0.626448 41.4385 0.486048 41.4385 0.313216C41.4385 0.139878 41.2981 0 41.1252 0H40.775C40.6017 0 40.4618 0.140384 40.4618 0.313216C40.4618 0.486048 40.6022 0.626448 40.775 0.626448Z" fill="white"/>
<path d="M8.93603 13.4694L8.71453 16.2271L10.4565 14.8474L10.1033 13.7826L8.93603 13.4694Z" fill="#DBAF46"/>
<path d="M15.0405 10.4745L7.03757 12.1663L9.81554 14.5094L15.0405 10.4745Z" fill="#FFFD99"/>
<path d="M15.0405 10.4745L13.0188 16.6797L9.81554 14.5094L15.0405 10.4745Z" fill="#FBAB41"/>
<path d="M13.4912 79.1382C18.3736 79.1382 22.3457 75.1661 22.3457 70.2838C22.3457 65.4014 18.3736 61.4293 13.4912 61.4293C8.60887 61.4293 4.63678 65.4014 4.63678 70.2838C4.63678 75.1661 8.60887 79.1382 13.4912 79.1382ZM13.4912 62.2342C17.9296 62.2342 21.5408 65.8454 21.5408 70.2838C21.5408 74.7221 17.9296 78.3334 13.4912 78.3334C9.05286 78.3334 5.44163 74.7227 5.44163 70.2838C5.44214 65.8454 9.05286 62.2342 13.4912 62.2342Z" fill="#FEAE00"/>
<path d="M77.5024 83.5928C77.5194 83.5391 77.5338 83.485 77.5465 83.4298L83.5654 56.8816C83.567 56.8757 83.568 56.8699 83.5691 56.8641C83.5723 56.8492 83.5733 56.8349 83.576 56.8205C83.5855 56.7722 83.594 56.7239 83.5993 56.6761C83.5999 56.6692 83.602 56.6618 83.6025 56.6549C83.6036 56.6448 83.6025 56.6353 83.6031 56.6252C83.61 56.5482 83.6121 56.4728 83.6089 56.3996C83.6084 56.3927 83.61 56.3852 83.6094 56.3789C83.6094 56.3757 83.6084 56.373 83.6084 56.3698C83.6047 56.3109 83.5983 56.253 83.5887 56.1968C83.5877 56.1925 83.5866 56.1883 83.5855 56.184C83.576 56.132 83.5643 56.0816 83.5494 56.0327C83.5441 56.0147 83.5372 55.9977 83.5314 55.9802C83.5197 55.9457 83.5075 55.9112 83.4932 55.8777C83.4847 55.8581 83.4751 55.8395 83.4661 55.8204C83.4518 55.7907 83.4369 55.7615 83.4204 55.7333C83.4157 55.7254 83.4125 55.7169 83.4077 55.7089C83.4035 55.702 83.3976 55.6967 83.3934 55.6898C83.3536 55.6277 83.31 55.5682 83.2607 55.5146C83.2596 55.5136 83.2591 55.512 83.258 55.5109C83.2511 55.504 83.2431 55.4982 83.2368 55.4907C83.2065 55.4594 83.1747 55.4292 83.1407 55.401C83.1359 55.3968 83.1317 55.392 83.1264 55.3877C83.1141 55.3782 83.1003 55.3697 83.0876 55.3607C83.0653 55.3437 83.0425 55.3272 83.0191 55.3118C83.0117 55.3071 83.0053 55.3012 82.9979 55.297C82.9836 55.2879 82.9676 55.281 82.9528 55.2726C82.9326 55.2614 82.9129 55.2497 82.8922 55.2396C82.8848 55.2359 82.8779 55.2312 82.8699 55.2274C82.8519 55.2189 82.8323 55.212 82.8137 55.2041C82.7951 55.1961 82.7765 55.1882 82.7574 55.1812C82.7516 55.1791 82.7463 55.1759 82.7399 55.1738C82.7155 55.1653 82.6895 55.159 82.664 55.1515C82.647 55.1467 82.6305 55.1409 82.6135 55.1366C82.6098 55.1356 82.6072 55.1345 82.6035 55.1335C82.5674 55.125 82.5302 55.1186 82.493 55.1128C82.4819 55.1112 82.4713 55.108 82.4601 55.1064C82.4591 55.1064 82.4575 55.1059 82.4575 55.1059C82.4044 55.099 82.3502 55.0942 82.295 55.0921L81.719 55.0066H81.718C81.7748 55.0087 81.8305 55.0135 81.8847 55.0209C81.8958 55.0225 81.9064 55.0252 81.9176 55.0273C81.9585 55.0337 81.9993 55.0411 82.0381 55.0512C82.0556 55.0554 82.0715 55.0613 82.0885 55.066C82.1198 55.0751 82.1512 55.0846 82.1814 55.0952C82.2005 55.1021 82.2191 55.1106 82.2377 55.1181C82.2642 55.1292 82.2908 55.1404 82.3163 55.1531C82.337 55.1632 82.3571 55.1749 82.3768 55.186C82.3991 55.1988 82.4214 55.2115 82.4426 55.2253C82.4665 55.2407 82.4888 55.2572 82.5111 55.2741C82.5291 55.2874 82.5472 55.3007 82.5642 55.315C82.5982 55.3432 82.63 55.3734 82.6603 55.4047C82.6682 55.4127 82.6767 55.4201 82.6847 55.4286C82.734 55.4822 82.7776 55.5417 82.8174 55.6043C82.8264 55.6187 82.836 55.633 82.8445 55.6479C82.8609 55.676 82.8758 55.7052 82.8901 55.7349C82.8997 55.754 82.9092 55.7726 82.9177 55.7923C82.9321 55.8252 82.9443 55.8597 82.9559 55.8947C82.9618 55.9122 82.9687 55.9292 82.974 55.9473C82.9889 55.9961 83.0005 56.0471 83.0101 56.0986C83.0106 56.1028 83.0122 56.1071 83.0133 56.1113C83.0228 56.1676 83.0297 56.2254 83.0329 56.2844C83.0335 56.2939 83.0329 56.3045 83.0335 56.3141C83.0366 56.3874 83.0345 56.4627 83.0276 56.5397C83.026 56.5567 83.0255 56.5737 83.0234 56.5907C83.0181 56.6385 83.0096 56.6868 83 56.7351C82.9958 56.7552 82.9936 56.7754 82.9889 56.7961L76.97 83.3443C76.9567 83.4032 76.9403 83.4611 76.9222 83.5184C76.9158 83.5386 76.9079 83.5582 76.901 83.5784C76.8877 83.6161 76.8744 83.6533 76.859 83.6904C76.8506 83.7111 76.8405 83.7318 76.8314 83.7525C76.816 83.787 76.8001 83.821 76.7831 83.8545C76.772 83.8762 76.7603 83.8975 76.7486 83.9187C76.7311 83.95 76.7136 83.9813 76.6945 84.0121C76.6807 84.0344 76.6663 84.0567 76.652 84.079C76.6334 84.1072 76.6143 84.1348 76.5942 84.1624C76.5766 84.1868 76.5586 84.2112 76.54 84.2351C76.5214 84.259 76.5023 84.2823 76.4827 84.3057C76.4577 84.3354 76.4322 84.3646 76.4062 84.3933C76.3882 84.4124 76.3701 84.4315 76.3521 84.4506C76.3059 84.4979 76.2581 84.543 76.2087 84.586C76.1981 84.595 76.1886 84.6046 76.1785 84.6136C76.1525 84.6354 76.1254 84.6555 76.0989 84.6768C76.0755 84.6953 76.0521 84.7145 76.0277 84.732C76.0001 84.7521 75.9709 84.7702 75.9428 84.7888C75.9184 84.8047 75.8945 84.8222 75.8695 84.8371C75.8403 84.8551 75.8101 84.8705 75.7798 84.887C75.7549 84.9008 75.7299 84.9156 75.7039 84.9289C75.6731 84.9448 75.6413 84.9581 75.6094 84.9719C75.5839 84.9831 75.559 84.9958 75.533 85.0064C75.5006 85.0197 75.4671 85.0303 75.4342 85.0415C75.4087 85.0505 75.3833 85.0606 75.3578 85.0685C75.3233 85.0792 75.2877 85.0871 75.2527 85.0956C75.2283 85.102 75.2038 85.1094 75.1794 85.1142C75.1401 85.1222 75.1003 85.1275 75.0605 85.1328C75.0398 85.136 75.0191 85.1402 74.9984 85.1423C74.9379 85.1487 74.8773 85.1524 74.8168 85.1529L33.4736 85.3674C33.4513 85.3674 33.4296 85.3674 33.4078 85.3664L35.975 85.4518C35.9968 85.4524 36.0186 85.4529 36.0409 85.4529L75.3933 85.2384C75.4539 85.2379 75.5144 85.2347 75.5749 85.2278C75.5951 85.2257 75.6147 85.2214 75.6349 85.2182C75.6752 85.2124 75.7156 85.2071 75.7559 85.1991C75.7793 85.1944 75.8021 85.1869 75.8255 85.1816C75.8621 85.1726 75.8982 85.1646 75.9343 85.1535C75.9592 85.146 75.9837 85.136 76.0081 85.1275C76.0421 85.1158 76.076 85.1052 76.1095 85.0914C76.1344 85.0813 76.1588 85.0691 76.1838 85.0579C76.2162 85.0436 76.2486 85.0298 76.2804 85.0139C76.3059 85.0011 76.3303 84.9863 76.3553 84.9725C76.3855 84.956 76.4158 84.9401 76.4455 84.922C76.4705 84.9066 76.4943 84.8896 76.5193 84.8732C76.548 84.8546 76.5766 84.8365 76.6042 84.8164C76.6281 84.7989 76.6509 84.7797 76.6748 84.7617C76.7019 84.741 76.729 84.7203 76.755 84.6985C76.7576 84.6964 76.7603 84.6943 76.763 84.6922C76.7709 84.6853 76.7778 84.6778 76.7853 84.6709C76.8346 84.6274 76.8824 84.5823 76.9286 84.5356C76.9366 84.5276 76.945 84.5207 76.953 84.5122C76.9636 84.501 76.9727 84.4894 76.9833 84.4782C77.0093 84.4501 77.0348 84.4209 77.0592 84.3912C77.0698 84.3784 77.0815 84.3667 77.0921 84.354C77.1006 84.3428 77.1085 84.3312 77.117 84.3206C77.1356 84.2967 77.1537 84.2728 77.1712 84.2478C77.1818 84.233 77.1935 84.2192 77.2036 84.2043C77.2126 84.1916 77.22 84.1778 77.2291 84.1645C77.2434 84.1422 77.2577 84.1199 77.2715 84.0976C77.28 84.0838 77.289 84.0711 77.2975 84.0567C77.3076 84.0397 77.3161 84.0217 77.3257 84.0042C77.3373 83.9829 77.349 83.9617 77.3602 83.9399C77.3655 83.9293 77.3718 83.9192 77.3772 83.9086C77.3883 83.8853 77.3979 83.8614 77.409 83.838C77.418 83.8173 77.4281 83.7971 77.4366 83.7759C77.4393 83.769 77.443 83.7626 77.4457 83.7557C77.4579 83.726 77.4674 83.6947 77.4786 83.6644C77.4855 83.6443 77.4934 83.6246 77.4998 83.6044C77.4998 83.6002 77.5014 83.5965 77.5024 83.5928Z" fill="white"/>
<path d="M81.6515 55.0061C82.615 55.0013 83.2144 55.8035 82.9893 56.7962L76.9704 83.3444C76.7453 84.3387 75.7808 85.1472 74.8173 85.1525L33.474 85.367C32.5105 85.3717 31.9128 84.5712 32.1384 83.5774L38.1573 57.0292C38.3824 56.0371 39.3448 55.2264 40.3088 55.2211L81.6515 55.0061Z" fill="#161F4D"/>
<path d="M79.9766 56.9447C80.8828 56.9399 81.446 57.6943 81.2342 58.6276L75.8115 82.5581C75.5997 83.4929 74.693 84.2531 73.7868 84.2579L34.9126 84.4596C34.0065 84.4644 33.4448 83.7116 33.6566 82.7768L39.0793 58.8463C39.2906 57.913 40.1963 57.1512 41.1024 57.1465L79.9766 56.9447Z" fill="#0069F2"/>
<path d="M65.7271 75.9039H74.1576C74.4162 75.9039 74.6816 75.7021 74.7506 75.4537C74.8196 75.2053 74.6657 75.0035 74.4071 75.0035H65.9766C65.7181 75.0035 65.4526 75.2053 65.3836 75.4537C65.3146 75.7021 65.4686 75.9039 65.7271 75.9039Z" fill="white"/>
<path d="M72.0773 77.2987H73.7187C73.9772 77.2987 74.2426 77.0969 74.3116 76.8485C74.3807 76.6001 74.2267 76.3983 73.9676 76.3983H72.3262C72.0677 76.3983 71.8023 76.6001 71.7333 76.8485C71.6648 77.0969 71.8187 77.2987 72.0773 77.2987Z" fill="#FFD130"/>
<path d="M65.338 77.2987H70.6874C70.9459 77.2987 71.2114 77.0969 71.2804 76.8485C71.3494 76.6001 71.1955 76.3983 70.9364 76.3983H65.5869C65.3284 76.3983 65.063 76.6001 64.994 76.8485C64.9255 77.0969 65.0794 77.2987 65.338 77.2987Z" fill="white"/>
<path d="M68.7682 78.8416H65.0755C64.817 78.8416 64.663 78.6399 64.7321 78.3914C64.8011 78.143 65.0665 77.9413 65.325 77.9413H69.0177C69.2762 77.9413 69.4301 78.143 69.3617 78.3914C69.2926 78.6399 69.0272 78.8416 68.7682 78.8416Z" fill="#FFD130"/>
<path d="M73.292 78.8416H70.1599C69.9014 78.8416 69.7474 78.6399 69.8159 78.3914C69.8849 78.143 70.1503 77.9413 70.4089 77.9413H73.5409C73.7995 77.9413 73.9534 78.143 73.8844 78.3914C73.8164 78.6399 73.5505 78.8416 73.292 78.8416Z" fill="white"/>
<path d="M71.1901 80.507H72.8315C73.09 80.507 73.3554 80.3053 73.4244 80.0569C73.4934 79.8084 73.3395 79.6067 73.081 79.6067H71.4396C71.181 79.6067 70.9156 79.8084 70.8466 80.0569C70.7776 80.3058 70.931 80.507 71.1901 80.507Z" fill="white"/>
<path d="M64.4488 80.507H69.7978C70.0563 80.507 70.3217 80.3053 70.3907 80.0569C70.4598 79.8084 70.3058 79.6067 70.0467 79.6067H64.6973C64.4388 79.6067 64.1733 79.8084 64.1043 80.0569C64.0358 80.3058 64.1898 80.507 64.4488 80.507Z" fill="white"/>
<path d="M68.2281 65.8636H76.6586C76.9171 65.8636 77.1826 65.6619 77.2516 65.4134C77.3206 65.165 77.1667 64.9633 76.9081 64.9633H68.4776C68.219 64.9633 67.9536 65.165 67.8846 65.4134C67.8156 65.6619 67.9695 65.8636 68.2281 65.8636Z" fill="white"/>
<path d="M74.5782 67.2583H76.2196C76.4782 67.2583 76.7436 67.0565 76.8126 66.8081C76.8816 66.5596 76.7277 66.3579 76.4691 66.3579H74.8277C74.5692 66.3579 74.3038 66.5596 74.2348 66.8081C74.1658 67.057 74.3197 67.2583 74.5782 67.2583Z" fill="#FFD130"/>
<path d="M67.838 67.2583H73.1874C73.4459 67.2583 73.7114 67.0565 73.7804 66.8081C73.8494 66.5596 73.6955 66.3579 73.4364 66.3579H68.0869C67.8284 66.3579 67.563 66.5596 67.494 66.8081C67.4255 67.057 67.5794 67.2583 67.838 67.2583Z" fill="white"/>
<path d="M71.269 68.8013H67.5763C67.3178 68.8013 67.1638 68.5996 67.2328 68.3512C67.3019 68.1027 67.5673 67.901 67.8258 67.901H71.5185C71.777 67.901 71.9309 68.1027 71.8619 68.3512C71.7934 68.5996 71.528 68.8013 71.269 68.8013Z" fill="#FFD130"/>
<path d="M75.7929 68.8013H72.6609C72.4023 68.8013 72.2484 68.5996 72.3169 68.3512C72.3859 68.1027 72.6513 67.901 72.9098 67.901H76.0419C76.3004 67.901 76.4544 68.1027 76.3854 68.3512C76.3174 68.5996 76.0515 68.8013 75.7929 68.8013Z" fill="white"/>
<path d="M73.6905 70.4672H75.3319C75.5905 70.4672 75.8559 70.2655 75.9249 70.0171C75.9939 69.7686 75.84 69.5669 75.5815 69.5669H73.94C73.6815 69.5669 73.4161 69.7686 73.3471 70.0171C73.2781 70.2655 73.4315 70.4672 73.6905 70.4672Z" fill="white"/>
<path d="M66.9498 70.4672H72.2987C72.5573 70.4672 72.8227 70.2655 72.8917 70.0171C72.9607 69.7686 72.8068 69.5669 72.5482 69.5669H67.1988C66.9403 69.5669 66.6748 69.7686 66.6058 70.0171C66.5373 70.2655 66.6908 70.4672 66.9498 70.4672Z" fill="white"/>
<path d="M74.668 87.7726H6.79038C6.01692 87.7726 5.39052 87.1457 5.39052 86.3728C5.39052 85.5998 6.01746 84.9729 6.79038 84.9729H74.668C75.4414 84.9729 76.0679 85.5998 76.0679 86.3728C76.0679 87.1457 75.4409 87.7726 74.668 87.7726Z" fill="white"/>
<path d="M72.397 86.7875H74.1069C74.3999 86.7875 74.6372 86.5497 74.6372 86.2567C74.6372 85.9637 74.3999 85.7258 74.1063 85.7258H72.3965C72.1034 85.7258 71.8656 85.9637 71.8656 86.2567C71.8667 86.5497 72.104 86.7875 72.397 86.7875Z" fill="#161F4D"/>
<path d="M68.0337 86.7875H69.7436C70.0366 86.7875 70.2739 86.5497 70.2739 86.2567C70.2739 85.9637 70.0361 85.7258 69.7431 85.7258H68.0332C67.7401 85.7258 67.5023 85.9637 67.5023 86.2567C67.5028 86.5497 67.7407 86.7875 68.0337 86.7875Z" fill="#161F4D"/>
<path d="M66.2655 86.6891C66.0594 86.6891 65.8923 86.5221 65.8923 86.3159C65.8923 86.1098 66.0594 85.9427 66.2655 85.9427C66.4716 85.9427 66.6387 86.1098 66.6387 86.3159C66.6387 86.5221 66.4716 86.6891 66.2655 86.6891Z" fill="#161F4D"/>
<path d="M54.0191 87.7726H6.79078C6.01732 87.7726 5.39091 87.1457 5.39091 86.3728C5.39091 85.5998 6.01785 84.9729 6.79078 84.9729H54.0191C54.7925 84.9729 55.4189 85.5998 55.4189 86.3728C55.4189 87.1457 54.792 87.7726 54.0191 87.7726Z" fill="#23369F"/>
<path d="M22.3661 84.9727V84.9764C22.3661 85.6851 22.9405 86.26 23.6492 86.26H37.2354C37.9441 86.26 38.519 85.6856 38.519 84.9764V84.9727H22.3661Z" fill="black"/>
<path d="M57.3834 85.0858H20.0954C17.8769 85.0858 16.0784 83.2873 16.0784 81.0688V35.7824C16.0784 33.5639 17.8769 31.7654 20.0954 31.7654H56.9513C59.4086 31.7654 61.4004 33.7572 61.4004 36.2145V81.0688C61.3999 83.2878 59.6018 85.0858 57.3834 85.0858Z" fill="white"/>
<path d="M52.7844 38.9841H55.4727V37.0454H47.8214V38.9841H50.5394V47.2533H52.7844V38.9841Z" fill="black"/>
<path d="M20.5025 38.8193H43.5391V39.6395H20.5025V38.8193Z" fill="#D0D3D6"/>
<path d="M20.5025 41.5636H43.5391V42.3838H20.5025V41.5636Z" fill="#D0D3D6"/>
<path d="M20.5025 44.309H43.5391V45.1291H20.5025V44.309Z" fill="#D0D3D6"/>
<path d="M20.5025 47.0533H43.5391V47.8735H20.5025V47.0533Z" fill="#D0D3D6"/>
<path d="M20.5024 49.7979H56.9766V50.618H20.5024V49.7979Z" fill="#D0D3D6"/>
<path d="M20.5024 52.543H56.9766V53.3631H20.5024V52.543Z" fill="#D0D3D6"/>
<path d="M20.5024 55.2877H56.9766V56.1079H20.5024V55.2877Z" fill="#D0D3D6"/>
<path d="M20.5024 58.0325H56.9766V58.8526H20.5024V58.0325Z" fill="#D0D3D6"/>
<path d="M20.5024 60.777H56.9766V61.5972H20.5024V60.777Z" fill="#D0D3D6"/>
<path d="M20.5024 63.5223H56.9766V64.3425H20.5024V63.5223Z" fill="#D0D3D6"/>
<path d="M20.5024 66.2666H56.9766V67.0868H20.5024V66.2666Z" fill="#D0D3D6"/>
<path d="M20.5024 69.0118H56.9766V69.832H20.5024V69.0118Z" fill="#D0D3D6"/>
<path d="M20.5024 71.7563H56.9766V72.5765H20.5024V71.7563Z" fill="#D0D3D6"/>
<path d="M20.5024 74.5015H56.9766V75.3216H20.5024V74.5015Z" fill="#D0D3D6"/>
<path d="M20.5024 77.246H56.9766V78.0661H20.5024V77.246Z" fill="#D0D3D6"/>
<path d="M20.5024 79.9905H56.9766V80.8107H20.5024V79.9905Z" fill="#D0D3D6"/>
<path d="M23.7545 75.5706H24.9219V84.4385H23.7545V75.5706Z" fill="url(#paint0_linear_126_25312)"/>
<path d="M16.8756 84.2283L31.1445 84.2426L31.1435 85.1472L16.8751 85.1329L16.8756 84.2283Z" fill="url(#paint1_linear_126_25312)"/>
<path d="M33.2339 71.18C33.2339 71.18 29.6947 77.9702 23.67 77.0359C16.9737 75.9975 15.7873 71.5983 14.57 67.9667C13.3527 64.3351 10.3624 49.5942 15.2383 48.7937C20.1148 47.9931 22.166 61.306 24.3755 63.7623C26.5854 66.2186 32.5268 63.8191 33.2339 71.18Z" fill="url(#paint2_linear_126_25312)"/>
<g opacity="0.53">
<path opacity="0.55" d="M29.6272 70.2219C26.8933 69.4261 20.8006 69.7329 18.5371 67.8914C16.016 65.881 16.1509 60.4116 15.5961 57.1909C15.3174 55.5723 16.2066 53.356 14.8906 52.4758C14.6777 52.3335 14.4096 52.2253 14.1639 52.324C13.8119 52.4652 13.7094 52.926 13.6691 53.3103C13.2035 57.7308 13.6489 62.2049 14.9665 66.3434C16.5989 71.4704 23.9539 72.2614 28.5384 72.229C29.0544 72.2253 29.6081 72.1929 30.0349 71.8702C30.4617 71.5474 30.648 70.826 30.2653 70.4878C30.1326 70.3705 29.9579 70.3179 29.7886 70.2686C29.735 70.2532 29.6814 70.2378 29.6272 70.2219Z" fill="#C2E1F9"/>
</g>
<path d="M25.8583 44.5251C21.2388 44.1997 25.7776 45.8873 26.6758 51.9232C27.574 57.959 27.8782 59.0106 29.1873 59.8526C30.4969 60.6945 38.5601 60.5862 38.5601 60.5862L39.5396 58.0131C39.5396 58.0131 32.8852 58.406 31.7895 56.7492C30.6939 55.0924 30.4783 44.8505 25.8583 44.5251Z" fill="#F2B897"/>
<path d="M25.8578 44.5251C28.9633 44.7438 30.0786 49.4446 30.8091 53.005C30.8091 53.005 29.8052 55.2118 27.006 53.8783C26.9943 53.873 26.9827 53.865 26.971 53.8592C26.8786 53.2774 26.7815 52.6361 26.6753 51.9232C25.7776 45.8873 21.2382 44.1997 25.8578 44.5251Z" fill="#ED9118"/>
<path d="M27.0654 53.6728C27.0686 53.6744 27.0925 53.6877 27.0962 53.6898C27.987 54.1145 28.7732 54.2085 29.433 53.9696C30.266 53.6681 30.6163 52.9254 30.62 52.9174C30.6487 52.8548 30.7055 52.8171 30.7682 52.8038C30.782 52.8707 30.7958 52.9381 30.8096 53.0045C30.8096 53.0045 29.8057 55.2113 27.0065 53.8778C26.9948 53.8725 26.9831 53.8645 26.9715 53.8586C26.9608 53.7928 26.9502 53.7233 26.9396 53.6558C26.9815 53.65 27.0251 53.6521 27.0654 53.6728Z" fill="white"/>
<path d="M38.1563 59.2973C38.1398 60.4142 39.0316 61.3336 40.1491 61.3501C41.266 61.3665 42.1855 60.4747 42.2019 59.3573C42.2184 58.2403 41.3265 57.3209 40.2091 57.3044C39.0916 57.288 38.1727 58.1798 38.1563 59.2973Z" fill="#F2B897"/>
<path d="M18.9527 64.9218C18.9527 64.9218 22.4548 65.8556 24.3091 65.8832C26.1639 65.9108 28.7715 65.2074 28.7715 65.2074C28.7715 65.2074 28.7402 48.1557 28.6643 47.5023C28.5883 46.8488 27.809 44.4153 24.6297 44.3681C21.4499 44.3208 19.4894 44.2916 19.4894 44.2916L18.9527 64.9218Z" fill="#FBAB41"/>
<path d="M24.3409 35.8813C24.3234 37.0476 25.1818 38.0058 26.2584 38.0217C27.3344 38.0377 28.221 37.1055 28.2385 35.9397C28.256 34.7734 27.3976 33.8152 26.321 33.7993C25.245 33.7828 24.3585 34.7156 24.3409 35.8813Z" fill="#1A2541"/>
<path d="M22.0793 40.2735C20.7601 40.0426 19.9856 38.1718 20.3487 36.0941C20.7118 34.0163 22.0761 32.5193 23.3947 32.7502C24.7139 32.9811 25.4885 34.8518 25.1253 36.9296C24.7622 39.0069 23.3985 40.5039 22.0793 40.2735Z" fill="#1A2541"/>
<path d="M21.4395 33.8608C21.6109 32.8814 23.2837 32.3553 25.1767 32.6865C27.0692 33.0178 28.4648 34.08 28.2934 35.0595C28.1219 36.0389 26.4492 36.565 24.5561 36.2337C22.6636 35.903 21.268 34.8408 21.4395 33.8608Z" fill="#1A2541"/>
<path d="M21.5402 38.7955C21.4749 39.3406 20.9801 39.7292 20.4355 39.6639C19.8908 39.5986 19.5017 39.1039 19.567 38.5592C19.6323 38.0146 20.1271 37.6255 20.6717 37.6907C21.2164 37.756 21.6055 38.2508 21.5402 38.7955Z" fill="#F2B897"/>
<path d="M20.1523 44.3009C20.1523 44.3009 20.9093 46.2556 22.7111 46.2826C24.5128 46.3097 24.7188 44.3705 24.7188 44.3705L24.7368 43.1506L21.1588 40.4071L20.1523 44.3009Z" fill="#F2B897"/>
<path d="M25.1025 44.3977C24.9788 44.386 24.8509 44.3775 24.7187 44.3738C24.715 44.4062 24.4979 46.3098 22.7116 46.2833C20.9098 46.2562 20.1528 44.3016 20.1528 44.3016C19.9925 44.299 19.8609 44.2974 19.7579 44.2958L19.7504 44.325L19.795 44.4402C19.8295 44.5299 20.6688 46.6369 22.7062 46.6671C24.4087 46.6926 25.0176 45.2025 25.1015 44.4115L25.1025 44.3977Z" fill="white"/>
<path opacity="0.5" d="M21.8889 40.9667L21.0857 40.6891L20.5665 42.6979C21.3469 44.1667 24.1196 44.2506 24.7205 44.2512L24.729 43.6699L24.6149 43.0572L21.8889 40.9667Z" fill="black"/>
<path d="M23.9783 43.7699L23.311 43.6902C21.5996 43.4853 20.378 41.9315 20.583 40.22L21.1531 35.4556L27.1343 36.1717L26.458 41.8211C26.312 43.0431 25.2014 43.9158 23.9783 43.7699Z" fill="#F2B897"/>
<path d="M26.9073 36.2831L26.6663 37.8905C26.6679 37.8942 26.6679 37.8985 26.669 37.9022L26.4296 39.9046C26.4232 39.9582 26.4131 40.0108 26.4004 40.0633C26.3829 40.135 26.3653 40.2194 26.369 40.2252C26.1891 40.8543 25.5786 41.28 24.9081 41.1999L23.8788 41.0767C22.4311 40.9037 21.3445 39.7427 21.207 38.3497C21.2144 38.1236 21.2346 37.8974 21.2415 37.6676C21.2553 37.2052 21.2638 36.9652 21.2834 36.746L20.9978 36.7524L20.5997 40.0803C20.3794 41.9208 21.6927 43.5919 23.5337 43.8122C24.9968 43.9874 26.3245 42.9432 26.4996 41.4807L27.0947 36.5082L26.9073 36.2831Z" fill="#1A2541"/>
<path d="M23.3044 41.4045C23.3044 41.4045 24.7202 41.9588 25.5563 41.4725C25.5563 41.4725 25.6338 42.471 24.6092 42.6234C23.1048 42.8718 23.3044 41.4045 23.3044 41.4045Z" fill="white"/>
<path d="M22.2618 35.1944C22.4333 34.2149 23.8443 33.6432 25.4141 33.9176C26.9838 34.1921 28.1172 35.2087 27.9457 36.1881C27.7743 37.1675 26.3633 37.7393 24.7935 37.4648C23.2243 37.1909 22.0904 36.1738 22.2618 35.1944Z" fill="#1A2541"/>
<path d="M22.8944 36.5972C22.8944 36.5972 21.6384 36.2023 21.2466 37.4742C20.8549 38.7461 20.591 36.1301 20.591 36.1301L20.8655 35.0609L23.2973 34.4366L23.6509 36.3212L22.8944 36.5972Z" fill="#1A2541"/>
<path d="M43.9812 54.6363L42.0102 61.1627C42.0001 61.1961 41.9746 61.2227 41.9411 61.2343L36.6389 63.078C36.6156 63.0865 36.5896 63.086 36.5662 63.0775L30.9938 61.0862C30.938 61.0661 30.9078 61.005 30.9269 60.9487L33.0854 54.4107C33.1002 54.3651 33.1432 54.3348 33.191 54.3353L43.8782 54.4946C43.9504 54.4967 44.0019 54.5668 43.9812 54.6363Z" fill="#0069F2"/>
<path d="M45.4098 82.2006L45.9009 84.8474L43.7307 85.1999L43.2206 83.0059L45.4098 82.2006Z" fill="#F2B897"/>
<path d="M47.5307 85.795L43.286 85.7318C43.0843 85.7286 42.9234 85.563 42.9266 85.3613L42.9319 85.0173C42.9346 84.8378 43.0822 84.6945 43.2616 84.6977L46.5131 84.746C47.0838 84.7545 48.3488 85.236 48.3403 85.8067L47.5307 85.795Z" fill="#071023"/>
<path d="M28.0063 63.9576C28.0063 63.9576 21.567 67.4118 23.4739 67.9188C25.3807 68.4258 33.7799 70.4457 39.4113 66.6134C37.5304 69.1807 40.5951 75.5626 43.1087 83.4193L45.7349 83.1056C45.7349 83.1056 45.0288 64.0388 42.9404 61.9562C40.852 59.8742 28.0063 63.9576 28.0063 63.9576Z" fill="#1D2848"/>
<path d="M19.4892 44.2915C19.4892 44.2915 14.3356 45.7169 15.2338 51.7527C16.132 57.7886 16.295 59.3933 18.1657 60.2597C20.0365 61.1261 28.3115 61.5136 28.3115 61.5136L28.8657 58.8954C28.8657 58.8954 21.4316 58.4601 20.3354 56.8033C19.2397 55.146 19.4892 44.2915 19.4892 44.2915Z" fill="#F2B897"/>
<path d="M19.4897 44.2915C19.4897 44.2915 19.3495 50.3831 19.7402 54.1357C19.7402 54.1357 17.7405 56.222 15.6829 54.7351C15.5486 53.8836 15.4047 52.8983 15.2343 51.7522C14.3361 45.7168 19.4897 44.2915 19.4897 44.2915Z" fill="#FBB962"/>
<path d="M19.5895 53.9913C19.6256 53.9541 19.6718 53.9345 19.7201 53.9297C19.727 53.9987 19.7333 54.0682 19.7402 54.1357C19.7402 54.1357 17.7405 56.2219 15.6829 54.735C15.6723 54.6676 15.6617 54.598 15.6505 54.529C15.7031 54.5211 15.7583 54.5322 15.805 54.5657C17.689 55.9268 19.5125 54.0709 19.5895 53.9913Z" fill="white"/>
<path d="M27.4824 60.1795C27.466 61.2969 28.3578 62.2159 29.4753 62.2323C30.5927 62.2488 31.5116 61.3569 31.5281 60.2395C31.5446 59.1225 30.6527 58.2031 29.5353 58.1866C28.4178 58.1697 27.4989 59.062 27.4824 60.1795Z" fill="#F2B897"/>
<path d="M39.3153 82.121L40.0044 84.7795L38.0004 85.1044L37.2991 82.8982L39.3153 82.121Z" fill="#F2B897"/>
<path d="M41.895 85.7106L37.6503 85.6474C37.4486 85.6442 37.2877 85.4786 37.2909 85.2769L37.2962 84.9329C37.2989 84.7535 37.4465 84.6107 37.6253 84.6133L40.8769 84.6616C41.4475 84.6701 42.7126 85.1516 42.7041 85.7223L41.895 85.7106Z" fill="#071023"/>
<path d="M18.8695 63.8219C18.8695 63.8219 17.8773 66.7554 19.7634 68.0735C22.9719 70.3164 30.8239 67.6833 32.1595 66.5701C30.5271 70.6789 35.0978 77.8461 37.4458 83.6951C39.007 83.5013 39.8691 83.3229 39.8691 83.3229C39.8691 83.3229 37.948 63.5586 35.8596 61.4765C33.7706 59.395 18.8695 63.8219 18.8695 63.8219Z" fill="#263762"/>
<path d="M37.1113 58.0843C36.9902 58.5058 37.2355 58.853 37.6591 58.8593C38.0827 58.8657 38.5234 58.5292 38.6444 58.1077C38.7654 57.6862 38.5202 57.339 38.0966 57.3326C37.6729 57.3262 37.2318 57.6628 37.1113 58.0843Z" fill="white"/>
<defs>
<linearGradient id="paint0_linear_126_25312" x1="24.9264" y1="80.0045" x2="23.75" y2="80.0045" gradientUnits="userSpaceOnUse">
<stop stop-color="#13207C"/>
<stop offset="1" stop-color="#004EBA"/>
</linearGradient>
<linearGradient id="paint1_linear_126_25312" x1="31.1445" y1="84.6875" x2="16.8749" y2="84.6875" gradientUnits="userSpaceOnUse">
<stop stop-color="#13207C"/>
<stop offset="1" stop-color="#004EBA"/>
</linearGradient>
<linearGradient id="paint2_linear_126_25312" x1="33.2339" y1="62.9418" x2="12.5432" y2="62.9418" gradientUnits="userSpaceOnUse">
<stop stop-color="#13207C"/>
<stop offset="1" stop-color="#004EBA"/>
</linearGradient>
</defs>
</svg>
