<svg width="28" height="28" viewBox="0 0 28 28" fill="none" xmlns="http://www.w3.org/2000/svg">
<circle cx="14" cy="14" r="14" fill="#9FBDFF"/>
<path d="M11.0376 8.31617L11.6866 9.4791C12.2723 10.5286 12.0372 11.9053 11.1147 12.8278C11.1147 12.8278 11.1147 12.8278 11.1147 12.8278C11.1146 12.8279 9.99588 13.9468 12.0245 15.9755C14.0525 18.0035 15.1714 16.8861 15.1722 16.8853C15.1722 16.8853 15.1722 16.8853 15.1722 16.8853C16.0947 15.9628 17.4714 15.7277 18.5209 16.3134L19.6838 16.9624C21.2686 17.8468 21.4557 20.0692 20.0628 21.4622C19.2258 22.2992 18.2004 22.9505 17.0669 22.9934C15.1588 23.0658 11.9183 22.5829 8.6677 19.3323C5.41713 16.0817 4.93421 12.8412 5.00655 10.9331C5.04952 9.7996 5.7008 8.77423 6.53781 7.93723C7.93076 6.54428 10.1532 6.73144 11.0376 8.31617Z" fill="#005CF4"/>
<g opacity="0.5">
<path d="M14.2595 4.88008C14.3257 4.47119 14.7122 4.19381 15.1211 4.26001C15.1464 4.26485 15.2279 4.28007 15.2705 4.28958C15.3559 4.30858 15.4749 4.33784 15.6233 4.38106C15.9201 4.46751 16.3347 4.60991 16.8323 4.83805C17.8286 5.2948 19.1544 6.09381 20.5302 7.46961C21.906 8.84541 22.705 10.1712 23.1617 11.1675C23.3899 11.6651 23.5323 12.0797 23.6187 12.3765C23.6619 12.5249 23.6912 12.6439 23.7102 12.7293C23.7197 12.7719 23.7267 12.8062 23.7315 12.8315L23.7373 12.8627C23.8034 13.2716 23.5286 13.6741 23.1197 13.7403C22.712 13.8063 22.3279 13.5303 22.2601 13.1233C22.258 13.1124 22.2522 13.083 22.2461 13.0553C22.2337 12.9999 22.2124 12.9121 22.1786 12.796C22.1109 12.5636 21.9934 12.2183 21.7982 11.7926C21.4084 10.9423 20.7074 9.76813 19.4695 8.53027C18.2317 7.2924 17.0575 6.59141 16.2072 6.20158C15.7815 6.00642 15.4362 5.88889 15.2038 5.82122C15.0877 5.78739 14.9417 5.75387 14.8863 5.74154C14.4793 5.67372 14.1935 5.2878 14.2595 4.88008Z" fill="#005CF4"/>
<path fill-rule="evenodd" clip-rule="evenodd" d="M14.4857 8.32954C14.5995 7.93126 15.0146 7.70065 15.4129 7.81444L15.2069 8.53558C15.4129 7.81444 15.4129 7.81444 15.4129 7.81444L15.4144 7.81485L15.4159 7.81529L15.4192 7.81627L15.427 7.81858L15.4468 7.82475C15.4618 7.82957 15.4807 7.83585 15.5031 7.84381C15.548 7.85975 15.6074 7.88242 15.6802 7.91362C15.8259 7.97605 16.0249 8.07248 16.2695 8.21719C16.7589 8.50687 17.4271 8.98805 18.2121 9.77302C18.9971 10.558 19.4782 11.2262 19.7679 11.7156C19.9126 11.9602 20.009 12.1592 20.0715 12.3049C20.1027 12.3777 20.1254 12.4371 20.1413 12.482C20.1493 12.5044 20.1555 12.5233 20.1604 12.5383L20.1665 12.5581L20.1688 12.5659L20.1698 12.5692L20.1702 12.5707C20.1702 12.5707 20.1707 12.5722 19.4495 12.7782L20.1707 12.5722C20.2845 12.9705 20.0538 13.3856 19.6556 13.4994C19.2607 13.6122 18.8492 13.3864 18.7313 12.9944L18.7276 12.9836C18.7223 12.9686 18.7113 12.939 18.6928 12.8958C18.6558 12.8094 18.5887 12.6682 18.4771 12.4796C18.2541 12.1029 17.8514 11.5336 17.1514 10.8337C16.4515 10.1337 15.8822 9.73102 15.5055 9.50805C15.3169 9.39644 15.1757 9.32934 15.0893 9.29234C15.0461 9.27382 15.0165 9.26279 15.0015 9.25746L14.9907 9.25376C14.5987 9.13588 14.3729 8.72443 14.4857 8.32954Z" fill="#005CF4"/>
</g>
</svg>
