<svg width="61" height="61" viewBox="0 0 61 61" fill="none" xmlns="http://www.w3.org/2000/svg">
<path fill-rule="evenodd" clip-rule="evenodd" d="M4.62113 13.4006C5.64248 13.1453 6.67745 13.7663 6.93279 14.7876L7.90362 18.671C9.45358 24.8708 14.3379 29.6776 20.5483 31.1354H40.6668C45.9815 31.1354 50.4549 35.1134 51.0759 40.3917L52.7266 54.4231C52.8496 55.4687 52.1017 56.416 51.0562 56.539C50.0106 56.662 49.0633 55.9141 48.9402 54.8685L47.2895 40.8371C46.8944 37.4788 44.0482 34.9479 40.6668 34.9479H20.1242L19.9199 34.9025C12.2054 33.1882 6.12164 27.2624 4.20496 19.5956L3.23412 15.7123C2.97878 14.6909 3.59977 13.656 4.62113 13.4006Z" fill="#005CF4"/>
<path opacity="0.5" d="M20.3335 34.9479V45.75C20.3335 50.5426 20.3335 52.9389 21.8224 54.4278C23.3112 55.9166 25.7076 55.9166 30.5002 55.9166C35.2928 55.9166 37.6891 55.9166 39.1779 54.4278C40.6668 52.9389 40.6668 50.5426 40.6668 45.75V34.9479H20.3335Z" fill="#005CF4"/>
<circle cx="30.5002" cy="15.25" r="10.1667" fill="#005CF4"/>
</svg>
