<svg width="24" height="24" viewBox="0 0 24 24" fill="none" xmlns="http://www.w3.org/2000/svg">
<circle cx="12" cy="12" r="12" fill="#EDEDED"/>
<path d="M8.25628 8.25628C8.59799 7.91457 9.15201 7.91457 9.49372 8.25628L11.7917 10.5542L14.0896 8.25631C14.4313 7.9146 14.9853 7.9146 15.3271 8.25631C15.6688 8.59801 15.6688 9.15203 15.3271 9.49374L13.0291 11.7917L15.327 14.0896C15.6687 14.4313 15.6687 14.9853 15.327 15.327C14.9853 15.6687 14.4313 15.6687 14.0896 15.327L11.7917 13.0291L9.49374 15.3271C9.15204 15.6688 8.59802 15.6688 8.25631 15.3271C7.9146 14.9853 7.9146 14.4313 8.25631 14.0896L10.5542 11.7917L8.25628 9.49372C7.91457 9.15201 7.91457 8.59799 8.25628 8.25628Z" fill="#1C274C"/>
</svg>
