<svg width="16" height="16" viewBox="0 0 16 16" fill="none" xmlns="http://www.w3.org/2000/svg">
<path opacity="0.5" d="M8.00002 1.33334C5.0545 1.33334 2.66669 4.00173 2.66669 7.00001C2.66669 9.97479 4.3689 13.2083 7.02473 14.4496C7.64385 14.739 8.35619 14.739 8.97531 14.4496C11.6311 13.2083 13.3334 9.97479 13.3334 7.00001C13.3334 4.00173 10.9455 1.33334 8.00002 1.33334Z" fill="#407BFF"/>
<path d="M7.99998 8.33333C8.92045 8.33333 9.66665 7.58714 9.66665 6.66667C9.66665 5.74619 8.92045 5 7.99998 5C7.07951 5 6.33331 5.74619 6.33331 6.66667C6.33331 7.58714 7.07951 8.33333 7.99998 8.33333Z" fill="#005CF4"/>
</svg>
