<svg width="20" height="20" viewBox="0 0 20 20" fill="none" xmlns="http://www.w3.org/2000/svg">
<circle opacity="0.5" cx="10" cy="10" r="10" fill="#E7C200"/>
<path d="M15.1 12.8167L11.0008 5.69781C10.8984 5.5234 10.7521 5.37879 10.5766 5.27831C10.401 5.17783 10.2023 5.12497 10 5.12497C9.79775 5.12497 9.59899 5.17783 9.42345 5.27831C9.24791 5.37879 9.10167 5.5234 8.99923 5.69781L4.90001 12.8167C4.80145 12.9854 4.74951 13.1773 4.74951 13.3727C4.74951 13.568 4.80145 13.7599 4.90001 13.9286C5.00114 14.1041 5.14713 14.2495 5.323 14.3499C5.49887 14.4503 5.69829 14.5021 5.9008 14.5H14.0992C14.3016 14.5019 14.5008 14.45 14.6765 14.3496C14.8522 14.2492 14.998 14.1039 15.0991 13.9286C15.1978 13.76 15.2499 13.5682 15.25 13.3728C15.2502 13.1774 15.1984 12.9855 15.1 12.8167ZM14.4499 13.5531C14.4141 13.6141 14.3628 13.6644 14.3012 13.699C14.2396 13.7336 14.1699 13.7512 14.0992 13.75H5.9008C5.83014 13.7512 5.76044 13.7336 5.69883 13.699C5.63721 13.6644 5.58591 13.6141 5.55017 13.5531C5.5178 13.4983 5.50073 13.4358 5.50073 13.3722C5.50073 13.3085 5.5178 13.2461 5.55017 13.1912L9.64939 6.07234C9.68585 6.01167 9.73738 5.96147 9.79899 5.92662C9.8606 5.89177 9.93017 5.87345 10.001 5.87345C10.0717 5.87345 10.1413 5.89177 10.2029 5.92662C10.2645 5.96147 10.3161 6.01167 10.3525 6.07234L14.4517 13.1912C14.4838 13.2462 14.5006 13.3088 14.5002 13.3724C14.4999 13.4361 14.4825 13.4985 14.4499 13.5531ZM9.62501 10.75V8.875C9.62501 8.77554 9.66452 8.68016 9.73485 8.60984C9.80518 8.53951 9.90056 8.5 10 8.5C10.0995 8.5 10.1949 8.53951 10.2652 8.60984C10.3355 8.68016 10.375 8.77554 10.375 8.875V10.75C10.375 10.8495 10.3355 10.9448 10.2652 11.0152C10.1949 11.0855 10.0995 11.125 10 11.125C9.90056 11.125 9.80518 11.0855 9.73485 11.0152C9.66452 10.9448 9.62501 10.8495 9.62501 10.75ZM10.5625 12.4375C10.5625 12.5488 10.5295 12.6575 10.4677 12.75C10.4059 12.8425 10.3181 12.9146 10.2153 12.9572C10.1125 12.9998 9.99939 13.0109 9.89028 12.9892C9.78116 12.9675 9.68093 12.9139 9.60227 12.8352C9.5236 12.7566 9.47003 12.6564 9.44832 12.5472C9.42662 12.4381 9.43776 12.325 9.48033 12.2222C9.52291 12.1195 9.595 12.0316 9.68751 11.9698C9.78001 11.908 9.88876 11.875 10 11.875C10.1492 11.875 10.2923 11.9343 10.3978 12.0398C10.5033 12.1452 10.5625 12.2883 10.5625 12.4375Z" fill="#C5A800"/>
</svg>
